/* XPM */
static char *_6fcfc0ccfa14ddda5905f2e92494456hwmsPEOhFRidANgr[] = {
/* columns rows colors chars-per-pixel */
"65 65 32 1 ",
"  c #A5A09A",
". c #AAA59E",
"X c #ABA7A0",
"o c #AEAAA3",
"O c #B2ADA6",
"+ c #B4AFA8",
"@ c #B6B1AA",
"# c #B9B4AD",
"$ c #BBB7B1",
"% c #BEBAB3",
"& c #C0BCB5",
"* c #C0BCB6",
"= c #C2BEB9",
"- c #C4BFBA",
"; c #C3C0BA",
": c #C4C0BA",
"> c #C5C2BC",
", c #C7C4BF",
"< c #C8C3BE",
"1 c #C8C5BF",
"2 c #C7C4C0",
"3 c #C8C5C0",
"4 c #CAC8C3",
"5 c #CCC9C3",
"6 c #CBC9C4",
"7 c #CCC9C5",
"8 c #CFCCC7",
"9 c #CECBC8",
"0 c #CFCDC9",
"q c #D1CFCA",
"w c #D1D0CB",
"e c #D1D0CC",
/* pixels */
"+%&=&::::;%:%:>&&31>>o%>3>:=&===&:3&&:%&&$+X&:>,&&%11>>,%#%&=:=>#",
"&,>3:>3>7,%34>:377677#7>>7>=3=>,7,2=6:>4377@7746>,13773>4,,,,464&",
"=:&,>>3743>>33=7730>3@31304>3>,>>16>333:306@7333>3377>4&=,>&3333=",
"&>:>404776374373:1733@7>333=:3&:>,36>43>430$q7,33330>37=,3-&3747=",
"=>>3,107704&:61433647+3:::>=>>6>>>1341:363q+73,76333>>17633:=344>",
"=>==33177317333333670@333,:>>67::641341=>38+4314433>,=,31>>3=331&",
"%>,33304777,377373377+33>=>736;13>333>=%>37@033,6333>333>3:>3>>>%",
"&>:>>-13>413337773;>0#3>&3733,,4,7334=>>3,7+7334646763>>1,3>:>31%",
"&>&>4771>13134746>3=6@>=>8333601233473243>2@6,36277333>>,74>&>:>%",
"%>,>:3677336787336743+737673363>3>844763336$3333,2333%>>,343>3>,=",
"%>3>31:>777,377367072+>3070>36>,:3764q763:1@3,67333333=>>33>3413&",
"%33:3333643>3073363>3@=63764363>>>>:4007431@0364763::>:>4::,>33>%",
"=33:>5:>6777633,>>6>7@:34334331313337833>,6+7436614>,>3::3>3644,$",
">33,>3667734441,3>366@>3>:26>,33,438q6>>=>3@776707>:;===&3>333=,=",
",3>>>:3343376373,63,3@1>=>3>,3,637673q4>>33@79634313:,==>23,>>=,&",
">631::3:,33773>333,33#1>:>,>=23,3,63763>,34+w6334747>>;>333&;3;;%",
",7861:3>>44713333>>14@3=>>>,3233337171333>8@333638833>37>,333>:&%",
">77,3:&>>>7333133,333@,>3373733,>7763,:;3>3+3:3337373>3>:,33=,==&",
"=73=>>33>633673>>3333+133>743:633443,3>;=,>+437137333,:,>:>>:3=3&",
">73>33,>>,3>>=43,,3,3@43>3>63746,>743:&=>31o>47434437>>>:=:3>,66#",
"=0047036437>:;303738qO77333>7773:374q06>333.733034:1443>;>,7=>74%",
"o+@@+++.Oo++.++o++o+o#+++@+++#@o++@++++++++o@Ooo+@@@++++@++O++ooo",
"%8031>577344,>773670=@qq7:1>>4,17773737407=@713:37>6>&>>41>37833%",
"&76,>=3373373>=>3=671+q4>>>=:>>=33::3373,3q@>333373>6,,,73>>,447&",
"17>>>>1376,7>333>3737#77:3>>::;=:3>&7767344#>,63>33333=33>:&>,>3,",
"3067>,1&,3033&3667877@703>343>&,>>>>>73:147@>>33,3:;>33>>>>:%;361",
"363343>=>,6&=14337733@73>7713=%>,633>>=>:37$33>3,3;3,=,>>>&>133>&",
">673>4:%>>33>>3133477#3,>34,34>,3>1>32>>336#73>333>63>:>>:,1>3:3&",
">47744>,3314:33>44377#3;:>>>>2>14>33442==>3+>373>344,>3,:343,>>>%",
",333343:33>>>04714343#3,>>>;>=433>>644>=>34@3>>:&3366,>3743>33,3=",
"1477333>>>646777313>,@3,>,3&,=77333>3&::313@6,33>4777,34033413>3%",
"6e067737&,63763646>37#>>33::>3>3643313>>677+,3133:47346377>7333,&",
"=4673,33=33>3,7730676@33,,=:>7737443>>3,374+:,>33333341460>43734&",
"&3433331=:>4613733077+63333>=36>3431>>733>>@:333:3671>>833363643%",
",741134>==33767317>37+073>>>1=3,33>337333&&@3:,4343>3&33331>4>76&",
"=3733343>>34>,7,143:,@qq63>33673:2:>7341:->+366,,41,,33,6,4,6333=",
"=47>4363>176333>>33>6%736>,>:3333376,43,&11@344>>333>,3,33=,>7:4;",
":061773,;3,1,41<>>>68#76743433>331,466>=,,1@31473,3>>>;36,=>3>=>&",
",731>46>>6>333,43>333#3733,4337343,3,36,33>@73433,:3>>,3>:3:33,3%",
"%4700>=433,731:703,,3#774630707636>133363>3@3334=3303336>3411777&",
">833634363,,3>13=3343O77>337737166773>77453+>3:>>>;7246>&43,>777%",
"3763>7>3>637,333,>34q#7733>14336307,3463137@7333>6&3333:>6>:>3633",
"@34,333>>:7>3,33>1371.>770q34748773>-3:773:.1333103234333>:>;>3,#",
"@O@ooXo+++o+$%o.++O+.oX@@+@++o++@#+OO+@oO+.+o##+@+##@+XoOo+++O@+X",
"=6777>37e743>=3>3>>74O8837705>3377740q>4334@633333777643>>331370>",
",373>3:3>>3>33>:1,136#733>33,&=3>,737434367#7>336377>3>=>:>>3313>",
">,7303>>333376>>==33>o33:>>>7>;333>>3403766@6,374763,3==>:33:&&3>",
">>>76>=>74373343;=>>>+3:>3>&,33>>;>44707,64+133,:66>,=>3,:44>347&",
">q703:&>333360>>>=,>4@3,,43>>>3,:3636373133@3>>=37>>>=:>3&>3>>33&",
";4,>6>&1>>360>373:333@,>333>3733>4333736331@,>>373:==&>>,>>3>%33&",
"=6>&>:=3>43>34633->,6#>3>73,3>3>34643346433#>>>,,>::%>3>>33>&>31&",
"=>>=:>3>>33>3>333&377@37433>,43;671733673>1@3473,:==&=,33>=4>>33;",
"=1=&>>3>,>=,>>5477633@>17733>36>7331=747>73@3>36>&>>=3,333>33>34,",
"=>>>3=1>>>==:,3>63233+1:133>>:33>:343463334+3>4,>>:3>=>443>>3733&",
"=,,::3,=>>>>,,5536,33#1336>>3377>3436336337@3>7>%&>2>76,63:333>=:",
"%3,:>&>:>>&>343378737#>>>,73:4386::703467:1+7>=,=>>:337>34=3>,3>:",
"=>::,=,>>>=>>>63303;2#33>33467773>,134334>,+:3>>>31:3033333336,>>",
">33=&:3>:,>:3373363,>+7,43334777747337;63>3+31>>>&>378733337333>%",
">6,&>33,,:1337,3>3>>6@q243>3363377377>,6337+443>>;34633>311>->33&",
"-173,1>,33>>3:,7>1:>6+7>34333>074437>,63033+334,3>,7>4>6>>&34::3,",
"&7343:17333:>:,3=::34+3133,>>76794>>:367q,3+7,>>:>&3>,3>333,:313:",
"&7,33>63=>>:>3>,,32,>+7,>3>=>333,83373>7377@3333%>=3>33:,>3>=3,>&",
">07303333%,>,>,6,73=>+>3>:33::3733361343337@633>>:>6>:3>33>313>7>",
"=40346,>>61>,4,07,,=7@7>=333>3304336037337q+343,>>>672334>,>4433&",
"@>%,:=:=&%=&&>4&,==&$ %&=&=&%&=1>&&>6>,,:>#o%$%>;%&&>>>::->=:=::#"
};
