/* XPM */
static char *result[] = {
/* columns rows colors chars-per-pixel */
"65 65 173 2 ",
"   c #010701",
".  c #000900",
"X  c #07090A",
"o  c #0B0D0D",
"O  c #001302",
"+  c #05150B",
"@  c #0D0F11",
"#  c #0F1112",
"$  c #0C1C13",
"%  c #111315",
"&  c #15161B",
"*  c #16181C",
"=  c #1A1B1E",
"-  c #0F201A",
";  c #0C2311",
":  c #13221C",
">  c #162A1B",
",  c #182C1E",
"<  c #171821",
"1  c #1C1C23",
"2  c #1C1F2B",
"3  c #291A29",
"4  c #152422",
"5  c #1C2325",
"6  c #1A2925",
"7  c #1E202C",
"8  c #1D2C2A",
"9  c #1E3225",
"0  c #232326",
"q  c #24242C",
"w  c #28272D",
"e  c #202E2C",
"r  c #2A292D",
"t  c #22362B",
"y  c #24392D",
"u  c #252632",
"i  c #282733",
"p  c #272834",
"a  c #2C2C34",
"s  c #262738",
"d  c #2D2E3A",
"f  c #312633",
"g  c #302F36",
"h  c #312E3A",
"j  c #3B2C3B",
"k  c #2D3435",
"l  c #273B31",
"z  c #2B3E35",
"x  c #2E313D",
"c  c #2C3B3B",
"v  c #323136",
"b  c #34333C",
"n  c #39353E",
"m  c #3B3A3E",
"M  c #652A1B",
"N  c #2E4138",
"B  c #32433F",
"V  c #343441",
"C  c #383743",
"Z  c #373843",
"A  c #3C3C43",
"S  c #3C3C4A",
"D  c #403F44",
"F  c #403E4A",
"G  c #6B016B",
"H  c #6C0A6F",
"J  c #710373",
"K  c #760778",
"L  c #374444",
"P  c #3A4C46",
"I  c #3F424C",
"U  c #3E4C4C",
"Y  c #374A43",
"T  c #3A686F",
"R  c #424145",
"E  c #44434B",
"W  c #48474E",
"Q  c #434C4F",
"!  c #49494F",
"~  c #474652",
"^  c #494651",
"/  c #444C51",
"(  c #4B4B52",
")  c #4B4759",
"_  c #4D4D59",
"`  c #454D5E",
"'  c #514E55",
"]  c #514F5A",
"[  c #4E5056",
"{  c #4B5957",
"}  c #4E5159",
"|  c #4D5B5A",
" . c #475255",
".. c #525156",
"X. c #53545C",
"o. c #59565D",
"O. c #535B5E",
"+. c #5B595C",
"@. c #635353",
"#. c #665857",
"$. c #675859",
"%. c #52605F",
"&. c #495262",
"*. c #44566A",
"=. c #415266",
"-. c #555661",
";. c #585762",
":. c #575862",
">. c #5C5A64",
",. c #595669",
"<. c #5E5D6A",
"1. c #575468",
"2. c #5F5C70",
"3. c #615E65",
"4. c #615F6A",
"5. c #625F72",
"6. c #566265",
"7. c #5D686F",
"8. c #5F6972",
"9. c #636066",
"0. c #64626B",
"q. c #69666D",
"w. c #6F6A6F",
"e. c #656373",
"r. c #696674",
"t. c #626E74",
"y. c #6C6975",
"u. c #676378",
"i. c #696679",
"p. c #676F7A",
"a. c #6C6A7B",
"s. c #716F7E",
"d. c #657077",
"f. c #657079",
"g. c #6B757E",
"h. c #75717C",
"j. c #DF3F00",
"k. c #E13C00",
"l. c #88472F",
"z. c #F44901",
"x. c #E65308",
"c. c #F76518",
"v. c #F37F3C",
"b. c #8A5242",
"n. c #F2803E",
"m. c #F38543",
"M. c #FFAD66",
"N. c #FFAE68",
"B. c #FFB46E",
"V. c #FFB470",
"C. c #6F6C81",
"Z. c #736F83",
"A. c #6E7881",
"S. c #747282",
"D. c #767689",
"F. c #7B798C",
"G. c #7B7887",
"H. c #7F7E91",
"J. c #BC00BD",
"K. c #BE00C0",
"L. c #C101C3",
"P. c #D201D5",
"I. c #E300E6",
"U. c #E500E9",
"Y. c #E800EB",
"T. c #EF00F2",
"R. c #F000F3",
"E. c #F700FA",
"W. c #48AFAE",
"Q. c #4FDED7",
"!. c #51D6D2",
"~. c #55EDE9",
"^. c #818096",
/* pixels */
"I.I.I.I.I.I.I.I.I.I.I.I.I.I.I.I.I.I.I.I.I.I.I.I.I.I.I.I.I.I.I.I.I.I.I.I.I.I.I.I.I.I.I.I.I.I.I.I.I.I.I.I.I.I.I.I.I.I.I.I.I.I.I.I.I.",
"I.I.I.I.I.I.I.I.I.I.I.I.I.I.I.I.I.I.I.I.I.I.I.I.I.I.I.I.I.I.I.I.I.I.I.I.I.I.I.I.I.I.I.I.I.I.I.I.I.I.I.I.I.I.I.I.I.I.I.I.I.I.I.I.I.",
"I.I.I.I.I.I.I.I.I.I.I.I.I.I.I.I.I.I.I.I.I.I.I.I.I.I.I.I.I.I.I.I.I.I.I.I.I.I.I.I.I.I.I.I.I.I.I.I.I.I.I.I.I.I.I.I.I.I.I.I.I.I.I.I.I.",
"I.I.I.I.I.I.I.I.I.I.I.I.I.I.I.I.I.I.I.I.I.I.I.I.I.I.I.I.I.I.I.U.I.I.I.I.I.I.I.I.I.I.I.I.I.I.I.I.I.I.I.I.I.I.I.I.I.I.I.I.I.I.I.I.I.",
"I.I.I.I.I.U.Y.Y.Y.U.Y.Y.Y.Y.Y.Y.Y.Y.Y.Y.Y.Y.Y.Y.Y.Y.U.U.Y.Y.U.Y.Y.U.Y.U.Y.U.Y.Y.U.U.Y.Y.Y.Y.Y.Y.Y.Y.Y.Y.Y.Y.Y.U.Y.Y.U.I.I.I.I.I.I.",
"I.I.I.I.U.P.K.L.K.K.K.K.K.K.K.K.L.J.J.J.J.J.K.J.J.J.J.J.J.J.J.J.J.J.J.J.J.J.J.J.J.J.J.K.K.J.J.K.L.K.J.K.K.K.K.K.J.L.L.P.U.I.I.I.I.",
"I.I.I.I.R.H . . 9 9 9 9 9 9 9 > . B N N z l y l Y P P P P P P P P P P P P P P P Y P z t t y t 9 . 9 > 6 , > > , , ; . H T.I.I.I.I.",
"I.I.I.I.R.J : w <.u.2.8.u.e.e.e.* >.:.o.>.:.O.o.O.[ [ X.[ [ [ [ ( [ ( [ _ { ( [ ..} X.<.<.>.;.i.= a.7.4.i.i.Z.a.i.<.L J R.I.I.I.I.",
"I.I.I.I.R.J e &.[ } } } X.{ ( u.q -.X.o.o.X.o.-.o.o.&.*.` ` &.&.&.&.&.&.=.*.&._ X...X.o.o.X._ Z.p o.[ [ [ X.X.X.] ( A.J T.I.I.I.I.",
"I.I.I.I.R.J e -.} X.X.} X.X.[ u.w :.W Z E A ..V E P M z.B.M.M.M.N.N.N.V.c.z.l.I A ' R A V ( { a.p >.} X.X.X.-.:.X.} g.J T.I.I.I.I.",
"I.I.U.I.R.J 8 } X.X.X.X.X.-.[ i.u >.o.-.X.X.o.} X._ l.j.m.v.n.m.n.v.m.m.x.j.b.&.X.>.o.-.-.o.} i.i >.-.-.X.-.X.-.-.} g.J T.I.I.I.I.",
"I.I.U.U.Y.J 8 } -.-.-.X.<.) ( C.u <.-.:.:.o.-.o.-.-.$.@.@.@.@.@.@.@.@.@.#.$.>.-.X.o.:.-.:.X.X.e.r :.X.E :.X.-.o.-.} g.J T.I.I.I.I.",
"I.I.I.I.T.J 8 _ } -.X.:.~ C s V p b V V V V b Z V b Z V V V V V V V V V V V V V V b V V V b x Z p d d s A ;.-.-.-.X.A.J T.I.I.I.I.",
"I.I.I.I.T.J 8 -.-.X.-.I p d q & X & % # # # $ # # # # # @ # # o # # # # @ + X @ @ o o @ @ o o o X X 1 b s V >.-.X.} A.J T.I.I.I.I.",
"I.I.I.I.T.J 8 ,.:.-.:.Z s 3 @ & = = * 1 1 < 1 < * * * & X % & % % * * % # & * * & * * & * * * < * @ X u d d 0.-.-.} g.K T.I.I.I.I.",
"I.I.I.I.T.J 6 b / E E ~ 7 X < p p p d i d s p p q 7 q p % i q w 7 q q q % 7 7 q q p w u q p u q w 5 & X 2 d V ( ^ S L J R.I.I.I.I.",
"I.I.I.I.T.K . E ) ) ) d   & w w w 0 q 0 0 w 0 = E ^ S ] & ( A ] q F E F & F E ] R a r g g g a g w w w % X V _ ) ) &.$ J R.I.I.I.I.",
"I.I.I.I.R.J 6 } :.-.:.e.1 1 i R W W ! ! ! Q W a 0 >.>.y.1 3...r.a $...' % o.;.4.w m n A m A A m b b w 2 X ) X.} ;.;.6.J R.U.I.I.I.",
"I.I.I.I.R.J 6 } X.} ( 7.5 1 i W W ! ! ( ! ! ! A 5 +.>.a.* 3.X.4.g ;...;.& ' ;.r.r ( ( ( ( ( ( W R m w 1 @ V :.X.-._ t.J T.I.I.I.I.",
"I.I.I.I.R.J 6 S S X.( 1.= 0 g W W ! ! ! ! ! ! A 3 0.>.a.< 4...r.g >.] 3.& X.3.u.i ! ( ! ! ! ! ! R D w 2 @ V :.} S _ 6.J T.I.I.I.I.",
"I.I.I.I.R.J 6 S -.} _ 1.1 0 k E ! ( ( ! ( ! [ L 0 4.>.Z.= 9.X.0.g >...>.& X.3.a.a W ! ( ( Q ( Q E D w 1 # V -.} ) [ O.J R.I.I.I.I.",
"I.I.I.I.R.J 6 _ :.} _ 2.3 w r W ( ! ! ( ! ( ! D w 4.3.S.1 <...r.d +.X.4.& o.3.a.g ! ( ! ! ! ! ! R D w 5 % V -.X.:.( O.G R.U.I.I.I.",
"I.I.I.I.T.J 6 } X.} _ e.: w g W ! ( ( ! ! ! ( D 0 0.<.S.1 <...e.g >.X.4.* X.0.a.g W ( ! ! ( ! ! R R 0 5 @ b -.o.X._ %.G R.I.I.I.I.",
"I.I.I.I.T.J 8 -.X.} _ e.= i a ! ! ( ! ( ! ! ! D w 0.3.S.= 3...r.a >.X.4.* o.9.a.a Q ( ! ( ! ! ! ! R r 0 % V ;.-.X.[ t.G R.I.I.I.I.",
"I.I.I.I.T.J 8 X.-.X.} u.1 i r W [ ! ! ! ! ( ( D q q.>.s.0 3...r.g >.X.4.* o.4.a.a ! ! ! ( ! ! ! R m 0 2 # V :.-.X.} d.G T.I.I.I.I.",
"I.I.I.I.T.J 8 -.&.X._ u.= w ^ n ! ! ! ( ! ( ! L 0 q.3.S.1 >...r.v >.X.9.* o.9.a.a ( ( ( ( ( ! ! W d S < # V >.-.-.} d.G R.I.I.I.I.",
"I.I.I.I.T.J 6 X.X.X.[ u.= q ( s.b ( ! [ ( ! ( A 0 4.3.S.1 3.[ r.a >.X.4.< o.0.a.d ! ( ! ( ( ( [ v X.F 1 # V :.X.O.} f.G R.I.I.I.I.",
"I.I.I.I.T.J 8 X.-.} _ u.= q W >.r.r ..! ! ! ( A 1 q.0.h.1 >...y.g +...4.1 o.0.C.r ..! ! ! ! [ b w...A 2 # V :.-.X.} f.G R.I.I.I.I.",
"I.I.I.I.T.J 8 _ } -._ u.= q ' +.>.W.3 X.' ' _ w E w.$.G.q o...e.d -.X._ 0 >.9.<.a.w ( _ _ ( 1 F.>.#.m 1 # V &.X.o.} p.G R.I.I.I.I.",
"I.I.I.I.T.J 8 } X.O._ u.1 o n 3.$.$.Z.& 3 q 5 a.a.4.h.g 5 o...y.a +...( 1 E y.0.6.F.< 1 0 r D.<.9.' * 2 # V X.X.} } p.G R.I.I.I.I.",
"I.I.I.I.T.J 8 X.} -.[ 5.= * % v $.$.5.H.D.D.h.a.3.s.b % W X...y.a +.X.X.n % R q.>.&.F.F.F.D.>.q.9.% w 2 # V X.X.} _ f.G R.I.I.I.I.",
"I.I.I.I.T.J 6 ,.} X.[ 8.= 5 r * F u.4.1.0.9.9.>.a.D w ( _ X.' r.d o...' _ k & E q.9.>.9.9.>.q.y.* v r 2 # V >.} } [ p.G R.I.I.I.I.",
"I.I.I.I.T.J 6 e.-.:.-.5.: 0 v v o _ r.>.<.0.9.<.] w ] >.' X.X.3.a +.o.X.X.( r 3 o.0.>.<.6.3.a.i r m w 5 # C ,.>.-.} t.G R.U.I.I.I.",
"I.I.I.I.T.J 4 u d d s h # w v m = q r.>.>.>.1.<.>.Z R q q w q m w b r i g n m 5 ( q.1.:.>.;.e.V R D 0 2 @ a i h h k 4 J R.U.I.I.I.",
"I.I.I.I.R.K . 5.e.5.i.q   w v R 1 w q.>.>.6.>.9.>.n ^ X.' ' X.X.[ X.] ] ] ..A 1 _ 9.-.>.,.>.y.A D D 0 2 X 2 5.2.<.2.` K T.I.I.I.I.",
"I.I.I.I.T.J 6 V n C b ,.* 0 v R = i a.E g b 0.0.>.n W ' ( ( ( ( ( ( ! ( ! ( L = _ 0.0.b k _ h.A m m w 2 @ V V C C C B K T.I.I.I.I.",
"I.I.I.I.T.J 6 5 q q 1 -.* q v D = r h.E R b r.0.>.n W ( ( ( W W W ! ( ! ( ( D 1 ' 0.y.g n v h.C D m 0 7 # V 2 0 3 q + J R.I.I.I.I.",
"I.I.I.I.T.J 8 u < 1 < 1.& q v R = i h.E D b q.0.;.b E ( ( ( ( ' ' ( ( ( ( ' D 1 _ q.y.d n n h.A R m 0 5 @ S 2 1 < 2 > J R.I.I.I.I.",
"I.I.I.I.R.J q 1 < d % 1.& q v D 1 u s.W D v q.0.<.b W ! ' ( ( ( ( ( ! ! ( ( D 1 ' 0.y.k n b h.A D m 0 5 # S < 1 x * / J R.I.I.I.I.",
"I.I.I.I.R.J 8 2 2 S < 1.& w v D = w s.E b d w.0.>.b E ( ( ( ( ' ' ( ( _ ( ' D = ' 0.s.r a k s.S D m r 0 @ S 1 u V < ! G R.I.I.I.I.",
"I.I.I.I.T.J 8 7 2 V % 1.& 2 v D 1 w y.a.a.e.>.3.<.b R n Z A D n n Z n A Z n A 1 _ 0.e.Z.S.-.r.V R m 0 2 @ S 1 1 7 < U J R.I.I.I.I.",
"I.I.I.I.T.J t 2 7 V < 1.< 7 v D % E :.<.<.4.<.4.<.Z e.-.X.] &.;.g 4.;.<.<.<.( & ' 9.1.3.4.4.<.-.b A w 2 @ S 1 u d 2 U J R.U.I.I.I.",
"I.I.I.I.R.J e 1 u C < 1.& q n w D ;.>.>.1.>.<.>.i._ n X.o.X.X.r.d o.X.X.[ ( a ^ o.<.>.>.;.;.>.C.Z v 0 2 @ S 1 d V 1 U J T.I.I.I.I.",
"I.I.I.I.R.J e 2 s u < ,.< 2 = W >.;.4.4.>.>.<.9.>.C.E D X.>.+.0.b ;.o.o.n a W <.:.4.4.6.7.0.>.<.0.( s 2 @ S < s 2 1 U J R.I.I.I.I.",
"I.I.I.I.R.J e 0 < 1 1 -.% = n _ >.4.;.b b v n ~ 0.>.S.r ( 3.+.a.b +.O.X.r ] r.9.r.A A Z b A q.q.>.] w 2 @ S < 1 < 1 U J R.I.I.I.I.",
"I.I.I.I.R.J $ u u q 5 q X d W ' 3.D * = = 5 = 1 W q.3.F.3 >.+.i.A >.o.:.g r.>.0.E = 1 5 w * w X.3.W E < o w s w u 0 4 J R.I.I.I.I.",
"I.I.I.I.T.J $ b b b n b o p R $.b 1 A E R R R r * 3.>.C.= X.+.y.m +.o.0.a X.3.e.* E R R D R 1 = 3.^ C 1 o s b V b V c K R.I.I.I.I.",
"I.I.I.I.R.J : _ -.:._ u.= p ' g 0 W ( ( ( ! ! R 5 >.9.q.1 >.o.e.n >.o.e.a >.>.a.i ( ( ( ! ! R r 3 ( C 2 @ d -.-.:.S 8.K T.I.I.I.I.",
"I.I.I.I.T.J 4 Z :.-.C ~ * s w r E ! ! ( ( Q Q D 3 3.3.y.0 3.o.y.m >.X.r.i >.>.a.i W Q ( ! ! ( R w % A 2 % s ) -.-.h U J T.I.I.I.I.",
"I.I.I.I.T.K 4 V j j h I o i w W ! ( ( ! ( ! ( R 5 >.9.a.q >.o.r.n +.o.r.r o.>.y.i ! W ! ( ! ! W m 5 b 3 % d V j j C B J R.I.I.I.I.",
"I.I.I.I.R.J 4 3 !.Q.T ) % u r E ( ! ! ( ! ( W A 0 >.3.y.0 >.X.u.m >.X.y.r X.>.y.a ! ! ( W ( ( Q Q 3 k 7 # C i ~.W.f :.J R.I.I.I.I.",
"I.I.I.I.T.J 6 V 3 V f 5.= r i R ( ! ! ! ( ! ( R 3 >.3.h.1 +.+.y.m o.o.r.w ' 3.p.a ( ! W ( ( ( ! ! 1 V 7 # S i f V h | J R.I.I.I.I.",
"I.I.I.I.R.J 4 V E -.b 5.* q a R ( ( W ! ( ! ! R 0 >.3.S.1 >.o.y.n +.o.r.w _ 9.y.g ! ! ( ! ( ! ! ! 0 C 2 # S i X.( V | J R.I.I.I.I.",
"I.I.I.I.R.J 4 V _ X.n 5.= q a E ( ( ( ( ( ( ! W 5 o.+.s.1 >.o.y.n O...e.w _ >.y.a ! ! ( ( ( ( ! ! 0 b u # F i ;.~ h { J R.I.I.I.I.",
"I.I.I.I.R.J 6 V E ( k 2.* q w n A A A A A A Z i b o.>.a.1 >.+.a.c o.o.0.w _ >.r.S b A A F A A A A 5 n 5 # S 7 ( S b | J R.I.I.I.I.",
"I.I.I.I.R.J 4 S d s b e.* p } ~ ~ ~ A S E W E ^ 0.<.+.y.1 >.+.y.r o.o.e.0 ..>.:.S.W ^ ^ ~ ^ ~ ^ A ' v 2 # S i i q A { J R.I.I.I.I.",
"I.I.I.I.T.J 4 X.>.-.-.2.& 0 n X.X.X.X.>.;.o.o.;.' ] ..^ * ' ! -.0 ....X.1 E o.] X.>.>.o.o.>.<.+.X.' = 2 @ F -.-.-.X.{ J R.U.I.I.I.",
"I.I.I.I.T.J 8 k d d k V $ 2 i s d d d d d h d d x b d x % d d d 1 x d x = d x d s d b x x d d d d d k 1 # V d k s d c J R.U.I.I.I.",
"I.I.I.I.T.G O O O O O O . . . . .     .   . . . .   . . .     . . . .   . .     . .     . . . .     . . . O O . O O O G R.I.I.I.I.",
"I.I.I.I.I.T.E.E.E.E.E.E.E.E.E.E.E.E.E.E.E.E.E.E.E.E.E.E.E.E.E.E.E.E.E.E.E.E.E.E.E.E.E.E.E.E.E.E.E.E.E.E.E.E.E.E.E.E.E.Y.I.I.I.I.I.",
"I.I.I.I.I.I.I.I.I.I.I.I.U.I.I.I.I.I.I.I.I.I.I.I.U.I.I.I.I.I.I.I.I.I.I.I.I.I.I.I.I.I.I.I.I.I.I.I.I.I.I.I.I.I.I.I.I.I.I.I.I.I.I.I.I.",
"I.I.I.I.I.I.I.I.I.I.I.I.I.I.I.I.I.I.I.I.I.I.I.I.I.I.I.I.I.I.I.I.I.I.I.I.I.I.I.I.I.I.I.I.I.I.I.I.I.I.I.I.I.I.I.I.I.I.I.I.I.I.I.I.I.",
"I.I.I.I.I.I.I.I.I.I.I.I.I.I.I.I.I.I.I.I.I.I.I.I.I.I.I.I.I.I.I.I.I.I.I.I.I.I.I.I.I.I.I.I.I.I.I.I.I.I.I.I.I.I.I.I.I.I.I.I.I.I.I.I.I.",
"I.I.I.I.I.I.I.I.I.I.I.I.I.I.I.I.I.I.I.I.I.I.I.I.I.I.I.I.I.I.I.I.I.I.I.I.I.I.I.I.I.I.I.I.I.I.I.I.I.I.I.I.I.I.I.I.I.I.I.I.I.I.I.I.I.",
"I.I.I.I.I.I.I.I.I.I.I.I.I.I.I.I.I.I.I.I.I.I.I.I.I.I.I.I.I.I.I.I.I.I.I.I.I.I.I.I.I.I.I.I.I.I.I.I.I.I.I.I.I.I.I.I.I.I.I.I.I.I.I.I.I."
};
