/* XPM */
static char *result[] = {
/* columns rows colors chars-per-pixel */
"65 65 201 2 ",
"   c #020402",
".  c #020B03",
"X  c #070909",
"o  c #0A0C0D",
"O  c #001201",
"+  c #001B04",
"@  c #05150B",
"#  c #09140E",
"$  c #031C0B",
"%  c #0D0E11",
"&  c #0E1113",
"*  c #0D1F16",
"=  c #111316",
"-  c #14141A",
";  c #17181F",
":  c #1A1A1E",
">  c #04210E",
",  c #14261C",
"<  c #132819",
"1  c #132919",
"2  c #171A22",
"3  c #1C1C24",
"4  c #1D1E29",
"5  c #290428",
"6  c #201F26",
"7  c #330C34",
"8  c #38143C",
"9  c #192623",
"0  c #1E2125",
"q  c #1F2129",
"w  c #1D2D2A",
"e  c #1A3123",
"r  c #212126",
"t  c #23232B",
"y  c #26282C",
"u  c #2B2A2D",
"i  c #23352C",
"p  c #263B2A",
"a  c #242532",
"s  c #292732",
"d  c #272931",
"f  c #2B2B34",
"g  c #272A38",
"h  c #2C2C3A",
"j  c #302F35",
"k  c #312E3B",
"l  c #2B3332",
"z  c #2D3639",
"x  c #313136",
"c  c #33333C",
"v  c #38373D",
"b  c #353A3F",
"n  c #3A3A3D",
"m  c #7B3C2C",
"M  c #324336",
"N  c #38493C",
"B  c #FF00FF",
"V  c #2F3041",
"C  c #353541",
"Z  c #383643",
"A  c #333942",
"S  c #3B3B43",
"D  c #313D49",
"F  c #3D3C4A",
"G  c #FF00FF",
"H  c #FF00FF",
"J  c #FF00FF",
"K  c #FF00FF",
"L  c #FF00FF",
"P  c #FF00FF",
"I  c #FF00FF",
"U  c #FF00FF",
"Y  c #403F45",
"T  c #413F4C",
"R  c #FF00FF",
"E  c #FF00FF",
"W  c #FF00FF",
"Q  c #FF00FF",
"!  c #FF00FF",
"~  c #FF00FF",
"^  c #FF00FF",
"/  c #FF00FF",
"(  c #FF00FF",
")  c #FF00FF",
"_  c #FF00FF",
"`  c #344A4F",
"'  c #3D495D",
"]  c #395661",
"[  c #31676D",
"{  c #434146",
"}  c #45444C",
"|  c #48454C",
" . c #46494E",
".. c #49494F",
"X. c #455745",
"o. c #45564A",
"O. c #465849",
"+. c #464551",
"@. c #484652",
"#. c #444952",
"$. c #4A4A51",
"%. c #4E4D5A",
"&. c #504D56",
"*. c #514E5A",
"=. c #4D5156",
"-. c #47525D",
";. c #4D535A",
":. c #4F585D",
">. c #525156",
",. c #53545C",
"<. c #59555D",
"1. c #51595E",
"2. c #5C595F",
"3. c #605D5F",
"4. c #55635C",
"5. c #414D61",
"6. c #534F61",
"7. c #555561",
"8. c #595763",
"9. c #565B64",
"0. c #5B5B65",
"q. c #5A576B",
"w. c #5D5C69",
"e. c #555E71",
"r. c #615E65",
"t. c #605E6A",
"y. c #6C4176",
"u. c #72457D",
"i. c #586166",
"p. c #5E6A64",
"a. c #5C626D",
"s. c #516A75",
"d. c #636066",
"f. c #64626B",
"g. c #6A666C",
"h. c #636F69",
"j. c #6C696E",
"k. c #646474",
"l. c #696673",
"z. c #656B75",
"x. c #6C6973",
"c. c #676478",
"v. c #6A667A",
"b. c #6D6C7B",
"n. c #716D74",
"m. c #716E7A",
"M. c #6A7573",
"N. c #6D7974",
"B. c #6C717C",
"V. c #6F7C7A",
"C. c #737675",
"Z. c #74717B",
"A. c #79737C",
"S. c #727E7C",
"D. c #B63F0B",
"F. c #C72800",
"G. c #EB3E00",
"H. c #B7400B",
"J. c #B9410C",
"K. c #B94A17",
"L. c #9A4C2E",
"P. c #8D4B35",
"I. c #9C4D32",
"U. c #A14F32",
"Y. c #CE5417",
"T. c #F77A31",
"R. c #75807E",
"E. c #764983",
"W. c #457D83",
"Q. c #6F6B80",
"!. c #736E85",
"~. c #6F7382",
"^. c #757584",
"/. c #7A7681",
"(. c #7D7984",
"). c #7C7A88",
"_. c #7F7E90",
"`. c #FF00FF",
"'. c #FF00FF",
"]. c #FF00FF",
"[. c #FF00FF",
"{. c #FF00FF",
"}. c #FF00FF",
"|. c #FF00FF",
" X c #FF00FF",
".X c #817B86",
"XX c #FF00FF",
"oX c #FF00FF",
"OX c #FF00FF",
"+X c #FF00FF",
"@X c #FF00FF",
"#X c #FF00FF",
"$X c #FF00FF",
"%X c #FF00FF",
"&X c #FF00FF",
"*X c #3B8184",
"=X c #748281",
"-X c #898898",
";X c #9897A6",
":X c #FFE4AC",
">X c #FFEFB8",
/* pixels */
"OXOXOXOXOXOXOXOXOXOXOXOXOXOXOXOXOXOXOXOXOXOXOXOXOXOXOXOXOXOXOXOXOXOXOXOXOXOXOXOXOXOXOXOXOXOXOXOXOXOXOXOXOXOXOXOXOXOXOXOXOXOXOXOXOX",
"OXOXOXOXOXOXOXOXOXOXOXOXOXOXOXOXOXOXOXOXOXOXOXOXOXOXOXOXOXOXOXOXOXOXOXOXOXOXOXOXOXOXOXOXOXOXOXOXOXOXOXOXOXOXOXOXOXOXOXOXOXOXOXOXOX",
"OXOXOXOXOXOXOXOXOXOXOXOXOXOXOXOXOXOXOXOXOXOXOXOXOXOXOXOXOXOXOXOXOXOXOXOXOXOXOXOXOXOXOXOXOXOXOXOXOXOXOXOXOXOXOXOXOXOXOXOXOXOXOXOXOX",
"OXOXOXOXOXOXOXOXOXOXOXOXOXOXOXOXOXOXOXOXOXOXOXOXOXOXOXOXOXOXOXOXOXOXOXOXOXOXOXOXOXOXOXOXOXOXOXOXOXOXOXOXOXOXOXOXOXOXOXOXOXOXOXOXOX",
"OXOXOXOXOX+X$X%X$X$X$X%X$X$X$X$X$X$X$X%X$X$X$X$X$X$X$X$X%X$X$X$X$X$X$X$X$X%X$X$X$X$X$X$X$X$X$X$X$X$X$X$X$X$X#X$X$X#X#X#XOXOXOXOXOX",
"OXOXOXOXOXoXH P P G G G G G G G P L G G G L G G G G G G G G G G G G G G G G G G G G G G G G G G P P G G G G G G G G I ! #XOXOXOXOX",
"OXOXOXOX+XXXO   w k.a.a.k.k.k.z.#  .i.i.9.i.i.8.k.B.B.M.B.z.z.M.z.z.M.z.k.z.b.B.B.B.~.z.9.9.9.i.l 9 k.a.f.a.k.k.k.~.  5 %XOXOXOXOX",
"OXOXOXOX+XXX> +.,.$.=.;.0.7.*.w.c ..,.,.<.,.>.>.,.;.>.-.-.-.-.-.-.-.-.-.-.-.-.;.=.=.=.=.>.,.,.,.q.v ,.=.=.=.,.0.8.#.^.y.$XOXOXOXOX",
"OXOXOXOX+XXX$ F 7.,.>.=.,.,.=.b.C $.,.,.*.,.,.,.,.>.$.m I.U.U.U.U.U.U.I.L.P.L.-.$.2.&.&.&.$.>.,.q.b ,.=.>.>.,.,.,.;.:.u.#XOXOXOXOX",
"OXOXOXOX+XoX$ F ,.%.,.,.,.,.$.v.C @.,.,.} { S S { } F F.T.>X:X:X:X:X:X:X>XT.G.D c | { | S S &.0.q.C <.,.1.,.<.,.,.,.1.u.#XOXOXOXOX",
"OXOXOXOX+XXX$ T 8.,.,.,.7.7.$.!.C &.7.7.0.0.0.w.0.w.e.Y.K.J.J.H.J.J.J.J.D.K.Y.e.0.0.0.0.0.w.,.0.q.Z 8.7.,.,.7.,.7.7.9.E.#XOXOXOXOX",
"OXOXOXOX+XXX$ T ,.7.7.7.7.%.c %.h F @.} +.@.@.@.@.@.@.' 5.] 5.' 5.5.5.5.' ' ' #.+.+.| | #.} +.@.T C %.} $.0.7.7.,.,.9.E.#XOXOXOXOX",
"OXOXOXOX+XXX$ T 7.7.,.7.F C 6 a - 3 r r q t q 3 0 4 3 0 0 0 3 3 q q 4 4 3 4 3 4 0 3 q 0 4 q r 6 3 4 s g h T %.,.,.1.:.E.$XOXOXOXOX",
"OXOXOXOX+XXX> ` 8.,.7.@.a h 2 X o = & & = = = & = = = = & & # # # # # # % % % % & o o o X o o X X X - h h g %.,.<.,.=.u.#XOXOXOXOX",
"OXOXOXOX+XXX$ +.8.8.8.7.T - X 3 d f h h h h c C k c Z C Z B I I I I I K d Z A Z c k k h h h h h s 3 X = h h +.w.9.9.=.u.$XOXOXOXOX",
"OXOXOXOXOXoXO 3 4 q 4 6 2   3 f v |  .$.$.$.$.$.{ t 0.x.h.{.&X$X$X$X&X XX.f.l.} *.*.,.%.$.$...n c f 3 o = 6 4 6 6 r 9 8 $XOXOXOXOX",
"OXOXOXOX+XXX. 7.Q.Q.!.q.& = x n | ..............$.6 &.j.M.`.#XOXOXOX@X}.O.l.m.v | ..$....... .} n x u t X r v.b.Q.!.k.7 %XOXOXOXOX",
"OXOXOXOX+XXX* +.7.=.=.7.q.= f S $.........$.....$.t *.g.V.`.#XOXOXOX@X}.o.l.b.v ..#...........} { n y r = c @.,.,.%.-.u.$XOXOXOXOX",
"OXOXOXOX+XXX> Z 0.,.,.;.q.= h S $...$.........#.$.t ,.g.N.`.#XOXOXOX@X}.O.x.b.b $.....$.........| n r t & g +.7.,.,.=._ $XOXOXOXOX",
"OXOXOXOX+XXX> t a 8.,.;.7.= h Z $.....$...$.....$.t ,.j.V.'.#XOXOXOX@X|.O.x.b.Z ..$...........| | n r y & h @.8.d $.;.E $XOXOXOXOX",
"OXOXOXOX+XXX> F ^.7.,.7.6.- k v ......$.#.....$.$.t ,.j.R.'.#XOXOXOX@X}.O.x.Z.Z ....#.....$..... .n t t = g @.,.l.,.;.R $XOXOXOXOX",
"OXOXOXOX+XXX> Z ,.,.7.,.6.= @.Z ..$.......$.....$.t 2.g.V.'.#XOXOXOX@X}.X.z.Z.Z ..$.........$...| x j y % f @.,.=.,.1.E $XOXOXOXOX",
"OXOXOXOXOXXX> S 0.,.,.8.6.; | r.` | ......$.$...$.t 0.g.=X'.#XOXOXOX@X|.O.j.Z.Z | $.........$.$.v { Y t % g @.,.,.,.1.W $XOXOXOXOX",
"OXOXOXOX+XXX$ F 0.,.7.8.6.- T r.Z.n $...$.....$.$.3 0.f.N.`.#XOXOXOX@X}.O.f.A.Z $.....$.....$.n } 0.S t % h +.7.,.,.9.W $XOXOXOXOX",
"OXOXOXOX+XXX> F 8.,.,.9.6.- | >.f./.x $.$.$.....Y | f.f.h.].#XOXOXOX@X|.X.j.f.^.b $.$.$.$.$.x q.l.$.Y y % h #.<.7.;.i.W $XOXOXOXOX",
"OXOXOXOX+XXX$ S 7.:.;.7.6.= | 3.2.w.-XS Z S ` n Y m.g.j.N.].@XOXOXOX@X|.N C.f.b.l.Z n S ` n *.x.2.>.| t % h #.8.7.,.a./ $XOXOXOXOX",
"OXOXOXOX+XXX$ F 7.,.,.7.<.X 6 n f.d.w.^.7.%.$.} k.j.n..X, ].#XOXOXOX@X X+ Y g.d.z._.7.*.&.*.b.r.r.$.y 6 % g +.7.,.,.a.W $XOXOXOXOX",
"OXOXOXOXOXXX$ F 7.7.:.7.<.% r - v x.w.w.Z.Z.n.Z.f.n.g.= M ].#XOXOXOX@X|., 3 v n.0.w.x.m.n.m.0.l.g.r : r % g +.7.7.,.i./ $XOXOXOXOX",
"OXOXOXOX+XXX$ F 8.7.,.8.6.% u j : S n.j.0.r.f.d.0.-X3 x o.].#XOXOXOX@X|.p ..6 x x.0.f.f.f.f.f./.: 6 u s & h +.,.,.,.i./ $XOXOXOXOX",
"OXOXOXOX+XXX$ Z :.,.;.7.6.% u Y x = | j.t.w.0.0.2.x.v $.o.].@XOXOXOX@X Xp >.v t x.r.0.0.r.0.Z.u u n u 6 % h T ,.,.:.9.W $XOXOXOXOX",
"OXOXOXOX+XXX$ F ,.;.,.7.6.o y ` | 3 c j.w.t.0.f.f.(.C $.o.].#XOXOXOX@X|.p &.v t n.f.8.q.0.0.m.f n n u s % g @.=.,.;.i.W $XOXOXOXOX",
"OXOXOXOX+XXX$ #.w.,.=.7.6.% u S  ., v j.t.c S 0.f.A.c $.o.].#XOXOXOX@X|.p $.v y Z.f.;.} +.0.A.s | n u 6 % g 7.,.,.,.9.( $XOXOXOXOX",
"OXOXOXOX+XXX> F 7.w.8.7.*.% u Y } 0 c n.b.x c <.f./.v $.X.].#XOXOXOX@X|.p >.c y Z.j.f.d Z <..Xd { n u t % h +.8.w.0.-.W $XOXOXOXOX",
"OXOXOXOX+XoXO s s t a s : = y Y } r c n.x.v n 0.f./.v ..o.'.#XOXOXOX@X Xp >.c s x.j.f.c ` <.(.u { n u t o t a t t t q 5 %XOXOXOXOX",
"OXOXOXOX+XXX. =.v.v.v.7.: = u Y  .r c x.x.c Z <.f.A.v ..o.].#XOXOXOX@X|.p *.c y n.j.0.Z n <..Xs { n u t = 3 v.v.v.b.Q.) $XOXOXOXOX",
"OXOXOXOX+XXX$ a s a r T T & u Y | r v x.x.h x 8.g./.v ..o.].#XOXOXOX@X|.p >.x y n.j.r.x n <.A.s | n u t = h d a s a y 8 %XOXOXOXOX",
"OXOXOXOX+XoX+ g q t 4 F Y % u Y  .r c n.x.w.f.w.f.(.b ..O.].#XOXOXOX@X|.p >.c y x.f.m.7.%.$.(.d { n u t = k h q t a 2 5 %XOXOXOXOX",
"OXOXOXOXOXXX$ z = 3 % +.@.& u Y { r v j.0.l.l.f.w.(.v $.O.].#XOXOX+X@X|.p &.x s x.d.f.x.f.9.).d { Y u t = h c - 3 = b J $XOXOXOXOX",
"OXOXOXOX+XoX@ V 2 Z a F @.& u Y } 3 b f.9.t.t.f.0.-Xf $.O.].#XOXOXOX@X|.p >.x a z.t.9.8.f.8.^.c { N u t & h C 4 +.2 A U $XOXOXOXOX",
"OXOXOXOXOXXX@ Z 2 h 2 F $.% u Y { 3 ).7.w.8.0.0.0.,.;X0 O.].#XOXOXOX@X|.p $.r t.f.9.w.8.w.9.q.-Xr n u r % h C q C 2 A U %XOXOXOXOX",
"OXOXOXOX+XXX+ F 2 V 4 F 6.o u v b g.<.f.*.} } 8.f.r.8.-X` ].@XOXOXOX@X|.e S m.f.f.f.%.%.$.f.0.7.!.k 6 a & h C 4 V 2 A K $XOXOXOXOX",
"OXOXOXOX+XXX@ Z 2 V 2 F 6.% s Y f.r.j.&.3 t 6 y &.j.r.f.3.[.#XOXOXOX@X|., f.b.d.g.x q q r T f.0.8.*.f a & h k 4 g 2 A K %XOXOXOXOX",
"OXOXOXOXOXXX+ Z 2 a 2 F %.% V 6.0.n.$.y { { { v 6 | n.3.R.[.@XOXOXOX@X|.N x.x.m.c x S Y x r S j.r.&.Y 6 & h h q g 2 C K $XOXOXOXOX",
"OXOXOXOX+XXX$ Z - a = T 6.% T 8.n.} 6 { $...$.$.v 3 <.g.p.`.#XOXOXOX@X|.o.f.m.y x ........n 3 x 3.$.` q % V f 4 a 2 Z K %XOXOXOXOX",
"OXOXOXOX+XXX@ ` g f f T T - | r.S t ....$.| $.$.| : $.j.N.'.#XOXOXOX@X|.p x.Z.d } ..........S r j >.Y 6 % h Z g y g D U $XOXOXOXOX",
"OXOXOXOX+XoX. & = = = o X : @.u y ......#.$.$.....r $.j.S.].@XOXOXOX@X|.N x.m.j ..$...$.$.....S y 6 Z a o & - - = = @ 7 %XOXOXOXOX",
"OXOXOXOX+XXX+ 8.v.c.v.v.@.- S f } ..#...$.......$.t $.j.S.'.#XOXOXOX@X|.M j.m.k ................{ t t a o F c.v.c.q.k._ $XOXOXOXOX",
"OXOXOXOX+XXX$ s 7.=.*.F $.= S x ..........$.....$.t $.j.R.'.@XOXOXOX@X|.M x.m.k ..$.$...$.......| v 6 a % a S =.$.F #.( $XOXOXOXOX",
"OXOXOXOX+XoX$ a 7.*.*.C k - Y j ........#.......$.t $.j.R.'.@XOXOXOX@X|.M x.m.x ......$...........v r a % g k *.%.T z B %XOXOXOXOX",
"OXOXOXOXOXXX$ k D *X[ T Z = Y j ......$.$...$...$.t $.g.S.'.$XOXOXOX@X|.M x.m.k ..$.....$.........n r a % V f ] *Xg $.K $XOXOXOXOX",
"OXOXOXOX+XoX$ Z D W.s.Y Y = T f ....$.| ..$...$.$.y ,.g.S.`.@XOXOXOX@X|.M g.b.k ..$.............} v r a % C k ] W.h :.U %XOXOXOXOX",
"OXOXOXOXOXoX$ Z h @.#.` S % T j $...$...$...$.....t &.g.S.'.#XOXOXOX@X|.M x.m.x ..$.$......... ...v t a % Z k k *.f :.U $XOXOXOXOX",
"OXOXOXOX+XXX$ Z Z ,.| @.T & T j $.$.$.$...$.$.$.$.t &.g.M.].$XOXOXOX@X|.M g.x.l .............. ...l 6 a % C h @.<.h :.R $XOXOXOXOX",
"OXOXOXOX+XXX$ Z S 0.*.@.T & @.s { $.$.$.$.$.$.@.{ u r.g.h.'.@XOXOXOX@X|.X.g.Z.h | $.$.$...$.$.&.S y c a % V V @.0.h :.R %XOXOXOXOX",
"OXOXOXOX+XXX@ C s k f @.T = @.c.+.c v v v v v v d l.f.g.4.'.#XOXOXOX@X|.X.g.d.).y x h f f h f s j Y x 6 % V s 3 t : 1.R $XOXOXOXOX",
"OXOXOXOX+XXX+ +.w.w.t.*.Y % T $.x.Z.n.m.n.b.m.Z.A.g.g.g.N.].$XOX+X+X@X|.N g.d.<..XA.A.A.A.A.n.A.n.<.j 6 % k 8.*.,.9.7.E $XOXOXOXOX",
"OXOXOXOXOXXXO c Z C c C r o g h k k c c c h k z h c C c l '.#XOXOXOX@X|.< c c k k k h k C C c k k k h q & f Z b C C A U $XOXOXOXOX",
"OXOXOXOX+XXX+ i w w i i 9 . @ @ $ $ @ @ @ @ @ @ @ @ * 1 , + + + > + + + @ @ @ $ $ # $ # @ $ @ $ @ $ @ @ . 9 w w w w e 8 %XOXOXOXOX",
"OXOXOXOXOXOXQ ~ ^ ~ ~ ~ ~ ^ ^ ^ ^ ^ ^ ^ ^ ^ ^ ^ ^ ^ ^ ~ ^ ^ ^ ^ ~ ^ ^ ^ ^ ^ ^ ^ ^ ^ ^ ^ ^ ^ ^ ^ ^ ^ ^ ^ ^ ~ ~ ~ ~ ~ Q ].@XOXOXOXOX",
"OXOXOXOXOXOX$X@X$X#X$X#X$X$X$X#X$X#X$X#X$X$X#X$X$X#X$X#X$X#X$X#X#X#X#X$X$X#X$X$X$X#X#X#X#X#X$X#X#X$X#X#X$X#X$X$X$X$X$X@XOXOXOXOXOX",
"OXOXOXOXOXOXOXOXOXOXOXOXOXOXOXOXOXOXOXOXOXOXOXOXOXOXOXOXOXOXOXOXOXOXOXOXOXOXOXOXOXOXOXOXOXOXOXOXOXOXOXOXOXOXOXOXOXOXOXOXOXOXOXOXOX",
"OXOXOXOXOXOXOXOXOXOXOXOXOXOXOXOXOXOXOXOXOXOXOXOXOXOXOXOXOXOXOXOXOXOXOXOXOXOXOXOXOXOXOXOXOXOXOXOXOXOXOXOXOXOXOXOXOXOXOXOXOXOXOXOXOX",
"OXOXOXOXOXOXOXOXOXOXOXOXOXOXOXOXOXOXOXOXOXOXOXOXOXOXOXOXOXOXOXOXOXOXOXOXOXOXOXOXOXOXOXOXOXOXOXOXOXOXOXOXOXOXOXOXOXOXOXOXOXOXOXOXOX",
"OXOXOXOXOXOXOXOXOXOXOXOXOXOXOXOXOXOXOXOXOXOXOXOXOXOXOXOXOXOXOXOXOXOXOXOXOXOXOXOXOXOXOXOXOXOXOXOXOXOXOXOXOXOXOXOXOXOXOXOXOXOXOXOXOX",
"OXOXOXOXOXOXOXOXOXOXOXOXOXOXOXOXOXOXOXOXOXOXOXOXOXOXOXOXOXOXOXOXOXOXOXOXOXOXOXOXOXOXOXOXOXOXOXOXOXOXOXOXOXOXOXOXOXOXOXOXOXOXOXOXOX"
};
