/* XPM */
static char *ff8c776ea7854c42884bfda9f7ab1d22bhGRHjzkchONHJqw[] = {
/* columns rows colors chars-per-pixel */
"64 64 186 2 ",
"   c #030503",
".  c #020A02",
"X  c #070A08",
"o  c #0A0C0B",
"O  c #001600",
"+  c #001B03",
"@  c #001E08",
"#  c #091F0F",
"$  c #0E0E10",
"%  c #0F1014",
"&  c #121316",
"*  c #14151A",
"=  c #131B1A",
"-  c #19191E",
";  c #0E2313",
":  c #15221E",
">  c #171821",
",  c #1B1C23",
"<  c #1D1E29",
"1  c #261826",
"2  c #1B2424",
"3  c #182924",
"4  c #1C2429",
"5  c #1F2A2C",
"6  c #1F3327",
"7  c #212126",
"8  c #282727",
"9  c #252A27",
"0  c #24242B",
"q  c #29262E",
"w  c #212C2E",
"e  c #2B2A2D",
"r  c #24362C",
"t  c #26382F",
"y  c #242634",
"u  c #282734",
"i  c #252B33",
"p  c #2C2B34",
"a  c #272738",
"s  c #272939",
"d  c #2C2D3A",
"f  c #302E35",
"g  c #302F3A",
"h  c #263133",
"j  c #293537",
"k  c #2B3D35",
"l  c #273638",
"z  c #2F303C",
"x  c #2D3A3B",
"c  c #333236",
"v  c #383537",
"b  c #34333C",
"n  c #38373D",
"m  c #3A393F",
"M  c #2D4137",
"N  c #2F4139",
"B  c #31433B",
"V  c #2C3745",
"C  c #343442",
"Z  c #393742",
"A  c #353C41",
"S  c #3C3B44",
"D  c #3D3D49",
"F  c #470748",
"G  c #4C084B",
"H  c #4F0E51",
"J  c #560556",
"K  c #580557",
"L  c #560857",
"P  c #580857",
"I  c #570659",
"U  c #590659",
"Y  c #570858",
"T  c #5D0A5D",
"R  c #610D5F",
"E  c #403F45",
"W  c #423E49",
"Q  c #5F0A60",
"!  c #620C62",
"~  c #660F68",
"^  c #641066",
"/  c #67146A",
"(  c #6A156B",
")  c #6A196D",
"_  c #354043",
"`  c #384A44",
"'  c #3C4A4B",
"]  c #3F524D",
"[  c #374C55",
"{  c #424144",
"}  c #44444C",
"|  c #49474D",
" . c #404C4F",
".. c #49494F",
"X. c #41524F",
"o. c #464551",
"O. c #484751",
"+. c #464C53",
"@. c #4A4B52",
"#. c #4E4D59",
"$. c #514E55",
"%. c #5A4D52",
"&. c #514F5B",
"*. c #435351",
"=. c #4C5257",
"-. c #4B5857",
";. c #4E5159",
":. c #4B5958",
">. c #525156",
",. c #53545C",
"<. c #5B565C",
"1. c #545A5E",
"2. c #5A595E",
"3. c #624F4F",
"4. c #645253",
"5. c #504D60",
"6. c #475366",
"7. c #45566A",
"8. c #4B5B6E",
"9. c #555661",
"0. c #595762",
"q. c #565962",
"w. c #5B5A64",
"e. c #595669",
"r. c #5D5C6B",
"t. c #475B70",
"y. c #525E70",
"u. c #615E65",
"i. c #615F69",
"p. c #615E72",
"a. c #596467",
"s. c #5C636C",
"d. c #646166",
"f. c #64626B",
"g. c #69666D",
"h. c #6B686E",
"j. c #646373",
"k. c #686672",
"l. c #656E76",
"z. c #6D6A73",
"x. c #666279",
"c. c #69667A",
"v. c #666F79",
"b. c #6C6B7B",
"n. c #716D75",
"m. c #716E7B",
"M. c #677079",
"N. c #6A727C",
"B. c #75727C",
"V. c #78747F",
"C. c #AA2100",
"Z. c #DF3700",
"A. c #DD4800",
"S. c #D1470A",
"D. c #E54100",
"F. c #E95307",
"G. c #EF5F11",
"H. c #F2661C",
"J. c #F1681C",
"K. c #FF9A50",
"L. c #FFB06D",
"P. c #726D85",
"I. c #756F89",
"U. c #747282",
"Y. c #79758C",
"T. c #7A7690",
"R. c #AA00A7",
"E. c #AB00AB",
"W. c #AC00AB",
"Q. c #AD00AC",
"!. c #AF05AD",
"~. c #B002AE",
"^. c #AF05B0",
"/. c #B204B2",
"(. c #CC03CB",
"). c #F401F3",
"_. c #F801F7",
"`. c #F701F8",
"'. c magenta",
"]. c #4BBBBA",
"[. c #4DCDCB",
"{. c #51D5D2",
"}. c #FFC383",
"|. c #FFC384",
" X c #FFC789",
".X c #FFC98B",
/* pixels */
"'.'.'.'.'.'.'.'.'.'.'.'.'.'.'.'.'.'.'.'.'.'.'.'.'.'.'.'.'.'.'.'.'.'.'.'.'.'.'.'.'.'.'.'.'.'.'.'.'.'.'.'.'.'.'.'.'.'.'.'.'.'.'.'.",
"'.'.'.'.'.'.'.'.'.'.'.'.'.'.'.'.'.'.'.'.'.'.'.'.'.'.'.'.'.'.'.'.'.'.'.'.'.'.'.'.'.'.'.'.'.'.'.'.'.'.'.'.'.'.'.'.'.'.'.'.'.'.'.'.",
"'.'.'.'.'.'.'.'.'.'.'.'.'.'.'.'.'.'.'.'.'.'.'.'.'.'.'.'.'.'.'.'.'.'.'.'.'.'.'.'.'.'.'.'.'.'.'.'.'.'.'.'.'.'.'.'.'.'.'.'.'.'.'.'.",
"'.'.'.'.'.'.'.'.'.'.'.'.'.'.'.'.'.'.'.'.'.'.'.'.'.'.'.'.'.'.'.'.'.'.'.'.'.'.'.'.'.'.'.'.'.'.'.'.'.'.'.'.'.'.'.'.'.'.'.'.'.'.'.'.",
"'.'.'.'.'.'.'.'.'.'.'.'.'.'.'.'.'.'.'.'.'.'.'.'.'.'.'.'.'.'.'.'.'.'.'.'.'.'.'.'.'.'.'.'.'.'.'.'.'.'.'.'.'.'.'.'.'.'.'.'.'.'.'.'.",
"'.'.'.'.'.(.!./.W.W.E.W.W.Q.W.~.Q.W.E.E.W.W.W.W.E.E.E.E.E.W.E.E.E.E.E.W.E.E.R.E.E.E.E.W.W.W.E./.Q.W.W.Q.Q.Q.W.Q.Q.^.(.'.'.'.'.'.",
"'.'.'.'.'.H . . B k k k k k k ; # ' ` ` B B M ` *.X.*.*.*.*.*.*.*.*.*.*.*.X.*.] X.' B N N N N O 3 t t t r r r t 6 . G '.'.'.'.'.",
"'.'.'.'.'.L 9 b e.r.e.r.j.r.r.5.d ,.,.,.1.1.,.,.>.=.;.=.=.+.+.+.+.+.+.+.+.+.+.#.,.=.q.0.q.,.j.C ,.r.e.j.j.b.c.j.e.=.T '.'.'.'.'.",
"'.'.'.'.'.J h ,.=.>.=.>.,.>.#.e.b ,.,.,.2.,.,.,.0.;.<.%.3.4.4.4.4.4.4.4.<.<.,.>.,.,.,.,.,.>.j.o.@.,.#.>.,.,.,.>.+.v.^ '.'.'.'.'.",
"'.'.'.'.'.J h ,.>.,.,.,.,.,.;.r.b ,.S S n } { c { l C.K..X}.}.}.}.|. XL.Z.S.V { } { S c S ,.j.W @.,.,.,.,.,.9.,.>.v./ '.'.'.'.'.",
"'.'.'.'.'.L h ,.,.,.,.,.,.,.#.r.b 0.e.w.0.0.w.0.0.6.A.F.H.H.H.H.H.H.J.G.D.S.y.0.0.e.w.i.e.>.r.} @.9.9.,.,.9.9.9.>.v./ '.'.'.'.'.",
"'.'.'.'.'.J h ,.9.,.,.,.x.Z q.r.S w.0.0.0.,.0.,.9.,.8.7.7.7.7.7.7.7.7.7.t.8.0.,.,.q.9.9.,.,.r.D } ,.Z w.,.9.9.,.>.v./ '.'.'.'.'.",
"'.'.'.'.'.L h ,.,.,.,.,.D d 0 y y s s s s s s s s s s y u y s s p s s u u y y p y p u s y u y y y u s y ,.9.9.9.>.M./ '.'.'.'.'.",
"'.'.'.'.'.J i 0.,.9.q.b s d , o X $ o o o o o o o o o o o o o o o o o o X X X X X X X X X X X X . & d d u e.9.,.;.M.( '.'.'.'.'.",
"'.'.'.'.'.J h e.0.9.9.S y - o 0 0 0 0 y 0 0 0 4 < 4 < & * > > > , , , & > , , , , < < < < < 4 < - o - d u w.e.e.,.s.) '.'.'.'.'.",
"'.'.'.'.'.U 2 d Z Z b D % o 0 0 0 0 0 0 0 0 7 d p 0 d 2 0 p p p 0 q c $ s 7 p p c f d p d d d p 7 < o & d s S S b j T '.'.'.'.'.",
"'.'.'.'.'.T . e.r.r.r.p . < p p p d p p p p 7 7 @.,.| n n $.| } S ..,.& S ,.&.,.0 7 7 7 0 7 0 7 p q < . d r.r.r.x.2 J '.'.'.'.'.",
"'.'.'.'.'.J j >.;.;.#.Y.. p e @...@.@.@.@.@.| 7 c f.r.O.D w.1.@.@.,.w.- S d.w.{ c | ..@.@.@.| { b e y . o.;.;.>.@.v.( '.'.'.'.'.",
"'.'.'.'.'.J 5 q.,.,.| c.. p e ..@.@.@.@.@.@.@.e b g.e.@.D w.,.#.O.,.w.0 S u.r.O.m @.@.@...@...} E e y   d 0.,.,.;.q.~ '.'.'.'.'.",
"'.'.'.'.'.P 5 z b ,.| x.. d p @...@...@.@.@.@.0 b z.e.@.S u.,.#.O.,.w.8 S d.j.@.b @.@.@.......} { e y   b q.9.p ,.1.! '.'.'.'.'.",
"'.'.'.'.'.J w &.x.;.O.c.. z p @.@.@...@.@.@.@.e S z.w.#.S w.,.#.@.,.w.0 D d.j.#.b @.@.@.@.@...} { e y   g 9.,.r.#.1.! '.'.'.'.'.",
"'.'.'.'.'.L 5 ;.;.>.O.P.. b p @.....@.@.@.@.@.e S z.r.&.S w.,.#.@.,.w.p S g.j.#.b @.@.@...@...} { e y   g 9.,.>.;.q.U '.'.'.'.'.",
"'.'.'.'.'.J i q.,.>.@.P.  Z p @.@.@.@.....@.@.e S n.r.#.S w.,.#.@.,.w.d S g.j.#.b @.@.@.@.@...} { e y   d 9.,.,.;.a.U '.'.'.'.'.",
"'.'.'.'.'.J i q.,.,.@.P.  Z p @.@.@.@.@...@.@.e S z.r.#.S w.,.#.@.,.0.d S h.k.#.b @.@.@.@.@...} } e y   b 9.9.,.;.l.U '.'.'.'.'.",
"'.'.'.'.'.Y i q.,.,.+.I.  Z , @.@.@.@.@.@.@.@.e S n.r.#.S w.,.#.@.,.e.c S h.j.#.b @.@.@.@.@.@.} S 7 y   d e.9.,.>.v.U '.'.'.'.'.",
"'.'.'.'.'.J i 9.,.,.+.I.  b k.p ..@.@...@.@.@.e b n.f.#.S w.,.#.@.,.0.c S h.k.#.m @.@.@.@.@.@.| p ,.y   d e.9.,.>.v.U '.'.'.'.'.",
"'.'.'.'.'.L i 9.,.,.+.I.  Z } T.0 ..@.@.@.@.@.p b n.f.&.S 2.,.#.o.,.0.b S g.k.#.m @.@.@.@.@...b 0.} u   d e.,.,.>.v.U '.'.'.'.'.",
"'.'.'.'.'.J i 9.,.,.+.P.  b $.2.b.D | @.@.@.@.0 S n.w.>.S 2.,.#.O.,.0.c S h.f.e.c @.@.@.@.} Z m.<.{ y   d 9.,.,.>.v.U '.'.'.'.'.",
"'.'.'.'.'.J i >.,.,.+.P.. p >.u.e.U.b S _ S m | b.d.g.@.b w.,.&.| ,.0.p b g.w.c.9.S S S S S b.w.u.v y   d ,.,.,.;.v.U '.'.'.'.'.",
"'.'.'.'.'.J w ,.,.,.+.P.. & q 2.w.j.x.} o.o.#.U.w.B.b > { 2.,.&.| ,.,.S - >.z.w.c.#.} o.#.x.u.g.} - y   d ,.,.;.;.M.U '.'.'.'.'.",
"'.'.'.'.'.J w e.>.,.@.P.. 7 * f g.u.r.U.b.b.z.x.n.>.& { $.,.,.,.} ,.>.#.p & o.g.e.k.n.n.n.w.z.>., e u   d ,.,.,.#.v.U '.'.'.'.'.",
"'.'.'.'.'.J w c.,.,.+.P.. s c - z g.w.9.d.f.u.f.Z q >.,.#.,.>.#.| ,.>.>.#.p * >.g.w.i.f.f.f.e.- b p y   d k.,.,.;.v.T '.'.'.'.'.",
"'.'.'.'.'.I 5 o.+.@.} e.. d b c & | g.e.w.w.e.k.S { | S S S | S W } W | | S 7 c z.w.q.e.e.r.} c { e y   b S #.#.@. .! '.'.'.'.'.",
"'.'.'.'.'.P = Z b b C * X d b { & S g.r.r.r.e.k.W | S S Z n S S S m b S S } 7 d z.e.e.r.e.w.9.b { 8 y   , b d d d 2 K '.'.'.'.'.",
"'.'.'.'.'.U = p.i.p.x.D . d c { & W k.} } #.w.z.W | @.>.$.>.>.,.>.>.>.,.>.$.7 d z.e.>.| ,.g.,.b { e y   0 x.j.x.j.s.) '.'.'.'.'.",
"'.'.'.'.'.K 5 7 0 0 < x.. d c { & W B.c b { d.z.S | | @.@.@.@...@.........@.7 d z.k.S c p d.,.n { e y X d 0 7 7 0 : U '.'.'.'.'.",
"'.'.'.'.'.J i 0 0 0 < p.  s v S & W B.c S o.d.z.S { | @.@.@.@.@.@.@.@.@.@.#.7 g z.k.S S z i.,.m { e y   Z p 0 0 0 = K '.'.'.'.'.",
"'.'.'.'.'.J j - % % - p.  s v m & W U.c S | d.z.D { | @.@.@.@.@.@.@.@.@.@.@.7 g z.k.S S z d.,.m W 8 y   Z 7 % * & _ T '.'.'.'.'.",
"'.'.'.'.'.J j > s D < p.X d v m * D V.d b { f.z.S { } @.@.@.@.@.@.@.@...@.@.7 c z.n.D b e i.,.m { e a   C 0 < o.> ' Q '.'.'.'.'.",
"'.'.'.'.'.J h > y s < r.X d v m - W m.,.e.9.u.z.W { { @.@.@.@.| @.@.@.@.@.| 0 c k.k.e.9.@.w.,.m { e y X C 0 < z - ' ! '.'.'.'.'.",
"'.'.'.'.'.J j > y d , p.X d v m * W r.k.f.i.0.z.W #.} Z Z S Z c S D D D D } 0 d g.q.k.g.f.e.9.b { e y   C 0 < d > ' T '.'.'.'.'.",
"'.'.'.'.'.J j > a s < p.X d v f p f.e.e.e.r.w.k.9.{ e.r.r.w.j.,.#.f.r.f.r.w.7 o.f.e.e.w.w.q.U.Z b e y X C 0 y C > ' T '.'.'.'.'.",
"'.'.'.'.'.J j - s y < p.X s 8 S w.0.w.w.w.w.r.e.b.r.d ,.,.2.2.| | ,.,...S d @.f.e.w.e.w.r.w.s.j.{ e y   C 0 y y > ' R '.'.'.'.'.",
"'.'.'.'.'.J j * > - < p.  < p 0.0.i.0.{ D D @.w.0.b.o.c f.w.u.,.| 2.0.{ 0 e.d.f.9.@.O.o.O.f.f.d.0.p y X C 7 , < - ' ! '.'.'.'.'.",
"'.'.'.'.'.K 5 C Z b b D . D } >.i.@.> > , - - S g.d.b.| { u.w.w.O.2.w.q f.d.w.g.p , 7 7 , d f.u.$.O.y   C Z b b d x Q '.'.'.'.'.",
"'.'.'.'.'.U . o o o o o   Z { u.n - m S S { b & c g.k.0.b w.2.e.@.,.0.| S w.j.b 0 S m m m 7 & ,.$.S y   $ $ $ o $ . U '.'.'.'.'.",
"'.'.'.'.'.J 5 c.x.c.j.T.. Z $.b 7 } @.@.....| p q z.i.S Z w.0.0.| 2.w.| | d.k.o.b @.@.@...S e 7 @.S s   Z x.j.x.r.N.( '.'.'.'.'.",
"'.'.'.'.'.K 2 } ,.,.d e.. Z e e { @.@.@...@...b p n.d.{ | w.0.w.| 2.w.| } d.j.O.b @.@.@...@.} 0 7 n d X y } ,.,.b +.( '.'.'.'.'.",
"'.'.'.'.'.U 4 Z W W b D   Z , ..@.@.@.@.@.@...c p n.g.S | w.2.e.| 2.w.| D f.j.o.b @.@.....@...S 7 f d X d Z W W Z A U '.'.'.'.'.",
"'.'.'.'.'.U 4 q {.[.[ O.. C 0 @.....@.@.@.@...c p z.g.S | w.0.w.| 2.w.| S f.k.o.m @.@...@.@.@.} e p d X Z 1 [.].q *.! '.'.'.'.'.",
"'.'.'.'.'.I 4 b u Z b c.. C 7 #.@...@.@.@.@...c p z.g.} W w.0.e.} 2.0.| S d.k.@.m @.@.@.@.@...@.e p d X Z s d Z d 1.^ '.'.'.'.'.",
"'.'.'.'.'.T 4 b W ,.c b.. C 7 @.@...@.@.@.....c p k.g.o.S w.0.0.{ 2.0.| b f.f.@.m @.@.@.@.@...@.p c d   S s o.,.d :.! '.'.'.'.'.",
"'.'.'.'.'.U 4 b ,.,.b c.. C 0 @.@.@.@.@.@.@.@.b p d.d.o.D w.w.e.{ 2.0.| b d.f.#.m @.@.@.@.@.....p c d   D s ,.&.p -.! '.'.'.'.'.",
"'.'.'.'.'.K 4 Z ,.,.b c.  C 7 ..| } | | | | S e c u.i.| D w.w.0.{ 2.2.} b d.f.;.d { } | | | } } 0 c d X Z y ,.>.d -.! '.'.'.'.'.",
"'.'.'.'.'.J 4 S , , c c.  C @.b b b d b b b g ,.i.u.f.| D 2.w.,.S 2.2.} b d.q.x.9.b Z Z Z S S c W n s   Z 0 - * d -.! '.'.'.'.'.",
"'.'.'.'.'.U 2 0.r.r.,.c.  d | f.i.d.i.f.f.i.i.w.<.<.w.p S ,.>.{ S 2.,.m d u.2.w.i.k.f.i.d.f.f.u.u.8 y   Z 0.e.e.9.-.~ '.'.'.'.'.",
"'.'.'.'.'.J 5 b d d g D   u s s d d b b b b b b b C C 4 4 z C u s C C 7 d C C d d b C C C C C g d d y X C b c d d x ! '.'.'.'.'.",
"'.'.'.'.'.F + + + + + @ . . . . . . . . . . . . . . . . . . . . . . . . . . . . . . . . . . . . . . . . O O O O + + F '.'.'.'.'.",
"'.'.'.'.'._.).).).).).).).).).).).).).).).).).).).).).).).).).).).).).).).).).).).).).).).).).).).).).).).).).).).).`.'.'.'.'.'.",
"'.'.'.'.'.'.'.'.'.'.'.'.'.'.'.'.'.'.'.'.'.'.'.'.'.'.'.'.'.'.'.'.'.'.'.'.'.'.'.'.'.'.'.'.'.'.'.'.'.'.'.'.'.'.'.'.'.'.'.'.'.'.'.'.",
"'.'.'.'.'.'.'.'.'.'.'.'.'.'.'.'.'.'.'.'.'.'.'.'.'.'.'.'.'.'.'.'.'.'.'.'.'.'.'.'.'.'.'.'.'.'.'.'.'.'.'.'.'.'.'.'.'.'.'.'.'.'.'.'.",
"'.'.'.'.'.'.'.'.'.'.'.'.'.'.'.'.'.'.'.'.'.'.'.'.'.'.'.'.'.'.'.'.'.'.'.'.'.'.'.'.'.'.'.'.'.'.'.'.'.'.'.'.'.'.'.'.'.'.'.'.'.'.'.'.",
"'.'.'.'.'.'.'.'.'.'.'.'.'.'.'.'.'.'.'.'.'.'.'.'.'.'.'.'.'.'.'.'.'.'.'.'.'.'.'.'.'.'.'.'.'.'.'.'.'.'.'.'.'.'.'.'.'.'.'.'.'.'.'.'.",
"'.'.'.'.'.'.'.'.'.'.'.'.'.'.'.'.'.'.'.'.'.'.'.'.'.'.'.'.'.'.'.'.'.'.'.'.'.'.'.'.'.'.'.'.'.'.'.'.'.'.'.'.'.'.'.'.'.'.'.'.'.'.'.'."
};
