/* XPM */
static char *result[] = {
/* columns rows colors chars-per-pixel */
"65 65 177 2 ",
"   c #020302",
".  c #050906",
"X  c #050708",
"o  c #060908",
"O  c #090B0D",
"+  c #04130A",
"@  c #09160E",
"#  c #0D0E12",
"$  c #0F1013",
"%  c #0B1A12",
"&  c #0F1D19",
"*  c #111215",
"=  c #14151B",
"-  c #151B1C",
";  c #191A1E",
":  c #11261A",
">  c #14211D",
",  c #171920",
"<  c #1C1C23",
"1  c #1C1E2A",
"2  c #201F21",
"3  c #201F2A",
"4  c #152422",
"5  c #1B2424",
"6  c #1A2926",
"7  c #1E202B",
"8  c #1C2A29",
"9  c #212125",
"0  c #24242C",
"q  c #28272D",
"w  c #212F2E",
"e  c #2A292D",
"r  c #21302E",
"t  c #262631",
"y  c #282732",
"u  c #272834",
"i  c #2B2A33",
"p  c #262738",
"a  c #2E2E3A",
"s  c #312E37",
"d  c #332E3A",
"f  c #253234",
"g  c #2A3436",
"h  c #243F33",
"j  c #2B343A",
"k  c #2E3B3C",
"l  c #313136",
"z  c #34333C",
"x  c #38363E",
"c  c #3A393D",
"v  c #642B1E",
"b  c #2E2F40",
"n  c #353541",
"m  c #393741",
"M  c #373844",
"N  c #3C3C43",
"B  c #3D3D4A",
"V  c #FF00FF",
"C  c #FF00FF",
"Z  c #FF00FF",
"A  c #FF00FF",
"S  c #FF00FF",
"D  c #FF00FF",
"F  c #413D44",
"G  c #403F4B",
"H  c #FF00FF",
"J  c #FF00FF",
"K  c #FF00FF",
"L  c #FF00FF",
"P  c #FF00FF",
"I  c #FF00FF",
"U  c #FF00FF",
"Y  c #374242",
"T  c #3A4847",
"R  c #3F4049",
"E  c #3E4B4D",
"W  c #364E57",
"Q  c #32525B",
"!  c #3F4E62",
"~  c #365C65",
"^  c #424146",
"/  c #44434B",
"(  c #49464D",
")  c #47484E",
"_  c #49494F",
"`  c #464551",
"'  c #494752",
"]  c #434F52",
"[  c #4A4B52",
"{  c #464F5A",
"}  c #4E4E59",
"|  c #514C56",
" . c #504E5A",
".. c #465154",
"X. c #4A5255",
"o. c #475059",
"O. c #4E535A",
"+. c #4E5B5B",
"@. c #515157",
"#. c #53535D",
"$. c #59555C",
"%. c #515D5D",
"&. c #5A585E",
"*. c #7C4D42",
"=. c #604F51",
"-. c #635355",
";. c #51605E",
":. c #404E62",
">. c #504E61",
",. c #415165",
"<. c #4D5562",
"1. c #555562",
"2. c #595663",
"3. c #565963",
"4. c #5B5A64",
"5. c #575468",
"6. c #5A5769",
"7. c #5D5C6A",
"8. c #615E65",
"9. c #605F6B",
"0. c #615E70",
"q. c #556263",
"w. c #576368",
"e. c #5B666C",
"r. c #5E696E",
"t. c #5D6070",
"y. c #636166",
"u. c #64626C",
"i. c #69656C",
"p. c #6D696D",
"a. c #646274",
"s. c #696772",
"d. c #626C73",
"f. c #6B6974",
"g. c #656779",
"h. c #6A667C",
"j. c #67687B",
"k. c #6D6B7B",
"l. c #726E76",
"z. c #716F7C",
"x. c #667179",
"c. c #6A737D",
"v. c #73717E",
"b. c #7A757E",
"n. c #C53D04",
"m. c #C83C04",
"M. c #E53700",
"N. c #804630",
"B. c #844738",
"V. c #854B3C",
"C. c #95563B",
"Z. c #CB450A",
"A. c #D14A08",
"S. c #85574D",
"D. c #FB893F",
"F. c #6E6980",
"G. c #726D84",
"H. c #6E7482",
"J. c #6D7883",
"K. c #757383",
"L. c #7B7683",
"P. c #7E7984",
"I. c #767789",
"U. c #79758A",
"Y. c #7B798A",
"T. c #FF00FF",
"R. c #FF00FF",
"E. c #827E89",
"W. c #FF00FF",
"Q. c #FF00FF",
"!. c #FF00FF",
"~. c #FF00FF",
"^. c #46868C",
"/. c #49A2A4",
"(. c #87818C",
"). c #FFEBAA",
"_. c #FFF5B5",
/* pixels */
"W.W.W.W.W.W.W.W.W.W.W.W.W.W.W.W.W.W.W.W.W.W.W.W.W.W.W.W.W.W.W.W.W.W.W.W.W.W.W.W.W.W.W.W.W.W.W.W.W.W.W.W.W.W.W.W.W.W.W.W.W.W.W.W.W.",
"W.W.W.W.W.W.W.W.W.W.W.W.W.W.W.W.W.W.W.W.W.W.W.W.W.W.W.W.W.W.W.W.W.W.W.W.W.W.W.W.W.W.W.W.W.W.W.W.W.W.W.W.W.W.W.W.W.W.W.W.W.W.W.W.W.",
"W.W.W.W.W.W.W.W.W.W.W.W.W.W.W.W.W.W.W.W.W.W.W.W.W.W.W.W.W.W.W.W.W.W.W.W.W.W.W.W.W.W.W.W.W.W.W.W.W.W.W.W.W.W.W.W.W.W.W.W.W.W.W.W.W.",
"W.W.W.W.W.W.W.W.W.W.W.W.W.W.W.W.W.W.W.W.W.W.W.W.W.W.W.W.W.W.W.W.W.W.W.W.W.W.W.W.W.W.W.W.W.W.W.W.W.W.W.W.W.W.W.W.W.W.W.W.W.W.W.W.W.",
"W.W.W.W.W.Q.!.!.!.~.~.!.!.~.~.~.~.~.~.~.!.~.~.!.~.~.~.~.~.~.~.!.!.!.~.~.~.!.!.~.!.~.!.!.~.~.!.~.!.!.~.~.!.~.~.~.!.!.!.Q.W.W.W.W.W.",
"W.W.W.W.Q.R.P I L K K K H H H L P J P H P K K L P H H H H H H K H H H H K L K K H H K P H J J I U H L K H H K L H P P R.Q.W.W.W.W.",
"W.W.W.W.!.K .   ..+.O.O.O.O.+...  #...X...X.X.X...r.d.d.d.d.d.d.d.d.d.e.+.....X.X.+.O.O.O.O.O.:   3.+.O.+.O.O.O.+.Y   H !.W.W.W.W.",
"W.W.W.W.!.L 4 ) #.1.7.e.7.4.1.9.3 e.#.#.#.#.#.@.#.@.X.o.{ ..o.o.o.{ o.o.o.O.O.O.O.#.@.%.&.#.} U.< 2.O.X.7.7.e.4.1.1.c.L !.W.W.W.W.",
"W.W.W.W.~.L 6  .O.} O.@.#.@.X.g.3 4.2.1.#.&.$.$.$.@.$.*.V.V.V.V.V.V.B.B.S.*.=.} @.$.$.@.@.@.X.G.1 4.$.X.@.#.#.#.O.' d.I !.W.W.W.W.",
"W.W.W.W.~.L 8 #.#.@.#.#.#.#.X.h.1 2.x x l _ N z m z v M.).).).).).).)._.D.M.N.N ^ F ^ l z [ @.G.7 4.@.@.#.#.#.#.#.O.x.I !.W.W.W.W.",
"W.W.W.W.!.L 6 } #.#.#.#.#.1.| G.1 u.4.4.4.2.8.4.4.<.C.n.n.m.m.m.m.n.m.m.Z.A.S.7.4.4.8.y.7.2.O.U.9 7.#.1.&.#.#.#.#.O.c.I !.W.W.W.W.",
"W.W.W.W.!.L 8 #.#.1.1.1.4.G B 4.0 #.' ' } } } } } } { ,.:.! ! ,.,.:.,.,.,.,.{ } } } [ [ } ' ' 5.y } { z #.#.1.1.1.O.c.I !.W.W.W.W.",
"W.W.W.W.~.K 8 #.#.#.#.#.` B t 1 < q t q t t t u t y e i i y u q t t e q t t t t y q u q t q t y 1 0 y y a } 1.#.#.O.c.L !.W.W.W.W.",
"W.W.W.W.~.L 8 1.1.#.1./ p a * X X O X X X o o o X X X X X X X . X X X X . X o o X o X o X o o o X O = b p d 7.1.1.@.c.L !.W.W.W.W.",
"W.W.W.W.!.L 8 1.3.2.2.} d # O < 1 < 5 1 5 3 < 9 7 1 5 3 3 9 3 3 9 0 1 3 < 7 9 1 9 9 0 7 0 7 5 9 < ; O 1 a M 3.2.4.#.d.I !.W.W.W.W.",
"W.W.W.W.!.L & t i i y a ; O 3 0 d z m n x n n x x x x x d d i m * i i i l z M m m M M m m m x x l 9 ; X , u q y i u g L !.W.W.W.W.",
"W.W.W.W.~.I . 6.a.h.F.z   , d ' e < ; 2 ; 2 ; ; ; ; ; q 8.y.F 8.O | ( ( 4.m ; ; ; , , ; ; ; ; ; N N q ; # ` a.a.0.F.> K ~.W.W.W.W.",
"W.W.W.W.~.K f } @.O.' g.9 0 ' i 9 F / / / / ( ( ( _ / ; e p.$.f.O 2.4.7.m e N ( _ ( _ ( ( / / e O F d , $ B O.@.O.} H.L ~.W.W.W.W.",
"W.W.W.W.!.L 4 #.3.@.} 0.3 q / 9 N _ _ _ _ _ ( _ _ _ _ ^ 0 f.8.k.O 2.8.h.m N [ _ _ _ _ ( _ _ / / s ; x < $ z 3.#.1.[ d.L !.W.W.W.W.",
"W.W.W.W.~.K 6 q i 2.O.>.; i } 9 ( _ _ _ _ _ _ _ _ _ _ F 0 f.4.k.O 2.8.k.N ^ _ [ _ _ _ _ _ _ ) ( c < x 1 $ n 3.} u { +.L ~.W.W.W.W.",
"W.W.W.W.~.L 6 6.G.#.O.7.2 y } 0 _ [ _ _ | @._ _ _ [ [ ^ q f.8.z.O 2.9.f.N ^ [ ( [ _ [ _ _ _ _ ) c ; m 1 * n 1.#.0.[ w.K !.W.W.W.W.",
"W.W.W.W.!.L 6 } #.&.O.9.< y ' 0 [ _ _ X._ _ _ _ [ _ [ / 0 g.8.z.O 2.9.k.m / _ [ _ _ _ _ _ _ _ ( c 2 m 1 # n 3.#.#.[ w.H ~.W.W.W.W.",
"W.W.W.W.!.L 6 } #.#.} a.9 y ' q _ [ [ _ _ @._ | _ _ _ / e f.8.k.O 2.u.k.N / _ [ [ _ _ _ _ [ _ _ N 2 N 1 $ n 1.#.#.{ r.H ~.W.W.W.W.",
"W.W.W.W.~.K 8 #.1.#.X.a.3 i } 0 _ _ _ _ _ _ _ _ | _ _ G 0 f.8.k.# 2.u.k.m / [ _ _ [ _ [ _ _ _ _ c ; N 1 $ z 1.#.#.} d.H !.W.W.W.W.",
"W.W.W.W.~.L 8  .1.1.O.a.9 t ' q [ _ _ _ _ [ [ [ _ [ [ / q g.8.k.O 2.u.k.M / [ _ [ _ [ [ _ _ ( _ c < M 1 * b 3.#.#.@.c.H !.W.W.W.W.",
"W.W.W.W.~.K 8 O.1.#.O.a.< q G } c _ | _ [ _ [ _ [ _ _ ^ e f.8.z.O 2.u.k.m ) [ _ _ _ _ _ _ ' _ _ e x m 1 * j 4.#.#.#.x.H !.W.W.W.W.",
"W.W.W.W.~.L 8 } #.1.O.a.9 q F 7.j.c _ _ [ _ [ _ [ _ _ ^ 0 i.e.f.# 2.9.z.m / [ _ _ _ _ _ _ _ [ g #.F x 1 # d 3.1.#.O.c.H !.W.W.W.W.",
"W.W.W.W.!.K 6 } #.#.O.a.9 0 / @.s.j.l @._ [ _ [ _ _ [ ^ 3 s.8.i.* 4.8.k.x / [ _ [ _ [ _ _ [ z 1.s.F M 1 $ d 1.#.#.O.c.H !.W.W.W.W.",
"W.W.W.W.!.L 8 } O.1.O.0.9 * B $.&.g.O.x [ [ [ _ [ _ } l } s.4.L.* u.u.t.1.x [ ' [ [ ) _ [ R #.a.#.( e 3 $ j 4.#.#.O.c.H ~.W.W.W.W.",
"W.W.W.W.!.L 6 } } O.} 0.0 * ; x y.4.G.` z / / ( _ _ l  .g.u.l.| # _ u.u.j.7.N Y ^ / R N z ' f.y.y.9 ; 0 $ a } 1.#.} c.K !.W.W.W.W.",
"W.W.W.W.!.L 8 O.} @.} a.9 ; ; $ / u.4.I.z i g a g l B g.4.l./ 9 < q N i.7.j.1.z m m M l u.g.8.f.N = 9 7 $ a 1.#.#.} c.H ~.W.W.W.W.",
"W.W.W.W.~.K 8 6.O.@.{ 0.9 ; e e * ' e.2.f.Y.Y.Y.P.Y.z.4.v.^ $ / 9 N ; N 7.4.a.K.K.K.K.K.u.2.f.s ; z 9 7 # n a.O.@.{ j.K !.W.W.W.W.",
"W.W.W.W.~.L 8 O.7.2.1.7.0 ; e c e = [ i.2.$.8.4.4.&.2.s.8.; N [ 1 @.R * N u.2.7.4.4.4.9.4.8.9.; c c 2 < # M } 2.4.#.3.K !.W.W.W.W.",
"W.W.W.W.~.L & u q 0 3 a * ; e c N ; m f.7.4.7.9.7.7.4.f.} c _ [ 9 } / q / u.7.4.u.y.7.e.7.4.9.i / c < 7 O t t t 0 t % L ~.W.W.W.W.",
"W.W.W.W.!.L . 6.h.h.k.` . ; e F ^ < l f.#.c i y e R y.k.( F _ @.< @./ i / i.e.( l i e q x 2.u.i / c 9 7 O i G.F.F.F.x.U !.W.W.W.W.",
"W.W.W.W.~.L 6 i a a i 2.> ; e c F < d l.[ F / F N N y.k.) ^ _ | < @./ i F i.k.[ R ^ / / z #.s.i ^ c < 7 $ j i i a d r L !.W.W.W.W.",
"W.W.W.W.~.P 6 1 9 1 1 5.; , e c ^ 2 d v.#.}  .#.#.} y.f.` F _ [ 5 [ / e G u.k.u.2.2.7.7.B O.i.i ^ c 2 7 $ z t 7 t u @ L ~.W.W.W.W.",
"W.W.W.W.!.L 8 5 = = * 5.3 = e c Y 2 l s.f.v.z.z.k.u.7.f.` F _ } < } ) u N s.4.9.a.u.u.u.7.7.u.i ^ c 5 7 # B < = * < E L !.W.W.W.W.",
"W.W.W.W.!.L 8 1 t >.= 6.5 ; e c F < l a.#.3.3.1.3.7.4.7.e.i _ [ < | ) q ) a.3.4.7.4.e.7.4.7.7.i ^ c 2 0 # B , p ' < ] K ~.W.W.W.W.",
"W.W.W.W.!.K u 0 1 p = 5.9 ; e N ^ ; n u.3.4.2.3.3.1.4.O.I.R c } < @./ i k.4.3.1.3.#.4.2.3.3.H.z F c 2 9 $ B 1 t a 1 ] L !.W.W.W.W.",
"W.W.W.W.~.L r q 7 M , 5.1 , e N g M 4.2.4.} ' ` ^ N #.u.#.I.` / 9 ' N v.&.u.4.@.} @.} } 8.7.3.k.z x < 7 # B 1 7 p 1 ' H !.W.W.W.W.",
"W.W.W.W.~.K r 0 1 a , 5.< , e x z z.4.4.c ; < ; ; = < $.y.&.Y.N < N 4.y.y.7.z q 0 q 0 ; M y.3.a.O.z 9 7 # B < t t 1 ] L ~.W.W.W.W.",
"W.W.W.W.!.L r 0 t b , 6.< , q i u.8.2.3 l ^ ^ F F F l , 8.i.8.k.* y.f.y.i.z i / ( _ _ / < l 8.4.1.` 0 1 # B 1 u t 1 { K ~.W.W.W.W.",
"W.W.W.W.!.K r 0 1 p * 6.9 = i / i.} , z / _ _ _ _ _ / q l i.8.K.# 2.u.y.[ 9 ) _ _ _ _ _ N 2 i &.$./ M 1 # B , u 3 1 ] K !.W.W.W.W.",
"W.W.W.W.~.K w n i u u 5.9 < x $.4.5 x [ _ _ _ _ ) [ ) N 7 i.y.v.# ' u.i./ x _ _ _ _ _ _ _ N 9 i 8./ c , $ B a t i i E L ~.W.W.W.W.",
"W.W.W.W.~.I + * = * * * O 3 F $.9 c _ _ _ _ _ _ _ _ _ Y 9 f.y.v.# } u.s.' c [ _ _ _ _ _ _ [ F 9 x ( s < O * ; ; = = + I !.W.W.W.W.",
"W.W.W.W.~.K 8 0.6.0.7.a.; < G e x _ _ _ _ _ _ _ _ _ [ N 0 f.y.j.* } u.s.} N _ _ _ _ _ _ _ _ [ Y = i z < * 5.7.4.1.6.w.L ~.W.W.W.W.",
"W.W.W.W.~.L & ` #.@.G 7.; < N i [ _ _ _ [ _ [ _ _ _ [ F 0 p.y.v.* } u.s.[ m _ _ _ _ _ _ _ [ [ _ i , n 1 * p } O.#.n w.L !.W.W.W.W.",
"W.W.W.W.!.L 4 M 5. .R M # < M i _ _ _ _ [ _ [ _ _ [ _ ^ 0 i.y.v.# } u.f.) N [ _ _ _ [ _ _ _ _ [ l < m < * p G 5.$.n k L !.W.W.W.W.",
"W.W.W.W.!.I 4 p Q ~ M  .$ 1 G i [ _ _ _ [ _ _ _ _ _ _ ^ 0 f.y.L.#  .i.f.` N [ _ _ _ _ [ [ _ _ _ x ; M 1 * n p ~ W n T L !.W.W.W.W.",
"W.W.W.W.~.K 5 n ^./.W 0.< ; G i [ _ _ _ [ _ [ _ [ _ _ Y q f.y.K.# | i.j.) N [ _ [ [ _ _ _ [ [ X.c < N 1 * G i /.J.b 3.L ~.W.W.W.W.",
"W.W.W.W.!.L 4 B d | d 7.; < G e [ _ [ _ [ _ _ _ _ _ [ F q i.y.L.# } i.f.( N [ _ _ _ _ _ _ [ [ | c , M 1 * G p F E b ;.L !.W.W.W.W.",
"W.W.W.W.!.L 4 M | #.m 0.; , / 0 _ _ _ _ _ [ _ ( _ [ [ F 9 s.y.v.# } y.s./ x [ _ _ _ _ _ [ [ _ [ x ; m 1 * G u 1.' n +.L !.W.W.W.W.",
"W.W.W.W.!.I 4 M } 2.m a.> 2 B 1.g _ _ [ [ [ [ [ [ [ / 9 a.f.8.c.# } u.u.z.F N [ [ [ [ X.[ [ [ [ 9 x m 1 # ` u 4.} n +.L ~.W.W.W.W.",
"W.W.W.W.!.I 4 n y i i s.; < N >.f.i e i i i i e i q 2 7.7.8.-.v.# [ y.4.9.g.B 5 9 9 0 0 0 q q < F / z 1 * G 1 l q z %.L ~.W.W.W.W.",
"W.W.W.W.!.K > >.1.2.2.g.9 < / $.u.L.L.L.L.L.b.E.E.b.b.u.p.f.p.f.# _ i.p.i.p.P.(.(.(.(.E.E.P.P.b.8.N l 2 * ` >. .1.#.q.L !.W.W.W.W.",
"W.W.W.W.!.P > m m m m M * , i i d i i i i i i j i s d m d i e m * a i i i i d x x x n m R N m z i i 8 7 # z B B N M Y L ~.W.W.W.W.",
"W.W.W.W.!.K : j g j g k @ + - > > 5 5 4 4 5 4 5 4 4 4 4 4 > - 4 o % - > > > > & > - - > > > 4 4 - & % , o f g g j k h H !.W.W.W.W.",
"W.W.W.W.Q.T.C Z C Z Z Z D D Z Z D A A A S S S A D Z D A S S D D D D D D A D S S D D D D Z C C D S S D D D C C C C C V T.Q.W.W.W.W.",
"W.W.W.W.W.!.~.~.~.~.~.~.~.~.~.~.~.~.~.~.~.~.~.~.~.~.~.~.~.~.~.~.~.~.~.~.~.~.~.~.~.~.~.~.~.~.~.~.~.~.~.~.~.~.~.~.~.~.~.!.W.W.W.W.W.",
"W.W.W.W.W.W.W.W.W.W.W.W.W.W.W.W.W.W.W.W.W.W.W.W.W.W.W.W.W.W.W.W.W.W.W.W.W.W.W.W.W.W.W.W.W.W.W.W.W.W.W.W.W.W.W.W.W.W.W.W.W.W.W.W.W.",
"W.W.W.W.W.W.W.W.W.W.W.W.W.W.W.W.W.W.W.W.W.W.W.W.W.W.W.W.W.W.W.W.W.W.W.W.W.W.W.W.W.W.W.W.W.W.W.W.W.W.W.W.W.W.W.W.W.W.W.W.W.W.W.W.W.",
"W.W.W.W.W.W.W.W.W.W.W.W.W.W.W.W.W.W.W.W.W.W.W.W.W.W.W.W.W.W.W.W.W.W.W.W.W.W.W.W.W.W.W.W.W.W.W.W.W.W.W.W.W.W.W.W.W.W.W.W.W.W.W.W.W.",
"W.W.W.W.W.W.W.W.W.W.W.W.W.W.W.W.W.W.W.W.W.W.W.W.W.W.W.W.W.W.W.W.W.W.W.W.W.W.W.W.W.W.W.W.W.W.W.W.W.W.W.W.W.W.W.W.W.W.W.W.W.W.W.W.W.",
"W.W.W.W.W.W.W.W.W.W.W.W.W.W.W.W.W.W.W.W.W.W.W.W.W.W.W.W.W.W.W.W.W.W.W.W.W.W.W.W.W.W.W.W.W.W.W.W.W.W.W.W.W.W.W.W.W.W.W.W.W.W.W.W.W."
};
