/* XPM */
static char *result[] = {
/* columns rows colors chars-per-pixel */
"65 65 172 2 ",
"   c #000300",
".  c #030D04",
"X  c #060F08",
"o  c #0A0C0D",
"O  c #001201",
"+  c #001902",
"@  c #07140B",
"#  c #09120B",
"$  c #061C0C",
"%  c #08180E",
"&  c #0E1312",
"*  c #071E10",
"=  c #091F13",
"-  c #111013",
";  c #15151C",
":  c #131A1C",
">  c #18181E",
",  c #0A210E",
"<  c #0A2115",
"1  c #0C2418",
"2  c #162B1C",
"3  c #14211C",
"4  c #171720",
"5  c #1A1A22",
"6  c #1C1D29",
"7  c #171923",
"8  c #260E28",
"9  c #251126",
"0  c #261128",
"q  c #261D2A",
"w  c #380C39",
"e  c #2A1930",
"r  c #1A2F21",
"t  c #1E2429",
"y  c #1C3123",
"u  c #212226",
"i  c #22232C",
"p  c #213528",
"a  c #252633",
"s  c #292533",
"d  c #272832",
"f  c #2A2B35",
"g  c #2C2C3A",
"h  c #352E3B",
"j  c #3D2E3D",
"k  c #2A3E34",
"l  c #2E323B",
"z  c #2B373A",
"x  c #32323D",
"c  c #323C3E",
"v  c #443432",
"b  c #32443C",
"n  c #3F1243",
"m  c #2F3341",
"M  c #343442",
"N  c #393643",
"B  c #343E43",
"V  c #3B3A44",
"C  c #3E3D4A",
"Z  c #313E4A",
"A  c #2F3F50",
"S  c #FF00FF",
"D  c #FF00FF",
"F  c #FF00FF",
"G  c #FF00FF",
"H  c #FF00FF",
"J  c #FF00FF",
"K  c #FF00FF",
"L  c #FF00FF",
"P  c #FF00FF",
"I  c #FF00FF",
"U  c #423544",
"Y  c #403F4C",
"T  c #FF00FF",
"R  c #FF00FF",
"E  c #FF00FF",
"W  c #FF00FF",
"Q  c #FF00FF",
"!  c #FF00FF",
"~  c #FF00FF",
"^  c #FF00FF",
"/  c #FF00FF",
"(  c #FF00FF",
")  c #FF00FF",
"_  c #FF00FF",
"`  c #FF00FF",
"'  c #FF00FF",
"]  c #374246",
"[  c #364842",
"{  c #3A4B46",
"}  c #394449",
"|  c #3B4D48",
" . c #434146",
".. c #43434D",
"X. c #484A4D",
"o. c #454552",
"O. c #484657",
"+. c #4B4B55",
"@. c #4B4759",
"#. c #434D5E",
"$. c #4C4C5A",
"%. c #424D50",
"&. c #455152",
"*. c #4D5157",
"=. c #4E525A",
"-. c #4E595F",
";. c #53545D",
":. c #58555F",
">. c #5F5356",
",. c #635251",
"<. c #665759",
"1. c #4F4E60",
"2. c #444F61",
"3. c #455164",
"4. c #4A5164",
"5. c #46586A",
"6. c #555661",
"7. c #585762",
"8. c #565A62",
"9. c #595A65",
"0. c #5D5C6A",
"q. c #4A5971",
"w. c #605F6E",
"e. c #635E74",
"r. c #566164",
"t. c #576168",
"y. c #5C656D",
"u. c #596267",
"i. c #5F6870",
"p. c #60606D",
"a. c #656375",
"s. c #676578",
"d. c #6A667A",
"f. c #6C697C",
"g. c #606972",
"h. c #CA2900",
"j. c #D73400",
"k. c #D73D00",
"l. c #DC4A00",
"z. c #EA4100",
"x. c #EC5509",
"c. c #EF681E",
"v. c #FF8033",
"b. c #F3813D",
"n. c #F48644",
"m. c #FFAD66",
"M. c #FFB36E",
"N. c #3B7B82",
"B. c #716D81",
"V. c #FF00FF",
"C. c #FF00FF",
"Z. c #FF00FF",
"A. c #FF00FF",
"S. c #FF00FF",
"D. c #FF00FF",
"F. c #FF00FF",
"G. c #FF00FF",
"H. c #FF00FF",
"J. c #FF00FF",
"K. c #FF00FF",
"L. c #FF00FF",
"P. c #FF00FF",
"I. c #FF00FF",
"U. c #FF00FF",
"Y. c #FF00FF",
"T. c #FF00FF",
"R. c #FF00FF",
"E. c #FF00FF",
"W. c #3C8287",
"Q. c #46A8A8",
"!. c #4FE7DF",
"~. c #51E6DF",
/* pixels */
"P.P.P.P.P.P.P.P.P.P.P.P.P.P.P.P.P.P.P.P.P.P.P.P.P.P.P.P.P.P.P.P.P.P.P.P.P.P.P.P.P.P.P.P.P.P.P.P.P.P.P.P.P.P.P.P.P.P.P.P.P.P.P.P.P.",
"P.P.P.P.P.P.P.P.P.P.P.P.P.P.P.P.P.P.P.P.P.P.P.P.P.P.P.P.P.P.P.P.P.P.P.P.P.P.P.P.P.P.P.P.P.P.P.P.P.P.P.P.P.P.P.P.P.P.P.P.P.P.P.P.P.",
"P.P.P.P.P.P.P.P.P.P.P.P.P.P.P.P.P.P.P.P.P.P.P.P.P.P.P.P.P.P.P.P.P.P.P.P.P.P.P.P.P.P.P.P.P.P.P.P.P.P.P.P.P.P.P.P.P.P.P.P.P.P.P.P.P.",
"P.P.P.P.P.P.P.P.P.P.P.P.P.P.P.P.P.P.P.P.P.P.P.P.P.P.P.P.P.P.P.P.P.P.P.P.P.P.P.P.P.P.P.P.P.P.P.P.P.P.P.P.P.P.P.P.P.P.P.P.P.P.P.P.P.",
"P.P.P.P.P.P.U.U.U.U.U.U.U.U.U.U.U.U.U.U.U.U.U.P.U.U.U.U.U.U.U.U.U.U.U.U.U.U.U.U.U.U.U.U.U.U.U.U.U.U.U.U.U.U.U.U.U.U.U.P.P.P.P.P.P.",
"P.P.P.P.P.L.S.G.G.G.S.S.F.F.G.F.G.S.S.S.S.S.S.A.F.S.S.S.S.S.S.S.S.S.S.S.S.S.S.S.S.S.S.G.F.F.F.F.G.F.S.G.G.S.S.F.F.F.G.H.U.P.P.P.P.",
"P.P.P.P.U.A.O . , y r 2 2 2 2 2 . b b [ [ [ b b b | { | %.b %.{ %.b { { b %.%.b b | b p y r 2 p O , y 2 2 2 2 2 2 2 . S R.P.P.P.P.",
"P.P.P.P.U.S.$ f $.s.s.s.f.f.f.f.> :.9.;.;.;.:.;.;.;.*.*.*.*.&.*.*.>.*.*.*.*.*.*.*.*.;.:.9.9.w.p.V Y p.w.a.a.d.f.f.a.} ) T.P.P.P.P.",
"P.P.P.P.U.A.= +.;.*.*.*.;.*.+.w.s ;.;.*.:.:.;.;.:.;.6.5.4.4.4.#.| 3.2.4.2.2.5.4.;.*.;.:.;.;.*.7.1.V :.*.*.;.;.;.;.+.i.V.U.P.P.P.P.",
"P.P.P.P.U.A.= $.;.*.;.=.;.;.*.d.i ;.;.;.j Y >.c V } v h.v.M.m.m.M.M.m.m.M.x.z.A  .X.+.v V N ;.9.$.C :.*.;.*.;.;.;.*.r.V.T.P.P.P.P.",
"P.P.P.P.U.S.= +.;.;.;.;.;.:.*.f.a ;.;.:.:.;.;.;.;.;.,.j.c.n.b.b.n.c.b.b.n.l.k.q.:.;.;.;.;.;.;.0.@.V :.;.;.;.;.6.:.;.u.V.U.P.P.P.P.",
"P.P.P.P.U.A.* O.;.;.;.6.6.X.+.d.a 6.;.;.:.:.:.-.6.;.;.<.<.,.,.,.<.,.,.,.>.<.<.6.;.;.8.;.;.;.;.9.O.Y 7.*.:.;.;.6.:.;.r.V.T.P.P.P.P.",
"P.P.P.P.U.A.< O.;.;.;.;.7.C g M s M x M x M x x x N M M M m m m Z M m m M m M M N M x x M x x x g g h g f $.6.;.;.;.r.V.U.P.P.P.P.",
"P.P.P.P.U.A.< +.;.;.6.$.a f g 4 . X X X X X @ X X O X X X O X X X X O X X # X @ # # # # # # # # X X 6 f f f 6.6.;.;.r.C.T.P.P.P.P.",
"P.P.P.P.U.S.< +.9.8.7.o.g g 4 . - 8 9 0 9 0 0 0 0 0 8 0 0 0 0 0 0 0 0 0 8 0 9 9 0 9 9 9 0 0 9 0 8 #   6 g d 0.6.;.;.r.Z.U.P.P.P.P.",
"P.P.P.P.U.A.* x ....Y C M ; . w L.E.R.E.E.R.E.E.R.E.E.R.E.E.E.R.E.E.E.R.E.E.R.E.E.E.E.E.E.E.R.E.E.L.9 . 6 f h ..X...c ' T.P.P.P.P.",
"P.P.P.P.U.S.. V @.@.@.M o . W E.I.P.P.P.P.P.P.P.P.P.P.P.P.P.P.P.P.P.P.P.P.P.P.P.P.P.P.P.P.P.P.P.I.U.T.w   t @.O.@.$.B D T.P.P.P.P.",
"P.P.P.P.U.S.< $.9.8.8.6.f O J.I.P.P.P.P.P.P.P.P.P.P.P.P.P.P.P.P.P.P.P.P.P.P.P.P.P.P.P.P.P.P.P.P.P.P.R./ . ..6.;.6.9.t._ Y.P.P.P.P.",
"P.P.P.P.U.A.< +.6.=.=.6.... H.I.P.P.P.P.P.P.P.P.P.P.P.P.P.P.P.P.P.P.P.P.P.P.P.P.P.P.P.P.P.P.P.P.P.P.T.E O a +.;.;.=.6.C.Y.P.P.P.P.",
"P.P.P.P.U.A.* V ..=.;.@.x O H.I.P.P.P.P.P.P.P.P.P.P.P.P.P.P.P.P.P.P.P.P.P.P.P.P.P.P.P.P.P.P.P.P.P.P.T.E O g +.6.C =.| ' Y.P.P.P.P.",
"P.P.P.P.U.A.< g @.;.;.$.c . H.I.P.P.P.P.P.P.P.P.P.P.P.P.P.P.P.P.P.P.P.P.P.P.P.P.P.P.P.P.P.P.P.P.P.P.T.E O f $.;.M =.=.^ T.P.P.P.P.",
"P.P.P.P.U.S.< C 0.;.;.6.Y O H.I.P.P.P.P.P.P.P.P.P.P.P.P.P.P.P.P.P.P.P.P.P.P.P.P.P.P.P.P.P.P.P.P.P.P.T.E . f $.;.8.=.-.! T.P.P.P.P.",
"P.P.P.P.U.A.< ..;.;.;.8.Y . H.I.P.P.P.P.P.P.P.P.P.P.P.P.P.P.P.P.P.P.P.P.P.P.P.P.P.P.P.P.P.P.P.P.P.P.T.E O g $.6.=.;.-.R T.P.P.P.P.",
"P.P.P.P.U.A.= o.;.;.;.;.C . H.I.P.P.P.P.P.P.P.P.P.P.P.P.P.P.P.P.P.P.P.P.P.P.P.P.P.P.P.P.P.P.P.P.P.P.T.E O g $.6.;.=.6.Q T.P.P.P.P.",
"P.P.P.P.U.S.< o.;.;.;.7.C . H.I.P.P.P.P.P.P.P.P.P.P.P.P.P.P.P.P.P.P.P.P.P.P.P.P.P.P.P.P.P.P.P.P.P.P.Y./ O f $.6.;.;.y.Q T.P.P.P.P.",
"P.P.P.P.U.A.< o.6.6.6.0.Y O H.I.P.P.P.P.P.P.P.P.P.P.P.P.P.P.P.P.P.P.P.P.P.P.P.P.P.P.P.P.P.P.P.P.P.P.T./ O f $.6.;.=.i.Q T.P.P.P.P.",
"P.P.P.P.U.A.< o.8.6.=.0.C O H.I.P.P.P.P.P.P.P.P.P.P.P.P.P.P.P.P.P.P.P.P.P.P.P.P.P.P.P.P.P.P.P.P.P.P.Y./ O g =.6.6.=.i.! T.P.P.P.P.",
"P.P.P.P.U.S.* ..6.;.=.0.C O H.I.P.P.P.P.P.P.P.P.P.P.P.P.P.P.P.P.P.P.P.P.P.P.P.P.P.P.P.P.P.P.P.P.P.P.Y.E X g $.;.;.=.i.Q Y.P.P.P.P.",
"P.P.P.P.U.S.= o.;.;.=.0.C O H.I.P.P.P.P.P.P.P.P.P.P.P.P.P.P.P.P.P.P.P.P.P.P.P.P.P.P.P.P.P.P.P.P.P.P.T./ O g $.6.;.;.y.Q T.P.P.P.P.",
"P.P.P.P.U.A.< ..;.;.=.0.C O H.I.P.P.P.P.P.P.P.P.P.P.P.P.P.P.P.P.P.P.P.P.P.P.P.P.P.P.P.P.P.P.P.P.P.P.Y./ . g @.=.=.=.p.! T.P.P.P.P.",
"P.P.P.P.U.S.= O.;.=.*.0.C O H.I.P.P.P.P.P.P.P.P.P.P.P.P.P.P.P.P.P.P.P.P.P.P.P.P.P.P.P.P.P.P.P.P.P.P.T./ O g ;.;.;.=.i.! T.P.P.P.P.",
"P.P.P.P.U.A.* $.8.;.$.p.Y . H.I.P.P.P.P.P.P.P.P.P.P.P.P.P.P.P.P.P.P.P.P.P.P.P.P.P.P.P.P.P.P.P.P.P.P.Y./ O f 6.;.=.=.y.! T.P.P.P.P.",
"P.P.P.P.U.A.= +.;.7.;.0.C O H.I.P.P.P.P.P.P.P.P.P.P.P.P.P.P.P.P.P.P.P.P.P.P.P.P.P.P.P.P.P.P.P.P.P.P.T./ O g 0.8.6.8.y.) T.P.P.P.P.",
"P.P.P.P.U.A.< d f l g g u O H.I.P.P.P.P.P.P.P.P.P.P.P.P.P.P.P.P.P.P.P.P.P.P.P.P.P.P.P.P.P.P.P.P.P.P.Y./ . a i a f f y K T.P.P.P.P.",
"P.P.P.P.U.S.. 6.d.d.d.C   + H.I.P.P.P.P.P.P.P.P.P.P.P.P.P.P.P.P.P.P.P.P.P.P.P.P.P.P.P.P.P.P.P.P.P.P.R./ . 5 a.a.e.e.*.I T.P.P.P.P.",
"P.P.P.P.U.A.< l x x h +.M O H.I.P.P.P.P.P.P.P.P.P.P.P.P.P.P.P.P.P.P.P.P.P.P.P.P.P.P.P.P.P.P.P.P.P.P.Y./ O g f g g x c ~ T.P.P.P.P.",
"P.P.P.P.U.S.< i i i 5 @.V O H.I.P.P.P.P.P.P.P.P.P.P.P.P.P.P.P.P.P.P.P.P.P.P.P.P.P.P.P.P.P.P.P.P.P.P.T./ O m a 6 t t : D R.P.P.P.P.",
"P.P.P.P.U.S.< f 5 > ; @.V O H.I.P.P.P.P.P.P.P.P.P.P.P.P.P.P.P.P.P.P.P.P.P.P.P.P.P.P.P.P.P.P.P.P.P.P.Y./ . M f 4 ; 7 z L T.P.P.P.P.",
"P.P.P.P.U.S.< f 4 M ; @.V O H.I.P.P.P.P.P.P.P.P.P.P.P.P.P.P.P.P.P.P.P.P.P.P.P.P.P.P.P.P.P.P.P.P.P.P.T./ O M g 6 1.; ] ! T.P.P.P.P.",
"P.P.P.P.U.A.< g 6 f 4 O.V O H.I.P.P.P.P.P.P.P.P.P.P.P.P.P.P.P.P.P.P.P.P.P.P.P.P.P.P.P.P.P.P.P.P.P.P.T./ O M f 6 f ; B Q T.P.P.P.P.",
"P.P.P.P.U.S.< g 7 a 7 @.M O H.I.P.P.P.P.P.P.P.P.P.P.P.P.P.P.P.P.P.P.P.P.P.P.P.P.P.P.P.P.P.P.P.P.P.P.T./ O M s t a 4 ] R R.P.P.P.P.",
"P.P.P.P.U.S.< g 6 g 4 O.V O H.I.P.P.P.P.P.P.P.P.P.P.P.P.P.P.P.P.P.P.P.P.P.P.P.P.P.P.P.P.P.P.P.P.P.L.T./ O M d a M 7 ] ~ T.P.P.P.P.",
"P.P.P.P.U.D.< f 6 m > @.N O H.I.P.P.P.P.P.P.P.P.P.P.P.P.P.P.P.P.P.P.P.P.P.P.P.P.P.P.P.P.P.P.P.P.P.P.T./ O M d a m 7 ] ~ T.P.P.P.P.",
"P.P.P.P.U.S.< x t d ; @.V O H.I.P.P.P.P.P.P.P.P.P.P.P.P.P.P.P.P.P.P.P.P.P.P.P.P.P.P.P.P.P.P.P.P.P.P.T./ X M a a e 7 } R T.P.P.P.P.",
"P.P.P.P.U.S.< x ; > ; O.N O H.I.P.P.P.P.P.P.P.P.P.P.P.P.P.P.P.P.P.P.P.P.P.P.P.P.P.P.P.P.P.P.P.P.P.P.R./ O M g > 7 5 ] ! T.P.P.P.P.",
"P.P.P.P.U.S.+ f f s i i ; + H.I.P.P.P.P.P.P.P.P.P.P.P.P.P.P.P.P.P.P.P.P.P.P.P.P.P.P.P.P.P.P.P.P.P.P.Y./ O i f a d a 3 L T.P.P.P.P.",
"P.P.P.P.U.S.$ N M M M N > + H.I.P.P.P.P.P.P.P.P.P.P.P.P.P.P.P.P.P.P.P.P.P.P.P.P.P.P.P.P.P.P.P.P.P.P.T./ . f N x x M z ! T.P.P.P.P.",
"P.P.P.P.U.A.* o.8.7.;.6.V O H.I.P.P.P.P.P.P.P.P.P.P.P.P.P.P.P.P.P.P.P.P.P.P.P.P.P.P.P.P.P.P.P.P.P.P.Y./ % g ;.9.8.;.y.' Y.P.P.P.P.",
"P.P.P.P.I.S.1 a 6.6.o.C g O H.U.P.P.P.P.P.P.P.P.P.P.P.P.P.P.P.P.P.P.P.P.P.P.P.P.P.P.P.P.P.P.P.P.P.P.T./ % a N 6.6.o.c ^ Y.P.P.P.P.",
"P.P.P.P.I.S.1 a N N h C 6 O H.I.P.P.P.P.P.P.P.P.P.P.P.P.P.P.P.P.P.P.P.P.P.P.P.P.P.P.P.P.P.P.P.P.P.P.Y./ % g m U j M ] R T.P.P.P.P.",
"P.P.P.P.I.S.= M N.~.N.Y f + H.I.P.P.P.P.P.P.P.P.P.P.P.P.P.P.P.P.P.P.P.P.P.P.P.P.P.P.P.P.P.P.P.P.P.P.R./ # M s Q.!.Z X.L T.P.P.P.P.",
"P.P.P.P.I.F.= C q j h $.x O H.I.P.P.P.P.P.P.P.P.P.P.P.P.P.P.P.P.P.P.P.P.P.P.P.P.P.P.P.P.P.P.P.P.P.P.Y./ # M g q U f &.L T.P.P.P.P.",
"P.P.P.P.U.S.1 C M ;.C $.x O H.U.P.P.P.P.P.P.P.P.P.P.P.P.P.P.P.P.P.P.P.P.P.P.P.P.P.P.P.P.P.P.P.P.P.P.T./ % M g ..;.f &.P R.P.P.P.P.",
"P.P.P.P.U.A.= C V ;. .$.V O H.U.P.P.P.P.P.P.P.P.P.P.P.P.P.P.P.P.P.P.P.P.P.P.P.P.P.P.P.P.P.P.P.P.P.P.T./ % M l $.7.g &.P T.P.P.P.P.",
"P.P.P.P.U.A.< C x *.M $.x O H.U.P.P.P.P.P.P.P.P.P.P.P.P.P.P.P.P.P.P.P.P.P.P.P.P.P.P.P.P.P.P.P.P.P.P.T./ % M g o.$.f &.T T.P.P.P.P.",
"P.P.P.P.U.S.< V u u u 6.V O H.I.P.P.P.P.P.P.P.P.P.P.P.P.P.P.P.P.P.P.P.P.P.P.P.P.P.P.P.P.P.P.P.P.P.P.Y./ @ M M i i x &.R T.P.P.P.P.",
"P.P.P.P.U.S.* +.6.:.6.;.M O K.E.R.R.R.R.R.R.R.R.R.R.R.R.R.R.R.R.R.R.R.R.R.R.R.R.R.R.R.R.R.R.T.R.R.R.E.( % M 6.;.;.;.-.! T.P.P.P.P.",
"P.P.P.P.U.S.< M g g f x 5 % n J G G G G J G G G J G G G J G G G G J G G G G J G J G G G G G J H J J J e & g l M l x z R T.P.P.P.P.",
"P.P.P.P.U.D.O $ $ $ $ $ O O + + + + + + + + + + + + + + + + + + + + + + + + + + + + + + + + + + + + + O . O + O O @ + F T.P.P.P.P.",
"P.P.P.P.P.U.R.R.R.R.R.R.R.R.R.R.R.R.R.R.R.R.R.R.R.R.R.R.R.R.R.R.R.R.R.R.R.R.R.R.R.R.R.R.R.R.R.R.R.R.R.R.R.R.R.R.R.R.R.Y.P.P.P.P.P.",
"P.P.P.P.P.P.P.P.P.P.P.P.P.P.P.P.P.P.P.P.P.P.P.P.P.P.P.P.P.P.P.P.P.P.P.P.P.P.P.P.P.P.P.P.P.P.P.P.P.P.P.P.P.P.P.P.P.P.P.P.P.P.P.P.P.",
"P.P.P.P.P.P.P.P.P.P.P.P.P.P.P.P.P.P.P.P.P.P.P.P.P.P.P.P.P.P.P.P.P.P.P.P.P.P.P.P.P.P.P.P.P.P.P.P.P.P.P.P.P.P.P.P.P.P.P.P.P.P.P.P.P.",
"P.P.P.P.P.P.P.P.P.P.P.P.P.P.P.P.P.P.P.P.P.P.P.P.P.P.P.P.P.P.P.P.P.P.P.P.P.P.P.P.P.P.P.P.P.P.P.P.P.P.P.P.P.P.P.P.P.P.P.P.P.P.P.P.P.",
"P.P.P.P.P.P.P.P.P.P.P.P.P.P.P.P.P.P.P.P.P.P.P.P.P.P.P.P.P.P.P.P.P.P.P.P.P.P.P.P.P.P.P.P.P.P.P.P.P.P.P.P.P.P.P.P.P.P.P.P.P.P.P.P.P.",
"P.P.P.P.P.P.P.P.P.P.P.P.P.P.P.P.P.P.P.P.P.P.P.P.P.P.P.P.P.P.P.P.P.P.P.P.P.P.P.P.P.P.P.P.P.P.P.P.P.P.P.P.P.P.P.P.P.P.P.P.P.P.P.P.P."
};
