/* XPM */
static char *f570d2f70a234b3cb13fcc6d704a66dcJNjt4mx6VegoMVAi[] = {
/* columns rows colors chars-per-pixel */
"64 64 170 2 ",
"   c #010701",
".  c #000D00",
"X  c #060E08",
"o  c #0B0D0D",
"O  c #001300",
"+  c #001E01",
"@  c #04140A",
"#  c #021B09",
"$  c #0D0E11",
"%  c #100F17",
"&  c #1B0C1A",
"*  c #0F1013",
"=  c #0A1E15",
"-  c #101216",
";  c #14151B",
":  c #16181B",
">  c #191A1F",
",  c #22001D",
"<  c #002000",
"1  c #05220E",
"2  c #0C2413",
"3  c #0E221A",
"4  c #11251D",
"5  c #162B1F",
"6  c #171720",
"7  c #181721",
"8  c #1B1C24",
"9  c #1D1E2A",
"0  c #2A0727",
"q  c #2A0A2A",
"w  c #300C2F",
"e  c #350D35",
"r  c #371138",
"t  c #39153B",
"y  c #3C1A3F",
"u  c #1D2225",
"i  c #142820",
"p  c #1A2E25",
"a  c #1F212A",
"s  c #1C3023",
"d  c #212227",
"f  c #23242C",
"g  c #27282F",
"h  c #24372D",
"j  c #25382E",
"k  c #262632",
"l  c #282633",
"z  c #272833",
"x  c #292935",
"c  c #272838",
"v  c #2C2C3B",
"b  c #312D3A",
"n  c #2A3136",
"m  c #273B31",
"M  c #2B3D34",
"N  c #2F353C",
"B  c #33323D",
"V  c #3B383D",
"C  c #73240B",
"Z  c #6E3F2F",
"A  c #33463E",
"S  c #2F2F40",
"D  c #2F3040",
"F  c #353542",
"G  c #393642",
"H  c #353C44",
"J  c #3A3944",
"K  c #3C3B49",
"L  c #480E49",
"P  c #441444",
"I  c #421F45",
"U  c #471F4A",
"Y  c #5D0C5D",
"T  c #600F5F",
"R  c #442147",
"E  c #462249",
"W  c #49224D",
"Q  c #433D4A",
"!  c #453E49",
"~  c #4C2551",
"^  c #522B58",
"/  c #57355F",
"(  c #5F0E60",
")  c #620D62",
"_  c #7B0A7A",
"`  c #5A3462",
"'  c #683F72",
"]  c #3A4848",
"[  c #3F504C",
"{  c #31505A",
"}  c #365F68",
"|  c #42434E",
" . c #5A4A4A",
".. c #41524E",
"X. c #464651",
"o. c #4B4554",
"O. c #474B53",
"+. c #4B4C55",
"@. c #4D4D5A",
"#. c #524F52",
"$. c #5D4E51",
"%. c #514F5D",
"&. c #445351",
"*. c #4B5057",
"=. c #4E5259",
"-. c #515257",
";. c #53545D",
":. c #58565F",
">. c #52595E",
",. c #5F595E",
"<. c #644F51",
"1. c #645153",
"2. c #60555A",
"3. c #455469",
"4. c #4B5769",
"5. c #565662",
"6. c #585763",
"7. c #565A63",
"8. c #5A5964",
"9. c #595669",
"0. c #5D5B6C",
"q. c #485B71",
"w. c #615E6E",
"e. c #694175",
"r. c #6B4375",
"t. c #625E73",
"y. c #5A6169",
"u. c #61606F",
"i. c #656375",
"p. c #686477",
"a. c #676478",
"s. c #696579",
"d. c #6B687D",
"f. c #E43200",
"g. c #E53C00",
"h. c #A84F29",
"j. c #EA5B0F",
"k. c #F2671B",
"l. c #F3691C",
"z. c #F76C20",
"x. c #805653",
"c. c #FE9A58",
"v. c #3C7F85",
"b. c #6D6E83",
"n. c #980897",
"m. c #A503A4",
"M. c #A504A5",
"N. c #A903A7",
"B. c #AA00A9",
"V. c #AB00AA",
"C. c #AD00AA",
"Z. c #AB05AB",
"A. c #AE00AE",
"S. c #AA09AA",
"D. c #B103AF",
"F. c #B102B0",
"G. c #B304B2",
"H. c #B906B9",
"J. c #E001DF",
"K. c #E302E1",
"L. c #F100EF",
"P. c #F300F1",
"I. c #FF00FE",
"U. c magenta",
"Y. c #3E8A8F",
"T. c #4FD5D1",
"R. c #FFC282",
"E. c #FFC484",
"W. c #FFC888",
"Q. c #FFD290",
/* pixels */
"U.U.U.U.U.U.U.U.U.U.U.U.U.U.U.U.U.U.U.U.U.U.U.U.U.U.U.U.U.U.U.U.U.U.U.U.U.U.U.U.U.U.U.U.U.U.U.U.U.U.U.U.U.U.U.U.U.U.U.U.U.U.U.U.",
"U.U.U.U.U.U.U.U.U.U.U.U.U.U.U.U.U.U.U.U.U.U.U.U.U.U.U.U.U.U.U.U.U.U.U.U.U.U.U.U.U.U.U.U.U.U.U.U.U.U.U.U.U.U.U.U.U.U.U.U.U.U.U.U.",
"U.U.U.U.U.U.U.U.U.U.U.U.U.U.U.U.U.U.U.U.U.U.U.U.U.U.U.U.U.U.U.U.U.U.U.U.U.U.U.U.U.U.U.U.U.U.U.U.U.U.U.U.U.U.U.U.U.U.U.U.U.U.U.U.",
"U.U.U.U.U.U.U.U.U.U.U.U.U.U.U.U.U.U.U.U.U.U.U.U.U.U.U.U.U.U.U.U.U.U.U.U.U.U.U.U.U.U.U.U.U.U.U.U.U.U.U.U.U.U.U.U.U.U.U.U.U.U.U.U.",
"U.U.U.U.U.U.U.U.U.U.U.U.U.U.U.U.U.U.U.U.U.U.U.U.U.U.U.U.U.U.U.U.U.U.U.U.U.U.U.U.U.U.U.U.U.U.U.U.U.U.U.U.U.U.U.U.U.U.U.U.U.U.U.U.",
"U.U.U.U.U.K.Z.G.A.C.C.A.A.A.A.A.F.V.V.V.V.V.C.C.V.V.V.V.V.V.V.V.V.V.V.V.V.V.V.V.V.V.C.C.A.C.C.F.F.A.C.A.C.C.A.A.C.D.H.U.U.U.U.U.",
"U.U.U.U.U.M..   5 M m j j h j s . &.....[ ..] A ..&.&.&...&...&.&.&.&...&.........[ M m m M M 2 # M j j h h h h M   & U.U.U.U.U.",
"U.U.U.U.U.M.3 F 5.u.u.i.p.i.u.w.8 8.;.;.;.;.;.;.;.;.*.=.*.+.+.*.*.*.*.*.*.+.*.*.@.*.;.;.5.6.6.5.v 0.7.0.0.i.p.i.0.7.^ U.U.U.U.U.",
"U.U.U.U.U.m.4 @.=.*.*.-.;.=.+.0.g 8.;.;.5.;.;.:.;.;.;.,.<.1.1. .$.1.<.1.$.2.:.;.;.;.;.;.;.;.=.t.v 6.;.*.-.;.;.;.@.7.e.U.U.U.U.U.",
"U.U.U.U.U.M.3 @.;.;.;.;.;.;.@.p.g 8.;.@.B +.Q B B H C f.Q.E.E.E.R.E.E.W.c.g.Z J J #.V J B @.;.t.b 5.;.;.;.;.;.;.;.>.' U.U.U.U.U.",
"U.U.U.U.U.M.3 @.;.;.;.;.;.5.@.s.g 8.;.;.8.;.;.8.8.4.h.g.z.l.k.k.k.k.k.k.j.g.x.8.8.5.8.8.5.;.;.t.v 5.;.;.;.;.;.5.;.7.e.U.U.U.U.U.",
"U.U.U.U.U.m.3 @.;.;.;.5.8.F 6.t.l w.;.;.5.5.5.5.5.;.4.q.3.3.3.3.3.3.3.3.3.q.5.;.;.;.;.;.;.;.;.9.B 8.;.;.5.;.;.;.;.7.e.U.U.U.U.U.",
"U.U.U.U.U.m.4 +.;.;.;.;.%.b k k f k k k k k z k x x z z z k k k k z k z c z x x z x x x x z z x f k k f | ;.;.;.;.7.e.U.U.U.U.U.",
"U.U.U.U.U.m.3 @.;.;.5.| k v k $ . . . . . . . . . . . . . . . . . . . . . . . . . . O O . . . . . - z v k @.5.;.;.>.e.U.U.U.U.U.",
"U.U.U.U.U.m.4 +.8.6.5.| v k * . L ) Y Y Y Y Y ( Y Y Y Y Y ) Y ) ( Y ) Y Y ( Y Y T Y Y Y ( Y Y ) L . * v x %.5.5.5.=.e.U.U.U.U.U.",
"U.U.U.U.U.M.= v B B B F g o . Z.U.U.U.U.U.U.U.U.U.U.U.U.U.U.U.U.U.U.U.U.U.U.U.U.U.U.U.U.U.U.U.U.U.n.. - f x B F F n R U.U.U.U.U.",
"U.U.U.U.U.N.  5.0.0.t.B   . J.U.U.U.U.U.U.U.U.U.U.U.U.U.U.U.U.U.U.U.U.U.U.U.U.U.U.U.U.U.U.U.U.U.U.U._ . > 9.9.0.t.5., U.U.U.U.U.",
"U.U.U.U.U.m.p @.;.;.=.0.f O U.U.U.U.U.U.U.U.U.U.U.U.U.U.U.U.U.U.U.U.U.U.U.U.U.U.U.U.U.U.U.U.U.U.U.U.Z.. F @.=.=.=.7.' U.U.U.U.U.",
"U.U.U.U.U.m.3 ;.5.;.=.i.g O U.U.U.U.U.U.U.U.U.U.U.U.U.U.U.U.U.U.U.U.U.U.U.U.U.U.U.U.U.U.U.U.U.U.U.U.S.. z | ;.;.;.O.` U.U.U.U.U.",
"U.U.U.U.U.M.3 b v 5.;.+.u O U.U.U.U.U.U.U.U.U.U.U.U.U.U.U.U.U.U.U.U.U.U.U.U.U.U.U.U.U.U.U.U.U.U.U.U.S.. x X.;.B +.O.` U.U.U.U.U.",
"U.U.U.U.U.m.4 K s.;.=.0.f O U.U.U.U.U.U.U.U.U.U.U.U.U.U.U.U.U.U.U.U.U.U.U.U.U.U.U.U.U.U.U.U.U.U.U.U.S.. v X.;.+.;.*.U U.U.U.U.U.",
"U.U.U.U.U.m.4 | ;.;.=.0.g O U.U.U.U.U.U.U.U.U.U.U.U.U.U.U.U.U.U.U.U.U.U.U.U.U.U.U.U.U.U.U.U.U.U.U.U.S.. v X.5.;.;.*.W U.U.U.U.U.",
"U.U.U.U.U.m.4 +.;.;.@.i.g O U.U.U.U.U.U.U.U.U.U.U.U.U.U.U.U.U.U.U.U.U.U.U.U.U.U.U.U.U.U.U.U.U.U.U.U.S.. v | 5.;.;.*.U U.U.U.U.U.",
"U.U.U.U.U.m.4 +.;.;.=.t.g O U.U.U.U.U.U.U.U.U.U.U.U.U.U.U.U.U.U.U.U.U.U.U.U.U.U.U.U.U.U.U.U.U.U.U.U.S.. v X.5.;.;.7.W U.U.U.U.U.",
"U.U.U.U.U.m.3 +.;.;.;.i.g O U.U.U.U.U.U.U.U.U.U.U.U.U.U.U.U.U.U.U.U.U.U.U.U.U.U.U.U.U.U.U.U.U.U.U.U.S.. v X.5.;.;.y.E U.U.U.U.U.",
"U.U.U.U.U.m.4 +.5.;.;.s.f O U.U.U.U.U.U.U.U.U.U.U.U.U.U.U.U.U.U.U.U.U.U.U.U.U.U.U.U.U.U.U.U.U.U.U.U.S.. v X.5.;.;.y.~ U.U.U.U.U.",
"U.U.U.U.U.m.3 +.5.;.=.a.f O U.U.U.U.U.U.U.U.U.U.U.U.U.U.U.U.U.U.U.U.U.U.U.U.U.U.U.U.U.U.U.U.U.U.U.U.S.. v X.;.;.;.y.~ U.U.U.U.U.",
"U.U.U.U.U.m.3 +.5.;.=.a.g O U.U.U.U.U.U.U.U.U.U.U.U.U.U.U.U.U.U.U.U.U.U.U.U.U.U.U.U.U.U.U.U.U.U.U.U.S.. v X.;.;.;.y.U U.U.U.U.U.",
"U.U.U.U.U.m.4 X.;.;.=.a.f O U.U.U.U.U.U.U.U.U.U.U.U.U.U.U.U.U.U.U.U.U.U.U.U.U.U.U.U.U.U.U.U.U.U.U.U.S.. v X.;.;.;.y.W U.U.U.U.U.",
"U.U.U.U.U.m.4 X.;.;.@.i.f O U.U.U.U.U.U.U.U.U.U.U.U.U.U.U.U.U.U.U.U.U.U.U.U.U.U.U.U.U.U.U.U.U.U.U.U.S.. v X.;.;.;.y.~ U.U.U.U.U.",
"U.U.U.U.U.m.3 @.;.;.@.s.f O U.U.U.U.U.U.U.U.U.U.U.U.U.U.U.U.U.U.U.U.U.U.U.U.U.U.U.U.U.U.U.U.U.U.U.U.S.. c +.;.;.=.y.~ U.U.U.U.U.",
"U.U.U.U.U.M.3 5.5.;.=.d.g O U.U.U.U.U.U.U.U.U.U.U.U.U.U.U.U.U.U.U.U.U.U.U.U.U.U.U.U.U.U.U.U.U.U.U.U.S.. z 9.;.;.;.7.^ U.U.U.U.U.",
"U.U.U.U.U.m.4 J X.+.O.@.8 O U.U.U.U.U.U.U.U.U.U.U.U.U.U.U.U.U.U.U.U.U.U.U.U.U.U.U.U.U.U.U.U.U.U.U.U.S.. x J | X.O.| E U.U.U.U.U.",
"U.U.U.U.U.m.@ J J J G f o O U.U.U.U.U.U.U.U.U.U.U.U.U.U.U.U.U.U.U.U.U.U.U.U.U.U.U.U.U.U.U.U.U.U.U.U.S.. 7 G F F F x 0 U.U.U.U.U.",
"U.U.U.U.U.M.# 9.0.0.t.o.- O U.U.U.U.U.U.U.U.U.U.U.U.U.U.U.U.U.U.U.U.U.U.U.U.U.U.U.U.U.U.U.U.U.U.U.U.S.. 8 9.9.9.0.8.~ U.U.U.U.U.",
"U.U.U.U.U.m.3 a a a 8 9.f O U.U.U.U.U.U.U.U.U.U.U.U.U.U.U.U.U.U.U.U.U.U.U.U.U.U.U.U.U.U.U.U.U.U.U.U.S.. v f 8 a 9 u q U.U.U.U.U.",
"U.U.U.U.U.m.4 z k f 8 9.f O U.U.U.U.U.U.U.U.U.U.U.U.U.U.U.U.U.U.U.U.U.U.U.U.U.U.U.U.U.U.U.U.U.U.U.U.S.. v F a a a a q U.U.U.U.U.",
"U.U.U.U.U.M.5 f - 8 $ 0.f O U.U.U.U.U.U.U.U.U.U.U.U.U.U.U.U.U.U.U.U.U.U.U.U.U.U.U.U.U.U.U.U.U.U.U.U.S.. S F % z - H R U.U.U.U.U.",
"U.U.U.U.U.m.i z 9 J > 9.f O U.U.U.U.U.U.U.U.U.U.U.U.U.U.U.U.U.U.U.U.U.U.U.U.U.U.U.U.U.U.U.U.U.U.U.U.S.. v B 8 F 7 H R U.U.U.U.U.",
"U.U.U.U.U.m.4 g 8 v 7 9.f O U.U.U.U.U.U.U.U.U.U.U.U.U.U.U.U.U.U.U.U.U.U.U.U.U.U.U.U.U.U.U.U.U.U.U.U.S.. v B 9 z 6 H I U.U.U.U.U.",
"U.U.U.U.U.m.4 k 9 F 6 9.f O U.U.U.U.U.U.U.U.U.U.U.U.U.U.U.U.U.U.U.U.U.U.U.U.U.U.U.U.U.U.U.U.U.U.U.U.S.. v B 9 F 7 H R U.U.U.U.U.",
"U.U.U.U.U.m.4 z a v 6 9.f O U.U.U.U.U.U.U.U.U.U.U.U.U.U.U.U.U.U.U.U.U.U.U.U.U.U.U.U.U.U.U.U.U.U.U.U.S.. v B f F 7 H E U.U.U.U.U.",
"U.U.U.U.U.M.4 z f k > 9.f O U.U.U.U.U.U.U.U.U.U.U.U.U.U.U.U.U.U.U.U.U.U.U.U.U.U.U.U.U.U.U.U.U.U.U.U.S.. v B f k 7 H I U.U.U.U.U.",
"U.U.U.U.U.m.4 g > 8 - 9.f O U.U.U.U.U.U.U.U.U.U.U.U.U.U.U.U.U.U.U.U.U.U.U.U.U.U.U.U.U.U.U.U.U.U.U.U.S.. v B - 7 - ] R U.U.U.U.U.",
"U.U.U.U.U.m.4 K J F F K : O U.U.U.U.U.U.U.U.U.U.U.U.U.U.U.U.U.U.U.U.U.U.U.U.U.U.U.U.U.U.U.U.U.U.U.U.S.. v K F F F N y U.U.U.U.U.",
"U.U.U.U.U.N.. * $ o $ $ X O U.U.U.U.U.U.U.U.U.U.U.U.U.U.U.U.U.U.U.U.U.U.U.U.U.U.U.U.U.U.U.U.U.U.U.U.S.. o $ $ $ $ X w U.U.U.U.U.",
"U.U.U.U.U.m.p t.p.s.i.b.g O U.U.U.U.U.U.U.U.U.U.U.U.U.U.U.U.U.U.U.U.U.U.U.U.U.U.U.U.U.U.U.U.U.U.U.U.S.O K t.s.p.p.b./ U.U.U.U.U.",
"U.U.U.U.U.m.= v ;.=.J @.d O U.U.U.U.U.U.U.U.U.U.U.U.U.U.U.U.U.U.U.U.U.U.U.U.U.U.U.U.U.U.U.U.U.U.U.U.S.O c B ;.;.+.H ~ U.U.U.U.U.",
"U.U.U.U.U.m.4 z o.! G F ; O U.U.U.U.U.U.U.U.U.U.U.U.U.U.U.U.U.U.U.U.U.U.U.U.U.U.U.U.U.U.U.U.U.U.U.U.S.O v v o.! K H y U.U.U.U.U.",
"U.U.U.U.U.m.4 b Y.T.} @.> O U.U.U.U.U.U.U.U.U.U.U.U.U.U.U.U.U.U.U.U.U.U.U.U.U.U.U.U.U.U.U.U.U.U.U.U.S.O F b v.T.{ O.r U.U.U.U.U.",
"U.U.U.U.U.m.4 K l G v 9.d O U.U.U.U.U.U.U.U.U.U.U.U.U.U.U.U.U.U.U.U.U.U.U.U.U.U.U.U.U.U.U.U.U.U.U.U.S.O S F l G x *.t U.U.U.U.U.",
"U.U.U.U.U.m.4 K F ;.F 9.d O U.U.U.U.U.U.U.U.U.U.U.U.U.U.U.U.U.U.U.U.U.U.U.U.U.U.U.U.U.U.U.U.U.U.U.U.S.O D F F %.B *.e U.U.U.U.U.",
"U.U.U.U.U.m.3 K Q ;.F 9.d O U.U.U.U.U.U.U.U.U.U.U.U.U.U.U.U.U.U.U.U.U.U.U.U.U.U.U.U.U.U.U.U.U.U.U.U.S.O v F | ;.B *.e U.U.U.U.U.",
"U.U.U.U.U.M.4 K | 8.J 9.d O U.U.U.U.U.U.U.U.U.U.U.U.U.U.U.U.U.U.U.U.U.U.U.U.U.U.U.U.U.U.U.U.U.U.U.U.S.O S F +.8.B *.r U.U.U.U.U.",
"U.U.U.U.U.m.4 B : ; 8 0.d O U.U.U.U.U.U.U.U.U.U.U.U.U.U.U.U.U.U.U.U.U.U.U.U.U.U.U.U.U.U.U.U.U.U.U.U.S.O v J : > f =.t U.U.U.U.U.",
"U.U.U.U.U.m.3 @.8.5.5.0.d O U.U.U.U.U.U.U.U.U.U.U.U.U.U.U.U.U.U.U.U.U.U.U.U.U.U.U.U.U.U.U.U.U.U.U.U.H.O v 8.5.5.9.=.W U.U.U.U.U.",
"U.U.U.U.U.m.4 B v v v F : @ ) Y Y Y Y Y Y Y Y Y Y Y Y Y Y Y Y Y Y Y Y Y Y Y Y Y Y Y Y Y Y Y Y Y Y Y P @ v B B B B N t U.U.U.U.U.",
"U.U.U.U.U.n.O 2 1 1 1 1 O O < + < + < < + + < < < + + < < + + + < + + < < < + + + + + < + + + + + + O . O # # # # + & U.U.U.U.U.",
"U.U.U.U.U.U.P.P.P.P.L.P.P.P.P.P.P.P.P.P.P.P.P.P.P.P.P.P.P.P.P.P.P.P.P.P.P.P.P.P.P.P.P.P.P.P.P.P.P.P.P.P.P.P.P.P.P.P.P.U.U.U.U.U.",
"U.U.U.U.U.U.U.U.U.U.U.U.U.U.U.U.U.U.U.U.U.U.U.U.U.U.U.U.U.U.U.U.U.U.U.U.U.U.U.U.U.U.U.U.U.U.U.U.U.U.U.U.U.U.U.U.U.U.U.U.U.U.U.U.",
"U.U.U.U.U.U.U.U.U.U.U.U.U.U.U.U.U.U.U.U.U.U.U.U.U.U.U.U.U.U.U.U.U.U.U.U.U.U.U.U.U.U.U.U.U.U.U.U.U.U.U.U.U.U.U.U.U.U.U.U.U.U.U.U.",
"U.U.U.U.U.U.U.U.U.U.U.U.U.U.U.U.U.U.U.U.U.U.U.U.U.U.U.U.U.U.U.U.U.U.U.U.U.U.U.U.U.U.U.U.U.U.U.U.U.U.U.U.U.U.U.U.U.U.U.U.U.U.U.U.",
"U.U.U.U.U.U.U.U.U.U.U.U.U.U.U.U.U.U.U.U.U.U.U.U.U.U.U.U.U.U.U.U.U.U.U.U.U.U.U.U.U.U.U.U.U.U.U.U.U.U.U.U.U.U.U.U.U.U.U.U.U.U.U.U.",
"U.U.U.U.U.U.U.U.U.U.U.U.U.U.U.U.U.U.U.U.U.U.U.U.U.U.U.U.U.U.U.U.U.U.U.U.U.U.U.U.U.U.U.U.U.U.U.U.U.U.U.U.U.U.U.U.U.U.U.U.U.U.U.U."
};
