/* XPM */
static char *a2cf5144074f40d7c676d24ca3630813KOBsuOrsNOaelq1k[] = {
/* columns rows colors chars-per-pixel */
"64 64 190 2 ",
"   c #010201",
".  c #010A01",
"X  c #060A09",
"o  c #0A0D0E",
"O  c #001302",
"+  c #051A0A",
"@  c #0B1C0E",
"#  c #0C0E11",
"$  c #0D1212",
"%  c #071B10",
"&  c #0C1C13",
"*  c #111416",
"=  c #181717",
"-  c #111A16",
";  c #14151B",
":  c #141D1D",
">  c #1A1A1D",
",  c #0D220E",
"<  c #0F2310",
"1  c #0E231B",
"2  c #0A2818",
"3  c #122413",
"4  c #11241D",
"5  c #1D2F1D",
"6  c #1D311E",
"7  c #171821",
"8  c #1C1C23",
"9  c #1C1D2A",
"0  c #240823",
"q  c #290929",
"w  c #201F27",
"e  c #271F2A",
"r  c #320632",
"t  c #350935",
"y  c #360B38",
"u  c #371639",
"i  c #39163A",
"p  c #361A39",
"a  c #1A2425",
"s  c #162821",
"d  c #1E232A",
"f  c #1E3221",
"g  c #222126",
"h  c #24242C",
"j  c #29242E",
"k  c #25292C",
"l  c #2B2B2D",
"z  c #302F2F",
"x  c #233524",
"c  c #252632",
"v  c #2A2632",
"b  c #272834",
"n  c #2B2B34",
"m  c #262838",
"M  c #2C2C3A",
"N  c #332634",
"B  c #302E37",
"V  c #332E3A",
"C  c #273236",
"Z  c #2C343B",
"A  c #323135",
"S  c #34333B",
"D  c #39363C",
"F  c #3B3A3E",
"G  c #36403F",
"H  c #67443B",
"J  c #3D1B41",
"K  c #2D3844",
"L  c #343442",
"P  c #3A3643",
"I  c #343B43",
"U  c #3C3B42",
"Y  c #363748",
"T  c #3C3D4A",
"R  c #51044F",
"E  c #411D43",
"W  c #451F48",
"Q  c #530552",
"!  c #550B55",
"~  c #5C0C5C",
"^  c #591059",
"/  c #412045",
"(  c #452249",
")  c #49244D",
"_  c #423D46",
"`  c #413F4A",
"'  c #4C2552",
"]  c #542D5B",
"[  c #66156C",
"{  c #750F74",
"}  c #6D1272",
"|  c #5E3D66",
" . c #613A68",
".. c #3D4146",
"X. c #3F424C",
"o. c #3C4658",
"O. c #3E495C",
"+. c #414146",
"@. c #44444C",
"#. c #49464B",
"$. c #46494E",
"%. c #49494F",
"&. c #464551",
"*. c #484753",
"=. c #4A4B51",
"-. c #404B5E",
";. c #4D4D59",
":. c #514F57",
">. c #514E5C",
",. c #4E5056",
"<. c #47525D",
"1. c #4D525B",
"2. c #525157",
"3. c #53545C",
"4. c #5A575C",
"5. c #52595E",
"6. c #69514F",
"7. c #60585D",
"8. c #705B5C",
"9. c #404B60",
"0. c #555661",
"q. c #585762",
"w. c #555A62",
"e. c #5B5A64",
"r. c #59566A",
"t. c #56596B",
"y. c #5D5D6A",
"u. c #67406E",
"i. c #605E67",
"p. c #605F68",
"a. c #6B4373",
"s. c #6E4578",
"d. c #625E72",
"f. c #576068",
"g. c #5C626C",
"h. c #636067",
"j. c #64626B",
"k. c #69666D",
"l. c #6C696E",
"z. c #706C6F",
"x. c #656474",
"c. c #6A6772",
"v. c #656C74",
"b. c #6C6A73",
"n. c #676579",
"m. c #696679",
"M. c #676E79",
"N. c #6C6C7C",
"B. c #706C74",
"V. c #716E7A",
"C. c #677077",
"Z. c #6B717B",
"A. c #787477",
"S. c #74727B",
"D. c #79757C",
"F. c #833416",
"G. c #DB2A00",
"H. c #E83900",
"J. c #B4440E",
"K. c #AF4212",
"L. c #B34412",
"P. c #B44B1C",
"I. c #89432E",
"U. c #8F4A30",
"Y. c #9B4E32",
"T. c #A24F32",
"R. c #A35132",
"E. c #9F5F41",
"W. c #FFAA6A",
"Q. c #736C86",
"!. c #737383",
"~. c #797784",
"^. c #7D7D90",
"/. c #A603A5",
"(. c #A806A8",
"). c #A608A8",
"_. c #B702B6",
"`. c #C606C5",
"'. c magenta",
"]. c #408189",
"[. c #438E94",
"{. c #439095",
"}. c #53E1DE",
"|. c #57E5E1",
" X c #80808E",
".X c #808092",
"XX c #FFDFA7",
"oX c #FFDEA8",
"OX c #FFE2AD",
"+X c #FFEBAF",
/* pixels */
"'.'.'.'.'.'.'.'.'.'.'.'.'.'.'.'.'.'.'.'.'.'.'.'.'.'.'.'.'.'.'.'.'.'.'.'.'.'.'.'.'.'.'.'.'.'.'.'.'.'.'.'.'.'.'.'.'.'.'.'.'.'.'.'.",
"'.'.'.'.'.'.'.'.'.'.'.'.'.'.'.'.'.'.'.'.'.'.'.'.'.'.'.'.'.'.'.'.'.'.'.'.'.'.'.'.'.'.'.'.'.'.'.'.'.'.'.'.'.'.'.'.'.'.'.'.'.'.'.'.",
"'.'.'.'.'.'.'.'.'.'.'.'.'.'.'.'.'.'.'.'.'.'.'.'.'.'.'.'.'.'.'.'.'.'.'.'.'.'.'.'.'.'.'.'.'.'.'.'.'.'.'.'.'.'.'.'.'.'.'.'.'.'.'.'.",
"'.'.'.'.'.'.'.'.'.'.'.'.'.'.'.'.'.'.'.'.'.'.'.'.'.'.'.'.'.'.'.'.'.'.'.'.'.'.'.'.'.'.'.'.'.'.'.'.'.'.'.'.'.'.'.'.'.'.'.'.'.'.'.'.",
"'.'.'.'.'.'.'.'.'.'.'.'.'.'.'.'.'.'.'.'.'.'.'.'.'.'.'.'.'.'.'.'.'.'.'.'.'.'.'.'.'.'.'.'.'.'.'.'.'.'.'.'.'.'.'.'.'.'.'.'.'.'.'.'.",
"'.'.'.'.'.`.! ~ ! Q Q Q Q Q Q Q ~ Q Q Q Q Q Q Q Q Q Q Q Q Q Q Q Q Q Q Q Q Q Q Q R R R Q Q Q Q ! ~ Q Q Q Q Q Q Q Q ^ { '.'.'.'.'.",
"'.'.'.'.'.)..   ..g.y.g.g.g.x.3.. g.5.w.w.w.5.5.Z.Z.M.v.v.v.v.v.v.v.v.v.v.v.C.M.Z.Z.M.5.w.w.0.G @ x.g.y.e.y.g.g.N.  0 '.'.'.'.'.",
"'.'.'.'.'./.s ;.1.;.1.3.y.3.1.d.c 5.2.3.3.3.3.3.3.2.1.<.<.<.<.<.<.<.<.<.<.<.1.1.,.,.,.2.3.2.,.d.V 3.;.1.1.3.e.e.*.!.| '.'.'.'.'.",
"'.'.'.'.'./.4 *.3.2.2.2.3.2.=.Q.h 0.2.2.2.2.2.2.2.,.H I.R.R.T.Y.T.T.R.Y.Y.U.6.=.2.2.2.:.=.2.2.n.M 3.2.2.2.3.3.3.3.5.a.'.'.'.'.'.",
"'.'.'.'.'./.4 *.3.2.2.2.3.3.=.Q.h q.3.*.;.P T U #.X.F.G.+XOXXXoXXXoXoXOXW.H.H S @.+.%.U U %.3.d.M 5.2.3.2.3.3.3.3.w.a.'.'.'.'.'.",
"'.'.'.'.'./.4 *.0.3.3.3.q.;.;.Q.h y.3.q.e.e.y.y.y.t.E.P.L.J.K.L.L.L.L.L.P.P.8.y.q.q.e.y.y.3.3.x.Z e.0.3.0.0.3.3.3.w.a.'.'.'.'.'.",
"'.'.'.'.'./.4 *.0.0.0.3.y.L T *.c *.@.@.@.*.*.*.*.*.o.o.O.O.O.-.O.O.9.O.o.o.&.*.@.@.@.@.@.@.@.@.M *.` *.q.0.3.3.3.w.s.'.'.'.'.'.",
"'.'.'.'.'./.4 *.0.0.3.;.T b h 8 * 8 8 8 8 8 8 8 8 8 8 8 8 8 8 8 8 8 8 8 8 8 8 8 8 8 8 8 8 8 8 8 8 c b b T ;.3.3.3.5.a.'.'.'.'.'.",
"'.'.'.'.'./.4 ;.q.3.0.T M b $   ; * * ; ; ; ; ; ; ; ; ; ; & & % % % % * $ $ $ $ # o o o o o o o X $ b M c ;.0.3.3.1.a.'.'.'.'.'.",
"'.'.'.'.'./.4 *.0.q.0.3.M o X M v V V S S S S T n T T ` v } [ [ [ [ } a ` T @.T P P L L S S M M d o # M M T e.e.q.1.u.'.'.'.'.'.",
"'.'.'.'.'.(.. c h h h g o   V n +.#.%.=.%.%.=.=.l P B.k.S '.'.'.'.'.'.6 B.j.;.+.2.:.;.=.%.#.U S n g * o 8 v h h h a q '.'.'.'.'.",
"'.'.'.'.'.(.O x.m.m.N.*.* g S +.%.%.%.%.%.%.%.=.F n k.b.D '.'.'.'.'.'.f b.b.3.P =.=.=.%.%.$.@.U A k h X h n.n.m.N.x.i '.'.'.'.'.",
"'.'.'.'.'./.s ;.3.3.=.m.n c h ;.%.=.%.%.=.%.=.=.P M k.b.T '.'.'.'.'.'.6 b.c.>.U =.=.%.%.%.=.$.@.F h h $ M *.2.3.2.1. .'.'.'.'.'.",
"'.'.'.'.'./.4 T 3.3.=.n.v v h =.%.%.=.=.=.%.=.=.P S c.b.U '.'.'.'.'.'.f V.c.>.P =.=.=.=.=.%.%.@.U h c o b *.0.*.1.1.] '.'.'.'.'.",
"'.'.'.'.'./.4 M T 0.1.n.l b h %.=.=.=.=.%.=.=.=.P S c.b._ '.'.'.'.'.'.f S.c.3.P =.%.%.=.=.%.%.@.U g c o M *.q.T ;.5.) '.'.'.'.'.",
"'.'.'.'.'./.4 ;.n.3.1.m.l b b @.=.%.=.%.=.=.=.=.P S b.b.+.'.'.'.'.'.'.f S.b.3.U =.%.=.%.=.=.%.@.U g c # M *.3.y.3.1.( '.'.'.'.'.",
"'.'.'.'.'./.4 @.3.3.1.n.h v 3.n =.%.=.=.=.=.=.=.P S c.b._ '.'.'.'.'.'.6 V.c.0.U =.=.%.=.=.%.%.@.n D v o M *.3.2.2.5.W '.'.'.'.'.",
"'.'.'.'.'./.4 *.0.0.2.m.l v =.N.S =.%.=.=.=.=.=.P S b.M.@.'.'.'.'.'.'.f B.k.0.U =.%.=.%.%.=.=.A >._ c o M *.3.3.3.0.' '.'.'.'.'.",
"'.'.'.'.'./.4 *.0.3.2.n.h n #.x.!.S %.=.=.%.%.=.U B k.k.S '.'.'.'.'.'.x b.k.y.P =.=.%.=.%.=.A ;.e._ v o M @.0.3.3.e.' '.'.'.'.'.",
"'.'.'.'.'./.4 *.0.0.2.m.h n #.4.j.n.@.%.=.=.=.=.S S.h.l.D '.'.'.'.'.'.5 A.h.!.*.@.=.=.=.;.n c.j.=.+.n o M *.0.0.3.g.) '.'.'.'.'.",
"'.'.'.'.'./.4 *.0.3.1.n.h 8 @.l.4.N.N.P n A S k ~.l.B.j.S '.'.'.'.'.'.3 k.B.y. X3.l S A v y.k.e.4.#.h o M @.0.3.3.g.' '.'.'.'.'.",
"'.'.'.'.'./.4 *.0.0.2.n.l > * @.l.y.y.!.!.b.j.b.y.B.~.n > '.'.'.'.'.'.O 8 4.c.q.^.!.N.N.!.x.h.h.:.> 8 o M *.0.3.3.g.' '.'.'.'.'.",
"'.'.'.'.'./.1 *.0.3.2.n.l 8 h * +.k.i.y.k.k.k.k.c.c.h S k '.'.'.'.'.'.3 A ; 2.l.q.h.j.j.j.y.k.j.; g h # M @.0.3.3.g.' '.'.'.'.'.",
"'.'.'.'.'./.1 *.3.3.2.n.h > S A ; =.c.j.y.y.p.h.x.;.n %.l '.'.'.'.'.'., 2.S 8 q.j.j.j.j.j.c.b.; l A h # M @.3.3.3.g.' '.'.'.'.'.",
"'.'.'.'.'./.1 *.3.3.1.x.k > A +.n 8 3.j.y.e.q.i.k.q.@.=.l '.'.'.'.'.'.< ;.=.8 e.j.e.0.q.e.k.S v U l h # M @.1.3.2.e.' '.'.'.'.'.",
"'.'.'.'.'./.4 *.3.3.1.x.h > A +.U 8 2.j.y.y.e.k.c.q.+.=.l '.'.'.'.'.'.3 ,.%.8 y.k.y.y.y.e.B.P U F l h # b *.2.3.2.f.' '.'.'.'.'.",
"'.'.'.'.'./.1 y.q.0.1.n.v > A @.U 8 :.B.+.l P c.k.q.+.=.l '.'.'.'.'.'., 2.@.8 y.l.e.v S 3.S.D U F l h # b r.0.0.3.g.] '.'.'.'.'.",
"'.'.'.'.'./.1 M +.@.@.*.8 8 A @.U 8 2.S.*.U P c.k.e.+.=.h '.'.'.'.'.'., ,.@.w p.k.~.n +.2.D.F _ F l h o M M +.@.@.I i '.'.'.'.'.",
"'.'.'.'.'.(.. >.>.;.>.v X 8 A @.+.8 2.S.@.U S c.c.q.+.=.l '.'.'.'.'.'., ,.%.w y.k.S.n U 2.D.S +.F l h o ; >.>.;.;.;.i '.'.'.'.'.",
"'.'.'.'.'./.& @.*.*.*.0.> > A @.+.8 2.S.@...S b.b.q.+.=.l '.'.'.'.'.'., ,.@.w i.k.S.A U >.S.S +.F l h $ c *.*.*.*.1.) '.'.'.'.'.",
"'.'.'.'.'./.1 g g h 8 >.> > A @.+.8 2.S.@.S P B.k.y.+.,.l '.'.'.'.'.'.< 2.@.w y.k.S.g S ;.S.S +.F l h $ M n d h g : 0 '.'.'.'.'.",
"'.'.'.'.'./.1 b 8 8 8 r.8 > A @.+.8 2.j.V.~.c.j.k.i.U =.l '.'.'.'.'.'., ;.@.8 e.j.N.~.V.=.D.S +.F l h # M S 8 8 9 k q '.'.'.'.'.",
"'.'.'.'.'./.1 v ; @.; r.g > A @.+.8 ;.y.p.j.j.j.c.y._ ,.k '.'.'.'.'.'., ,.@.8 e.j.q.y.j.j.S.S +.U z h # M L 7 T ; I W '.'.'.'.'.",
"'.'.'.'.'./.1 b 9 T 8 0.g > A @.F S y.y.e.e.y.e.g.S.@.$.l '.'.'.'.'.'., ,.+.n j.y.e.q.e.q.n.N.B U l h # M L 9 L 8 I E '.'.'.'.'.",
"'.'.'.'.'./.1 Z 9 c ; r.g > A +.S 3.y.j.j.y.j.y.q.x.S...l '.'.'.'.'.'., @.P e.j.p.y.y.y.j.0.N.3.l l h # M L 9 M 7 I E '.'.'.'.'.",
"'.'.'.'.'./.1 M 9 Y 7 r.h > F v N.h.l.;.g w 8 j.l.y.N.Z.= '.'.'.'.'.'.+ Z .Xj.j.c.S P S 0.j.0.y.3.8 m # M L 9 M 8 I J '.'.'.'.'.",
"'.'.'.'.'./.1 n d L 7 r.h > g V.q.l.2.g A S S * =.l.e.j.5.'.'.'.'.'.'.O V.j.k.B.8 g g 8 8 3.k.e.2._ c o M S 9 Y 8 I J '.'.'.'.'.",
"'.'.'.'.'./.1 n h c 7 r.g M *.e.l.#.g @.=.=.=.U 8 ;.l.j.@.'.'.'.'.'.'.x b.c.i.8 U %.=.+.n ; ;.h.2.@.c o M S 9 c 8 I J '.'.'.'.'.",
"'.'.'.'.'./.4 S ; 8 8 r.h M @.k.2.g +.%.%.%.=.=.A g j.l.V '.'.'.'.'.'.@ B.b.P A %.=.%.=.%.A > U 2._ h o M S 8 8 8 T J '.'.'.'.'.",
"'.'.'.'.'./.% b n b b k $ n =.P h @.=.%.=.=.%.=.S j k.B.U '.'.'.'.'.'.& S.b.=.U =.%.%.=.=.%.D g P _ c o d M M v n k u '.'.'.'.'.",
"'.'.'.'.'./.% &.@.@.&.*.* S B h @.%.%.%.%.%.%.=.U j b.b._ '.'.'.'.'.'.@ S.c.*.U =.=.=.=.%.%.@.U 8 h m X n *.&.&.L X.W '.'.'.'.'.",
"'.'.'.'.'./.& X.3.1.=.r.g B n U =.=.=.=.%.=.=.=.U v b.b._ '.'.'.'.'.'.@ S.b.*.U =.%.%.=.%.%.%.@.D 8 M o d @.1.;.@.1.] '.'.'.'.'.",
"'.'.'.'.'./.1 b y.0.*.&.> B n U =.=.=.=.=.=.=.%.U v c.b.` '.'.'.'.'.'.@ S.c.=.U =.%.=.%.=.%.%.%.F d m o m Z e.0.*.L J '.'.'.'.'.",
"'.'.'.'.'./.1 M V N v ;.> n M U =.=.%.%.%.=.=.=.U l b.b.+.'.'.'.'.'.'.@ S.c.*.U =.=.%.=.=.%.%.%.U w m o M M N e M $.u '.'.'.'.'.",
"'.'.'.'.'./.1 V {.}.].>.8 n S U =.=.%.%.%.=.=.=.U v c.b._ '.'.'.'.'.'.@ S.c.*.U =.%.=.%.%.=.%.%.U g m o L N [.|.K 3.E '.'.'.'.'.",
"'.'.'.'.'./.1 P j _ P 3.8 n S U =.=.=.%.=.=.=.=.U v c.b.U '.'.'.'.'.'.@ S.c.*.U =.%.%.%.%.=.%.%.F g m o L S j _ v 1.J '.'.'.'.'.",
"'.'.'.'.'./.1 P *.3.T 0.8 v S U =.=.=.%.=.=.%.=.U v c.b.P '.'.'.'.'.'.& S.c.*.U =.%.=.%.%.%.%.%.D 8 m o L S @.3.M 5.( '.'.'.'.'.",
"'.'.'.'.'./.1 P @.q.` q.8 v P A =.=.=.=.=.=.=.=.A U c.l.D '.'.'.'.'.'.3 B.c.=.P =.=.=.=.=.=.=.@.n v m o L S *.e.M 5.E '.'.'.'.'.",
"'.'.'.'.'./.1 L L +.S e.8 v ;.3.S P P P P P P S n c.j.j.h '.'.'.'.'.'.6 z.j.j.S S S S S S S A n S D m o L M n U g 5.W '.'.'.'.'.",
"'.'.'.'.'./.& *.>.;.>.q.g h =.j.S.B.c.b.b.b.b.B.S.B.l.l.#.'.'.'.'.'.'.5 A.l.l.~.S.V.B.B.c.k.B.c.7.D 9 o M *.T T =.w.( '.'.'.'.'.",
"'.'.'.'.'./.% @.+.@.X.T * 8 n n S S S S S S D S S S U P g '.'.'.'.'.'.+ S B n S S S S P P P S S S h d o b @.@.@.@.@./ '.'.'.'.'.",
"'.'.'.'.'./.2 Z Z Z Z I - $ : a a a a a a a a a a d C C 4 * & & - - * & a d d a a a a a a a a a a a : X C Z Z Z Z C p '.'.'.'.'.",
"'.'.'.'.'._.0 r r r r r y y y y y y y y t y y y y y t y y t y y y y t y y t y y y y y y y y y y y y y y r r r r r q R '.'.'.'.'.",
"'.'.'.'.'.'.'.'.'.'.'.'.'.'.'.'.'.'.'.'.'.'.'.'.'.'.'.'.'.'.'.'.'.'.'.'.'.'.'.'.'.'.'.'.'.'.'.'.'.'.'.'.'.'.'.'.'.'.'.'.'.'.'.'.",
"'.'.'.'.'.'.'.'.'.'.'.'.'.'.'.'.'.'.'.'.'.'.'.'.'.'.'.'.'.'.'.'.'.'.'.'.'.'.'.'.'.'.'.'.'.'.'.'.'.'.'.'.'.'.'.'.'.'.'.'.'.'.'.'.",
"'.'.'.'.'.'.'.'.'.'.'.'.'.'.'.'.'.'.'.'.'.'.'.'.'.'.'.'.'.'.'.'.'.'.'.'.'.'.'.'.'.'.'.'.'.'.'.'.'.'.'.'.'.'.'.'.'.'.'.'.'.'.'.'.",
"'.'.'.'.'.'.'.'.'.'.'.'.'.'.'.'.'.'.'.'.'.'.'.'.'.'.'.'.'.'.'.'.'.'.'.'.'.'.'.'.'.'.'.'.'.'.'.'.'.'.'.'.'.'.'.'.'.'.'.'.'.'.'.'.",
"'.'.'.'.'.'.'.'.'.'.'.'.'.'.'.'.'.'.'.'.'.'.'.'.'.'.'.'.'.'.'.'.'.'.'.'.'.'.'.'.'.'.'.'.'.'.'.'.'.'.'.'.'.'.'.'.'.'.'.'.'.'.'.'.",
"'.'.'.'.'.'.'.'.'.'.'.'.'.'.'.'.'.'.'.'.'.'.'.'.'.'.'.'.'.'.'.'.'.'.'.'.'.'.'.'.'.'.'.'.'.'.'.'.'.'.'.'.'.'.'.'.'.'.'.'.'.'.'.'."
};
