/* XPM */
static char *dc3aa1511556465fcf00d2a183734707RGnUjkF8dy0BbAOm[] = {
/* columns rows colors chars-per-pixel */
"64 64 177 2 ",
"   c #030604",
".  c #050905",
"X  c #050708",
"o  c #060809",
"O  c #090B0C",
"+  c #0D0F12",
"@  c #0D1213",
"#  c #0C1814",
"$  c #101216",
"%  c #111C16",
"&  c #15151B",
"*  c #131B1B",
"=  c #1A1A1E",
"-  c #14211F",
";  c #171721",
":  c #1C1C23",
">  c #1E1F2A",
",  c #290629",
"<  c #30072F",
"1  c #201F24",
"2  c #281A29",
"3  c #301E2D",
"4  c #2F0532",
"5  c #320632",
"6  c #340935",
"7  c #360B38",
"8  c #162224",
"9  c #1B2525",
"0  c #1D2926",
"q  c #1D2329",
"w  c #1E292B",
"e  c #1F342F",
"r  c #222124",
"t  c #23232B",
"y  c #2F212E",
"u  c #222B2D",
"i  c #2A2A2E",
"p  c #252633",
"a  c #282731",
"s  c #252A32",
"d  c #2C2B33",
"f  c #272939",
"g  c #2C2C3A",
"h  c #342533",
"j  c #312D36",
"k  c #312F3B",
"l  c #263133",
"z  c #2E3136",
"x  c #2B3837",
"c  c #2B363A",
"v  c #2F383F",
"b  c #313136",
"n  c #34333B",
"m  c #39373D",
"M  c #3B3A3F",
"N  c #2D423E",
"B  c #7B4339",
"V  c #2F3740",
"C  c #2C3947",
"Z  c #363542",
"A  c #383642",
"S  c #343944",
"D  c #3C3B43",
"F  c #373948",
"G  c #3D3C49",
"H  c #52044F",
"J  c #550654",
"K  c #580657",
"L  c #540954",
"P  c #580B57",
"I  c #570658",
"U  c #5A065A",
"Y  c #57085A",
"T  c #5B0A5C",
"R  c #571057",
"E  c #403E45",
"W  c #413E4C",
"Q  c #4B3D4B",
"!  c #5F0B61",
"~  c #620C62",
"^  c #651165",
"/  c #671268",
"(  c #69156C",
")  c #6B196D",
"_  c #790576",
"`  c #790879",
"'  c #364143",
"]  c #384143",
"[  c #3C4847",
"{  c #3B434C",
"}  c #3F494E",
"|  c #3C4556",
" . c #3C4658",
".. c #3E495B",
"X. c #424146",
"o. c #44434C",
"O. c #48464D",
"+. c #49494F",
"@. c #464451",
"#. c #484652",
"$. c #424B51",
"%. c #4A4B51",
"&. c #434F59",
"*. c #4D4D59",
"=. c #514A53",
"-. c #514E5B",
";. c #475255",
":. c #4E5056",
">. c #45515B",
",. c #4E515A",
"<. c #4E5B5B",
"1. c #525156",
"2. c #53535D",
"3. c #5A575D",
"4. c #515A5E",
"5. c #5F5A5E",
"6. c #485362",
"7. c #555662",
"8. c #595662",
"9. c #555A63",
"0. c #5B5A64",
"q. c #5C576C",
"w. c #575C6C",
"e. c #5E5D6A",
"r. c #615E66",
"t. c #615E6B",
"y. c #615C72",
"u. c #576166",
"i. c #5C616C",
"p. c #5F6671",
"a. c #646167",
"s. c #63626C",
"d. c #6A666D",
"f. c #6C686F",
"g. c #646373",
"h. c #696673",
"j. c #636C74",
"k. c #6D6A74",
"l. c #666378",
"z. c #69667A",
"x. c #666C79",
"c. c #6C6B7B",
"v. c #716C76",
"b. c #726E7A",
"n. c #67707A",
"m. c #69707B",
"M. c #76727D",
"N. c #78737F",
"B. c #B52D00",
"V. c #E03400",
"C. c #AD4312",
"Z. c #AE4415",
"A. c #A64419",
"S. c #9F4C2F",
"D. c #884E3D",
"F. c #974D33",
"G. c #B55427",
"H. c #A04E31",
"J. c #A25131",
"K. c #CE4706",
"L. c #FE7E30",
"P. c #6E6D81",
"I. c #726D84",
"U. c #747283",
"Y. c #7A7682",
"T. c #777789",
"R. c #7C798B",
"E. c #930892",
"W. c #807C8B",
"Q. c magenta",
"!. c #52C4C5",
"~. c #53D9D7",
"^. c #52E1DC",
"/. c #FFD99E",
"(. c #FFDEA8",
"). c #FFE1AC",
"_. c #FFE8B4",
/* pixels */
"Q.Q.Q.Q.Q.Q.Q.Q.Q.Q.Q.Q.Q.Q.Q.Q.Q.Q.Q.Q.Q.Q.Q.Q.Q.Q.Q.Q.Q.Q.Q.Q.Q.Q.Q.Q.Q.Q.Q.Q.Q.Q.Q.Q.Q.Q.Q.Q.Q.Q.Q.Q.Q.Q.Q.Q.Q.Q.Q.Q.Q.Q.Q.Q.",
"Q.Q.Q.Q.Q.Q.Q.Q.Q.Q.Q.Q.Q.Q.Q.Q.Q.Q.Q.Q.Q.Q.Q.Q.Q.Q.Q.Q.Q.Q.Q.Q.Q.Q.Q.Q.Q.Q.Q.Q.Q.Q.Q.Q.Q.Q.Q.Q.Q.Q.Q.Q.Q.Q.Q.Q.Q.Q.Q.Q.Q.Q.Q.Q.",
"Q.Q.Q.Q.Q.Q.Q.Q.Q.Q.Q.Q.Q.Q.Q.Q.Q.Q.Q.Q.Q.Q.Q.Q.Q.Q.Q.Q.Q.Q.Q.Q.Q.Q.Q.Q.Q.Q.Q.Q.Q.Q.Q.Q.Q.Q.Q.Q.Q.Q.Q.Q.Q.Q.Q.Q.Q.Q.Q.Q.Q.Q.Q.Q.",
"Q.Q.Q.Q.Q.Q.Q.Q.Q.Q.Q.Q.Q.Q.Q.Q.Q.Q.Q.Q.Q.Q.Q.Q.Q.Q.Q.Q.Q.Q.Q.Q.Q.Q.Q.Q.Q.Q.Q.Q.Q.Q.Q.Q.Q.Q.Q.Q.Q.Q.Q.Q.Q.Q.Q.Q.Q.Q.Q.Q.Q.Q.Q.Q.",
"Q.Q.Q.Q.Q.Q.Q.Q.Q.Q.Q.Q.Q.Q.Q.Q.Q.Q.Q.Q.Q.Q.Q.Q.Q.Q.Q.Q.Q.Q.Q.Q.Q.Q.Q.Q.Q.Q.Q.Q.Q.Q.Q.Q.Q.Q.Q.Q.Q.Q.Q.Q.Q.Q.Q.Q.Q.Q.Q.Q.Q.Q.Q.Q.",
"Q.Q.Q.Q.Q.E.P T J J J J J J J P K J L I I I L J I J J J L J I I J J H J I I I I I J L I I J P T I J J J J J J J I R E.Q.Q.Q.Q.Q.",
"Q.Q.Q.Q.Q.L     i.i.i.i.i.e.g.] % i.4.4.4.7.9.7.9.U.m.m.m.m.x.m.m.m.x.s.<.4.4.9.9.9.9.0.0.9.'   $.i.e.i.i.i.i.i.<.  L Q.Q.Q.Q.Q.",
"Q.Q.Q.Q.Q.K l 2.*.2.7.7.7.2.,.-.n 8.1.2.2.2.2.2.2.1.>.>.>.>.>.>.&.&.>.>.>.>.,.1.1.,.2.2.2.:.l.W o.,.*.2.8.0.7.2.*.T.( Q.Q.Q.Q.Q.",
"Q.Q.Q.Q.Q.I u 2.,.:.1.2.2.1.*.q.n 8.2.2.2.2.1.1.1.*.B F.H.J.J.H.H.S.S.S.F.D.*.%.1.1.1.*.1.1.g.G %.2.:.1.2.2.2.2.*.i.( Q.Q.Q.Q.Q.",
"Q.Q.Q.Q.Q.K s 2.2.2.2.2.2.2.*.q.n *.D A A %.D D X.C B.L._.(.(.(.(.(.)./.V.K.| O.O.o.E G o.2.g.G %.2.1.1.1.2.2.2.1.j.) Q.Q.Q.Q.Q.",
"Q.Q.Q.Q.Q.I s 2.2.2.2.2.2.*.2.y.n t.0.8.8.8.e.0.8.6.G.A.C.C.C.C.C.Z.C.Z.G.J.w.0.0.8.0.0.8.2.z.W %.7.1.7.2.2.2.2.1.x.) Q.Q.Q.Q.Q.",
"Q.Q.Q.Q.Q.K s 2.2.2.2.2.t.n o.#.g @.o.o.o.@.@.@.@.o. . . . ..... ......... .@.@.o.o.o.o.o.o.@.Z G @.d #.7.7.2.7.1.x.( Q.Q.Q.Q.Q.",
"Q.Q.Q.Q.Q.I s 7.2.2.2.1.W Z > & ; > > t t t t t t t t t t t t q t t t > t t t t t t q t q > t : > t g p @.7.2.2.1.x.( Q.Q.Q.Q.Q.",
"Q.Q.Q.Q.Q.T u 8.2.2.7.n g t O X X X . X . X X X X   X X X X X X   X X       X . . . . . . . . . X + g g p s.2.2.1.j.( Q.Q.Q.Q.Q.",
"Q.Q.Q.Q.Q.I s 7.8.0.9.7.p X O d t t t t t t t s s s s p p p s t p p p t p d p p s p p p p s t t > O $ g Z *.0.0.7.u.( Q.Q.Q.Q.Q.",
"Q.Q.Q.Q.Q.K # t t t t t O + d d A Z A A n Z Z Z n n m D D n m t t n j D A A A A A A A A A A A D d r O O p p t t t 8 K Q.Q.Q.Q.Q.",
"Q.Q.Q.Q.Q.Y % g.z.c.I.A   a E E : r r r r r r r r r = d h.0.-.n n 0.%.-.2.= 1 r r r r 1 1 > = t E d t   @.z.z.z.P.} K Q.Q.Q.Q.Q.",
"Q.Q.Q.Q.Q.K s 2.1.,.%.U.  n O.r b X.O.o.O.o.O.o.+.+.D : o.a.e.A d k.2.8.t A +.%.%.+.+.+.O.O.m = i n p X g 2.1.2.*.p.^ Q.Q.Q.Q.Q.",
"Q.Q.Q.Q.Q.Y w 2.*.2.*.z.  A o.t O.%.+.%.%.%.%.%.%.+.*.i o.h.s.A d k.e.t.d %.%.+.+.+.+.+.+.o.+.m = b g X g 8.2.*.*.9.~ Q.Q.Q.Q.Q.",
"Q.Q.Q.Q.Q.K w k G 7.*.e.  A #.t %.%.%.%.+.%.%.%.%.%.%.d o.d.s.A d k.e.t.n %.%.%.%.+.+.+.+.+.+.D : n g X g 7.2.f ,.9.~ Q.Q.Q.Q.Q.",
"Q.Q.Q.Q.Q.K 0 t.g.2.*.c.  F #.i %.%.+.%.%.%.%.%.%.%.%.d o.d.g.A d k.e.t.n %.+.+.+.%.%.+.+.+.+.X.9 n g X g 0.1.g.*.9.~ Q.Q.Q.Q.Q.",
"Q.Q.Q.Q.Q.K w 2.2.2.*.I.  A @.i %.%.%.%.%.%.%.%.%.%.*.d o.d.s.A d k.e.t.n %.%.%.+.%.+.%.%.+.+.X.: n g X g 7.2.1.*.u.T Q.Q.Q.Q.Q.",
"Q.Q.Q.Q.Q.I w 7.2.2.*.I.  A #.i %.%.%.%.%.%.%.%.%.%.*.d o.h.g.A d k.e.t.n %.%.%.%.%.%.%.%.+.+.X.: n g X g 7.2.2.*.i.T Q.Q.Q.Q.Q.",
"Q.Q.Q.Q.Q.K w 7.2.2.,.I.  A #.i %.%.%.%.%.+.%.%.%.%.%.d o.d.s.A d k.e.t.n %.+.%.%.%.%.%.+.+.+.X.: n g X g 0.2.2.,.n.T Q.Q.Q.Q.Q.",
"Q.Q.Q.Q.Q.I u 7.2.2.:.I.  Z o.t %.%.%.%.%.%.%.%.%.+.*.d o.d.s.m d k.a.e.n %.+.%.%.%.%.%.%.+.+.X.r m g X g 8.2.2.,.x.T Q.Q.Q.Q.Q.",
"Q.Q.Q.Q.Q.K u 7.2.2.,.I.  Z D c.n %.%.+.%.+.%.%.+.+.*.d @.d.s.A d k.a.t.n %.+.%.+.%.+.%.+.+.%.i A m g X f 0.2.2.,.m.T Q.Q.Q.Q.Q.",
"Q.Q.Q.Q.Q.K w 7.2.2.*.I.  n E 8.T.n %.%.%.%.%.%.%.+.*.i o.d.a.m d k.e.e.n %.%.%.%.%.%.+.+.%.d l.%.m f X g 0.2.2.,.n.T Q.Q.Q.Q.Q.",
"Q.Q.Q.Q.Q.I u 1.2.2.*.I.  n o.5.0.c.n %.%.%.%.%.%.+.*.t %.s.s.D n v.0.l.d %.%.%.+.%.%.%.%.n e.0.O.m f X g 7.2.2.,.x.T Q.Q.Q.Q.Q.",
"Q.Q.Q.Q.Q.K u 2.1.2.*.I.. @ m 3.0.z.2.n %.%.%.%.%.*.A G b.s.k.A d v.0.P.2.n %.%.%.%.%.O.b e.g.0.%.1 f X f 7.2.2.1.x.~ Q.Q.Q.Q.Q.",
"Q.Q.Q.Q.Q.I w 2.,.,.*.P.. > @ d d.0.U.*.r d z b b d n T.0.k.1.t > *.f.0.z.g.t d d d d d l.s.d.a.: = f X p 2.1.2.,.x.~ Q.Q.Q.Q.Q.",
"Q.Q.Q.Q.Q.I w 7.,.,.*.I.X t r $ m a.7.x.0.0.e.e.e.e.c.0.f.+.: d d > D k.0.g.g.g.g.g.g.l.l.0.d.t r r f X f s.,.2.*.x.~ Q.Q.Q.Q.Q.",
"Q.Q.Q.Q.Q.K u l.2.2.*.I.. t d m @ o.0.0.a.h.h.h.h.h.7.k.-.& m n D O.& n s.8.s.g.s.a.a.r.0.U.t t M r f X g z.2.7.,.j.~ Q.Q.Q.Q.Q.",
"Q.Q.Q.Q.Q.I w n o.o.D 7.o t i D b & *.a.8.0.0.0.0.0.0.M.d A %.n D *.d t t.0.0.e.e.e.e.e.0.h.t X.M r p X g d o.o.G x T Q.Q.Q.Q.Q.",
"Q.Q.Q.Q.Q.K . *.*.*.*.t   t i D m > o.d.0.7.1.1.1.0.0.M.d %.%.n D %.n p s.t.0.7.2.*.*.1.2.k.d X.M r p X = 7.-.-.*.} ~ Q.Q.Q.Q.Q.",
"Q.Q.Q.Q.Q.I 0 @.*.*.#.7.X t i M m : o.v.n d d i t 2.s.b.d %.%.b D *.n d s.s.e.i d d d d %.b.d X.M r p o n *.*.*.*.;./ Q.Q.Q.Q.Q.",
"Q.Q.Q.Q.Q.I 0 q t t > y.. t i D D > o.v.d A A D n 7.a.b.d +.%.b D *.n d s.a.g.n D X.X.A G b.d o.D r p o g t > t p # J Q.Q.Q.Q.Q.",
"Q.Q.Q.Q.Q.I s : ; & > g.. t i D D > o.v.R.R.R.R.U.e.0.b.d +.%.b D :.n d s.e.I.U.U.U.U.l.2.c.d o.M r p X F t ; ; t x K Q.Q.Q.Q.Q.",
"Q.Q.Q.Q.Q.K l = t A ; l.X t i D D : o.0.8.8.8.8.0.0.7.U.i O.%.z D *.n t a.0.7.0.0.0.e.0.0.h.d o.M r f X F t : @.& $.~ Q.Q.Q.Q.Q.",
"Q.Q.Q.Q.Q.I c > p A ; l.. q i X.A : o.e.7.8.0.0.0.9.7.e.z.d %.d D *.i 1.e.8.7.7.7.0.0.8.0.c.d X.D r f X F t > F ; $.~ Q.Q.Q.Q.Q.",
"Q.Q.Q.Q.Q.I c > > p > g.. q i E n r 7.0.e.s.0.0.*.7.s.8.g.8.n n D O.*.0.a.e.e.e.s.g.s.a.8.e.P.t D r f X F t > p ; } ~ Q.Q.Q.Q.Q.",
"Q.Q.Q.Q.Q.I c > p g > l.. > i D d U.8.k.n > r > 1 & O.k.8.U.w.t D t b.r.0.a.d r > : = n d.7.g.z.t r f X F t p g ; } ! Q.Q.Q.Q.Q.",
"Q.Q.Q.Q.Q.I c > p g > l.. > d t b.0.r.: t b b d d d = o.d.0.b.n > W.0.s.k.& m o.O.O.X.> n a.8.7.2.1 f X F t p Z ; $.~ Q.Q.Q.Q.Q.",
"Q.Q.Q.Q.Q.I c > f g : z.. > > -.r.2.: b O.%.%.+.+.O.n : 0.d.h.D E k.r.v.t n %.+.%.+.%.X.; d a.3.+.m p X F t g p ; $.! Q.Q.Q.Q.Q.",
"Q.Q.Q.Q.Q.K c t ; ; q c.X t D 2.s.& n +.%.+.%.+.+.%.o.t o.f.s.A t d.r.e.t O.+.+.+.+.%.%.D > s a.+.D p X F d ; ; > $.~ Q.Q.Q.Q.Q.",
"Q.Q.Q.Q.Q.I - d d s t d O n M r.t m +.%.+.%.%.%.+.+.%.t #.k.k.D t f.a.c.i %.+.%.+.+.+.+.+.D > D %.b p X t d d f s 8 T Q.Q.Q.Q.Q.",
"Q.Q.Q.Q.Q.I 0 #.o.@.@.@.. d o.d n %.+.%.%.+.%.+.+.%.%.t o.k.s.A t d.r.c.i %.+.+.+.%.+.%.%.%.E = d n p   o.o.o.G E ] T Q.Q.Q.Q.Q.",
"Q.Q.Q.Q.Q.K 8 2.2.2.{ c.  d A d %.+.+.%.%.+.+.%.+.+.%.i o.k.h.D t k.0.c.i %.+.%.+.+.%.+.%.%.%.b = A p o f 2.2.2.o.9./ Q.Q.Q.Q.Q.",
"Q.Q.Q.Q.Q.K 8 G 0.0.A @.X d A n %.+.+.%.%.%.%.+.%.%.%.i o.f.k.D t k.r.c.i %.%.+.%.%.%.+.%.+.+.m = A p O p G 0.7.Z ' ~ Q.Q.Q.Q.Q.",
"Q.Q.Q.Q.Q.K 0 g y 3 n o.X d A n %.%.+.%.+.+.+.%.+.%.%.t o.k.k.D t k.a.c.d %.+.+.+.+.%.%.+.+.%.D = A f o g g h h Z ' U Q.Q.Q.Q.Q.",
"Q.Q.Q.Q.Q.K w h ~.^.{ c.  d A n %.+.+.+.%.%.%.+.+.%.%.i o.f.h.D t k.r.c.d %.%.+.%.%.%.%.%.%.%.X.= Z p . W 2 ~.!.h <.^ Q.Q.Q.Q.Q.",
"Q.Q.Q.Q.Q.K q G y Q n l.  d A b %.+.%.%.%.%.%.+.%.%.%.i o.f.k.D t v.0.z.d %.%.+.%.+.%.+.+.%.*.X.= A f o G g h =.k <.~ Q.Q.Q.Q.Q.",
"Q.Q.Q.Q.Q.K q F 2.1.Z z.  p G d %.+.%.+.+.+.+.+.+.%.%.i o.d.h.D t k.r.h.t %.%.+.+.+.+.+.%.+.%.X.= A f o G f 2.-.k <.~ Q.Q.Q.Q.Q.",
"Q.Q.Q.Q.Q.K q F 1.2.A c.  d E o.m %.%.%.%.%.%.%.%.%.D j g.a.s.D t f.0.c.*.n %.%.%.%.%.%.%.%.*.b t A g o G f 2.2.n <.~ Q.Q.Q.Q.Q.",
"Q.Q.Q.Q.Q.K q Z A A n I.  d A l.*.d d z z b d d d d d s.s.r.d.D t d.0.e.z.2.t t t i i i d d r d X.M f o G t D m g <.~ Q.Q.Q.Q.Q.",
"Q.Q.Q.Q.Q.K 8 2.*.*.*.U.  d o.8.h.b.b.k.b.b.b.b.b.k.k.s.f.f.f.A t d.d.d.d.b.Y.Y.Y.Y.Y.N.M.b.M.5.O.m p o G *.o.@.*.4.^ Q.Q.Q.Q.Q.",
"Q.Q.Q.Q.Q.K 8 G G G D o.X t d n n n n n n n n n n n A o.n n n i t n j n n n A D D D D o.o.D D n d t p o g @.o.o.o.[ ~ Q.Q.Q.Q.Q.",
"Q.Q.Q.Q.Q.J e S V S S {   * 8 w w u u u u u u w w u u w w 9 0 % @ 9 9 9 9 9 w 9 9 w 0 w u u u 9 9 % q   c v v v S N K Q.Q.Q.Q.Q.",
"Q.Q.Q.Q.Q.` , 5 5 < 5 5 7 7 7 7 6 7 7 6 7 7 6 7 7 6 7 6 7 7 7 7 7 7 7 7 7 6 7 7 7 6 7 7 7 6 7 7 7 7 7 7 6 5 5 5 4 , _ Q.Q.Q.Q.Q.",
"Q.Q.Q.Q.Q.Q.Q.Q.Q.Q.Q.Q.Q.Q.Q.Q.Q.Q.Q.Q.Q.Q.Q.Q.Q.Q.Q.Q.Q.Q.Q.Q.Q.Q.Q.Q.Q.Q.Q.Q.Q.Q.Q.Q.Q.Q.Q.Q.Q.Q.Q.Q.Q.Q.Q.Q.Q.Q.Q.Q.Q.Q.Q.Q.",
"Q.Q.Q.Q.Q.Q.Q.Q.Q.Q.Q.Q.Q.Q.Q.Q.Q.Q.Q.Q.Q.Q.Q.Q.Q.Q.Q.Q.Q.Q.Q.Q.Q.Q.Q.Q.Q.Q.Q.Q.Q.Q.Q.Q.Q.Q.Q.Q.Q.Q.Q.Q.Q.Q.Q.Q.Q.Q.Q.Q.Q.Q.Q.Q.",
"Q.Q.Q.Q.Q.Q.Q.Q.Q.Q.Q.Q.Q.Q.Q.Q.Q.Q.Q.Q.Q.Q.Q.Q.Q.Q.Q.Q.Q.Q.Q.Q.Q.Q.Q.Q.Q.Q.Q.Q.Q.Q.Q.Q.Q.Q.Q.Q.Q.Q.Q.Q.Q.Q.Q.Q.Q.Q.Q.Q.Q.Q.Q.Q.",
"Q.Q.Q.Q.Q.Q.Q.Q.Q.Q.Q.Q.Q.Q.Q.Q.Q.Q.Q.Q.Q.Q.Q.Q.Q.Q.Q.Q.Q.Q.Q.Q.Q.Q.Q.Q.Q.Q.Q.Q.Q.Q.Q.Q.Q.Q.Q.Q.Q.Q.Q.Q.Q.Q.Q.Q.Q.Q.Q.Q.Q.Q.Q.Q.",
"Q.Q.Q.Q.Q.Q.Q.Q.Q.Q.Q.Q.Q.Q.Q.Q.Q.Q.Q.Q.Q.Q.Q.Q.Q.Q.Q.Q.Q.Q.Q.Q.Q.Q.Q.Q.Q.Q.Q.Q.Q.Q.Q.Q.Q.Q.Q.Q.Q.Q.Q.Q.Q.Q.Q.Q.Q.Q.Q.Q.Q.Q.Q.Q.",
"Q.Q.Q.Q.Q.Q.Q.Q.Q.Q.Q.Q.Q.Q.Q.Q.Q.Q.Q.Q.Q.Q.Q.Q.Q.Q.Q.Q.Q.Q.Q.Q.Q.Q.Q.Q.Q.Q.Q.Q.Q.Q.Q.Q.Q.Q.Q.Q.Q.Q.Q.Q.Q.Q.Q.Q.Q.Q.Q.Q.Q.Q.Q.Q."
};
