/* XPM */
static char *cf3215f181f14ba8d74599306a47c97cu1QDLWgcS1WelJqH[] = {
/* columns rows colors chars-per-pixel */
"64 64 11 1 ",
"  c black",
". c #3A0000",
"X c #000066",
"o c #3A0066",
"O c #B97A57",
"+ c #22B14C",
"@ c #0066B6",
"# c #66B6FF",
"$ c #FFDB90",
"% c #B6FFFF",
"& c white",
/* pixels */
"                                                                ",
"                                                                ",
"                                                                ",
"   &&&&&&&&&&&&&&&&&&&&&&&&&&&&&&&&++++++++++++++++++++++++++   ",
"   &&&&&&&&&&&&&&&&&&&&&&&&&&&&&&&&++++++++++++++++++++++++++   ",
"   &&&&&&&&&&&&&&&&&&&&&&&&&&&&&&&&++++++++++++++++++++++++++   ",
"   &&&&&&&&&&&&&&&&&&&&&&&&&&&&&&&&++++++++++++++++++++++++++   ",
"   &&&&&&&&&&&&&&&&&&&&&&&&&&&&&&&&++++++++++++++++++++++++++   ",
"   &&&&&&&&&&&&&&&&&&&&&&&&&&&&&&&&+++++&&&&&&&&&&&&&&&&+++++   ",
"   &&&&&&&&&&&&&&&&&&&&&&&&&&&&&&&&+++++&&&&&&&&&&&&&&&&+++++   ",
"   &&&&&&&&&&&&&&&&&&&&&&&&&&&&&&&&+++++&&&&&&&&&&&&&&&&+++++   ",
"   &&&&&&&&&&&&&&&&&&&&&&&&&&&&&&&&+++++&&&&&&&&&&&&&&&&+++++   ",
"   &&&&&&&&&&&&&&&&&&&&&&&&&&&&&&&&+++++&&&&&&&&&&&&&&&&+++++   ",
"   &&&&&&&&&&&&&&&&&&&&&&&&&&&&&&&&+++++&&&&&&&&&&&&&&&&+++++   ",
"   &&&&&&&&&&&&&&&&&&&&&&&&&&&&&&&&+++++&&&&&&&&&&&&&&&&+++++   ",
"   &&&&&&&&&&&&&&&&&&&&&&&&&&&&&&&&+++++&&&&&&&&&&&&&&&&+++++   ",
"   &&&&&&&&&&&&&&&&&&&&&&&&&&&&&&&&+++++&&&&&&&&&&&&&&&&+++++   ",
"   &&&&&&&&&&&&&&&&&&&&&&&&&&&&&&&&+++++&&&&&&&&&&&&&&&&+++++   ",
"   &&&&&&&&&&&&&&&&&&&&&&&&&&&&&&&&+++++&&&&&&&&&&&&&&&&+++++   ",
"   &&&&&&&&&&&&&&&&&&&&&&&&&&&&&&&&+++++&&&&&&&&&&&&&&&&+++++   ",
"   &&&&&&&&&&&&&&&&&&&&&&&&&&&&&&&&++++++++++++++++++++++++++   ",
"   &&&&&&&&&&&&&&&&&&&&&&&&&&&&&&&&++++++++++++++++++++++++++   ",
"   &&&&&&&&&&&&&&&&&&&&&&&&&&&&&&&&++++++++++++++++++++++++++   ",
"   &&&&&&&&&&&&&&&&&&&&&&&&&&&&&&&&++++++++++++++++++++++++++   ",
"   &&&&&&&&&&&&&&&&&&&&&&&&&&&&&&&&++++++++++++++++++++++++++   ",
"   &&&&&&&&&&&&&&&&&&&&&&&&&&&&&&&&&&&&&&&&&&&&&&&&&&&&&&&&&&   ",
"   &&&&&&&&&&&&&&&&&&&&&&&&&&&&&&&&&&&&&&&&&&&&&&&&&&&&&&&&&&   ",
"   &&&&&&&&&&&&&&&&&&&&&&$.     X%&&&&&&&&&&&&&&&&&&&&&&&&&&&   ",
"   &&&&&&&&&&&&&&&&&&&&&&$o%&&&&&&&&&&&&&&&&&&&&&&&&&&&&&&&&&   ",
"   &&&&&&&&&&&&&&&&&&&&&&$o%&&&&&&&&&&&&&&&&&&&&&&&&&&&&&&&&&   ",
"   &&&&&&&&&&&&&&&&&&&&&&$o%&&&&&&&&&&&&&&&&&&&&&&&&&&&&&&&&&   ",
"   &&&&&&&&&&&&&&&&&&&&&&$.     @&&&&&&&&&&&&&&&&&&&&&&&&&&&&   ",
"   &&&&&&&&&&&&&&&&&&&&&&$o%&&&&&&&&&&&&&&&&&&&&&&&&&&&&&&&&&   ",
"   &&&&&&&&&&&&&&&&&&&&&&$o%&&&&&&&&&&&&&&&&&&&&&&&&&&&&&&&&&   ",
"   &&&&&&&&&&&&&&&&&&&&&&$o%&&&&&&&&&&&&&&&&&&&&&&&&&&&&&&&&&   ",
"   OOOOOOOOOOOOOOOOOOOOO&$o%&&&&&&&&&&&&&&&&&&&&&&&&&&&&&&&&&   ",
"   OOOOOOOOOOOOOOOOOOOOO&$.      #&&&&&&&&&&&&&&&&&&&&&&&&&&&   ",
"   OOOOOOOOOOOOOOOOOOOOO&&&&&&&&&&&&&&&&&&&&&&&&&&&&&&&&&&&&&   ",
"   OOOOOOOOOOOOOOOOOOOOO&&&&&&&&&&&&&&&&&&&&&&&&&&&&&&&&&&&&&   ",
"   OOOOOOOOOOOOOOOOOOOOO&&&&&&&&&&&&&&&&&&&&&&&&&&&&&&&&&&&&&   ",
"   OOOOO&&&&&&&&&&&OOOOO&&&&&&&&&&&&&&&&&&&&&&&&&&&&&&&&&&&&&   ",
"   OOOOO&&&&&&&&&&&OOOOO&&&&&&&&&&&&&&&&&&&&&&&&&&&&&&&&&&&&&   ",
"   OOOOO&&&&&&&&&&&OOOOO&&&&&&&&&&&&&&&&&&&&&&&&&&&&&&&&&&&&&   ",
"   OOOOO&&&&&&&&&&&OOOOO&&&&&&&&&&&&&&&&&&&&&&&&&&&&&&&&&&&&&   ",
"   OOOOO&&&&&&&&&&&OOOOO&&&&&&&&&&&&&&&&&&&&&&&&&&&&&&&&&&&&&   ",
"   OOOOO&&&&&&&&&&&OOOOO&&&&&&&&&&&&&&&&&&&&&&&&&&&&&&&&&&&&&   ",
"   OOOOO&&&&&&&&&&&OOOOO&&&&&&&&&&&&&&&&&&&&&&&&&&&&&&&&&&&&&   ",
"   OOOOO&&&&&&&&&&&OOOOO&&&&&&&&&&&&&&&&&&&&&&&&&&&&&&&&&&&&&   ",
"   OOOOO&&&&&&&&&&&OOOOO&&&&&&&&&&&&&&&&&&&&&&&&&&&&&&&&&&&&&   ",
"   OOOOO&&&&&&&&&&&OOOOO&&&&&&&&&&&&&&&&&&&&&&&&&&&&&&&&&&&&&   ",
"   OOOOO&&&&&&&&&&&OOOOO&&&&&&&&&&&&&&&&&&&&&&&&&&&&&&&&&&&&&   ",
"   OOOOO&&&&&&&&&&&OOOOO&&&&&&&&&&&&&&&&&&&&&&&&&&&&&&&&&&&&&   ",
"   OOOOO&&&&&&&&&&&OOOOO&&&&&&&&&&&&&&&&&&&&&&&&&&&&&&&&&&&&&   ",
"   OOOOO&&&&&&&&&&&OOOOO&&&&&&&&&&&&&&&&&&&&&&&&&&&&&&&&&&&&&   ",
"   OOOOO&&&&&&&&&&&OOOOO&&&&&&&&&&&&&&&&&&&&&&&&&&&&&&&&&&&&&   ",
"   OOOOO&&&&&&&&&&&OOOOO&&&&&&&&&&&&&&&&&&&&&&&&&&&&&&&&&&&&&   ",
"   OOOOOOOOOOOOOOOOOOOOO&&&&&&&&&&&&&&&&&&&&&&&&&&&&&&&&&&&&&   ",
"   OOOOOOOOOOOOOOOOOOOOO&&&&&&&&&&&&&&&&&&&&&&&&&&&&&&&&&&&&&   ",
"   OOOOOOOOOOOOOOOOOOOOO&&&&&&&&&&&&&&&&&&&&&&&&&&&&&&&&&&&&&   ",
"   OOOOOOOOOOOOOOOOOOOOO&&&&&&&&&&&&&&&&&&&&&&&&&&&&&&&&&&&&&   ",
"   OOOOOOOOOOOOOOOOOOOOO&&&&&&&&&&&&&&&&&&&&&&&&&&&&&&&&&&&&&   ",
"                                                                ",
"                                                                ",
"                                                                "
};
