/* XPM */
static char *_23b62fb57f648d1ecea50a309bb6a250mzVuH1cIID6fXhW[] = {
/* columns rows colors chars-per-pixel */
"65 65 237 2 ",
"   c #010001",
".  c #0A0503",
"X  c #0C0805",
"o  c #05050A",
"O  c #09070A",
"+  c #0C0B0B",
"@  c #140B04",
"#  c #180904",
"$  c #120E0B",
"%  c #1E1306",
"&  c #15110D",
"*  c #1B130D",
"=  c #0C0D12",
"-  c #110E11",
";  c #0F1112",
":  c #141213",
">  c #1A1514",
",  c #1B1915",
"<  c #16171B",
"1  c #191519",
"2  c #1D1B1B",
"3  c #2F1209",
"4  c #281709",
"5  c #351B08",
"6  c #221B15",
"7  c #291B14",
"8  c #221E1B",
"9  c #1F201E",
"0  c #39220C",
"q  c #24211D",
"w  c #292218",
"e  c #2A231C",
"r  c #372618",
"t  c #1B1C22",
"y  c #211E22",
"u  c #1D2027",
"i  c #252323",
"p  c #2A2523",
"a  c #2C2925",
"s  c #26272B",
"d  c #2D2C2A",
"f  c #332822",
"g  c #332B24",
"h  c #3C2E24",
"j  c #332D2C",
"k  c #393327",
"l  c #34312D",
"z  c #3B342B",
"x  c #2D2C33",
"c  c #303030",
"v  c #343333",
"b  c #3A3533",
"n  c #3C3A34",
"m  c #37363A",
"M  c #3D3B3B",
"N  c #491F03",
"B  c #462B17",
"V  c #4F3217",
"C  c #463527",
"Z  c #42362A",
"A  c #553B28",
"S  c #423B34",
"D  c #4A3D35",
"F  c #433D3B",
"G  c #523F30",
"H  c #613E24",
"J  c #5A412B",
"K  c #44413C",
"L  c #494338",
"P  c #4A443C",
"I  c #57483A",
"U  c #5D513E",
"Y  c #66482A",
"T  c #654C37",
"R  c #69513B",
"E  c #715639",
"W  c #3C3B41",
"Q  c #423E42",
"!  c #3F4143",
"~  c #444443",
"^  c #4A4543",
"/  c #4D4A43",
"(  c #474549",
")  c #4C4C4B",
"_  c #544C44",
"`  c #584B43",
"'  c #524D4B",
"]  c #5A5144",
"[  c #55524C",
"{  c #585449",
"}  c #5B534C",
"|  c #514E50",
" . c #555453",
".. c #5B5553",
"X. c #575857",
"o. c #5C5A54",
"O. c #5D5C5B",
"+. c #624E41",
"@. c #625444",
"#. c #62564C",
"$. c #635A4D",
"%. c #695949",
"&. c #745C47",
"*. c #635B54",
"=. c #695C53",
"-. c #635D5B",
";. c #735E55",
":. c #5E615D",
">. c #666155",
",. c #6B6254",
"<. c #64625C",
"1. c #6B645B",
"2. c #6D695D",
"3. c #776650",
"4. c #766658",
"5. c #736A5C",
"6. c #605E63",
"7. c #646463",
"8. c #666667",
"9. c #6B6563",
"0. c #6C6A64",
"q. c #6C6C6B",
"w. c #6F6E6F",
"e. c #736C64",
"r. c #7A6C63",
"t. c #736D6B",
"y. c #776D69",
"u. c #757265",
"i. c #7C7366",
"p. c #75726D",
"a. c #7B746B",
"s. c #7C796E",
"d. c #747473",
"f. c #7B7671",
"g. c #7C7A74",
"h. c #767778",
"j. c #7A7678",
"k. c #7C7C7B",
"l. c #836D55",
"z. c #867767",
"x. c #82766C",
"c. c #837B6D",
"v. c #8D7869",
"b. c #837C74",
"n. c #897D74",
"m. c #837E7A",
"M. c #7E817E",
"N. c #8A806D",
"B. c #94806A",
"V. c #858174",
"C. c #8B8274",
"Z. c #83827C",
"A. c #8B847B",
"S. c #8D897D",
"D. c #938678",
"F. c #938B7E",
"G. c #A38E7B",
"H. c #7C7C81",
"J. c #7E8180",
"K. c #848482",
"L. c #8A8683",
"P. c #868986",
"I. c #8C8A84",
"U. c #85888B",
"Y. c #8B8C8A",
"T. c #938C83",
"R. c #988C86",
"E. c #928D8B",
"W. c #8E918E",
"Q. c #949186",
"!. c #9B9286",
"~. c #93938D",
"^. c #9A948C",
"/. c #9D998E",
"(. c #8F8E90",
"). c #8D9294",
"_. c #949492",
"`. c #9B9694",
"'. c #969895",
"]. c #9C9A95",
"[. c #949699",
"{. c #969B9A",
"}. c #9B9C9A",
"|. c #A3988C",
" X c #A29C94",
".X c #AA9E96",
"XX c #A39D9B",
"oX c #9DA19C",
"OX c #ADA18F",
"+X c #A5A196",
"@X c #A9A196",
"#X c #A3A29D",
"$X c #ABA39B",
"%X c #ACA99E",
"&X c #B3A99D",
"*X c #999EA0",
"=X c #A19EA1",
"-X c #9EA2A3",
";X c #9FA5AA",
":X c #A3A4A2",
">X c #AAA6A3",
",X c #A6A9A5",
"<X c #ABAAA5",
"1X c #A5A7A9",
"2X c #A6AAAC",
"3X c #ACADAB",
"4X c #B2ACA5",
"5X c #B2AEAB",
"6X c #B9AFA8",
"7X c #ADB1AD",
"8X c #B2B2AD",
"9X c #B9B5AA",
"0X c #BCB4AB",
"qX c #A9AFB1",
"wX c #ADB2B2",
"eX c #AEB5BA",
"rX c #B3B4B2",
"tX c #B6B6B6",
"yX c #B6B9B6",
"uX c #BBBAB5",
"iX c #B7BAB9",
"pX c #BABCBA",
"aX c #C1B5A9",
"sX c #C4BDB8",
"dX c #BDC1BE",
"fX c #C3C1BD",
"gX c #CBC2BB",
"hX c #BABDC1",
"jX c #BFC3C4",
"kX c #C2C5C3",
"lX c #C5C9C5",
"zX c #C7C8C7",
"xX c #CACDCB",
"cX c #D0CFCC",
"vX c #CFD1D0",
"bX c #D3D5D4",
"nX c #DEE0E0",
/* pixels */
"+Xi._ g f e k s u F a.=.=.P X.4X0.) p.F.C.N.N.c.s.e.*.*.z.A.g.0.h.Z.2.*.,.b.a.g.>X>XA.g.Q.P.) ..z -.t.O.q.X.~ n c Q ! m b.]. X$Xa.",
"I.j m.b.' M Q q.T.T./.]./.{ C.q.1.N.V.,.z.@.I } ..n g 6 d g.p.Z.S.<.e S   ' 2.u.L.b.K } o.o.o.~ <.t.Q.Z.1.) k.d.-.9.l = F T.Z.0...",
"e.@X+XF.V.b.S.Z.o.q.T.+X{ ^ %Xs.A.n.] k $.z._ S > y S 4.J o.<.o.j 6 i  .D.1.i   =       v K.7.[ e.W v 2   i 9.v F a 1 v sX0XsX$Xm.",
"u.q p 9.a.: i 2.Z.g.k./ L /.].A.A.^.i.F a @ ^ 9.`.&X!.!.@.    b ~ ; t %.A.g.T.$X^. .x +X~.L.I.%X X~.m h.m E.> . @ 6 X v N.F. X` p ",
"S.,.0XF.  } i.c.} K S @.D.@Xg.0.I.Q.T.o.f.^.uX%XS.b.o.g.~.2.j.P.zX7X[ , o.a.u.[ g.%XI.1.-.#X{.<.f.) d f.0.n XXq.m t   / 2 1 1 t.&X",
"uX1.Z.} 5Xg.K     2 m.+XY.P.{.[ L.0.S c.T.T.+X$XA.b.[ [ * T.f.( } k.P '   * M q b.b.' {.b.n o U.{.W [ M K :.'.=.L.x.X.'.pXvXrX#XrX",
"lXf.*.Y.p.Z.F. XP  X9XV.d.f.5...<.I %.|.p S e i j :   M T.T.1.2   y r.D.{.7.  : v j.g.8.#XK ..>XP.) ) j   m _.q.m.}.l 8.E.pX>X:X8X",
"#XvXV...Z.Q.F./.N.a.2.s.<.    - 8 S.}.Z.<XO.M     & O.s.a.1.1.} a tXuXY.xXlXbXI./ F k.Z.o.j :XfX[.t.^.a ( 1Xq.h.{.`.-.. S.} t.].p.",
"  l n V.D t.V.] S !.b * ..4Xo...uX<XZ.q.P.I.P.P.0.. m 0.x.4.@._ *.F P.~.#XkXY.} e.=.D 7.. ^ Z.,       x ' _.n.7.X.1   Q.f.5X$XT.} ",
"<Xb.f.7.A.D.P   y.A.9X..1 X Z V.S.a.o.( k.{.I.P.Q.$ v v e .     > S @ * e 8 7.O. .q.d.K o ^ - m Y.g.A.b.,.  o w., :XC ` uX$XL.|.@X",
"T._ _ ' / + v Q.4.*.Z.I.3XI.M     b T.A.:XP.7.q.b F /   x w.Y.=XrX3X      ( Z.~ k.M.d.K !.dXxXL.:Xp.7.k.m.+ o 6 6 j h 1.-.^ 9.m.T.",
"O :  XyX'.L.8X$XI.+XI.7.[  .$ Q  .I.c.a.M k._.'   E.lXXXoXL.E.~.g.8.~ ( ' ..2 q.../ @   /.k.~ X j _.j M n U 5.b 8 O., { A.S.^ *.2 ",
"$XF.q.m.I.7X X:XyX{ n g.I., ( |.,.] z q b d.t.d.Z.I.E._.P.~.}.[ Y.W L Y &.a n.m :     u *.l g [ a , O  .4X` I 8 p X i 2   -.^.!.|.",
"O.2.I.o.F I.I.I...    : o } F.@.Z k   < lXL.5.}.^.A.7.q.-X'.t.d.~ j z.^.k.K.1X[.:XY.}.t.3...x ) 8.s k.8.y Q v.f.i , & b #./.S.Q.S.",
"^ ^.d.:Xu.I.E.n O R.0X>XI.{ c z k + q.[ Y./.V.$.$.K & ) <.q.-...k.Z.W.{.M  .{.k.q.8.7.j.w.n.p._.k.L.E.L.:X5X<X3XuX2     y.n.=.' [ ",
"/.p.0.0.g.7X/ ' &X`.].>X0X@XF 7.wX[.k.o.F.4.@.g e   d.rX2.I.~.'.[.<.q.8XK X.K.q.O.8.O.k.J.S : 2 j..X.X4XrX5X$X:X7X' i -.XXlXhX:Xs.",
"b...<.q.'.e.> XX X>X<X|.e.S -X-X2X2XiX/.1.P k $ : Z.O.#XI.5.Z._.Y.Y._.:   e.O.Y.k.k.O...v C 4 S b O.r._ n + s m 2     p S  XiX8X|.",
"$ , 2 i 8 / X 2...S.} ^ q 2.:X-X{.wXhXjXA.p U.{.[.n 0.P.A.#._.-XW.Y.%X. 1 a.2   :       D +.D.x.p     = ( K.P.w.k.: x -.d b n.b.v ",
"].2.< K.X.W o.P 0.j g.Q./.,.>XkXpX{.W.X.Z.-X2XwX2X,XS.g w ] } ^ f >.f   #.S <.M P I e.s.f.T.9.b.t...9.h.q.q.) O.:   Z.1Xo.9.#X1.$ ",
"i   a 3XiXoXq.d.g.L.1.u.8 & z 1.# . + 8.A.:X{.;XiXlX:Xz . t M i  .c     D 6 a n , D h t.b b t.v 9.=.' 9 s a ( 1 M m Y.| j.m.k.  1 ",
"    m.7X}.W.}.Y.X + ~ i   4 aX~.%XXXXXb.a.kXpX2X:X{.q.i a K l d n P x j A 8 &   } r C A  Xt.t.9.p.O 0.  : Q ) h.J.d.i ~ 7.^ 8.I.+ ",
"K : ' P [ <.O.9.. : ( I.@.3.X.xXlXwX{.vXe f.b q . m b E T O : b &   ) } c._ [ ^ o.~ ) 6.q._   H.d.*X..I.q.P.d.8.t.8.- ' ^ 9.X.  b ",
"q n P F i       8 9XxXa.L.Y.[   8.Z.h.. I $XD.T. XA.i.] ,.} #.M O.T.F.q     n.r.' h.~ X.p.+ b.P.P.k.. v 9.T.M v ..d.e.T.9.9.} o > ",
"^.C.$X4X%X0X`.~ _ ^.Y.p.k.p.& a x .     5XxXyXiX{.3XP.w % $ X ^ n.$.#.r.F   & X , ~ k.g.[ j.^.X.y d j ~ F $ .       n 9.p.P 1.uX>X",
"i.x.|.A. Xr.|.&Xb.o.:.( : + s >XXXI.~ : q.g.}.8X'.O.2 %       F L %.=.@.l.=.: 6.%X6     g.n.]._.d.  h r.P 2 j Z.a.t > 8 ) I.^.g.f.",
"o.Z g 7 r I Z     n i     ) `.P.K.k.Z.I             | }.Y.k.[ ^ ~.> Z r &.w e.iX_.>XP.v y.T.oX1X8.  q.q.#.$X+XT.w j S 2  .S.7.D } ",
"$ e             g /.*.T.n XXK.[.k.8.m.+.4.%.4 ` q.= F #X'.E.Z.S a [ 0.a     3X~.`.d.kX@.L.m.3X2.  9.q [ e.1.-.> & X 6 q O . S L z ",
"  j.a. .h.h.Y.{.L ..P $ z O.k.}.e.9.^.*.hX_ @.r.0.T.$     p . T I ` { u.I V I.A.c.#XP.] 8 p v   7.4X,.K ( a b <.0.d   s F.n.#.$   ",
"K g.K.Y.}.#XP.d $   < | k._.rXM     s ..O.' } ` _ D R i k * b.1.D K M L A e.*.o.#XI.  C l.S.q.m.t.Y.{ . > q a , a q   0.4.U ,.  = ",
"5 X b 2./ &     w $.}.iXk.{.0.<.* b.g.~ q         >   b %.%.y.p.O.' 6 -.Y._.^     ~ I.6X$XP K.' o.} o.>XlXd         i S a L   ~ v.",
"V J q 2 m (.q.<.E &     F n   # %.i.rXD.c.O.}.{.:X[.v k. ./ } ' T./ d E.}.P.].$X5. XT.b.b.p ^ t.....v & .  .1.) s t S._ K : 2 R ` ",
"n.G.;.3X[.k.k.,XV E *.1.m.P.b.T &.4XI.=.D.2.Y.Y.Y.Y.,       X $ q . i.e 9.L.#XY.h I a.P e U.Q.9.m.L.<.  b.Z.T.A.@XA.s.b.' e S *...",
"a 6 / P L.1X7X:XC ;.A.I.e.2X>XC.Y.~. X X  O.n ) / ~ @ a. .(.k.K.O.~ cXo.      k.,X{.3X/ c n._ o > d   ' n.L 9.P F ^.*.m X.F m.O.) ",
"K ( $Xk   : X. .J X p <.7.1.p   ' e.]   ( g.O.    - %.@.^.Y.'._.:.a 3XbXn o o iX3X7XrX/ a.5XC.pXrXw.0.i.y.A.A.b <.o.*.^ I.yX8X}.Y.",
"3.].b.6 8 > S.].].%.  o     . 3.e.d.a > L.<X:Xl r 1.' . e.X.0.7.2 C m.Z.-.!.a._.P.O.-Xc    .jXiXiXlXrX{ k.-.j.k.<.: e.n d.<.<.* . ",
"+.1.~.C l.R  X1.lXo.I B Y A.e.) 1.!.0X5.: b ~ 3 R d   t.p.      q ;.L.O 0.].R.k.d.k.i   g l 2 ( ^ `.' rXiXrXoX3X_.,X~.p..     l ` ",
"!.D.Q.C.&.Y 1./ : > &.E %.'.p.L.XX$X X1.$.1XyXoXi.2  ._.8XL.. P y.L.<X^ ' kX3X3XrXlXiX, *.A.d.O..   w.xXwX8XY.rX:X>XY.d.c.,.S.p d.",
":XpXkXkXY.v.T.lXsX>X>X1XV.a.^ ` f E.>Xn g k.<XY.>X+X* ^ ) @ V }  .E.0.+ p ~.}._.jXL.X p b.8XY.-.9.d lX3X>XP.xXvXlXpXP.~ T.uX}.' pX",
"P.h.K.n   ^ t.y.].`.`.E...Z  .o.a lX..    }.g.#XT.`.@.| iX7Xr.L   Z     *   q.k.c     g . ~ 0.&   g ' >X>XP.^ } I.7.j x.` j <.a }.",
"^ q.v         . b 9.>X^.&.3 ;.I @.e   4 J 5...K. Xe./ } #X_.:X{.g.;   @ @. .e.Z.w.# V V ;.H.`.I.x.J . o > j >       t.Y.[     q f ",
" .f 8 : C ^.rX~.C & g b.3Xb.Y.3X3XB Y R.vX$X`.<X5X6   O.}.Y.:Xg.l j 7 V &.` F v v C n d 8.d.' ^ ..B 3.gXg.F n ; c r.' O.^     e.f.",
"D xXxXl.T tXkXvX~.#.H z.iXiX8XpXlXR $XdXpXpXdXkXq.  4 %.0.k.<.>   T v.9.0 N r._.uX4 1 2 8 > / : w #.' } v M b -.bXvXxXkXiXU.} {.d ",
":X).2XwXi.  X   ..e.t.e.P.oX_.v n A 1.rXdXdXxXkXi J sX4Xz.k.L.0 x.<.1.S G XXrX{.rX!.w p d z.t.9.5 = / y.I.P.~.r.tXpXkXrXwXyX3.f.I ",
"7X'.{.-XrXU ..T.V.L.2Xq.) ..( t.fXI ] 8 ) n       vXyXdXjXkXkXZ y.i.Z C T.,XE.Z.I.<X8Xz [ {.tXdX5XT q.k.J.P.Y.,.t.iXk.m : A.I.0.$X",
"3X2X].3X2XI 4.g.0.v   I vXsXsXrX,Xk.#X^.I.h.Y.d  .:XkXpXlXlX}.q `.R./.~.x.pX#Xg.K.{.>X[ -.dX3X7X:XoX5.Y.K.d.k.g.' M K.{.P.P.h.) sX",
"<X}.rX,X<X,.d.' 8.Z.XX@.i X.K d ~ d / g d ) X.) 1...: O.a >   m. X X^.m.#X:   : O       tXxX}.dXyX~.Y : `.{.1XjXz.#X).).P.[.q.=.>X",
"9.XX8XL.]._ P.t.p.L.P.R I U.2XY.+ 7.4Xn ~ 8.Y.Y.o.3X'.k.k.8.  ..E..X/.%X~ B H F.4XD.z.B 7 *     -.R J 3X8XwXlXjXu.k.q.m <.n.b.A. X",
"O   : p   i.s.K.K f ;.C ].*X;X1XT..   U.pX_.d.W.I K n X.7.) 1.L   2 [ L.d.A r #.9.`.Y.} R B 5 3.>XD B f.Y.>X..t.    h.7.{ i.A. X  ",
"-.8XoXO.4XXX>X2.I wX1XeX;X-X[.-XU.Y.h xXiX}.,X'.$Xa.l m O.{...' 2.1XkX3XY.fXI.Z } XX^ n.3. XdX:X`.Z B A r       X.nXhXqX~.b.[ : E.",
"8XyX,XY.a.p.( {.u.P.{.U.).[.P.q.k.M F F ~ Z.'.<X^ o tX,Xk.Y.5.] ~.3X~.#XyX8X~.6 @.d. X>Xf uX>X].>X] B ^.5X+X/.C.. M O.k./       K ",
">Xp.#XrX{.9.$X} ,.6 K.2X7XW.q.q.{.  s.F.A.    i 6 _.kX1X#X:XZ.r rXP.b ' o.j   0 yX~.$X7Xz i.rXy.j -.lXdXrX3XyX$Xu.  t 1X-.#.' XX$.",
"6 6 K 2       7 n.i.p *._.~.d.9., X.>X4X^.oX) Y.p { q.K.:X:X'.5 R > F $X~.x.T.0 :XI.:X^.*.  @     kXpXkX3X>X<XpX<.u.<XjXrX XQ.`.T.",
"y 7.' o F r B +.# 6 2.> d >   o     /.^.M.q.Y.v i 5.Z..   p  .iXo.O 9.}.4X!./.^.n XXL.P g.} v ~ 4 z j.8.Y.}.rXY.-.2.^ :Xm.t.P.] > ",
"E.sXe sX0Xn.e .   I fXsX:Xh.6.gXiX0 D :Xk.p.g.  5X3X+X X/ p.{.~.'.F T./.5.$ / b   / J.rXwX^.1.=.G.L.m ' ~ ~ n O.:X#.I E.]./.a.    ",
"T._   8 8 * S i.OXD.{.K.k._.sX X-.& 2 i a       y.+X^.~ E.Z.Z.}.oX<.} i m d ( s p., lXwX<XiX4 n.P.K.9X3X>X3X'.p.p `.lX$X$X0.1 X./.",
"R.} B sX{.X.+XyXP.P.8Xz ~ / i @ F.fXsXM.m L.sX} @ t.X.p y.P./ <.>  .I _.'.T.<XxXK -.bX>X:XP.% <X{.:Xb.8X$X<X$XfX  [ d K.4XZ.Z |.=.",
" X Xn.` {.b A...{ g./.Q._ D z.B.n.{.P._.3X4X`.#.i.g.P q o . Q XX8XkX1.f.>X<X5Xe.  - f.* q.~.r 8X$X^.6X].Q...n   v 0.0X6X3XfX X@X` ",
"E.^.S.1.  a Y.0X&X4X X@Xn.lXiX'.7XV.p [ K ) d e.y.'.lXz.0 S rXZ.:X:Xa.].P.K.E.8   h m {.Y.#XQ.2 p j a &   m yX~ <.R.0X6XgXlX$X  `.",
"XXT.x.n.  j $X X%Xr.P.t.=.a.n ^ ~. Xe.K + 9 0.m.V.5.P.rXF.5   X ^ [ > $ 8.e.p   A pXW._._.k.O.P.P.    x h.]. .rXl f.#.1. .i   R :X",
"[       O m XXT.Q.T..   t.$X&X4X$X&Xf.F b q f.Z./ >.b.wX[.{ C $Xb.m.>XK p     0.Y 8 K.P.d.P.:XXXL.  Q XX4X<XrX#X.   < ^ e.p.T 4.I.",
"rXh 4 e.Y A._.$XT.R._   a.iX4X}.4.T   P 9X>.& ].u.*.Z p.q 6 I b. Xy.3X9Xn   ~ xXiX5.L./ p X.2   >   q.F : n o. .O T.` -.p.a.' k.7X",
"*X. b.iXiX#X0.8       O { 0.S.l.h - /.n.^ z #.8     > > m P.e.x.A. Xf.s.6 U =.iXpXg.-.2.D.+ .     q.nX3XiXg.O.v <.~.K _ n  .~.} qX",
"] D.3X_.:X3X7XZ.# 4 m.&XV.' .   v  XXXXXiX<Xg.p.  _.Y.O.#.i [ 1.x.j n ' 7X*.z.P -.rXa -.4.S.    o kXP.-XpXvX8Xa._  Xo.b ) X.b V P.",
"r.:X_.[.#X,XeXX.3 aX>X&X*.t.q   E.^ E.4XrX5X5X3XA.oX,X7Xd.1Xu.q   d a hX( 7.S / L + i t.2.^.q     ' `.3X<X8Xk.<.] } F k.}.s.n.k.= ",
"].7X3X~.a.Z.e.8 U y.3X9.K w   ) q * 0.A. X].I.[ 2.q.>XY.{.k.' '._.:Xe.'   & . a g P d P z.S.}.2 ^   8 t. X*.d.j O.8 ~ ~.Q.:X8X3XQ."
};
