/* XPM */
static char *c44be581f825424df138bc841d43dd21D0f4Nt69a9nj1qYm[] = {
/* columns rows colors chars-per-pixel */
"65 65 255 2 ",
"   c #010000",
".  c #0C0801",
"X  c #160C01",
"o  c #181601",
"O  c #091600",
"+  c #241B02",
"@  c #2B1C02",
"#  c #251909",
"$  c #3A1C04",
"%  c #230900",
"&  c #172300",
"*  c #0F2600",
"=  c #2C2201",
"-  c #2B2509",
";  c #342202",
":  c #3B2401",
">  c #382709",
",  c #352610",
"<  c #3C2A12",
"1  c #392612",
"2  c #3A2027",
"3  c #431B02",
"4  c #441C18",
"5  c #442501",
"6  c #442901",
"7  c #4C2B00",
"8  c #492506",
"9  c #522C01",
"0  c #5B2E01",
"q  c #572608",
"w  c #4D3307",
"e  c #5B3301",
"r  c #553707",
"t  c #442E15",
"y  c #452913",
"u  c #4B3216",
"i  c #583817",
"p  c #5C2F14",
"a  c #633400",
"s  c #6C3501",
"d  c #673C02",
"f  c #733503",
"g  c #743B00",
"h  c #7B3B02",
"j  c #78380A",
"k  c #643819",
"l  c #773818",
"z  c #652D0B",
"x  c #511536",
"c  c #752D2A",
"v  c #684619",
"b  c #7A4619",
"n  c #754205",
"m  c #5C4224",
"M  c #585335",
"N  c #6C4725",
"B  c #764B28",
"V  c #7B542B",
"C  c #705232",
"Z  c #6F6729",
"A  c #262548",
"S  c #FF00FF",
"D  c #FF00FF",
"F  c #FF00FF",
"G  c #FF00FF",
"H  c #FF00FF",
"J  c #624D50",
"K  c #833D00",
"L  c #8C3E00",
"P  c #833C0B",
"I  c #893D0C",
"U  c #983F00",
"Y  c #853D16",
"T  c #94342E",
"R  c #87302D",
"E  c #AA3B2E",
"W  c #8A4205",
"Q  c #934200",
"!  c #9A4400",
"~  c #934409",
"^  c #894516",
"/  c #964816",
"(  c #9B551C",
")  c #905813",
"_  c #A84800",
"`  c #B64C00",
"'  c #A64C16",
"]  c #B64E1C",
"[  c #AB5715",
"{  c #8C641D",
"}  c #B46B08",
"|  c #864A25",
" . c #954B24",
".. c #845A2D",
"X. c #86562A",
"o. c #985526",
"O. c #865734",
"+. c #985033",
"@. c #A64C24",
"#. c #A85B26",
"$. c #B65A29",
"%. c #B85935",
"&. c #AF4D30",
"*. c #996326",
"=. c #926737",
"-. c #AD632C",
";. c #A76528",
":. c #B6672B",
">. c #AC6834",
",. c #BB6633",
"<. c #BA7539",
"1. c #B47327",
"2. c #C94E00",
"3. c #C85100",
"4. c #DC5000",
"5. c #D35300",
"6. c #CD540F",
"7. c #E35300",
"8. c #EB5400",
"9. c #F15500",
"0. c #F85800",
"q. c #C65D38",
"w. c #D05A30",
"e. c #C46928",
"r. c #C8732B",
"t. c #C26533",
"y. c #C86938",
"u. c #D4673D",
"i. c #CA7838",
"p. c #D57B3D",
"a. c #D5763A",
"s. c #D3762F",
"d. c #D77626",
"f. c #FF00FF",
"g. c #FF00FF",
"h. c #FF00FF",
"j. c #FF00FF",
"k. c #FF00FF",
"l. c #B07149",
"z. c #985E43",
"x. c #CB6846",
"c. c #D66D47",
"v. c #CD7B43",
"b. c #D97847",
"n. c #D87A51",
"m. c #E5764B",
"M. c #E3754F",
"N. c #DC5577",
"B. c #D7843E",
"V. c #CC8C36",
"C. c #F1933A",
"Z. c #B38354",
"A. c #B08867",
"S. c #DD8A43",
"D. c #D98446",
"F. c #D98C55",
"G. c #CF9253",
"H. c #E28C45",
"J. c #E7874A",
"K. c #E5924A",
"L. c #EC944D",
"P. c #E69349",
"I. c #F5974D",
"U. c #E88855",
"Y. c #F28B5C",
"T. c #EC9553",
"R. c #EB9755",
"E. c #F39C55",
"W. c #F4945D",
"Q. c #F49B5B",
"!. c #F89858",
"~. c #FA8F46",
"^. c #F8A557",
"/. c #D49769",
"(. c #E89966",
"). c #FC9D63",
"_. c #F79967",
"`. c #F6936A",
"'. c #D6A573",
"]. c #FBA464",
"[. c #FBAA64",
"{. c #FDA56B",
"}. c #FCAC6C",
"|. c #F6A564",
" X c #FEB26D",
".X c #FDAD74",
"XX c #FEAD7A",
"oX c #F9A875",
"OX c #FDB374",
"+X c #FFB47B",
"@X c #FFBA7D",
"#X c #F2B27E",
"$X c #EEA469",
"%X c #C6A05D",
"&X c #FFC17F",
"*X c #FFC259",
"=X c #8B8D3F",
"-X c #3941BE",
";X c #565BBB",
":X c #0006FF",
">X c #0229F8",
",X c #3135DB",
"<X c #0058FF",
"1X c #5864D9",
"2X c #FF00FF",
"3X c #FF00FF",
"4X c #FF00FF",
"5X c #FF00FF",
"6X c #FF00FF",
"7X c #FF00FF",
"8X c #FF00FF",
"9X c #FF00FF",
"0X c #FF00FF",
"qX c #FF00FF",
"wX c #FF00FF",
"eX c #FF00FF",
"rX c #FF00FF",
"tX c #FF00FF",
"yX c #FF00FF",
"uX c #FF00FF",
"iX c #FF00FF",
"pX c #FF00FF",
"aX c #FF00FF",
"sX c #FF00FF",
"dX c #FF00FF",
"fX c #FF00FF",
"gX c #FF00FF",
"hX c #FF00FF",
"jX c #FF00FF",
"kX c #4B81C8",
"lX c #FAAD83",
"zX c #FFBC83",
"xX c #FFBC8A",
"cX c #F7B483",
"vX c #E9BA93",
"bX c #FFC283",
"nX c #FEC48C",
"mX c #FECA8A",
"MX c #FEC491",
"NX c #FFCB95",
"BX c #FECD9A",
"VX c #F8C596",
"CX c #FFD29C",
"ZX c #FFD4A3",
"AX c #FFDCAC",
"SX c #FBD6A7",
"DX c #FFDDB1",
"FX c #FCC8A2",
"GX c #FFE2B4",
"HX c #FFE8BA",
"JX c #FFE9B6",
"KX c #92D4F9",
"LX c #FFF0C5",
"PX c #F5F9ED",
"IX c #D7E8E9",
/* pixels */
"rXrXrXrXrXrXrXrXrXrXrXrXrXrXrXrXrXrXrXrXrXrXrXrXrXrXrXrXrXrXrXrXrXrXrXrXrXrXrXrXrXrXrXrXrXrXrXrXrXrXrXrXrXrXrXrXrXrXrXrXrXrXrXrXrX",
"rXrXrXrXrXrXrXrXrXrXrXrXrXrXrXrXrXrXrXrXrXrXrXrXrXrXrXrXrXrXrXrXrXrXrXrXrXrXrXrXrXrXrXrXrXrXrXrXrXrXrXrXrXrXrXrXrXrXrXrXrXrXrXrXrX",
"rXrXrXrXrXrXrXrXrXrXrXrXrXrXrXrXrXrXrXrXrXrXrXrXrXrXrXrXrXrXrXrXrXrXrXrXrXrXrXrXrXrXrXrXrXrXrXrXrXrXrXrXrXrXrXrXrXrXrXrXrXrXrXrXrX",
"rXrXrXrXrXrXrXrXrXrXrXrXrXrXrXrXrXrXrXrXrXrXrXrXrXrXrXrXrXrXrXrXrXrXrXrXrXrXrXrXrXrXrXrXrXrXrXrXrXrXrXrXrXrXrXrXrXrXrXrXrXrXrXrXrX",
"rXrXrXrXrXrXrXrXrXrXrXrXrXrXrXrXrXaXhXgXgXsXsXsXsXsXdXfXdXsXdXdXdXdXsXsXsXsXsXsXsXsXsXsXgXgXgXgXrXrXrXrXrXrXrXrXrXrXrXrXrXrXrXrXrX",
"rXrXrXrXrXrXrXrXrXrXrXrXrXrXrXrXaXD 2 c c T T T T T T &.E T T R E E R R R R R R c c c c c c x x gXrXrXrXrXrXrXrXrXrXrXrXrXrXrXrXrX",
"rXrXrXrXrXrXrXrXrXrXrXrXrXrXrXaXjXx O 7 7 W W n n g Q ` ! n g d Q _ g d e e g g e a e e 6 7 @ 4 jXgXrXrXrXrXrXrXrXrXrXrXrXrXrXrXrX",
"rXrXrXrXrXrXrXrXrXrXrXrXrXrXgXD O 7 a g g K g ` ` 5.5.9.9.0.0.0.5.3.` _ 3.5.Q W W Q g n d d 9 7 & x hXrXrXrXrXrXrXrXrXrXrXrXrXrXrX",
"rXrXrXrXrXrXrXrXrXrXrXrXrXyXhXS + 9 e h h W K ` ` 3.5.7.7.7.7.7.3.3.` _ ` 3.! ! W Q h h a s 9 9 @ x hXyXrXrXrXrXrXrXrXrXrXrXrXrXrX",
"rXrXrXrXrXrXrXrXrXrXrXrXgXF * 6 9 s g _ _ 2.` 9.8.8.8.8.8.8.8.8.8.8.9.9.8.8.9.0.5.4.` ` Q _ s f e 7 & D gXrXrXrXrXrXrXrXrXrXrXrXrX",
"rXrXrXrXrXrXrXrXrXrXrXtXeXf.+ 7 9 s g ! ! ` _ 8.7.7.7.8.7.7.7.7.4.4.4.4.4.4.4.4.3.2._ _ Q ! s s 0 9 = S aXrXrXrXrXrXrXrXrXrXrXrXrX",
"rXrXrXrXrXrXrXrXrXrXuX3X* ; 7 0 a g h g g g s 0.8.8.8.9.2.! Q K K K h h h h a e 9 7 U U L L 9 0 7 7 ; S aXrXrXrXrXrXrXrXrXrXrXrXrX",
"rXrXrXrXrXrXrXrXrXrXuX3X+ : 7 9 9 a a g g K h 5.2.7.7.7.3._ _ Q Q W L L K L g g a e K K f f a a 5 5 : S aXrXrXrXrXrXrXrXrXrXrXrXrX",
"rXrXrXrXrXrXrXrXrXrXuX3Xo 5 9 : ; ; - a s ! ! W W 8.4.3.` ` _ _ ! Q Q Q L L L L g h e a ; = K g @ : : S aXrXrXrXrXrXrXrXrXrXrXrXrX",
"rXrXrXrXrXrXrXrXrXrXuX3Xo 5 0 6 - i k o.#.h K ! Q ` _ _ ! Q W K h g f f s s s s a a e e ; ; a 0 ; : : S aXrXrXrXrXrXrXrXrXrXrXrXrX",
"rXrXrXrXrXrXrXrXrXrXuX3Xo 5 0 > #  .#.M.`.5 9 U U 0 a a e e 7 7 6 6 : : ; ; : : : 5 5 6 @ = ; ; ; ; : S aXrXrXrXrXrXrXrXrXrXrXrXrX",
"rXrXrXrXrXrXrXrXrXrXuX3X+ 5 9 r w >.<.(.`.l.l.y.y.,.,.$.#.#.o.o.o.o.o.o.o.o.o.o. . ./  . . .5 9 : : : S aXrXrXrXrXrXrXrXrXrXrXrXrX",
"rXrXrXrXrXrXrXrXrXrXuX3X+ 5 7 d v <.D._.{.{.oXm.m.m.m.u.u.y.y.t.t.t.t.t.t.y.t.t.,.t.$.$.q.u.7 0 6 6 : S aXrXrXrXrXrXrXrXrXrXrXrXrX",
"rXrXrXrXrXrXrXrXrXrXuX3X= 5 5 ^ ) v.D._._.ZXZXVXVXlXlXoX_.`.Y.U.U.U.U.U.U.U.J.U.n.J.b.n.c.b.@.@.^ j ; S aXrXrXrXrXrXrXrXrXrXrXrXrX",
"rXrXrXrXrXrXrXrXrXrXuX3X; 5 5 ^ ( v.D.XX.XLXLXHXHXMXxXXXoX_._._.Y.Y.Y.Y.Y.Y.U.U.U.U.J.J.b.b.%.$./ Y ; F aXrXrXrXrXrXrXrXrXrXrXrXrX",
"rXrXrXrXrXrXrXrXrXrXuX3X; 6 : o.1.<.v.v k p 6 y.%.HXAXDXZXxX+X+XXX.X+X+X+X+X.X+X_.].U.U.b.b.$.,./ Y ; S aXrXrXrXrXrXrXrXrXrXrXrXrX",
"rXrXrXrXrXrXrXrXrXrXuX3X- : : *.1.i.D.N k i u n.n.HXAXGXZXxX+XXX.X.XXX+XXX+X{..X_.).J.U.b.b.$.,./ Y ; S aXrXrXrXrXrXrXrXrXrXrXrXrX",
"rXrXrXrXrXrXrXrXrXrXrXwX3XS ; *.V.r - } } } } > 6 m.c.lX_.W..XNXzX+XnXMXnXnXnXMX.X.X_.).U.U.b.b.' / = F aXrXrXrXrXrXrXrXrXrXrXrXrX",
"rXrXrXrXrXrXrXrXrXrXrXrXgXf.= *.V.i - ) } } } @ : `.Y.xXXX)..XnXzX@XzXzXzXzXzXzX].).W.W.U.U.b.c.' / = F aXrXrXrXrXrXrXrXrXrXrXrXrX",
"rXrXrXrXrXrXrXrXrXrXrXrXaXf.o { 1.V.P.bXbXFXFXlXxX% 3 @.y.U.lXHXlXY.FXDXGXGXGXGXAXGXBXAX#.#._.J./ ^ = S aXrXrXrXrXrXrXrXrXrXrXrXrX",
"rXrXrXrXrXrXrXrXrXrXrXrXaXf.o { 1.V.V.}. XlXlX(.$Xy k %.v.U.#XGXXXY.VXZXSXAXSXSXFXSXvXBX$.$.U.n./ ^ = S aXrXrXrXrXrXrXrXrXrXrXrXrX",
"rXrXrXrXrXrXrXrXrXrXrXrXaXf.X | ;.G.G.%X%X*.o.*.*.AXMX,.,.-./.BX(.M.m.m.m.m.&.&.l Y $ $ 5 $ b.x.[ ) = F sXrXrXrXrXrXrXrXrXrXrXrXrX",
"rXrXrXrXrXrXrXrXrXrXrXtXiXf.= X.;.G.G.%X%Xl.l.;.;.'./.o.-.-./.BX(.M.M.M.x.x.+.+.l l p i k p x.x.) ^ = S iXtXrXrXrXrXrXrXrXrXrXrXrX",
"rXrXrXrXrXrXrXrXrXrXyX8XL.R.{.D.;.'.vXZ.*.PXPXb *.@ : u B o.G.MXF.c.%.%.8 $ X % - - =.=.l.l.C O.+ $ @ v B.6XyXrXrXrXrXrXrXrXrXrXrX",
"rXrXrXrXrXrXrXrXrXrXyX8XD.v.v.i.:.'.vXZ.1.IXIXH J A A k X.=./.MX/.n.&.&.B B A A A A l.l.l.l.z.z.r i , N y.6XyXrXrXrXrXrXrXrXrXrXrX",
"rXrXrXrXrXrXrXrXrXrXyX5X:.( / ,.i.#XMX%XV.KXKX:X:X>X>Xn =.A./.cX'.A.B i F.*X>X>X<X<XmXZXU.Y.b.b.r.;.M V $.5XyXrXrXrXrXrXrXrXrXrXrX",
"rXrXrXrXrXrXrXrXrXrXyXwX:.#./ i.H.#XxX'.G.KXKX,X1X1X;X*.l.Z./.cX'.'.+.| F.^.-X-XkXkXOXzXU.Y.b.D.r.:.N X.&.5XyXrXrXrXrXrXrXrXrXrXrX",
"rXrXrXrXrXrXrXrXrXrXyX5Xe.#./ D.).OX+XnXnXCXCXmXmXMXbX.XW.J._.OX+XzXb.c.H.H.C.~.~.~.J.J.!.!.T.T.i.i.^  .%.5XyXrXrXrXrXrXrXrXrXrXrX",
"rXrXrXrXrXrXrXrXrXrXyX6Xr.( z v.!..XOXNXnXAXSXxXxXXXoXW.W.W.lXCXxXxXn.c.b.a.#X#XcXcX#X#X}.}.!.Q.B.<.q l %.6XyXrXrXrXrXrXrXrXrXrXrX",
"rXrXrXrXrXrXrXrXrXrXyX6Xr./ q v.!.}.}.CXNXDXAXzXzXW.W.U.W.{.BXLXBXnXn.M.c.w.HXGXAXAXNXZXzXzX^.].S.<.3 l q.6XyXrXrXrXrXrXrXrXrXrXrX",
"rXrXrXrXrXrXrXrXrXrXyX6Xs.o.z i.J.|.].bX@XZXZX+X+XW.W.W._..XBXLXMXzXn.b.b.u.nXnXNXNXnXMX}.}.E.T.B.<.8 l x.6XyXrXrXrXrXrXrXrXrXrXrX",
"rXrXrXrXrXrXrXrXrXrXyX8XB.#.z ,.s.I.!. X[.BXBX}.}.T.!.]..XbXSXLXNXzXU.J.J.J.Q.].zXzX@XzXE.L.H.H.i.:.9 | x.6XyXrXrXrXrXrXrXrXrXrXrX",
"rXrXrXrXrXrXrXrXrXrXyX8XT.%.l :.r.P.E.R.E.MXnX[.{.E.F.o.=.z.l.A.l.l. .| y.a.Q.Q.OX+XOXOXP.K.B.B.r.-.9 | n.6XyXrXrXrXrXrXrXrXrXrXrX",
"rXrXrXrXrXrXrXrXrXrXyX8XE.,.^ :.r.H.T.S.B.zXzX|.|.Q.D.3 q q p k B B q 3 $.t.T.T.|.}.}.}.H.H.i.p.:.;.e | D.6XyXrXrXrXrXrXrXrXrXrXrX",
"rXrXrXrXrXrXrXrXrXrXyX8XM.k.j.x.s.L.!.H.H.zXzX|.|.E.K.>.>.>.<.<.<.<.>.>.p.p.T.T.|.}.}.[.S.S.i.i.:.;.r +.N.8XyXrXrXrXrXrXrXrXrXrXrX",
"rXrXrXrXrXrXrXrXrXrXrXyXpXpXfXqX~.!.).K.H.zXzX|.|.R.E.E.E.E.E.L.L.I.L.E.H.H.E.R.[.}.|.|.D.S.i.i.e.;.i g.sXyXrXrXrXrXrXrXrXrXrXrXrX",
"rXrXrXrXrXrXrXrXrXrXrXrXrXrXpX0Xm.W.).T.L.zXzX+X@X+X+X+XOXOXOXOXOXOX XOX X}.+XOX]. X[.[.S.H.i.i.r.-.i g.aXrXrXrXrXrXrXrXrXrXrXrXrX",
"rXrXrXrXrXrXrXrXrXrXrXrXrXrXpX9Xw.Y.).R.L.zXzXzXzX@X@X&XbX&XbXbXbXbX&X&X&X&X&XbX]. X[.[.H.P.B.D.r.-.r g.aXrXrXrXrXrXrXrXrXrXrXrXrX",
"rXrXrXrXrXrXrXrXrXrXrXrXrXrXpX9Xu.Y.).E.E.@XbX$X$XF.F.,.y.y.y.t.t.,.t.t.t.t.t.t.[. X].[.K.P.K.K.i.-.r g.aXrXrXrXrXrXrXrXrXrXrXrXrX",
"rXrXrXrXrXrXrXrXrXrXrXrXrXrXpX0Xc.W.].E.E.zXbX(.$XF.v.] $.$.$.] ] ] ] ] ] ] $.e. X X[.[.P.P.K.K.i.-.r g.aXrXrXrXrXrXrXrXrXrXrXrXrX",
"rXrXrXrXrXrXrXrXrXrXrXrXrXrXpX0XM._.|.E.I.nXNXs.p.!.{.nXnXVXBXSXSXSXVXnXbXMXU.U.r.R.[.[.H.K.T.T.r.-.w g.aXrXrXrXrXrXrXrXrXrXrXrXrX",
"rXrXrXrXrXrXrXrXrXrXrXrXrXrXpX0Xm._.].Q.I.nXNXe.s.!.{.CXNXCXAXHXHXHXCXCXNXCXF.D.e.R.[.[.S.H.R.T.:.;.w g.aXrXrXrXrXrXrXrXrXrXrXrXrX",
"rXrXrXrXrXrXrXrXrXrXrXrXrXrXpX0Xc.U.T.E.L.nXnX XOXOX.X{.{.{.J.w.w.w.).)..X.X+X+X+X@X^.[.S.S.Q.R.( o.w g.aXrXrXrXrXrXrXrXrXrXrXrXrX",
"rXrXrXrXrXrXrXrXrXrXrXrXrXrXpX0Xa.U.T.E.I.nXnX}.OXOX}.}.}.{.U.u.u.u.{.).OXOX+X+XOX+XE.^.D.D.Q.T.( o.w g.aXrXrXrXrXrXrXrXrXrXrXrXrX",
"rXrXrXrXrXrXrXrXrXrXrXrXrXrXpXk.t.D.S.L.P.zXbX].].zXzXnXNXZXZXGXGXGXAXGXNXCXzXbXOX@XL.R.B.B.D.v.^ ^ w g.aXrXrXrXrXrXrXrXrXrXrXrXrX",
"rXrXrXrXrXrXrXrXrXrXrXrXrXrXpXk.:.i.i.P.H.+X+X}.}.nXzXMXBXZXCXCXCXBXSXAXNXBX+X+X{..XK.T.B.B.i.i.^ ^ w g.aXrXrXrXrXrXrXrXrXrXrXrXrX",
"rXrXrXrXrXrXrXrXrXrXrXrXyXyXaXk.#.-.-.S.B.}.].nXzXAXSXGXGXGXBXnX+X}.ZXAXBXZXoXoX_.`.D.S.D.D.#.#.n n r g.gXyXyXrXrXrXrXrXrXrXrXrXrX",
"rXrXrXrXrXrXrXrXrXrXrXrXeXeXyXj.o.-.-.B.i.{.Q.bXzXCXBXZXZXZXNXMXzXzXCXZXMXBXoXoXY.`.D.D.p.p.#.#.j j r h.yXeXeXeXrXrXrXrXrXrXrXrXrX",
"rXrXrXrXrXrXrXrXrXyXpXwX=XZ M M J O.o.,.-.].!.NXnXzXbXnXnXnXNXCXCXBXNXCXxXnX_._.v.b. .@.Y ^ j j j j k > O & * 4XaXrXrXrXrXrXrXrXrX",
"rXrXrXrXrXrXrXrXyX5X5X2X=.M 2 M M +.o.-.;.b.i./.F.R.(.(.(.(.(.(.(.(././.F.F.v.b.,.,./ ( ^ ^ P P b b i t X # - 4XaXrXrXrXrXrXrXrXrX",
"rXrXrXrXuXuXuXyXhXZ Z V C < . p l o.o.o.o.^ P #.#.e.e.e.e.6.6.] ] ' ' ' ' ' / / ~ / I I P P P P X.| i < X # - 4XjXhXhXaXrXrXrXrXrX",
"rXrXrXuX2X2X2X7X7X....V C t . k | #.>.i.i.-.-.#.#.$.#.@.' ' ' ' / / / ~ ^ ^ W W I I P P I I I ~ X.| i < . , t > = & * f.aXrXrXrXrX",
"aXpXpXjXM M M Z.A.....V C t . l  .<.i.!.!.H.H./ o.o./ j j f j l j f f s f s f s f f j f / / ' ' | B i < . , u < , - & 4XjXgXgXgXgX",
"h.h.h.h.m m m C C ....V V t . k | -.#.T.!.K.L.:.t.#.#.-.$.$.$.$.( / / / ^ ^ ^ ^ j j j j ~ ~ / / b b u > X - t 1 , # o x G G G G G ",
"v v v v w w w w w X...V ..t . z ^ Y l T.!.!.!.a.D.( :.i.y.a.y.a.$.( ( ( / / / ( j P j j j j f j j 0   X - , t 1 , # # o o o o o o ",
"B B N N V V B > > i N B ..i y > @ l Y i.i.D.D.p.p.S.D.H.b.p.p.a.i.y.y.y.t.y.^ ^ j P j j j P / ~ X %   # u t < , , # o # , t < 1 , ",
"B N N N ....V + @ t m N ..v i o   l  .,.,.b.p.H.D.E.T.L.H.B.D.p.p.p.a.p.a.b.^ W j j j j I I ' '       # i u < , , # X # < u u t 1 ",
"X.V B N O.O.V i t , t i O.N v i p k k k k k k N v b.y.a.y.y.y.y.y.y.t.y.t.t.$.%.' @.j P 3 8 8 8 . X u u i t 1 , , , 1 t t t t t < ",
"O...B B O.O.V m u + # u O.B B B b t , X X . . o o q.%.t.y.y.y.u.u.u.q.y.q.y.%.q.@.@.j I X X   . X o i i i t 1 , - 1 t t t t t t t ",
"O...B B B B B C N u u i N N B V V B B # # # # # # y y i i i y 1 1 1 < y y y y y 1 1 $ $ # # % % u u v k u t , , , t u i i i u u i "
};
