/* XPM */
static char *c8948d9449a449f3b00b224341f45dadf5Ay9ePDzmxlxLYc[] = {
/* columns rows colors chars-per-pixel */
"65 65 256 2 ",
"   c #010100",
".  c #0C0600",
"X  c #0D0B03",
"o  c #160C01",
"O  c #1B1A01",
"+  c #171605",
"@  c #041300",
"#  c #240A00",
"$  c #2B1C03",
"%  c #2B1C0A",
"&  c #241905",
"*  c #351D03",
"=  c #261A14",
"-  c #192400",
";  c #0A2600",
":  c #2D2201",
">  c #2B2509",
",  c #342202",
"<  c #3B2401",
"1  c #372708",
"2  c #342610",
"3  c #3C2A13",
"4  c #382814",
"5  c #373118",
"6  c #351B20",
"7  c #481B08",
"8  c #432401",
"9  c #432A00",
"0  c #4B2703",
"q  c #542C00",
"w  c #592A04",
"e  c #4C3508",
"r  c #5C3200",
"t  c #573805",
"y  c #442D15",
"u  c #492F1B",
"i  c #4A3217",
"p  c #573817",
"a  c #643200",
"s  c #6C3402",
"d  c #6C3A01",
"f  c #633B05",
"g  c #743504",
"h  c #743A00",
"j  c #7C3B01",
"k  c #78380A",
"l  c #673817",
"z  c #773B19",
"x  c #662D0B",
"c  c #593624",
"v  c #6E3D2C",
"b  c #4F1531",
"n  c #764402",
"m  c #69451C",
"M  c #77451B",
"N  c #6B4100",
"B  c #6A4726",
"V  c #764A27",
"C  c #7B5529",
"Z  c #7B5532",
"A  c #6B5136",
"S  c #5D5229",
"D  c #FF00FF",
"F  c #FF00FF",
"G  c #645243",
"H  c #8B3E00",
"J  c #833B0C",
"K  c #843C05",
"L  c #953E00",
"P  c #853D17",
"I  c #923F12",
"U  c #803C22",
"Y  c #8B4100",
"T  c #854105",
"R  c #934200",
"E  c #9C4400",
"W  c #93440C",
"Q  c #8D4314",
"!  c #894719",
"~  c #954816",
"^  c #98541B",
"/  c #905412",
"(  c #A24600",
")  c #AA4900",
"_  c #B54A00",
"`  c #A84D16",
"'  c #B54D1C",
"]  c #A3561B",
"[  c #B35411",
"{  c #98601F",
"}  c #AB6A1D",
"|  c #854826",
" . c #85572B",
".. c #9A5725",
"X. c #855633",
"o. c #95552F",
"O. c #B24F21",
"+. c #A75A27",
"@. c #BB5B2B",
"#. c #B55828",
"$. c #BB5B34",
"%. c #BC5936",
"&. c #A75833",
"*. c #9A652A",
"=. c #8B6133",
"-. c #AA6428",
";. c #B8672B",
":. c #AB6638",
">. c #BC6334",
",. c #B86835",
"<. c #B87638",
"1. c #BD732B",
"2. c #C34C00",
"3. c #CC4E00",
"4. c #C85100",
"5. c #D85200",
"6. c #E55300",
"7. c #EC5400",
"8. c #F25500",
"9. c #F95800",
"0. c #C85D37",
"q. c #CD572C",
"w. c #C86928",
"e. c #C76938",
"r. c #D6673C",
"t. c #C97636",
"y. c #D47A3C",
"u. c #CB772D",
"i. c #FF00FF",
"p. c #FF00FF",
"a. c #FF00FF",
"s. c #FF00FF",
"d. c #FF00FF",
"f. c #885545",
"g. c #B05349",
"h. c #B36F48",
"j. c #985B53",
"k. c #C87743",
"l. c #D97846",
"z. c #D26F48",
"x. c #E27B4A",
"c. c #EA7954",
"v. c #D95069",
"b. c #E2566E",
"n. c #DD5C68",
"m. c #BA8937",
"M. c #D8843C",
"N. c #D18838",
"B. c #E9853C",
"V. c #BB8B51",
"C. c #B08362",
"Z. c #8F8945",
"A. c #DB8442",
"S. c #DD8A43",
"D. c #D78748",
"F. c #D88856",
"G. c #D18D4E",
"H. c #E28C45",
"J. c #E38D4C",
"K. c #E7864C",
"L. c #EB944D",
"P. c #E59349",
"I. c #E88856",
"U. c #F48B5A",
"Y. c #EB9452",
"T. c #EB9857",
"R. c #F39B54",
"E. c #F69859",
"W. c #F5924B",
"Q. c #F5A159",
"!. c #F9A35A",
"~. c #ECA056",
"^. c #CE996B",
"/. c #EA9867",
"(. c #F49565",
"). c #FB9D63",
"_. c #F69A68",
"`. c #F18D66",
"'. c #CCA376",
"]. c #FCA463",
"[. c #FBAA64",
"{. c #FCAB6C",
"}. c #F8A568",
"|. c #FFB36A",
" X c #E9AB76",
".X c #FDAC72",
"XX c #FCA979",
"oX c #FFB374",
"OX c #FEB47C",
"+X c #FFBB7D",
"@X c #FDBA77",
"#X c #EBAB6E",
"$X c #FEC07F",
"%X c #1E208E",
"&X c #124493",
"*X c #000BFF",
"=X c #052FF8",
"-X c #007BFF",
";X c #7266C3",
":X c #FF00FF",
">X c #FF00FF",
",X c #FF00FF",
"<X c #FF00FF",
"1X c #FF00FF",
"2X c #FF00FF",
"3X c #FF00FF",
"4X c #FF00FF",
"5X c #FF00FF",
"6X c #FF00FF",
"7X c #FF00FF",
"8X c #FF00FF",
"9X c #FF00FF",
"0X c #FF00FF",
"qX c #FF00FF",
"wX c #FF00FF",
"eX c #FF00FF",
"rX c #FF00FF",
"tX c #FF00FF",
"yX c #FF00FF",
"uX c #FF00FF",
"iX c #FF00FF",
"pX c #FF00FF",
"aX c #FF00FF",
"sX c #FF00FF",
"dX c #FF00FF",
"fX c #0083FF",
"gX c #9D8A9E",
"hX c #FEB681",
"jX c #FFBC83",
"kX c #FEBD8A",
"lX c #F6B689",
"zX c #F2B087",
"xX c #DFA881",
"cX c #FFC285",
"vX c #FFC48C",
"bX c #FDC593",
"nX c #FFCB94",
"mX c #FDCC9A",
"MX c #F3C799",
"NX c #FFD39D",
"BX c #FFD89C",
"VX c #E1C49D",
"CX c #FECEA1",
"ZX c #FED4A2",
"AX c #FFDCAC",
"SX c #FFDAA5",
"DX c #FFDEB1",
"FX c #E3CEA9",
"GX c #FFE3B4",
"HX c #FFE9BB",
"JX c #FFE2AD",
"KX c #89D2F5",
"LX c #A4D4EC",
"PX c #FFF3C8",
"IX c #FFFFE9",
"UX c #C1E5EF",
/* pixels */
"wXwXwXwXwXwXwXwXwXwXwXwXwXwXwXwXwXwXwXwXwXwXwXwXwXwXwXwXwXwXwXwXwXwXwXwXwXwXwXwXwXwXwXwXwXwXwXwXwXwXwXwXwXwXwXwXwXwXwXwXwXwXwXwXwX",
"wXwXwXwXwXwXwXwXwXwXwXwXwXwXwXwXwXwXwXwXwXwXwXwXwXwXwXwXwXwXwXwXwXwXwXwXwXwXwXwXeXwXwXwXwXwXwXwXwXwXwXwXwXwXwXwXwXwXwXwXwXwXwXwXwX",
"wXwXwXwXwXwXwXwXwXwXwXwXwXwXwXwXwXwXwXwXwXwXwXwXwXwXwXwXwXwXwXwXwXwXwXwXwXwXwXwXwXwXwXwXwXwXwXwXwXwXwXwXwXwXwXwXwXwXwXwXwXwXwXwXwX",
"wXwXwXwXwXwXwXwXwXwXwXwXwXwXwXwXwXwXwXwXwXwXwXwXwXwXwXwXeXeXwXwXwXwXwXwXwXwXwXwXwXwXwXwXwXwXwXwXwXwXwXwXwXwXwXwXwXwXwXwXwXwXwXwXwX",
"wXwXwXwXwXwXwXwXwXwXwXwXwXwXwXwXwXuXaXiXiXiXiXiXiXiXiXpXpXiXiXiXiXpXiXiXiXiXiXiXiXiXiXiXiXiXaXuXwXwXwXwXwXwXwXwXwXwXwXwXwXwXwXwXwX",
"wXwXwXwXwXwXwXwXwXwXwXwXwXwXwXrXsXb @ 9 < n n n n n T _ R n n N E ) N N t t f N t N t t 9 9 O % sXrXwXwXwXwXwXwXwXwXwXwXwXwXwXwXwX",
"wXwXwXwXwXwXwXwXwXwXwXwXwXwXrX0X8Xb $ q r T T Y Y R ( 4.) R R R _ _ Y j j j j T h h d d q q * 7 0X8XrXwXwXwXwXwXwXwXwXwXwXwXwXwXwX",
"wXwXwXwXwXwXwXwXwXwXwXwXwXrXsXb + e r d d j h E E 4.3.7.6.7.7.8.5.5._ ) 2.4.( ) Y Y h j d d q q - b sXrXwXwXwXwXwXwXwXwXwXwXwXwXwX",
"wXwXwXwXwXwXwXwXwXwXwXwXrX8X<XF : r r j j R R 2._ 5.5.7.6.6.6.6.6.5.4.2.3.5.2.2.( ) R R j j r r < b ,X8XrXwXwXwXwXwXwXwXwXwXwXwXwX",
"wXwXwXwXwXwXwXwXwXwXwXrXaXa.- 9 0 d d E R _ _ 8.7.7.7.7.6.7.7.7.7.7.8.8.7.8.8.9.3.5._ _ E ( a h a q - a.uXwXwXwXwXwXwXwXwXwXwXwXwX",
"wXwXwXwXwXwXwXwXwXwXrX0X>XF , 0 q h h H H ( E 8.6.6.7.7.5.3.2.2.2.2.2.2._ _ _ _ ( ( ) ) R E a s q q : i.uXwXwXwXwXwXwXwXwXwXwXwXwX",
"wXwXwXwXwXwXwXwXwXwXtX<X+ < 8 r a j j h h j j 9.8.7.6.8.2.( R Y Y Y K K j j a a r q E E H L q r 0 0 < i.uXwXwXwXwXwXwXwXwXwXwXwXwX",
"wXwXwXwXwXwXwXwXwXeXtX,XO * 0 0 0 q q h h R Y _ _ 7.5.5.2.) ( E R R Y H K H j j d h h h q q h a 8 8 < i.uXwXwXwXwXwXwXwXwXwXwXwXwX",
"wXwXwXwXwXwXwXwXwXwXtX,XO 8 q < , , % s a E E Y R 8.6.5.4._ ) ( E E R R H R H H h K r d $ , Y h , < < i.uXwXwXwXwXwXwXwXwXwXwXwXwX",
"wXwXwXwXwXwXwXwXwXwXtX,XO 8 q < > ! ! k.k.a h ( E L L H H K j h a a r q q q q q q q q q , , 0 8 , < < i.uXwXwXwXwXwXwXwXwXwXwXwXwX",
"wXwXwXwXwXwXwXwXwXwXtX,XO 8 q 1 % ..+.I.`.* q L H a a a a a q q 9 9 < < < < < < 8 8 8 8 $ $ , $ , , 9 i.uXwXwXwXwXwXwXwXwXwXwXwXwX",
"wXwXwXwXwXwXwXwXwXwXtX,X& 8 q t t k.D._._.`./.l.l.z.z.e.e.e.>.>.>.>.>.>.>.e.>.>.>.>.>.>.$.$.0 w 9 0 < i.uXwXwXwXwXwXwXwXwXwXwXwXwX",
"wXwXwXwXwXwXwXwXwXwXtX,X& 8 0 f t k.D._._.U.U.r.x.r.r.e.e.>.@.@.@.@.>.>.>.>.>.>.>.>.@.>.$.0.8 q 9 9 < i.uXwXwXwXwXwXwXwXwXwXwXwXwX",
"wXwXwXwXwXwXwXwXwXwXtX,X: 8 < ! ..F.J.XXXXPXHXHXHXZXCXkXhXXX_._.(.(._.(.(._.I.I.I.I.I.I.l.x.0.0.~ Q , i.uXwXwXwXwXwXwXwXwXwXwXwXwX",
"wXwXwXwXwXwXwXwXwXwXtX,X, 8 < ! ..D.F././.FXVXMXMXCXmXkXXX}._.(.(.(.(.(.(.(.I.I.I.I.x.K.l.l.#.#.~ P , p.uXwXwXwXwXwXwXwXwXwXwXwXwX",
"wXwXwXwXwXwXwXwXwXeXtX,X, 8 < ..;.t.D.M M 8 8 k.$.GXSXDXZXvXOXOXOXOXhXjXjXjXOXOX.X.XI.I.l.l.e.e.~ Q : i.uXwXwXwXwXwXwXwXwXwXwXwXwX",
"wXwXwXwXwXwXwXwXwXwXtX<X- < * ..;.<.<.C  .p p h.:.bXkXCXbXhXjXjXOXOXhXjXjXjXOXOX}..XI.I.l.l.e.e.~ Q , p.uXwXwXwXwXwXwXwXwXwXwXwXwX",
"wXwXwXwXwXwXwXwXwXwXwXrXaXp.: *.N.e & N.N..XoX8 p U.`.XXXX].hXNXjXOXcXvXvXcXjXcX.X.XE._.K.K.l.l.` ~ : i.uXwXwXwXwXwXwXwXwXwXwXwXwX",
"wXwXwXwXwXwXwXwXwXwXeXwXuXi.$ *.u.m e P.D.}.}.V Z l.l././.).OXZXhX.XvXbXbXbXvXvXOXhX_.}.K.K.l.l.~ Q : i.uXwXwXwXwXwXwXwXwXwXwXwXwX",
"wXwXwXwXwXwXwXwXwXwXwXwXuXi.O { } N.N.cXjXhXhXkXkX# 0 #.e.K.lXHXzXU.ZXAXGXGXGXGXGXHXOXjXY.U.I.x.W Q : i.uXeXeXwXwXwXwXwXwXwXwXwXwX",
"wXwXwXwXwXwXwXwXwXwXwXwXuXi.O *.} G.G. X XF.F.F.F.f.=.$.k.l. XGXXXU.zXlXlXlXxXxX'.'.h.V.:.:.x.l.~ Q : p.uXeXeXeXwXwXwXwXwXwXwXwXwX",
"wXwXwXwXwXwXwXwXwXwXwXrXiXa.+ / } '.xX^.'./ ..*.*.AXkX,.t.e. XDX XI.c.c.c.c.%.%.x z 0 0 8 * l.e.] / : p.iXrXwXeXwXwXwXwXwXwXwXwXwX",
"wXwXwXwXwXwXwXwXwXwXrXqX5Xd.V -.-. XzXG.V.'.'...*.f.f.V o.:.^.SX/.c.z.l.&.&.z z p p V V | V g.g.d f : s.5XqXrXwXwXwXwXwXwXwXwXwXwX",
"wXwXwXwXwXwXwXwXwXwXrX5X~.T.).k.-.zXCX<.{ IXIX/ } # * % m *.^.mX/.l.>.e.7 7 # # < , *.*.h.h.v Z & $ $ M S.9XrXwXwXwXwXwXwXwXwXwXwX",
"wXwXwXwXwXwXwXwXwXwXrX3Xu.,.,.,.-. XkXV.<.UXUX%X%X%X%XM =.h.^.vX^.^.&.o.h.<.%X%X&X&X^.^.z.k.:.h.M m 5 V ;.2XrXwXwXwXwXwXwXwXwXwXwX",
"wXwXwXwXwXwXwXwXwXwXrX3X;.] Q -.-.#XjXV.m.KXKX*X*X*X=X/ =.C.^.lX'.'.Z p /.|.=X=XfX-XnXZXz.l.y.y.-.*.S Z O.2XrXwXwXwXwXwXwXwXwXwXwX",
"wXwXwXwXwXwXwXwXwXwXrX3Xw.+.~ l.K..XOX X#XKXLX;X7XgXgXG.G.F./.OX X X:.&.J.R.7X7XgXgX}.}.I.I.K.K.1.-.V o.#.2XrXwXwXwXwXwXwXwXwXwXwX",
"wXwXwXwXwXwXwXwXeXeXrX3Xw.+.Q K.E.{..XjXkXmXmXcXcXjX+X{._.I._..XoXjXk.e.A.H.B.B.W.W.K.K.).E.Y.L.u.;.M o.$.9XrXwXwXwXwXwXwXwXwXwXwX",
"wXwXwXwXwXwXwXwXeXeXrX3Xu.! w l.W..X.XnXnXAXAXjXjX_.(.U.(.}.bXDXbXcXF.l.z.r.mXbXmXbXjXkX.XoXE.R.N.<.0 U e.9XrXwXwXwXwXwXwXwXwXwXwX",
"wXwXwXwXwXwXwXwXeXeXrX3Xu.! w D.E.oXoXmXmXDXAXjXjXE.E.K.(.{.mXPXmXbXF.x.z.r.GXDXAXDXvXmXoX+XE.E.D.<.0 U z.9XrXwXwXwXwXwXwXwXwXwXwX",
"wXwXwXwXwXwXwXwXeXeXrX3XM...x t.B.R.E.oXoXNXmXOXOXE.E.)..XOXmXPXbXjXK.x.x.x.{..XkXcX+XjXQ.R.S.S.t.;.0 | z.9XrXwXwXwXwXwXwXwXwXwXwX",
"wXwXwXwXwXwXwXwXwXwXrX3XM.+.x t.M.R.E.|.|.mXmXoXoXE.E.|.+XcXAXPXmXvXU.U.K.K.E.].+X+XOX+XL.L.S.M.t.-.0 | z.9XrXwXwXwXwXwXwXwXwXwXwX",
"wXwXwXwXwXwXwXwXwXwXrX5XY.:.P w.u.H.J.P.L.vXcX{.{.E.G.l z B V Z  . .l x >.e.Y.Y.}.{.{.{.H.H.t.t.1.-.r o.l.9XrXwXwXwXwXwXwXwXwXwXwX",
"wXwXwXwXwXwXwXwXwXwXrX5XL.,.Q w.u.H.J.S.H.jXjX{.}.Q.G.7 w w l M V V w 7 @.@.J.Y.}.{.[.}.S.S.t.t.;.-.f ..H.9XrXwXwXwXwXwXwXwXwXwXwX",
"wXwXwXwXwXwXwXwXwXwXrXqX6X3X2Xc.B.L.L.H.H.jXjX{.}.R.R.G.J.J.J.S.D.S.D.D.A.A.R.R.}.{.}.].A.S.u.t.;.+.t d.dXqXrXwXwXwXwXwXwXwXwXwXwX",
"wXwXwXwXwXwXwXwXwXwXwXrXrXrXpXb.W.L.Y.S.H.hXjX[.}.R.Q.Q.R.R.R.L.H.H.L.L.M.M.R.R.[.{.].].A.D.u.u.;.+.p :XiXrXwXwXwXwXwXwXwXwXwXwXwX",
"wXwXwXwXwXwXwXwXwXwXwXwXwXwXyXb.r.E.).R.R.cXcXcXcXjXjX+X+XcXcXcXjXjX+X+X+XcXvXcX[.oX[.[.S.S.t.t.;.+.t :XuXwXwXwXwXwXwXwXwXwXwXwXwX",
"wXwXwXwXwXwXwXwXwXwXwXwXwXwXyXv.0.U.).R.Q.cXcXcX+X+X+X@X+X$X+XcX+X+X+X+X+X$XcXjX!.oX[.[.S.P.M.M.1.-.e :XuXwXwXwXwXwXwXwXwXwXwXwXwX",
"wXwXwXwXwXwXwXwXwXwXwXwXwXwXyXb.z.E.).Q.Q.vXvXT.T.D.k.O.O.O.O.O.O.' ' ' ' ' ' #.|.|.[.[.H.P.S.D.1.-.e :XuXwXwXwXwXwXwXwXwXwXwXwXwX",
"wXwXwXwXwXwXwXwXwXwXwXwXeXeXyXb.z.E.].Q.Q.nXnXT./.F.D.@.@.@.@.@.@.@.@.@.@.@.q.w.[.{.[.[.H.P.S.S.1.-.e :XuXwXwXwXwXwXwXwXwXwXwXwXwX",
"wXwXwXwXwXwXwXwXwXwXwXwXwXwXyXb.x.E.E.Q.!.mXmXw.y.).{.NXNXSXGXPXHXJXBXBXBXBXT.I.w.T.[.[.H.P.P.J.;.-.e :XuXwXwXwXwXwXwXwXwXwXwXwXwX",
"wXwXwXwXwXwXwXwXwXwXwXwXwXwXyXb.l.T.E.Q.Q.mXmXy.A.).{.cXvXnXmXZXmXbXvXvXcXvXT.I.t.~.].[.S.H.Y.J.-.+.e p.uXwXwXwXwXwXwXwXwXwXwXwXwX",
"wXwXwXwXwXwXwXwXwXwXwXwXwXwXyXb.r.Y.Y.Q.R.mXnX{.oXoXoX{.{.{.x.q.q.q.).E.{.{.+X+X+X+XQ.!.S.S.].T.] ..e p.uXwXwXwXwXwXwXwXwXwXwXwXwX",
"wXwXwXwXwXwXwXwXwXwXwXwXwXwXyXv.e.J.J.R.R.nXbX[.{.oXoXOXOX+X/.I.I.I.hXXXOX+X+X+XoX+XR.R.A.A.Y.J.^ ^ e :XuXwXwXwXwXwXwXwXwXwXwXwXeX",
"wXwXwXwXwXwXwXwXwXwXwXwXwXwXyXv.;.A.S.R.L.vXvX].[.OXOXcXnXNXZXJXJXGXAXGXvXnXjXcXoX+XY.R.M.A.J.D.^ ! e p.uXwXwXwXwXwXwXwXwXwXwXwXwX",
"wXwXwXwXwXwXwXwXwXwXwXwXwXwXyXg.+.t.t.L.H.oXoXOXOXnXnXNXNXSXmXmXvXcXAXAXnXmX.X.X_._.J.J.y.A.<.,.! ! e :XuXwXwXwXwXwXwXwXwXwXwXwXwX",
"wXwXwXwXwXwXwXwXwXwXwXrXrXtXaXd...,.,.P.H.{.[.vXcXAXAXGXGXGXmXvXOX{.AXAXmXZX_._.`.`.S.S.A.A.-.+.n M e :XaXuXuXrXwXwXwXwXwXwXwXwXwX",
"wXwXwXwXwXwXwXwXwXwXrX0X4X<X<Xf.Z :.:.y.t.[.].vXjXnXbXnXnXmXnXnXvXcXNXZXkXvX(.(.K.I.t.t.;.;.^ ^ n k e F 1X>X>X0XrXwXwXwXwXwXwXwXeX",
"wXwXwXwXwXwXwXwXwXuXiX9XZ.G G G G *.+.t.;.[.].mXvXvXvXnXnXnXNXNXNXZXZXSXkXvX(.U.k.l.+.+.P Q T J k k p 1 @ - - <XtXwXwXwXwXwXwXwXeX",
"wXwXwXwXwXwXwXwXuXd.d.d.Z c = v B +.-.-.-.;.;.k.k.A.l.l.l.l.l.l.k.k.k.k.e.e.@.#.] +.~ ~ J J J J ! M p 3 o > : ,XuXtXtXrXwXwXwXwXeX",
"wXwXwXwXuXuXuXuXaXC  .C A 3 . l z +.+.....k J ;.-.w.w.w.w.w.q.q.' ' ' ' ` ' ` ` ~ ~ J Q K K K J  .| p 3 X > 1 >X8X8X,X0XrXwXwXwXeX",
"wXwXwXuXD D s.7X7XC  .C A 3 . M ..<.<.D.D.t.t.^ ..+...~ Q W Q ~ P J J J k J k k k k k k W T W ~  .V p 3 X > y 1 : - ; F uXwXwXwXwX",
"iXiXiXsXA G A C.C. . .C A 3 . | +.M.M.E.E.A.A.Q ~ ^ ! k k g k z k k g g s s s s g g g g W W ` ` | V p 3 . % y 3 2 > - >XsXaXaXaXaX",
"v v v v p p p p i C  . . .y . z | +...R.R.Y.L.t.y.+.;.t.t.t.e.e.+.^ ^ ^ ~ ~ ~ ~ J J k k J J W W M l 2 2 O 2 3 3 2 % + = 6 6 6 6 6 ",
"p p m m e e e p e  .X. . .y   l ! ! z !.E.E.R.y.y.] -.e.e.t.e.r.+.^ ^ ^ Q ! ~ ~ J J k k k k g k k x   X > 2 3 3 2 % O O + + + + O ",
"B B V B  .=. ., , y p B  .m p $ . z P ,.&.t.t.A.A.R.Y.Y.H.y.y.y.y.l.l.l.y.l.Q Q k k g k J J ` `       % p y 3 2 2 & + % y p p y 3 ",
"B B B B  . .C $ , i c B  .m p o   z P e.>.l.y.W.L.R.L.L.H.M.y.y.y.y.y.y.e.y.~ ~ J Q g k I W [ `       & p y 3 2 2 & + % y i i y 3 ",
"=.X.Z V X.X.X.B p % > i Z V V z z i u % % % % 1 y 0.%.$.$.$.$.0.%.$.$.$.$.$.%.$.~ ` g J # $ # # o % m p i y 2 2 2 3 y i i y y i y ",
"=.X.Z V X.X.X.B i & % i X.V V z z 4 4 o o . . & $ r.0.0.0.r.r.r.r.r.r.r.r.r.0.0.O.O.J I X # . . X & l p i 3 2 2 2 3 3 i i y i i y ",
"X.X.Z V V B V Z B i p p p B Z Z Z X.=.+ % % % % % + O + O 2 > + + + + + + + + + + + + & % % % % B V  .B i y 3 3 3 i p p c c p p p "
};
