/* XPM */
static char *_91b44419615461be50f04b63a95e7f8iV5mLQ6gAYmH6xlY[] = {
/* columns rows colors chars-per-pixel */
"65 65 254 2 ",
"   c #0D0A01",
".  c #050200",
"X  c #160A01",
"o  c #1A1701",
"O  c #051800",
"+  c #2B1D02",
"@  c #261A09",
"#  c #271905",
"$  c #341D02",
"%  c #351D08",
"&  c #182500",
"*  c #092800",
"=  c #2D2307",
"-  c #342201",
";  c #3B2301",
":  c #33230D",
">  c #3A280B",
",  c #352610",
"<  c #3C2A13",
"1  c #392814",
"2  c #332D14",
"3  c #3D1829",
"4  c #451B02",
"5  c #481C13",
"6  c #432403",
"7  c #452901",
"8  c #4D2A00",
"9  c #4A2704",
"0  c #532C00",
"q  c #592D01",
"w  c #552709",
"e  c #4E340B",
"r  c #5D3201",
"t  c #553607",
"y  c #442E15",
"u  c #492B13",
"i  c #4A3217",
"p  c #573819",
"a  c #5B2D13",
"s  c #633300",
"d  c #6A3703",
"f  c #733404",
"g  c #743A00",
"h  c #7B3B02",
"j  c #7D3B09",
"k  c #77380A",
"l  c #663916",
"z  c #77381C",
"x  c #672D09",
"c  c #561832",
"v  c #5D3E25",
"b  c #663D22",
"n  c #65441A",
"m  c #79441C",
"M  c #754611",
"N  c #574D2F",
"B  c #6B4725",
"V  c #784A28",
"C  c #6F522D",
"Z  c #7D552C",
"A  c #7C5634",
"S  c #715034",
"D  c #654E15",
"F  c #1A2263",
"G  c #541543",
"H  c #6A144F",
"J  c #7D0875",
"K  c #5A5A43",
"L  c #833D00",
"P  c #8C3F00",
"I  c #833C0B",
"U  c #8A3E0C",
"Y  c #863C19",
"T  c #953E04",
"R  c #943F23",
"E  c #8C4100",
"W  c #864105",
"Q  c #934200",
"!  c #9C4300",
"~  c #97440B",
"^  c #8C4213",
"/  c #8A4818",
"(  c #974917",
")  c #97531B",
"_  c #8C5016",
"`  c #AB4A00",
"'  c #A54701",
"]  c #B84B01",
"[  c #A84C17",
"{  c #B64C1B",
"}  c #B05116",
"|  c #884925",
" . c #85562A",
".. c #975625",
"X. c #865733",
"o. c #985933",
"O. c #984D28",
"+. c #A85A28",
"@. c #B65222",
"#. c #B65929",
"$. c #AB5933",
"%. c #B85A35",
"&. c #A84C2E",
"*. c #88623B",
"=. c #986633",
"-. c #AB6429",
";. c #B7672B",
":. c #BD6331",
">. c #B96A36",
",. c #BB7437",
"<. c #AB6F30",
"1. c #AD6414",
"2. c #CC4E00",
"3. c #C44C00",
"4. c #D65200",
"5. c #C95206",
"6. c #E45300",
"7. c #EC5400",
"8. c #F35500",
"9. c #C85C38",
"0. c #CD562B",
"q. c #C76928",
"w. c #C9732B",
"e. c #C66537",
"r. c #D46D3C",
"t. c #C87637",
"y. c #D5793B",
"u. c #E36F3C",
"i. c #883454",
"p. c #851372",
"a. c #882467",
"s. c #972D79",
"d. c #A73774",
"f. c #C53879",
"g. c #B75743",
"h. c #947047",
"j. c #A87348",
"k. c #894A41",
"l. c #C95A53",
"z. c #C76445",
"x. c #C97A43",
"c. c #D97848",
"v. c #D6704D",
"b. c #E2784A",
"n. c #E97C55",
"m. c #F27B54",
"M. c #D6833C",
"N. c #CD803D",
"B. c #EA843A",
"V. c #FBAF27",
"C. c #B2854C",
"Z. c #B79170",
"A. c #8F8C45",
"S. c #CA8448",
"D. c #DD8B44",
"F. c #D88545",
"G. c #D88955",
"H. c #D08C52",
"J. c #E38C45",
"K. c #E48D4A",
"L. c #E8864C",
"P. c #E5924B",
"I. c #EB944B",
"U. c #F5964D",
"Y. c #E48352",
"T. c #ED8C5C",
"R. c #E88954",
"E. c #F58D5A",
"W. c #EB9453",
"Q. c #EA9657",
"!. c #F39C55",
"~. c #F5975A",
"^. c #F98B48",
"/. c #F7A159",
"(. c #F4B151",
"). c #CE966A",
"_. c #E99563",
"`. c #F79B65",
"'. c #F39268",
"]. c #DBA571",
"[. c #FCA463",
"{. c #FBAA65",
"}. c #FDAC6C",
"|. c #F8A468",
" X c #FFB26C",
".X c #FDA572",
"XX c #FDAD74",
"oX c #FAAB79",
"OX c #FEB374",
"+X c #FEB47C",
"@X c #FFBA7C",
"#X c #F8B578",
"$X c #E8A772",
"%X c #D7A355",
"&X c #FFC07F",
"*X c #7363A5",
"=X c #0007FF",
"-X c #012CF8",
";X c #006CFF",
":X c #6C64CA",
">X c #9D0C91",
",X c #94108B",
"<X c #B907B7",
"1X c #A92789",
"2X c #D9378E",
"3X c #DB1ABA",
"4X c #D829AB",
"5X c #E32DB3",
"6X c #C0139D",
"7X c #BF4496",
"8X c #E54987",
"9X c #DA4484",
"0X c #BF02C3",
"qX c #D302D7",
"wX c #D515C7",
"eX c #E211D2",
"rX c #DF01E3",
"tX c #E300E6",
"yX c #E300E6",
"uX c #E400EB",
"iX c #E900ED",
"pX c #E300F1",
"aX c #EC00F3",
"sX c #ED00FD",
"dX c #E500FB",
"fX c #F300FD",
"gX c #F900FC",
"hX c #EC24CA",
"jX c #7184AE",
"kX c #7FD4FF",
"lX c #D1AF86",
"zX c #FEB681",
"xX c #FFBB83",
"cX c #F8BA88",
"vX c #EDB68B",
"bX c #FFC384",
"nX c #FFC48C",
"mX c #FFC988",
"MX c #FEC491",
"NX c #FFCA94",
"BX c #FECC9A",
"VX c #F1C197",
"CX c #FFD29C",
"ZX c #FFD397",
"AX c #FFD4A5",
"SX c #FFDBAC",
"DX c #FFD8A6",
"FX c #FDD8AC",
"GX c #FFE3B4",
"HX c #FFE8BA",
"JX c #FFE0AF",
"KX c #91D1F0",
"LX c #FFF1C7",
"PX c #B7B287",
/* pixels */
"tXtXtXtXtXtXtXtXtXtXtXtXtXtXtXtXtXyXtXtXtXtXtXtXtXtXtXtXtXtXtXtXtXtXtXtXtXtXtXtXtXtXtXtXtXtXtXtXtXtXtXtXtXtXtXtXtXtXtXtXtXtXtXtXtX",
"tXtXtXtXtXtXtXtXtXtXtXtXtXtXtXtXtXyXtXtXtXtXtXtXtXtXtXtXtXtXtXtXtXtXtXtXtXtXtXtXtXtXtXtXtXtXtXtXtXtXtXtXtXtXtXtXtXtXtXtXtXtXtXtXtX",
"tXtXtXtXtXtXtXtXtXtXtXtXtXtXtXtXyXyXtXtXtXtXtXtXtXtXtXtXtXtXtXtXtXtXtXtXtXtXtXtXtXtXtXtXtXtXtXtXtXtXtXtXtXtXtXtXtXtXtXtXtXtXtXtXtX",
"tXtXtXtXtXtXtXtXtXtXtXtXtXtXtXtXyXtXtXtXtXtXtXtXtXtXtXtXtXtXtXtXtXtXtXtXtXtXtXtXtXtXtXtXtXtXtXtXtXtXtXtXtXtXtXtXtXtXtXtXtXtXtXtXtX",
"tXtXtXtXtXtXtXtXtXtXtXtXtXtXtXtXtXaXfXfXfXsXsXsXsXsXsXsXsXsXsXsXsXsXsXsXfXfXsXsXfXfXfXfXfXfXfXfXtXtXtXtXtXtXtXtXtXtXtXtXtXtXtXtXtX",
"tXtXtXtXtXtXtXtXtXtXtXtXtXtXtXyXfXG o w 9 I j I j j ~ ] ~ I I j ~ ' j k d d k k d d s d w w $ 5 fXuXtXtXtXtXtXtXtXtXtXtXtXtXtXtXtX",
"tXtXtXtXtXtXtXtXtXtXtXtXtXtXyXrXaXc # 8 0 W h W W W Q ] ' W W h ! ` h g g d g g d d r d 8 0 - 5 sXrXuXtXtXtXtXtXtXtXtXtXtXtXtXtXtX",
"tXtXtXtXtXtXtXtXtXtXtXtXtXuXfXH O 0 r g g h g ` ' 2.4.7.7.7.7.7.4.4.` ' 3.3.E E W W g h s g 0 0 & c fXuXtXtXtXtXtXtXtXtXtXtXtXtXtX",
"tXtXtXtXtXtXtXtXtXtXtXtXuXqXqXH + r s h h Q E ] ] 4.4.7.6.6.6.6.4.4.] ] 2.2.` ` ! ! L E g h r r - c qXqXuXtXtXtXtXtXtXtXtXtXtXtXtX",
"tXtXtXtXtXtXtXtXtXtXtXuXfXp.& 7 q g h ! Q ] ` 7.6.6.6.7.7.7.7.7.7.7.8.8.8.8.8.8.4.6.] ] ' ` h h q 8 & H fXyXtXtXtXtXtXtXtXtXtXtXtX",
"tXtXtXtXtXtXtXtXtXtXuXqX<XH = 0 q g h Q E ` ' 7.6.6.6.7.6.4.2.2.2.2.2.2.2.2.3.3.] ] ` ` Q ! d f q 0 + H 0XqXyXtXtXtXtXtXtXtXtXtXtX",
"tXtXtXtXtXtXtXtXtXtXiX<X& ; 9 r d h h f g L g 8.7.7.7.8.2.! Q P L L L L h L s s r 0 ! ! P T q q 0 0 6 ; o ,XaXtXtXtXtXtXtXtXtXtXtX",
"tXtXtXtXtXtXtXtXyXtXiX<X# 6 8 8 0 q q d g P L 3.] 7.4.4.3.` ' Q Q E P P L L h h d s h L s s s s 7 6 6 $ # >XaXtXtXtXtXtXtXtXtXtXtX",
"tXtXtXtXtXtXtXtXtXtXiX<Xo 6 q 6 : - = s d ! ! E P 8.4.4.3.] ` ' ! Q Q Q P P P P g h s d - - L h $ ; 9 % # >XaXtXtXtXtXtXtXtXtXtXtX",
"tXtXtXtXtXtXtXtXtXyXiX<Xo 6 q 7 = l m $.>.f g ! ! ' ' ! Q E L h g d s s s s s s r s 0 r ; - q 0 - ; 8 6 + >XaXtXtXtXtXtXtXtXtXtXtX",
"tXtXtXtXtXtXtXtXtXtXiX<Xo 9 r ; @ O.+.n.T.4 8 T T s s s s r q q 8 7 ; ; - ; ; ; 7 7 7 7 + + - - - ; 8 6 + >XaXtXtXtXtXtXtXtXtXtXtX",
"tXtXtXtXtXtXtXtXtXtXiX<X# 6 q t t >.x.`..XG.G.r.r.e.e.:.:.:.#.$.$.$.$.$.$.$.$.$.+.$.+.+.&.$.; 8 7 7 8 6 + >XaXtXtXtXtXtXtXtXtXtXtX",
"tXtXtXtXtXtXtXtXtXtXiX<X# 9 0 d d ,.F..X.X`.`.b.b.c.r.r.e.e.:.:.:.:.:.:.:.e.:.:.:.:.#.#.9.9.$ 8 7 7 9 6 + >XaXtXtXtXtXtXtXtXtXtXtX",
"tXtXtXtXtXtXtXtXtXtXiX<X= 6 6 _ ) G.W.MXMXFXFXAXAXMXMXzXoX`.'._.T.T.T.T.T._.T.T.R.R.Y.Y.c.c.#.%.^ Y 7 6 + >XaXtXtXtXtXtXtXtXtXtXtX",
"tXtXtXtXtXtXtXtXtXtXiX<X= 7 6 _ ) G.Q.MXMXSXSXAXAXMXMXzXoX`.'.T.T.T.T.T.T.T.R.T.R.R.Y.Y.c.c.#.%.^ Y 7 6 + >XaXtXtXtXtXtXtXtXtXtXtX",
"tXtXtXtXtXtXtXtXyXyXiX<X- 7 ; ..;._.`.BXBXFXAXAXAXSXSXJXBX+XoXXXXX+X+XzXzXxX+X+X|..XY.R.c.c.e.e.( / ; 6 $ >XaXtXtXtXtXtXtXtXtXtXtX",
"tXtXtXtXtXtXtXtXtXtXiX<X& ; ; ..;._.`.BXBXAXAXAXAXAXAXSXNX+XoXoXXXXX+X+X+XzXXX+X`.|.Y.R.c.c.e.e.( ^ ; 6 $ >XaXtXtXtXtXtXtXtXtXtXtX",
"tXtXtXtXtXtXtXtXtXtXyXrXqXp.+ ..;.P.Q.XXOXOXOXzXzXBXNXAXnXXXxXNXzX+XMXNXMXNXNXNXXX+X`.`.R.R.b.c.[ ( ; 6 - >XaXtXtXtXtXtXtXtXtXtXtX",
"tXtXtXtXtXtXtXtXtXtXtXtXaXp.# ..;.G.Q.$X$X#X#XxXxXNXNXAXMXXXxXMXzXoXnXMXMXNXMXMX+X+X`..Xb.Y.c.c.[ ^ ; 6 - >XaXtXtXtXtXtXtXtXtXtXtX",
"tXtXtXtXtXtXtXtXtXtXtXtXaXp.   .;.*.*.A A j.=.nXzX+XzXNX+XE.cXHXzXE.AXGXGXGXGXGXGXGXAXGX+.+.E.Y.~ ^ ; 6 - >XaXtXtXtXtXtXtXtXtXtXtX",
"tXtXtXtXtXtXtXtXtXtXtXtXaXp.  | -.X.X.h.h.*.*.].).$X$XNXoXL.cXGXoXE.cXBXBXBXVXVXvXvXlXlXO.O.c.x.[ ( - 6 ; >XaXtXtXtXtXtXtXtXtXtXtX",
"tXtXtXtXtXtXtXtXtXtXtXtXsXJ   l m l e C.%Xo + # # r.x.BX|.t.$XSX$Xn.n.n.n.m.9.9.Y O.9 9 6 6 / m 1._ $ ; - >XaXtXtXtXtXtXtXtXtXtXtX",
"tXtXtXtXtXtXtXtXtXtXtXrXhXs.i  ...A S C.S.n D # % O.o.).S.>.].AX'.n.v.v.z.z.O.&.z z l l l l | | _ M $ u n 1XhXrXtXtXtXtXtXtXtXtXtX",
"tXtXtXtXtXtXtXtXtXtXuX5XI.Q.`.S.;.Z.Z.<.=.V.V.X # ; 6 a V =.).BX_.v.%.%.w 4 X X # o n n $.$.k.k.o + + m c.x.F.3XuXtXtXtXtXtXtXtXtX",
"tXtXtXtXtXtXtXtXtXtXuX4Xt.e.t.>.;.).lXC.<.PXlXF F F F l X.j.).MX).G.o.O.X.=.F F F F j.h.e.>.g.g.l l 2 B +.%.z.3XuXtXtXtXtXtXtXtXtX",
"tXtXtXtXtXtXtXtXtXtXuX4X;.[ ( +.-.$XcXC.<.kXKX=X=X-X-Xq A C.).vX).).A b G.(.-X-X;X;XZXDXn.Y.c.c.;.<.N C O.$.z.3XuXtXtXtXtXtXtXtXtX",
"tXtXtXtXtXtXtXtXtXtXuX3X;.+.( t.c.$X+X].%XKXKX:X:X:X*X=.j.S.).#X$X].<.o.F.U.*X*XjXjXXX#XT.T.L.L.w.>.C  .&.g.z.3XuXtXtXtXtXtXtXtXtX",
"tXtXtXtXtXtXtXtXtXyXuX3Xw.+.( F.~..X}.xX@XCXZXmXmXnXbX}.`.Y._.XXoXxXc.z.c.y.B.B.^.^.L.L.~.~.W.W.N.t./ O.&.g.z.3XuXtXtXtXtXtXtXtXtX",
"tXtXtXtXtXtXtXtXtXyXuX3Xw.) x x.^.XXXXMXbXSXFXxXcX.X|.E._.`.cXFXnXxXb.c.c.r.cXcXcXcXzXcXOXXX!.!.D.,.w z &.g.z.3XuXtXtXtXtXtXtXtXtX",
"tXtXtXtXtXtXtXtXtXtXuX4Xw.( q x.^.XXOXBXNXJXSXxXcX~.~.L.~.}.BXLXBXnXY.n.v.r.GXGXSXSXBXCXxXxX/./.P.x.4 z %.l.v.3XuXtXyXyXtXtXtXtXtX",
"tXtXtXtXtXtXtXtXyXtXuX4Xy.+.x e.B.!.!.@X@XAXAXOX+X~.~.~.|.XXBXHXMXxXY.n.b.c.+XzXnXnXbXnX{.|.P.P.F.,.9 z %.l.v.wXuXtXtXtXtXtXtXtXtX",
"tXtXtXtXtXtXtXtXyXtXuX5XM.+.x ;.y.U.U. X}.BXNXOXOX!.~.}.OXbXSXLXNXbXT.R.L.L.|..XzX@X@XxX!.W.D.D.M.,.9 z %.l.v.3XuXtXtXtXtXtXtXtXtX",
"tXtXtXtXtXtXtXtXtXtXuX5XK.%.Y ;.w.J.I.Q.I.nXbX{.|.~.G.V  .X.*.h.=.=.V z e.r.Q.~.}.OXOXOXP.P.N.N.w.-.0 | v.2XwXrXtXtXtXtXtXtXtXtXtX",
"tXtXtXtXtXtXtXtXtXtXuX5XI.>./ ;.w.F.J.D.M.xXzX[.|.!.S.4 w w x l m V w 4 :.:.K.W.|.}.}. XJ.P.t.t.q.-.r ..F.4XpXtXtXtXtXtXtXtXtXtXtX",
"tXtXtXtXtXtXtXtXtXtXuXhX8X2X6Xl.y.J.K.J.M.zXzX[.|.!.Q.x.x.x.x.t.x.S.,.,.F.F.!.!.|.}.}.}.J.J.t.t.q.-.t i.5XeXuXtXtXtXtXtXtXtXtXtXtX",
"tXtXtXtXtXtXtXtXtXtXtXuXpXuXdX8X^.W.W.J.J.+XzX/.[.W.!.!.U.U.U.I.J.P.I.I.J.J.!.!.{.OX{.{.D.D.t.t.;.-.t s.sXuXtXtXtXtXtXtXtXtXtXtXtX",
"tXtXtXtXtXtXtXtXtXtXtXtXtXtXpX8Xu.~.`.!.W.xXxX@XxX@X@X@X@X@X@XxX@X@XOX@XOXOX@XxX{.OX{. XJ.P.y.N.w.-.p a.aXtXtXtXtXtXtXtXtXtXtXtXtX",
"tXtXtXtXtXtXtXtXtXtXtXtXtXtXpX2X9.T.`.!.!.bXbXbXbX&XbXmXmXmXmXmXmXmXmXmXbXmXmXmX[.OX}. XP.P.F.F.w.;.p a.aXtXtXtXtXtXtXtXtXtXtXtXtX",
"tXtXtXtXtXtXtXtXtXtXtXtXtXtXpX2Xv.T.`.!.!.nXnXQ.Q.S.x.@.#.#.#.#.@.@.@.@.@.@.@.@. X X{.}.P.P.P.P.w.;.t a.aXtXtXtXtXtXtXtXtXtXtXtXtX",
"tXtXtXtXtXtXtXtXtXtXtXtXtXtXpX9Xv.T.`./.!.MXMX_._.S.x.{ @.@.@.{ { { { { { { @.q. X X{.}.P.P.P.P.w.;.e a.aXtXtXtXtXtXtXtXtXtXtXtXtX",
"tXtXtXtXtXtXtXtXtXtXtXtXtXtXpX8Xb.~.~./.!.NXZXw.y.[.XXZXZXCXSXHXHXGXCXCXZXZXQ.Q.q.Q.}.}.P.P.Q.W.;.-.e a.aXtXtXtXtXtXtXtXtXtXtXtXtX",
"tXtXtXtXtXtXtXtXtXtXtXtXtXtXpX8Xb.T.~.!.!.NXZXw.y.`.}.NXNXNXDXHXHXGXZXZXMXZXR.G.q.Q.{.{.P.P.!.W.;.+.e a.aXtXtXtXtXtXtXtXtXtXtXtXtX",
"tXtXtXtXtXtXtXtXtXtXtXtXtXtXpX8Xc.W.I.!.U.MXnX@X@XOX X[.[.`.b.0.0.0.E.E.}.|.OX@X@X@X/./.D.J.|.~.) ..e a.aXtXtXtXtXtXtXtXtXtXtXtXtX",
"tXtXtXtXtXtXtXtXtXtXtXtXtXtXpX9Xr.K.K.W.I.nXnX}. XOXOXXXXXXX'.c.b.v..X.XOXOXOXOXOX@X!./.D.D.Q.W.) ) e a.aXtXtXtXtXtXtXtXtXtXtXtXtX",
"tXtXtXtXtXtXtXtXtXtXtXtXtXtXpX9Xe.F.F.I.J.xXbX[.[.zXzXnXNXCXSXGXHXHXSXGXBXCXnXnX@X@XW.!.F.F.K.F./ / e a.aXtXtXtXtXtXtXtXtXtXtXtXtX",
"tXtXtXtXtXtXtXtXtXtXtXtXtXtXpXf.-.t.t.P.J.OXOXOXOXNXNXBXCXAXCXCXBXNXDXSXNXCXzXzX.XXXP.P.S.F.t.t./ / t a.aXtXtXtXtXtXtXtXtXtXtXtXtX",
"tXtXtXtXtXtXtXtXtXtXtXtXuXuXsXf.+.;.-.J.M.}.{.nXbXJXSXGXGXGXBXnX+XXXDXGXCXDX.XoXE.E.F.D.N.S.-.-.M M t a.fXiXiXuXtXtXtXtXtXtXtXtXtX",
"tXtXtXtXtXtXtXtXtXtXuXrXwXwXqXd. .$.$.y.t.}.[.nXbXBXBXCXCXCXNXNXnXxXBXAXMXNX.XXXT.T.y.x.t.t.+.+.k k t a.0X<X<XqXuXtXtXtXtXtXtXtXtX",
"tXtXtXtXtXtXtXtXtXpXaXwXA.K N K K o.o.>.-.{.~.NXnXnXnXNXNXNXNXZXCXAXCXAXnXNX.X.Xc.b.+.+./ / j I k k p > O & & ,XaXtXtXtXtXtXtXtXtX",
"tXtXtXtXtXtXtXtXaX1X1Xd.*.N 2 v B o.+.-.-.t.t.H.H.K.G.G.G.G.G.G.G.H.H.H.x.S.x.x.#.%.( ) U ^ I I m m p <   @ = ,XaXuXuXyXtXtXtXtXtX",
"tXtXtXtXaXaXaXuXfXZ  .Z C <   a z ..-.+.-.U j ;.-.q.q.q.q.q.0.0.{ } [ } [ [ [ [ ( ( U ^ I I h I  .| p >   = > ,XaXtXrXtXyXtXtXtXtX",
"tXtXtXaXs.s.1X7X4X .X.Z C y   l | >.>.x.S.>.>.+.+.+.+.( ( ~ ( ( ^ ^ ^ ^ U U U U I U I I U U ~ ~  .V p >   = y = & & * p.aXtXtXtXtX",
"aXaXsXgXS N S C.Z.X.X.Z C <   m ..t.y.!.~.F.K./ ) ) / k k f k z k f f f f f f f f f j k ~ ( } [ Z V i >   = y < , = & ,XgXfXfXfXfX",
"i.i.i.i.p p p B p Z  .Z Z y   l / +.+.W.!.K.I.w.t.+.-.e.:.e.e.e.+.) ( ( / / ^ / j j j j U U ~ ~ m m y : o : y 1 : @ o 3 G G G G G ",
"n n n p e e e e e Z  . . .i   a / / z W.~.U.U.y.y.+.;.y.r.r.r.r.#.) ) ) / / ( ( j j j j h j f k k q .   = < y < , @ o o o o o o o ",
"B B B B  .X.V - > i n B X.B p % o z Y >.>.t.t.y.y.I.K.K.D.y.y.y.y.y.y.y.e.r.U ^ j j k k I I ( ( . X . @ p y < , : @ o @ y i i < 1 ",
"B B B B X.X.Z + + y v B X.n p # . z | %.%.y.t.J.D.!.W.P.J.M.M.y.y.y.y.y.r.c.^ ^ I I k k U ^ [ [ . . . # p i < , , @ X @ y p i y < ",
"X.X.V B X.X.A v i > > p X.V V z l p i u u u u p p z.e.e.e.e.e.e.e.e.e.e.%.%.%.%.[ [ f I $ $ % $ X # p p i y < , : < y i i y y y y ",
"o.X.A S X.X.A B i @ @ i X.V V V m < 1 X X X   # # r.9.e.9.9.9.e.e.e.e.e.9.e.9.9.[ [ j U   X .   X # l p i y 1 , : < y y y y i i y ",
"X.X.A V V V V S B u u p p B Z V Z A X.@ @ @ @ @ @ 1 < y y y y @ @ @ , , % : : : % % @ % @ @ @ @ n n  .B i y < < , y p p b v p p b "
};
