/* XPM */
static char *_d894d1bc8194107f658144c9826af51ilFhd6Sx3EupDpDi[] = {
/* columns rows colors chars-per-pixel */
"64 64 250 2 ",
"   c #040200",
".  c #0B0600",
"X  c #130C01",
"o  c #1B0A02",
"O  c #061900",
"+  c #181902",
"@  c #270500",
"#  c #241A02",
"$  c #2C1C00",
"%  c #261808",
"&  c #2A1C0A",
"*  c #331E01",
"=  c #371A06",
"-  c #0F2800",
";  c #2B2206",
":  c #342201",
">  c #3C2401",
",  c #34250C",
"<  c #312A0B",
"1  c #342510",
"2  c #382811",
"3  c #3B2A12",
"4  c #3E272B",
"5  c #471D05",
"6  c #461D17",
"7  c #442502",
"8  c #482705",
"9  c #4C2A00",
"0  c #532C01",
"q  c #5B2D00",
"w  c #542809",
"e  c #4B3408",
"r  c #583405",
"t  c #432D15",
"y  c #482E14",
"u  c #552D14",
"i  c #4C3215",
"p  c #4C3318",
"a  c #563618",
"s  c #632D07",
"d  c #623300",
"f  c #6A3502",
"g  c #6D3A00",
"h  c #743A00",
"j  c #7C3B00",
"k  c #773608",
"l  c #693717",
"z  c #773B17",
"x  c #4C182A",
"c  c #5C3925",
"v  c #673335",
"b  c #693235",
"n  c #5B4200",
"m  c #58431A",
"M  c #6A4700",
"N  c #754509",
"B  c #644519",
"V  c #7A4416",
"C  c #745016",
"Z  c #544F30",
"A  c #6A4626",
"S  c #764C29",
"D  c #78532C",
"F  c #704D32",
"G  c #795332",
"H  c #6A6622",
"J  c #651756",
"K  c #6B2468",
"L  c #554D54",
"P  c #833D00",
"I  c #8A3E04",
"U  c #833C0B",
"Y  c #933E02",
"T  c #853D15",
"R  c #883D25",
"E  c #8A4203",
"W  c #944200",
"Q  c #9B4400",
"!  c #90430F",
"~  c #915409",
"^  c #894415",
"/  c #964816",
"(  c #99551A",
")  c #A74700",
"_  c #B34A00",
"`  c #BB4B00",
"'  c #A54B17",
"]  c #B64E1C",
"[  c #A7551C",
"{  c #B65315",
"}  c #B46417",
"|  c #864C24",
" . c #964A25",
".. c #86572C",
"X. c #985827",
"o. c #8E5737",
"O. c #875833",
"+. c #A74B25",
"@. c #A85A27",
"#. c #B45825",
"$. c #A95135",
"%. c #B75937",
"&. c #916332",
"*. c #AC6327",
"=. c #B6682A",
"-. c #AF6F32",
";. c #BB6934",
":. c #C84E00",
">. c #C95100",
",. c #D75200",
"<. c #C4591C",
"1. c #E55300",
"2. c #EC5500",
"3. c #F45600",
"4. c #CA5326",
"5. c #C65D37",
"6. c #C46E2A",
"7. c #D5672D",
"8. c #C7722D",
"9. c #C76838",
"0. c #C46C3A",
"q. c #D36B3B",
"w. c #C87636",
"e. c #D5783A",
"r. c #E76C3F",
"t. c #E200E6",
"y. c #E200E6",
"u. c #E200E6",
"i. c #B75045",
"p. c #916E4B",
"a. c #B0764F",
"s. c #CC594E",
"d. c #CF6F4B",
"f. c #D86948",
"g. c #D87847",
"h. c #E77B4F",
"j. c #D44C72",
"k. c #E3726B",
"l. c #A78337",
"z. c #CA8D24",
"x. c #D9843B",
"c. c #F18E39",
"v. c #F7A126",
"b. c #918D45",
"n. c #B68655",
"m. c #B4906F",
"M. c #D48442",
"N. c #DA8443",
"B. c #DD8A44",
"V. c #D8854B",
"C. c #D78D56",
"Z. c #E3834C",
"A. c #E48A48",
"S. c #F48847",
"D. c #E5934C",
"F. c #EA944C",
"G. c #F5974C",
"H. c #E98855",
"J. c #F28859",
"K. c #EC9452",
"L. c #EA9759",
"P. c #F39C55",
"I. c #F89759",
"U. c #F39C5D",
"Y. c #F8A25C",
"T. c #CD9166",
"R. c #D99865",
"E. c #F18F64",
"W. c #E79B66",
"Q. c #F49463",
"!. c #F89C66",
"~. c #F59D72",
"^. c #D9AB7B",
"/. c #E9A36A",
"(. c #F5A767",
"). c #FCA464",
"_. c #FAAB65",
"`. c #FCA66C",
"'. c #FCAC6B",
"]. c #FDB26C",
"[. c #E9AA76",
"{. c #FEAD73",
"}. c #FCA978",
"|. c #F5B177",
" X c #FEB374",
".X c #FEB57B",
"XX c #FEBA7D",
"oX c #FFC17F",
"OX c #5960B5",
"+X c #000FFB",
"@X c #002AE9",
"#X c #1065F8",
"$X c #4E64DB",
"%X c #E200E6",
"&X c #E200E6",
"*X c #E200E6",
"=X c #E200E6",
"-X c #E200E6",
";X c #E200E6",
":X c #E200E6",
">X c #E200E6",
",X c #E200E6",
"<X c #E200E6",
"1X c #E200E6",
"2X c #E200E6",
"3X c #E200E6",
"4X c #E200E6",
"5X c #E200E6",
"6X c #E200E6",
"7X c #E200E6",
"8X c #E200E6",
"9X c #E200E6",
"0X c #E200E6",
"qX c #E200E6",
"wX c #E200E6",
"eX c #E200E6",
"rX c #E200E6",
"tX c #E200E6",
"yX c #E200E6",
"uX c #E200E6",
"iX c #008AFF",
"pX c #AFA485",
"aX c #8C96B1",
"sX c #D9BA96",
"dX c #E7B284",
"fX c #FEB581",
"gX c #FFBC83",
"hX c #F5B88A",
"jX c #FEBD8B",
"kX c #DAC29F",
"lX c #FFC283",
"zX c #FFC38C",
"xX c #FCC78C",
"cX c #FFD083",
"vX c #FEC593",
"bX c #FFCB95",
"nX c #FEC79C",
"mX c #FFCD9B",
"MX c #FFD096",
"NX c #FFD29C",
"BX c #E9C9A7",
"VX c #FFD4A3",
"CX c #FFD8A5",
"ZX c #FFDAAB",
"AX c #FFDEB0",
"SX c #FFE3B5",
"DX c #FFEABA",
"FX c #92ABC1",
"GX c #93E1FF",
"HX c #FFEFC7",
/* pixels */
"8X8X8X8X8X8X8X8X8X8X8X8X8X8X8X8X8X8X8X8X8X8X8X8X8X8X8X8X8X8X8X8X8X8X8X8X8X8X8X8X8X8X8X8X8X8X8X8X8X8X8X8X8X8X8X8X8X8X8X8X8X8X8X8X",
"8X8X8X8X8X8X8X8X8X8X8X8X8X8X8X8X8X8X8X8X8X8X8X8X8X8X8X8X8X8X8X8X8X8X8X8X8X8X8X8X8X8X8X8X8X8X8X8X8X8X8X8X8X8X8X8X8X8X8X8X8X8X8X8X",
"8X8X8X8X8X8X8X8X8X8X8X8X8X8X8X8X8X8X8X8X8X8X8X8X8X8X8X8X8X8X8X8X8X8X8X8X8X8X8X8X8X8X8X8X8X8X8X8X8X8X8X8X8X8X8X8X8X8X8X8X8X8X8X8X",
"8X8X8X8X8X8X8X8X8X8X8X8X8X8X8X8X8X8X8X8X8X8X8X8X8X8X8X8X8X8X8X8X8X8X8X8X8X8X8X8X8X8X8X8X8X8X8X8X8X8X8X8X8X8X8X8X8X8X8X8X8X8X8X8X",
"8X8X8X8X8X8X8X8X8X8X8X8X8X8X8X8X8XuXuXyXyXyXyXyXyXyXrXrXyXyXyXyXrXrXyXyXyXyXyXyXyXyXyXuXuXuXuX8X8X8X8X8X8X8X8X8X8X8X8X8X8X8X8X8X",
"8X8X8X8X8X8X8X8X8X8X8X8X8X8X8X0XuXO O e e M M M M M ~ ) M M M N ~ ~ n n r n n r r e e > < + O 5X0X8X8X8X8X8X8X8X8X8X8X8X8X8X8X8X",
"8X8X8X8X8X8X8X8X8X8X8X8X8X8X0X>X4X+ * q d E E E E E ` >.W Q E Q _ ) j j j j j h g g d 0 9 * ; >X>X0X8X8X8X8X8X8X8X8X8X8X8X8X8X8X",
"8X8X8X8X8X8X8X8X8X8X8X8X8X0XuXO + g d g g h E Q _ ` ,.2.2.2.2.1.:.` ) _ >._ Q E j h h d r q r # O uX0X8X8X8X8X8X8X8X8X8X8X8X8X8X",
"8X8X8X8X8X8X8X8X8X8X8X8X0X>X>X: : g f j P Q ) ` :.>.1.1.2.1.1.,.,.,.:.:.,.:.` _ ) W E j j d d 7 : >X>X0X8X8X8X8X8X8X8X8X8X8X8X8X",
"8X8X8X8X8X8X8X8X8X8X8X0XuX6 + q 9 P j Q ) ` ,.1.1.2.1.1.2.2.3.3.2.2.3.3.2.3.3.2.,.:._ ) Q j h d f + 6 uX0X8X8X8X8X8X8X8X8X8X8X8X",
"8X8X8X8X8X8X8X8X8X8X0X>X%X6 : q 0 j j P E Q ` 1.1.1.1.2.:.>.` ` ` ` ` _ _ _ ) ) Q Q ) W Y g f q q * 6 y.>X0X8X8X8X8X8X8X8X8X8X8X",
"8X8X8X8X8X8X8X8X8X8XeXt.+ 7 7 d d j j h h h ) 3.2.1.2.3.Q ) P I P P j j j h d r q j Y I Y q q 0 0 7 > # t.eX8X8X8X8X8X8X8X8X8X8X",
"8X8X8X8X8X8X8X8X8X8XeXt.# 8 9 7 8 0 0 h j P W ) :.1.,.,.) _ W Q E E I I I P j h h g h q 0 f h 7 > 7 7 $ t.eX8X8X8X8X8X8X8X8X8X8X",
"8X8X8X8X8X8X8X8X8X8XeXt.# 9 q : : : : g j Q W I ` 2.,.,._ ` ) ) Q Q W W W I I P P g g 7 : g P > : 9 7 $ t.eX8X8X8X8X8X8X8X8X8X8X",
"8X8X8X8X8X8X8X8X8X8XeXt.# 0 q , ; @.X.g.@.d P Q I P j j h j d f q q 0 0 9 9 9 0 0 0 q > : > 7 > : 9 7 # t.eX8X8X8X8X8X8X8X8X8X8X",
"8X8X8X8X8X8X8X8X8X8XeXt.# 0 q ; # 9.%.J.$.= s Y f q q q 0 q > > : : $ $ $ $ $ * : : > $ + $ ; : ; 9 8 $ t.eX8X8X8X8X8X8X8X8X8X8X",
"8X8X8X8X8X8X8X8X8X8XeXt.$ 9 9 ^ N L.C..X}.}.~.J.J.H.h.h.g.g.q.q.e.e.e.e.g.g.g.q.q.q.q.q.f.k s 9 0 9 8 $ y.eX8X8X8X8X8X8X8X8X8X8X",
"8X8X8X8X8X8X8X8X8X8XeXt.# 9 9 C N K.C..X}.~.Q.H.H.g.g.g.0.q.0.0.0.0.0.0.0.0.0.0.0.;.;.9.q.z f 0 q 9 7 $ t.eX8X8X8X8X8X8X8X8X8X8X",
"8X8X8X8X8X8X8X8X8X8XeXy.: 9 > ;.@.K.C.nXmXSXZXZXVXvXgXfX~.`.Q.Q.Q.!.Q.Q.Q.E.J.J.Q.H.H.g.g.5.9./ +.> 9 $ y.eX8X8X8X8X8X8X8X8X8X8X",
"8X8X8X8X8X8X8X8X8X8XeXy.: 9 > ;.*.L.L.jXvXZXCXVXmXnXvXjX}.`.!.!.!.~.`.~.~.!.Q.Q.Q.H.H.g.g.9.5./ ' > 7 * y.eX8X8X8X8X8X8X8X8X8X8X",
"8X8X8X8X8X8X8X8X8X8XeXy.: 7 * w.=.`.!.fXvXZXCXCXCXZXZXAXfXfX}.}.{..XgX.XfX}.`.`.`.L.Z.g.g.9.0./ ' : 7 * y.eX8X8X8X8X8X8X8X8X8X8X",
"8X8X8X8X8X8X8X8X8X8XeXy.7 7 $ w.=.W.L..XXXvXvXvXmXVXmXVX.X{.jXgX{..XjXgXjXgX.X}.{.!.L.Z.Z.q.g.' ' : 7 : y.eX8X8X8X8X8X8X8X8X8X8X",
"8X8X8X8X8X8X8X8X8X8X8XeXuXv # w.=.L.D. X X X X.XzXmXbXbX{.`.mXvX.XgXvXxXzXxXzXgX.X{.{.Q.I.h.Z.+.#.* 7 : y.eX8X8X8X8X8X8X8X8X8X8X",
"8X8X8X8X8X8X8X8X8X8X8X8XtXx X w.=.a.a.n.n.T.R..XfXjXbXmX!.I.AXVX!.}.VXNXNXmXmXbXvXW.g.-.X.g.H.' #.* 8 : y.eX8X8X8X8X8X8X8X8X8X8X",
"8X8X8X8X8X8X8X8X8X8X8X8XtXx X w.-.p.p.G O.a.T.gXfX.XzXmXI.S.HXAXJ.}.SXSXSXSXSXSXAXR.#.l = d.Q.' ] * 8 : y.eX8X8X8X8X8X8X8X8X8X8X",
"8X8X8X8X8X8X8X8X8X8X8X8XtXx X X.| A G T.p.y A F a.`.fXvXZ.e.SXVXJ.E.~.~.~.R.d.a.a...z u 8 | $.( [ $ 8 : y.eX8X8X8X8X8X8X8X8X8X8X",
"8X8X8X8X8X8X8X8X8X8X8X9XyXx . V V 8 m ^.p.. % = p.`.gXmXV.7.AXmXJ.J.h.h.h.f.5. .R l u w 8 l z [ } $ > ; y.rX8X8X8X8X8X8X8X8X8X8X",
"8X8X8X8X8X8X8X8X8X8X9X3Xk.a.a.-.*.m.m.-.-.z.C o y a ..&.&.X.VXjXg.d.d.$.z u 6 = = u B ..o.o.o.u e * y ;.a.k.1X8X8X8X8X8X8X8X8X8X",
"8X8X8X8X8X8X8X8X8X8X9X3XK.H.!.-.-.pXm.&.=.v.~ o = 9 V / &.^ VXjXf.d.q. .= = @ @ @ 7 a ..&.o.o.& # $ 8 q.d.g.,X9X8X8X8X8X8X8X8X8X",
"8X8X8X8X8X8X8X8X8X8X9Xj.=.( ! w.=.nXjXn.pXGX$X+X+X+XL ( n.a.hXdXm.a.l &._.OX@X#X#XaXjXW.h.g.h.*.=.Z Z +.$.s.,X9X8X8X8X8X8X8X8X8X",
"8X8X8X8X8X8X8X8X8X8X9Xj.=.[ ! w.*.vXhXl.pXGX$X+X+X+XL V a.p.hXdXm.p.a &.].$X+X#XiXFXNXW.h.g.g.*.=.Z Z +.$.s.,X9X8X8X8X8X8X8X8X8X",
"8X8X8X8X8X8X8X8X8X8X9Xj.6.[ ^ '.I. X.XgXxXBXBXxXcXcX.X XJ.h.gX.X.X(.q.g.N.A.c.G.c.S.A.I.I.K.I.w.w.|  .+.$.s.1X9X8X8X8X8X8X8X8X8X",
"8X8X8X8X8X8X8X8X8X8X9Xj.8./ k ).G.XX.XXXzXVXmXjXjXjX{.`.H.Z.jXfX{.W.9.d.A.Z.Z.L.H.K.L.U.U.K.K.w.w.l z $.i.s.1X9X8X8X8X8X8X8X8X8X",
"8X8X8X8X8X8X8X8X8X8X9Xj.w.z 5 I.S.zXgXzXbXAXmXgX`.I.J.H.{.).HXHX.X}.g.f.5.[.SXZXZXNXmXzXzX).Y.M.A.= u $.i.s.1X9X8X8X8X8X8X8X8X8X",
"8X8X8X8X8X8X8X8X8X8X9Xj.w.z 8 Y.S.gX.XgXvXZXmXgX`.J.J.J.'.).HXSXfX}.g.f.q.W.NXVXCXbXvXgXgXY.I.x.D.5 s $.i.s.1X0X8X8X8X8X8X8X8X8X",
"8X8X8X8X8X8X8X8X8X8X9Xj.A.^ w c.x.G.G.Y. XbXgX'.!.K.`.{.gX.XHXSX.X`.Z.Z.Z.A.S.`. X.X.X(.K.B.x.8.e.8 l %.i.d.1X0X8X8X8X8X8X8X8X8X",
"8X8X8X8X8X8X8X8X8X8X9Xj.A. .s c.e.P.K.Y. XxXXX'.U.I.C.C.R.R.kXsXR.T.0.0.g.A.K.{..X.X XP.K.N.x.8.e.9 l i.s.j.1X8X8X8X8X8X8X8X8X8X",
"8X8X8X8X8X8X8X8X8X8X9X3XI.$.R e.6.B.A.x.U.gX X).U.Y.| 5 w w l l S l 5 z 9.e.D.!.(.'._.D.B.w.w.=.6.r z g.,XwX9X8X8X8X8X8X8X8X8X8X",
"8X8X8X8X8X8X8X8X8X8X9Xk.G.@.T e.8.P.F.B.U..X{.).U.Y.*.S | | X.X.*.X.V X.e.g.F.U.(.'.(.D.N.w.w.=.6.r N x.3X9X8X8X8X8X8X8X8X8X8X8X",
"8X8X8X8X8X8X8X8X8X8X8X6XwXrXrXv.S.!.U.B.U..X{.(.U.P.Y.Y.Y.Y.P.G.K.K.G.A.A.F.P.Y.'.'.Y.A.x.w.w.=.6.a b rX9X8X8X8X8X8X8X8X8X8X8X8X",
"8X8X8X8X8X8X8X8X8X8X8X8X8X8X6Xc.h.!.U.F.(.XX.X X'.'.].'.'.(.'.(.(._._.(.Y._.]._.'._.Y.B.M.w.w.=.6.a b rX8X8X8X8X8X8X8X8X8X8X8X8X",
"8X8X8X8X8X8X8X8X8X8X8X8X8X8XwX7.5.).!.P._.XXgXgXXXXXXXlXlXlXlXlXoXlXlXlXoXlXzX'.'._._.D.A.e.x.=.6.p b rX8X8X8X8X8X8X8X8X8X8X8X8X",
"8X8X8X8X8X8X8X8X8X8X8X8X8X8X6X7.s.).U.P._.XX.X(./.W.V.V.V.V.g.g.g.g.g.g.g.g.g.Y.'._._.D.A.x.B.=.8.p b eX8X8X8X8X8X8X8X8X8X8X8X8X",
"8X8X8X8X8X8X8X8X8X8X8X8X8X8X6Xe.f.).!.Y.'.zX.X/.L.C.;.#.#.#.#.] ] ] ] ] ] ] ] Y.]._._.F.D.B.D.;.8.i v eX8X8X8X8X8X8X8X8X8X8X8X8X",
"8X8X8X8X8X8X8X8X8X8X8X8X8X8X6Xx.f.).U.P.].vX(.N.D.L.[.[.[.[.dXdXdX[.[.[.[.W.Z.e.B.'._.D.A.D.K.w.8.i v eX8X8X8X8X8X8X8X8X8X8X8X8X",
"8X8X8X8X8X8X8X8X8X8X8X8X8X8X6Xc.h.).U.P.'.bX/.8.A.I.gXxXNXNXDXDXSXCXNXNXMX|.H.w.e.'._.D.B.D.P.=.6.e v eX8X8X8X8X8X8X8X8X8X8X8X8X",
"8X8X8X8X8X8X8X8X8X8X8X8X8X8XwXx.f.P.K.P._.xXXX(.'.{.'.`.{. Xg.g.g.H.`.{.{.{.|.'.]._.Y.D.N.L.).X.*.e v rX8X8X8X8X8X8X8X8X8X8X8X8X",
"8X8X8X8X8X8X8X8X8X8X8X8X8X8XwXx.f.P.K.P._.zXXX]. X X'.`.!.'.4.4.4.r.I.!.).{..XXXXX_.Y.D.x.L.).( *.e v rX8X8X8X8X8X8X8X8X8X8X8X8X",
"8X8X8X8X8X8X8X8X8X8X8X8X8X8XwX6.;.A.B.F.Y.XX X).{..XzXxXVXNXDXDXDXDXSXVXbXzXgXXX.X(.K.N.x.M.B./ ( e v rX8X8X8X8X8X8X8X8X8X8X8X8X",
"8X8X8X8X8X8X8X8X8X8X8X8X8X8XrX=.%.B.N.F.P. X].`..XgXzXzXmXNXVXVXVXVXCXmXxXlX.X X{.U.F.N.M.g.M.^ ( e v rX8X8X8X8X8X8X8X8X8X8X8X8X",
"8X8X8X8X8X8X8X8X8X8X8X8X8X8XrX(  .0.w.A.F.Y.'.lXbXZXSXSXSXSXgXgX{.zXSXCXNXfX!.Q.J.Z.B.M.M.*.*.V V a v tX8X8X8X8X8X8X8X8X8X8X8X8X",
"8X8X8X8X8X8X8X8X8X8X8X8X8X8XrX(  .w.;.x.D.Y.'.gXxXNXVXCXCXCXzXzXgXxXZXmXbXfX!.Q.I.Z.B.M.M.*.*.V V a v tX8X8X8X8X8X8X8X8X8X8X8X8X",
"8X8X8X8X8X8X8X8X8X0XeX2Xb.Z Z L L #.@.=.e.I.'.zXzXxXxXvXxXxXNXNXNXmXmXxXjX{.Q.g.d.#.+./ T ^ ^ k k a i O O - K eX8X8X8X8X8X8X8X8X",
"8X8X8X8X8X8X8X8X8X:X<Xu.p.Z 4 F Z *.@.*.;.g.V.L.W.W.W.W.W.W././.W.R.R.R.R.V.g.;.;.@./ ^ ^ ^ U V V a p + & < y.eX8X8X8X8X8X8X8X8X",
"8X8X8X8X0XeX0X0X8XH H D F % . ^ l -.@.X./ U / *.=.<.<.<.<.<.] ] ' { ' ' ' ' ' / ! I I k k k U | X.u p X & < &XuXuXuXtX8X8X8X8X8X",
"8X8X8XeX-X-X;X1X1XD O.D D & . | | ;.;.;.;.*.*.@.@.@.[ [ ' ' ( ' / / ! ! ! ! ! ! U U U U U U Y | X.i i X & y < - - - J tX8X8X8X8X",
"eXeXeXuXZ Z G n.a.D O.D D & . @.X.M.M.U.P.A.w.( X.X.U k k k z z k k k k k k k k k k k E ! ' ] | X.u u . % y t 2 1 ; K uXtXtXtXtX",
"u.u.u.u.m m m F A O.O.D G & .  .| ;.;.P.K.D.N.8.;.@.#.*.#.#.#.@./ / / ^ ! ^ ^ U U k k U I / ' V ^ 2 t X & t 2 1 ; + x J J J J J ",
"B B B B i i e e 8 O...D ..&   ^ ^ T  .I.P.I.A.N.8.#.9.q.q.q.9.9./ ( ( / / / / ^ U k k k k k k f k     ; 1 t 2 1 ; + + + + + + + ",
"S A A A D ..A : : a A D ..p i % %  . .w.w.g.g.e.N.B.A.A.e.e.e.e.w.w.0.9.9.@.^ U k k k U U / ' % %   X p p 2 2 1 & + & 2 p y 2 1 ",
"A A A A O.O.S # # p c S ..a a .   +. .0.0.e.e.A.F.P.K.K.x.N.e.e.e.e.e.q.q.@.U U U k k U ! ' <..     X a p 2 2 1 % X & t p p t 2 ",
"o.D S A O.O.F c t , 2 A G S A l l a a u u u a a ..0.0.d.0.9.9.9.9.9.9.9.5.%.5.+.+.U k w = 5 8 X . a a p p 2 1 1 1 2 t y t t t t ",
"&...S A O.O.G A t % % c O.D D z V 1 1 X X . X X l 5.5.5.9.9.9.q.q.9.9.5.5.5.5.+.+.T U = o .   X . l a a p 2 1 1 1 2 t y t t t t ",
"....D S S S S F B p p a a S D D ..S c + & & & & & , 1 , 2 t 2 & & & 1 1 1 & & & = = = & % % o a a S B p y 2 2 1 t p a c a p p a "
};
