/* XPM */
static char *_08b2d843bfc45e8f81bcea418d992cavkEAEL1072bOwO1Y[] = {
/* columns rows colors chars-per-pixel */
"64 64 249 2 ",
"   c #030200",
".  c #0B0701",
"X  c #140C01",
"o  c #170E03",
"O  c #071800",
"+  c #191801",
"@  c #251B02",
"#  c #2D1D01",
"$  c #251A0A",
"%  c #291908",
"&  c #331D02",
"*  c #371B05",
"=  c #321008",
"-  c #0D2600",
";  c #2A2307",
":  c #352202",
">  c #3A2504",
",  c #34230D",
"<  c #322B0C",
"1  c #342511",
"2  c #382813",
"3  c #3C2A13",
"4  c #3B252A",
"5  c #461C04",
"6  c #4A1D18",
"7  c #432501",
"8  c #492705",
"9  c #4B2A01",
"0  c #532C01",
"q  c #5C2D00",
"w  c #56260A",
"e  c #4A320A",
"r  c #5C3200",
"t  c #553809",
"y  c #442E15",
"u  c #4A2D13",
"i  c #552D15",
"p  c #483117",
"a  c #4C3115",
"s  c #553516",
"d  c #5B3A1C",
"f  c #652C04",
"g  c #683602",
"h  c #6C3402",
"j  c #783707",
"k  c #753A00",
"l  c #7B3B01",
"z  c #622D12",
"x  c #6A3717",
"c  c #783A17",
"v  c #4B1926",
"b  c #531E29",
"n  c #552127",
"m  c #603E22",
"M  c #632C34",
"N  c #693336",
"B  c #59420C",
"V  c #6B4502",
"C  c #764604",
"Z  c #6B4518",
"A  c #794517",
"S  c #525133",
"D  c #694625",
"F  c #774A29",
"G  c #7B542B",
"H  c #725131",
"J  c #616720",
"K  c #E200E6",
"L  c #E200E6",
"P  c #E200E6",
"I  c #584D5A",
"U  c #833D00",
"Y  c #8A3E07",
"T  c #833C0C",
"R  c #913C02",
"E  c #853D16",
"W  c #8A3D26",
"Q  c #884105",
"!  c #934200",
"~  c #9B4400",
"^  c #91440E",
"/  c #935300",
"(  c #894517",
")  c #964816",
"_  c #98551A",
"`  c #A54600",
"'  c #A84900",
"]  c #B24700",
"[  c #B44C00",
"{  c #BC4B00",
"}  c #A95C00",
"|  c #A74C18",
" . c #B54E1B",
".. c #A5551B",
"X. c #B5541D",
"o. c #9A611B",
"O. c #B06A19",
"+. c #874A23",
"@. c #944A24",
"#. c #86572A",
"$. c #985828",
"%. c #875833",
"&. c #985939",
"*. c #A94D26",
"=. c #A75925",
"-. c #B55726",
";. c #A75935",
":. c #BA5B34",
">. c #986229",
",. c #926631",
"<. c #AA6428",
"1. c #B6662A",
"2. c #B1702F",
"3. c #BA6733",
"4. c #BC7236",
"5. c #C74E00",
"6. c #C5520E",
"7. c #D75200",
"8. c #E45300",
"9. c #EC5400",
"0. c #EF5800",
"q. c #F35500",
"w. c #CE502A",
"e. c #C65D37",
"r. c #C66928",
"t. c #D3652C",
"y. c #C9762C",
"u. c #C66738",
"i. c #C4693A",
"p. c #D46E3C",
"a. c #D8693B",
"s. c #C97635",
"d. c #D4783A",
"f. c #E4733D",
"g. c #E200E6",
"h. c #E200E6",
"j. c #E200E6",
"k. c #E200E6",
"l. c #8D4945",
"z. c #936F4B",
"x. c #B87746",
"c. c #AB7350",
"v. c #A74378",
"b. c #D76D47",
"n. c #CE714D",
"m. c #D77947",
"M. c #E57B49",
"N. c #E77850",
"B. c #D24972",
"V. c #E06465",
"C. c #A28233",
"Z. c #C88033",
"A. c #D6833B",
"S. c #EF8D3A",
"D. c #ECA23B",
"F. c #B18456",
"G. c #AB9463",
"H. c #D68446",
"J. c #DA8443",
"K. c #DC8A44",
"L. c #D88B54",
"P. c #E38748",
"I. c #E38C4A",
"U. c #F98F4B",
"Y. c #E39147",
"T. c #E4924B",
"R. c #EA944D",
"E. c #E98755",
"W. c #F48A59",
"Q. c #EC9557",
"!. c #F49554",
"~. c #F79A58",
"^. c #F49D5B",
"/. c #EDA15D",
"(. c #F7A25B",
"). c #CA9369",
"_. c #DA9866",
"`. c #E89E65",
"'. c #F69966",
"]. c #F39269",
"[. c #D2A474",
"{. c #E8A36A",
"}. c #F5A462",
"|. c #FCA464",
" X c #FCAB65",
".X c #F8A96B",
"XX c #FCAC6B",
"oX c #FEB26B",
"OX c #E9AA77",
"+X c #FEAC73",
"@X c #F8A876",
"#X c #FDB275",
"$X c #FAB77A",
"%X c #FEB47B",
"&X c #FEBB7D",
"*X c #FFC17C",
"=X c #000EFB",
"-X c #002DF5",
";X c #005BF5",
":X c #5861C2",
">X c #E200E6",
",X c #E200E6",
"<X c #E200E6",
"1X c #E200E6",
"2X c #E200E6",
"3X c #E200E6",
"4X c #E200E6",
"5X c #E200E6",
"6X c #E200E6",
"7X c #E200E6",
"8X c #E200E6",
"9X c #E200E6",
"0X c #E200E6",
"qX c #E200E6",
"wX c #E200E6",
"eX c #E200E6",
"rX c #E200E6",
"tX c #E200E6",
"yX c #E200E6",
"uX c #E200E6",
"iX c #E200E6",
"pX c #5785F7",
"aX c #A9A194",
"sX c #D9BC9E",
"dX c #E9B689",
"fX c #FDB987",
"gX c #FFBC84",
"hX c #F7B389",
"jX c #FFC284",
"kX c #FFC38B",
"lX c #FFC88D",
"zX c #EFC79E",
"xX c #FEC693",
"cX c #FFCB95",
"vX c #F6C49E",
"bX c #FFCE9A",
"nX c #FFD096",
"mX c #FFD29C",
"MX c #CEC3AD",
"NX c #FFD4A3",
"BX c #FFD9A4",
"VX c #FFDCAC",
"CX c #FBDAB0",
"ZX c #FFE3B5",
"AX c #FFE8B4",
"SX c #FFE8B9",
"DX c #8BC1E3",
"FX c #FFF0C7",
"GX c #FFFFE2",
/* pixels */
"8X8X8X8X8X8X8X8X8X8X8X8X8X8X8X8X8X8X8X8X8X8X8X8X8X8X8X8X8X8X8X8X8X8X8X8X8X8X8X8X8X8X8X8X8X8X8X8X8X8X8X8X8X8X8X8X8X8X8X8X8X8X8X8X",
"8X8X8X8X8X8X8X8X8X8X8X8X8X8X8X8X8X8X8X8X8X8X8X8X8X8X8X8X8X8X8X8X8X8X8X8X8X8X8X8X8X8X8X8X8X8X8X8X8X8X8X8X8X8X8X8X8X8X8X8X8X8X8X8X",
"8X8X8X8X8X8X8X8X8X8X8X8X8X8X8X8X8X8X8X8X8X8X8X8X8X8X8X8X8X8X8X8X8X8X8X8X8X8X8X8X8X8X8X8X8X8X8X8X8X8X8X8X8X8X8X8X8X8X8X8X8X8X8X8X",
"8X8X8X8X8X8X8X8X8X8X8X8X8X8X8X8X8X8X8X8X8X8X8X8X8X8X8X8X8X8X8X8X8X8X8X8X8X8X8X8X8X8X8X8X8X8X8X8X8X8X8X8X8X8X8X8X8X8X8X8X8X8X8X8X",
"8X8X8X8X8X8X8X8X8X8X8X8X8X8X8X8X8XiXiXuXuXuXuXuXuXuXtXtXuXtXuXuXtXtXuXuXuXuXuXuXuXuXuXuXuXiXiXqX8X8X8X8X8X8X8X8X8X8X8X8X8X8X8X8X",
"8X8X8X8X8X8X8X8X8X8X8X8X8X8X8XqXiXO O e e C C V V V / } V C V C } / B B t t V B B t t e > @ - 5XwX8X8X8X8X8X8X8X8X8X8X8X8X8X8X8X",
"8X8X8X8X8X8X8X8X8X8X8X8X8X8XwX,X4X+ & r g Q Q Q Q Q [ 5.! ! ! ~ { ` l l l l U l k k k r 0 > ; ,X,XwX8X8X8X8X8X8X8X8X8X8X8X8X8X8X",
"8X8X8X8X8X8X8X8X8X8X8X8X8XwXiXO + g r k k k Q ! [ 5.8.9.0.0.0.9.7.5.' { 5.[ ' ! Q l l k g r r ; - iXwX8X8X8X8X8X8X8X8X8X8X8X8X8X",
"8X8X8X8X8X8X8X8X8X8X8X8XwX,X,X: & g g U U ! ` { 5.7.8.8.8.8.8.8.7.7.5.5.7.5.5.] ` ~ ! U l g g 7 > ,X,XqX8X8X8X8X8X8X8X8X8X8X8X8X",
"8X8X8X8X8X8X8X8X8X8X8XqXiXv + r 9 l l ~ ` [ 5.9.9.9.8.9.0.0.0.0.0.0.0.0.0.0.q.8.7.5.[ ` ` k l f f + 2 yX8X8X8X8X8X8X8X8X8X8X8X8X",
"8X8X8X8X8X8X8X8X8X8XqX,X>X6 & q 0 U k R ! ~ { 9.8.8.9.9.5.5.{ { 5.{ { { { ] ' ` ~ ` ' ~ ~ k g 0 q & v yX8X8X8X8X8X8X8X8X8X8X8X8X",
"8X8X8X8X8X8X8X8X8X8XrXP + 7 > g f U l k l l ] q.0.9.9.q.~ ' U Q Q U U U l k g r r l ~ R ! f q 0 0 > b tX8X8X8X8X8X8X8X8X8X8X8X8X",
"8X8X8X8X8X8X8X8X8X8XrXg.@ 7 9 8 8 0 0 k l Q ~ ` 5.8.7.7.' [ ~ ~ ! ! R R R U l k k k k q 9 h k 7 7 7 b yX8X8X8X8X8X8X8X8X8X8X8X8X",
"8X8X8X8X8X8X8X8X8X8XrXg.@ 9 0 : : : > g l ~ ! Q { 0.8.8.[ { ` ` ! ! ! ! ! R R l l k g 7 # k Q > : 7 b tX8X8X8X8X8X8X8X8X8X8X8X8X",
"8X8X8X8X8X8X8X8X8X8XrXg.@ 9 0 , ; =.$.m.;.f U ` ! U U U l l g g r r 0 0 0 0 9 0 0 0 0 7 : > 7 : : 8 v yX8X8X8X8X8X8X8X8X8X8X8X8X",
"8X8X8X8X8X8X8X8X8X8XrXg.@ 9 q ; @ :.;.W.;.* f R h q q q q q 9 8 : : # : # # # : : : : # + # # : & 9 n tX8X8X8X8X8X8X8X8X8X8X8X8X",
"8X8X8X8X8X8X8X8X8X8XrXg.@ 9 9 Z t Q.L.'.'.@X'.E.E.N.M.M.p.p.p.p.p.p.p.p.p.p.p.p.p.p.p.a.M.x f 9 9 8 n yX8X8X8X8X8X8X8X8X8X8X8X8X",
"8X8X8X8X8X8X8X8X8X8XrXg.@ 9 9 Z t Q.L.'.'.'.].E.E.m.b.b.i.i.3.3.3.i.i.i.i.i.i.i.i.i.i.3.u.c f 0 0 7 n yX8X8X8X8X8X8X8X8X8X8X8X8X",
"8X8X8X8X8X8X8X8X8X8XrXh.> 8 & 1.$.'.Q.fXxXFXSXZXVXNXfXfX@X@X'.'.].].].].].W.E.E.E.E.E.m.N.e.e.) | # n yX8X8X8X8X8X8X8X8X8X8X8X8X",
"8X8X8X8X8X8X8X8X8X8XrXh.> 8 & 1.=.Q.L.L.).aX[.dXdXNXxXxX@X@X'.'.'.'.'.'.'.'.'.Q.Q.E.E.m.m.:.e.) | # n yX8X8X8X8X8X8X8X8X8X8X8X8X",
"8X8X8X8X8X8X8X8X8X8XrXh.> 7 # s.1.H.4.Z Z 7 A 3._.VXVXZXxXkX+XfX+X%XfX%XfX%X#X+X+X~.E.m.m.i.p.) | # n yX8X8X8X8X8X8X8X8X8X8X8X8X",
"8X8X8X8X8X8X8X8X8X8XrXh.> 7 # s.2.,.>.>.>.#.%.$.n.hXhXxXfX+XkXfX%X%XgXfXgXfXfX#XXX'.E.J.m.d.b.) | # n tX8X8X8X8X8X8X8X8X8X8X8X8X",
"8X8X8X8X8X8X8X8X8X8X8XrXiXM @ Z.4.@ t A.Y.XXx.9 ;.].@XhXXX'.bXcX%XgXkXkXjXgXfX%X+X'.'.I.P.m.M.| X.# n yX8X8X8X8X8X8X8X8X8X8X8X8X",
"8X8X8X8X8X8X8X8X8X8X8X8XyXb + y.2.G ,./.{.@X_.c.z.&.x.n.~.E.VXNX'.%XbXbXbXbXbXxXkX#X@XQ.P.M.E.) X.# n tX8X8X8X8X8X8X8X8X8X8X8X8X",
"8X8X8X8X8X8X8X8X8X8X8X8XyXb o y.O.D.Y.jXfXhXfXfXc.= ( *.W.M.FXCXW.@XZXZXZXSXSXSXSXcXgX'.~.E.W.)  .# n yX8X8X8X8X8X8X8X8X8X8X8X8X",
"8X8X8X8X8X8X8X8X8X8X8X8XyXb o 4.O.OX{.{.).x.x.x.F.).x.3.m.u.SXNXE.].'.'.].L.n.c.z.%.%.G A i.m...X.@ n yX8X8X8X8X8X8X8X8X8X8X8X8X",
"8X8X8X8X8X8X8X8X8X8X8XqXuXv . 2.o.dX[.[.F._ >.>._.NXL.u.s.1.ZXNXN.E.E.N.W.b.e.W c z w 8 * :.b...O.@ n uXqX8X8X8X8X8X8X8X8X8X8X8X",
"8X8X8X8X8X8X8X8X8X8XqX3X].n.x.2.<.vXdX2.).CX[.>.D 3 p u 2.$.NXxXm.n.n.;.x i 5 3 y D ,.&.&.&.l.u e & a V.<X8X8X8X8X8X8X8X8X8X8X8X",
"8X8X8X8X8X8X8X8X8X8XqX3XQ.Q.'.2.<.NXvXo.).GXdXO.C & * $ >.( NXfXb.b.u.@.5 * = & > Z >.;.c.%.l.% @ # u J.<XqX8X8X8X8X8X8X8X8X8X8X",
"8X8X8X8X8X8X8X8X8X8XeXB.1._ ) i.1.gX$XF.aXDXpX=X=X=XI <.F.F.fXdX).c.F ,.(.:X-X;X;XaXfXE.m.d.m.<.1.S H -.k.qX8X8X8X8X8X8X8X8X8X8X",
"8X8X8X8X8X8X8X8X8X8XeXB.1._ ^ i.<.kXfXC.G.DXpX=X=X=XI Z F.z.hXdXG.c.d ,.oX:X-X;X;XDXBXE.b.p.b.<.1.S S -.k.eX8X8X8X8X8X8X8X8X8X8X",
"8X8X8X8X8X8X8X8X8X8XqXB.r...Q XX~.#X#XkXzXMXsXdXfX&X#X+X~.E.%X#XgX.Xp.m.P.S.S.U.U.U.P.~.|.~.~.s.d.( @.:.<XqX8X8X8X8X8X8X8X8X8X8X",
"8X8X8X8X8X8X8X8X8X8XeXB.y.) h |.U.#X#XjXxXbXcXfXfXfXXXXXE.E.gX#X%X`.i.m.P.P.I.^.Q.Q.Q.^.'.!.!.s.A.z c :.<XqX8X8X8X8X8X8X8X8X8X8X",
"8X8X8X8X8X8X8X8X8X8XqXB.d.c 5 |.U.&X%XbXNXCXbXfXXX!.W.E.#X|.FXSXgX@XM.b.a.OXZXVXCXbXbX&XgX~.(.H.T.5 z b.<XqX8X8X8X8X8X8X8X8X8X8X",
"8X8X8X8X8X8X8X8X8X8XqXB.d.c 5 |.U.%X#XcXbXVXbXgX+X~.W.E.+X|.FXZXgX@Xm.m.a.OXNXNXVXcXcX%X%X~.~.A.Y.5 x n.<XqX8X8X8X8X8X8X8X8X8X8X",
"8X8X8X8X8X8X8X8X8X8XqXB.P.( f U.d.~.~. X$XcXkX%X|.Q.|.XXgX#XFXZX%X@XP.P.P.!.~.+X%X%X%X}.R.K.A.s.d.9 x n.<XqX8X8X8X8X8X8X8X8X8X8X",
"8X8X8X8X8X8X8X8X8X8XqXB.J.( z S.d.~.^.(.#XcXjX#X|.~.L.L._._.sXsX_.L.i.p.m.E.^.+X%X%X#X~.R.K.A.s.d.8 x n.<XqX8X8X8X8X8X8X8X8X8X8X",
"8X8X8X8X8X8X8X8X8X8XqX3XQ.;.W d.y.I.K.A./.gX%XXX}.|.F 5 w w x c A x 5 c u.d.R./.}.XX XR.I.s.s.1.y.r A N.<XqX8X8X8X8X8X8X8X8X8X8X",
"8X8X8X8X8X8X8X8X8X8XqXV.D.=.E A.y.R.I.K.^.gX%XXX}.(.;.F +.#.$.>.>.$.A $.s.J.R.}..XXX XT.K.s.s.1.r.r A S.3XqX8X8X8X8X8X8X8X8X8X8X",
"8X8X8X8X8X8X8X8X8X8X8XqX6XeXtXD.U.T.T.A.^.fX%XXX^.^.(.(.(.(.!.R.R.~.~.I.P.R.Q.}.XXXX}.I.K.s.s.1.r.s N tXqX8X8X8X8X8X8X8X8X8X8X8X",
"8X8X8X8X8X8X8X8X8X8X8X8X8X8X6XS.M.^.~.T.}.gX&X#X#XXXoXXX.X.XXX.X}.}.}././..X#X XXX X}.T.K.s.s.1.r.s N tX8X8X8X8X8X8X8X8X8X8X8X8X",
"8X8X8X8X8X8X8X8X8X8X8X8X8X8X6Xt.e.|.'.~.XXjXkXjXjX&X&X*XjXjXjXjXjXjX*X*XjXjXlXXXoXXX XR.Y.A.A.1.y.s N rX8X8X8X8X8X8X8X8X8X8X8X8X",
"8X8X8X8X8X8X8X8X8X8X8X8X8X8X6Xa.a.|.^.(.XXjX&X.X{.`.L.m.H.H.m.m.m.m.m.m.m.m.m./.oX X XR.Y.K.Y.4.y.s N rX8X8X8X8X8X8X8X8X8X8X8X8X",
"8X8X8X8X8X8X8X8X8X8X8X8X8X8X6Xf.b. X^.(.XXkX$X`.L.L.3.-.-.-.-. . . . . . .-. ./.oX X XR.T.K.T.3.s.e N rX8X8X8X8X8X8X8X8X8X8X8X8X",
"8X8X8X8X8X8X8X8X8X8X8X8X8X8X6XA.b. X^.~.#XcXOXH.I.Q.{.{.OXOXdXdXOXOX{.OX{.Q.m.J.I.oX XR.T.T.R.4.s.e N rX8X8X8X8X8X8X8X8X8X8X8X8X",
"8X8X8X8X8X8X8X8X8X8X8X8X8X8X6XS.N. X^.(.#XbX{.y.P.~.jXlXNXmXSXSXVXBXmXnXnXOXQ.s.d.oX XR.T.T.R.3.y.e N rX8X8X8X8X8X8X8X8X8X8X8X8X",
"8X8X8X8X8X8X8X8X8X8X8X8X8X8XeXd.b.^.R.~.XXcX&X}.XXXX#X+X+X%Xm.m.m.E.+X+X+X+X#X.XXX X(.T.K.Q.|._ 1.e N rX8X8X8X8X8X8X8X8X8X8X8X8X",
"8X8X8X8X8X8X8X8X8X8X8X8X8X8X6XA.b.^.!.~.XXcXgXoX#X#XXXXX|.XXw.w.w.f.~.'.+X#X&X#X%X}.(.T.K.Q.|.=.1.e N tX8X8X8X8X8X8X8X8X8X8X8X8X",
"8X8X8X8X8X8X8X8X8X8X8X8X8X8XtXO.3.T.K.R./.kX&X|.+X%XjXkXNXmXAXAXSXZXZXNXcXkXjX&X&X}.R.J.A.K.I._ _ e M tX8X8X8X8X8X8X8X8X8X8X8X8X",
"8X8X8X8X8X8X8X8X8X8X8X8X8X8XtXO.1.Y.K.R.^.gX%XXX#XgXjXkXmXbXmXmXmXNXVXbXkXjX&X#X#X^.R.J.A.H.J._ _ e M tX8X8X8X8X8X8X8X8X8X8X8X8X",
"8X8X8X8X8X8X8X8X8X8X8X8X8X8XtX_ @.s.s.Y.R. X#XjXcXVXVXZXZXZXgXjX+XkXVXNXmXfX'.].W.E.J.H.H.<.<.A A s M yXqX8X8X8X8X8X8X8X8X8X8X8X",
"8X8X8X8X8X8X8X8X8X8X8X8X8X8XtX_ @.i.4.J.T.|.#XjXxXmXNXNXNXNXkXkX%XxXVXmXcX%X'.'.].I.J.H.A.2.1.A A t M yX8X8X8X8X8X8X8X8X8X8X8X8X",
"8X8X8X8X8X8X8X8X8XqXrX2XC.S S S I 1.<.4.d.|.#XlXjXjXkXkXkXxXbXbXmXmXmXxXfX@XW.m.b.3.*.( E A j j C s e O O - P rX8X8X8X8X8X8X8X8X",
"8X8X8X8X8X8X8X8X8X1X1Xv.z.S 4 H S 1.<.1.4.H.L._.`.`.`.`.`.`.{.{.`.`.{._._.L.b.3.3.=.*.) ( ( T A ( s a o $ < h.rX8X8X8X8X8X8X8X8X",
"8X8X8X8XwXrXwXwX8XJ G D H $   +.c 2.=.$._ T ) =.1.r.r.r.r.r.X.X. . .| | | | | ) ) Y Y T T j U +.$.a a . $ < >XiXiXiXyX8X8X8X8X8X",
"8X8X8XrXj.>X>X2X2XG %.H H $ . @.+.4.2.s.4.<.=.=.=.1.=...| | | | ) ) ^ ^ ^ ^ Y Y Y T T T T Y R +.#.a a . $ y < - - - K yX8X8X8X8X",
"rXrXrXiXJ S H F.c.G #.H H $   <.=.K.H.~.!.K.3.( _ _ ( c j j c c j j h h h h h h h k j Q ^ |  .+.#.a a . $ y 3 1 ; @ P iXyXyXyXyX",
"j.j.j.j.B d D D D #.%.G G %   =.@.3.4.~.!.R.d.3.1.=.1.1.1.1.:.-.) ) ) ( ( ( ( j j j j T Y ) | ( +.u u o $ y 3 1 ; + 4 L L L L L ",
"B B Z B s s a e > %.%.%.%.%   ( ( E @.(.~.~.I.J.u.=.u.s.d.d.p.p._ _ _ _ ) ) ) ( ( j j j j j j j T     , , 3 3 1 ; + + + + + + + ",
"D D D D G #.D > > d D F %.a a * % @.@.s.s.m.H.J.P.P.P.P.d.d.d.d.s.s.s.u.u.=.( T T j j j T ^ | % %   o s y 3 2 , $ o $ 2 u y 3 2 ",
"D D D D %.%.F ; , a d F %.d x     *.@.3.i.d.J.Y.R.!.R.!.A.A.d.d.d.d.d.d.d.=.T T T j j T Y | 6..     o d p 3 2 1 $ o $ y a a y 3 ",
"%.G F D %.%.G D y , 2 m H D F i i s s u i i s d $.i.i.u.u.u.u.u.u.u.u.e.e.:.:.*.*.T j 8 * 5 5 o X d s s y 2 1 1 1 y y p y y y y ",
",.%.H F %.%.G D y @ @ d %.F F c c 1 1 o o . o o x e.e.:.e.e.e.u.u.e.e.e.e.e.e.*.*.E T * o . . o . Z d p y 2 1 1 2 3 y p y p p y ",
"%.%.G F F F F H D a a d d F H G #.G D + $ $ $ % & , 3 % p p y % , , 1 1 % , 1 , , * * % % % $ d d #.F p y 3 3 3 y d d m m s s d "
};
