/* XPM */
static char *f1135c37e7624739a62e40f1eb8800faVB5nR8f1ydnGgV3f[] = {
/* columns rows colors chars-per-pixel */
"64 64 247 2 ",
"   c #020200",
".  c #0B0701",
"X  c #130C01",
"o  c #1C0C01",
"O  c #071700",
"+  c #1A1802",
"@  c #260700",
"#  c #271906",
"$  c #2C1B01",
"%  c #251A0A",
"&  c #331E00",
"*  c #371A05",
"=  c #112700",
"-  c #2A2306",
";  c #342203",
":  c #3B2301",
">  c #35250B",
",  c #312A0B",
"<  c #352511",
"1  c #372713",
"2  c #3C2A12",
"3  c #3B1C2A",
"4  c #441D05",
"5  c #491C1A",
"6  c #442502",
"7  c #472706",
"8  c #4C2A00",
"9  c #532C00",
"0  c #592A05",
"q  c #4A3308",
"w  c #553606",
"e  c #5C3201",
"r  c #452E15",
"t  c #4A2F15",
"y  c #542D14",
"u  c #4A3115",
"i  c #493217",
"p  c #543513",
"a  c #583819",
"s  c #632C0B",
"d  c #633401",
"f  c #6A3500",
"g  c #6A3900",
"h  c #733403",
"j  c #743B00",
"k  c #7B3B02",
"l  c #7A3809",
"z  c #673715",
"x  c #783A17",
"c  c #521A32",
"v  c #5D3E22",
"b  c #63362B",
"n  c #6C3734",
"m  c #5C4100",
"M  c #584318",
"N  c #6A4502",
"B  c #774605",
"V  c #67461B",
"C  c #7A4518",
"Z  c #555031",
"A  c #6A4625",
"S  c #754B2A",
"D  c #7A542C",
"F  c #755032",
"G  c #6C6722",
"H  c #E200E6",
"J  c #E200E6",
"K  c #E200E6",
"L  c #35404C",
"P  c #4C4F48",
"I  c #833D00",
"U  c #8A3D03",
"Y  c #843C0B",
"T  c #8C3F0D",
"R  c #913F2A",
"E  c #8C4100",
"W  c #8B420A",
"Q  c #934200",
"!  c #9A4400",
"~  c #93420F",
"^  c #894616",
"/  c #954916",
"(  c #99531B",
")  c #A44600",
"_  c #AA4800",
"`  c #B54B00",
"'  c #BB4B00",
"]  c #A85900",
"[  c #A64C18",
"{  c #B64E1C",
"}  c #A7561C",
"|  c #B6521C",
" . c #B36911",
".. c #884A23",
"X. c #964A25",
"o. c #875729",
"O. c #985727",
"+. c #875933",
"@. c #925238",
"#. c #A44C26",
"$. c #A85926",
"%. c #B65826",
"&. c #AC5234",
"*. c #B85836",
"=. c #946B33",
"-. c #AB6427",
";. c #B6672A",
":. c #B96934",
">. c #AD7231",
",. c #BC7132",
"<. c #C54E00",
"1. c #D85200",
"2. c #E55300",
"3. c #EC5400",
"4. c #EC5800",
"5. c #F35500",
"6. c #D04A2A",
"7. c #C65D21",
"8. c #C75D38",
"9. c #C96F2C",
"0. c #C9722C",
"q. c #C66639",
"w. c #C26A39",
"e. c #D5663C",
"r. c #D46D3C",
"t. c #C97737",
"y. c #D3733B",
"u. c #D57B38",
"i. c #D37D3C",
"p. c #E26439",
"a. c #E200E6",
"s. c #E200E6",
"d. c #E200E6",
"f. c #E200E6",
"g. c #BB5447",
"h. c #8F6B48",
"j. c #AF764F",
"k. c #CC594D",
"l. c #D66B44",
"z. c #D16B4E",
"x. c #D77947",
"c. c #EA734C",
"v. c #E47B48",
"b. c #E87C54",
"n. c #D64C78",
"m. c #E36F6D",
"M. c #B28032",
"N. c #C78C27",
"B. c #D9853D",
"V. c #ED893B",
"C. c #F7A226",
"Z. c #989054",
"A. c #B48658",
"S. c #AF8A6B",
"D. c #D88546",
"F. c #DE8B44",
"G. c #D98956",
"H. c #D59359",
"J. c #E58847",
"K. c #E48D4B",
"L. c #F78F4A",
"P. c #E5934B",
"I. c #EB944D",
"U. c #E48352",
"Y. c #EA8856",
"T. c #F58B5A",
"R. c #EB9353",
"E. c #ED9A54",
"W. c #EA955A",
"Q. c #F49D54",
"!. c #F39C5B",
"~. c #F99858",
"^. c #F9A35B",
"/. c #CE9663",
"(. c #DA9A69",
"). c #E69C66",
"_. c #F39363",
"`. c #F79B66",
"'. c #F1936B",
"]. c #E9A46C",
"[. c #F4A563",
"{. c #FCA465",
"}. c #F9A868",
"|. c #FCAC6B",
" X c #FEB16B",
".X c #EAAA77",
"XX c #FEAD73",
"oX c #FAA876",
"OX c #FEB374",
"+X c #F4B279",
"@X c #FEB47B",
"#X c #FEBA7D",
"$X c #FFC17F",
"%X c #7569A7",
"&X c #0007F8",
"*X c #0126F5",
"=X c #0150F5",
"-X c #007FFF",
";X c #E200E6",
":X c #E200E6",
">X c #E200E6",
",X c #E200E6",
"<X c #E200E6",
"1X c #E200E6",
"2X c #E200E6",
"3X c #E200E6",
"4X c #E200E6",
"5X c #E200E6",
"6X c #E200E6",
"7X c #E200E6",
"8X c #E200E6",
"9X c #E200E6",
"0X c #E200E6",
"qX c #E200E6",
"wX c #E200E6",
"eX c #E200E6",
"rX c #E200E6",
"tX c #E200E6",
"yX c #E200E6",
"uX c #E200E6",
"iX c #E200E6",
"pX c #E200E6",
"aX c #4E82F9",
"sX c #7CD6FF",
"dX c #A4989D",
"fX c #D9B892",
"gX c #EEB78A",
"hX c #FFBB84",
"jX c #FDBA88",
"kX c #FFC283",
"lX c #FFCC87",
"zX c #FFC48C",
"xX c #FEC592",
"cX c #FFCB95",
"vX c #FFCC9B",
"bX c #FFD197",
"nX c #FFD29D",
"mX c #DBCBAC",
"MX c #F2C9A3",
"NX c #FFD4A3",
"BX c #FFD7A6",
"VX c #FFDBAB",
"CX c #FFDEB1",
"ZX c #FFE3B5",
"AX c #FFEABB",
"SX c #8DC2E0",
"DX c #FFF0C8",
/* pixels */
"9X9X9X9X9X9X9X9X9X9X9X9X9X9X9X9X9X9X9X9X9X9X9X9X9X9X9X9X9X9X9X9X9X9X9X9X9X9X9X9X9X9X9X9X9X9X9X9X9X9X9X9X9X9X9X9X9X9X9X9X9X9X9X9X",
"9X9X9X9X9X9X9X9X9X9X9X9X9X9X9X9X9X9X9X9X9X9X9X9X9X9X9X9X9X9X9X9X9X9X9X9X9X9X9X9X9X9X9X9X9X9X9X9X9X9X9X9X9X9X9X9X9X9X9X9X9X9X9X9X",
"9X9X9X9X9X9X9X9X9X9X9X9X9X9X9X9X9X9X9X9X9X9X9X9X9X9X9X9X9X9X9X9X9X9X9X9X9X9X9X9X9X9X9X9X9X9X9X9X9X9X9X9X9X9X9X9X9X9X9X9X9X9X9X9X",
"9X9X9X9X9X9X9X9X9X9X9X9X9X9X9X9X9X9X9X9X9X9X9X9X9X9X9X9X9X9X9X9X9X9X9X9X9X9X9X9X9X9X9X9X9X9X9X9X9X9X9X9X9X9X9X9X9X9X9X9X9X9X9X9X",
"9X9X9X9X9X9X9X9X9X9X9X9X9X9X9X9X9XpXpXiXiXiXiXiXiXiXyXyXyXiXiXiXyXyXiXiXiXiXiXiXiXiXiXiXpXpXpXeX9X9X9X9X9X9X9X9X9X9X9X9X9X9X9X9X",
"9X9X9X9X9X9X9X9X9X9X9X9X9X9X9XeXpXO O q 6 N N N N N ] ] B B N B ] E m m w m N w m w w q : - O 6XeX9X9X9X9X9X9X9X9X9X9X9X9X9X9X9X",
"9X9X9X9X9X9X9X9X9X9X9X9X9X9XeX>X5X- & e d I I E E E ` <.! Q Q Q ` ! k k k k k j g g f e e 6 ; >X>XeX9X9X9X9X9X9X9X9X9X9X9X9X9X9X",
"9X9X9X9X9X9X9X9X9X9X9X9X9XeXpX+ O g e j j k E ) ` <.2.4.2.4.4.4.<.<.) ` <.) E E I k j g g e e - = pXeX9X9X9X9X9X9X9X9X9X9X9X9X9X",
"9X9X9X9X9X9X9X9X9X9X9X9XeX>X>X: & j g I E ! _ ' <.1.2.3.2.2.2.2.1.1.<.<.1.<.` _ _ ! E I I f f 6 ; >X;XeX9X9X9X9X9X9X9X9X9X9X9X9X",
"9X9X9X9X9X9X9X9X9X9X9XeXpX5 + e 9 I k ) ) ` <.4.2.2.2.3.3.3.4.3.5.5.5.5.5.5.5.2.2.<._ _ ) I I e d + * pXwX9X9X9X9X9X9X9X9X9X9X9X",
"9X9X9X9X9X9X9X9X9X9XeX>X;X5 ; e 9 I k U E ! ' 4.2.2.3.4.<.<.' ' ' ' ' ' ` ` _ _ ) _ _ ! ! h h 9 e & 7 ;X>XeX9X9X9X9X9X9X9X9X9X9X",
"9X9X9X9X9X9X9X9X9X9XtXa.+ 6 6 f f I k h j k _ 5.4.4.4.5.) ) E E I I I I k j d d e k ) U ! d e 9 9 6 : # H uX9X9X9X9X9X9X9X9X9X9X",
"9X9X9X9X9X9X9X9X9X9XtXa.# 6 8 6 7 9 8 j k Q Q _ <.2.1.1._ ` ! ! E U U U I I k j g j j e 9 d h 6 : 6 6 $ J tX9X9X9X9X9X9X9X9X9X9X",
"9X9X9X9X9X9X9X9X9X9XtXa.# 8 9 > ; ; - f k ! Q U ' 4.1.1.` ' ) _ Q Q Q Q E U E I j g g 8 ; f I 6 * 6 6 $ J tX9X9X9X9X9X9X9X9X9X9X",
"9X9X9X9X9X9X9X9X9X9XtXa.# 8 e > # $.O.x.&.d k ) Q U I I k k f f d e 9 9 9 9 9 9 9 9 9 6 ; 6 6 : ; 8 6 $ J uX9X9X9X9X9X9X9X9X9X9X",
"9X9X9X9X9X9X9X9X9X9XtXa.# 9 e > + *.$.Y.&.* 0 U h e e e 9 9 8 8 : ; $ $ $ & & : : : : $ # $ & ; ; 8 6 $ J uX9X9X9X9X9X9X9X9X9X9X",
"9X9X9X9X9X9X9X9X9X9XtXs.$ 8 9 B d W.G.oXoXoX`.Y.Y.b.v.v.x.v.r.r.y.y.r.r.l.r.r.r.r.r.q.e.l.z 8 8 8 6 6 $ K tX9X9X9X9X9X9X9X9X9X9X",
"9X9X9X9X9X9X9X9X9X9XtXs.$ 8 8 C w R.D.oXoX`._.U.U.b.x.x.w.w.w.w.w.w.:.w.w.w.w.w.:.:.:.*.e.z 0 9 9 6 6 & J tX9X9X9X9X9X9X9X9X9X9X",
"9X9X9X9X9X9X9X9X9X9XtXs.; 8 : ;.( }.).vXvXZXCXVXBXvXjXjXoXoX_._._._._._._.T._.T.Y.Y.Y.b.U.q.e./ { : 6 & K tX9X9X9X9X9X9X9X9X9X9X",
"9X9X9X9X9X9X9X9X9X9XtXs.; 8 : ;.( }.).vXvXVXBXNXnXvXxXxXoXoX`._.`.`.`.`.`.`.`._.W.Y.U.x.x.q.q./ [ & 6 & K tX9X9X9X9X9X9X9X9X9X9X",
"9X9X9X9X9X9X9X9X9X9XtXs.; 6 & ,.-.oX}.NXnXBXBXBXBXVXBXVXhXhXoXoXXXOX#X#XhX@XXXoX}.T.U.x.x.w.r./ %.& 7 & K tX9X9X9X9X9X9X9X9X9X9X",
"9X9X9X9X9X9X9X9X9X9XtXs.> 6 $ ,.-.oX`.xXzXxXxXvXvXNXNXVX@XXXhXhXXX#XjXhXjXhXhXXX}._.T.U.U.l.l.[ | & 7 & K tX9X9X9X9X9X9X9X9X9X9X",
"9X9X9X9X9X9X9X9X9X9X9XtXpXc + ,.-.{.!.#X#X#X#XhXxXvXnXVXXXXXcXzXOXhXxXxXxXxXxXhXXX}.`.T.Y.b.U.} | & 6 ; K tX9X9X9X9X9X9X9X9X9X9X",
"9X9X9X9X9X9X9X9X9X9X9X9XiXc + ,.-.A.j.A.A./.].hXhXjXxXNX}.!.BXvX`.@XNXnXNXNXNXvXxXhXhXG.w.x.Y.[ | & 6 ; K tX9X9X9X9X9X9X9X9X9X9X",
"9X9X9X9X9X9X9X9X9X9X9X9XiXc . :.;.h.h.F +.j./.zXhXhXzXvX`.Y.DXCXT.oXZXZXZXAXZXZXZXVXCXH.%.U.T.[ | & 6 : K tX9X9X9X9X9X9X9X9X9X9X",
"9X9X9X9X9X9X9X9X9X9X9X9XiXc X O.O.A A A.=.a A F h.x.+XcXD.y.ZXNXY._.oX'.'.'.G.j.j.h.+.S z O.O.( } $ 6 : K tX9X9X9X9X9X9X9X9X9X9X",
"9X9X9X9X9X9X9X9X9X9X9XwXiX3   C C p p H.=.@ # # ..r.+XnXx.9.CXnXb.Y.b.b.T.c.l.*.X.x 0 7 6 x C }  .$ : & J iXwX9X9X9X9X9X9X9X9X9X",
"9X9X9X9X9X9X9X9X9X9XwX4Xm.z.j.>.-.S.Z.>.M.N.=.o * r A A >.O.NXxXx.z.*.&.z y 4 7 1 a V ..O.@.@.y q * r :.g.m.<XwX9X9X9X9X9X9X9X9X",
"9X9X9X9X9X9X9X9X9X9XwX4XR.Y.`.,.;.dXS.-.,.C. .o & 6 p a -...NXxXl.l.&.X.* * @ @ $ q M ..O.@.@.% # $ 7 t.w.x.<XwX9X9X9X9X9X9X9X9X",
"9X9X9X9X9X9X9X9X9X9XwXf.;.( / :.} jXjX>.Z.sXaX&X*X*XL y A.j.jXgXS.j.S =.^.%X*X=X=XdXjX).U.x.x.;.0.Z Z #.#.k.,XwX9X9X9X9X9X9X9X9X",
"9X9X9X9X9X9X9X9X9X9XwXf.;.} / ;.} xXjX=.Z.sXaX&X&X*XL * j.h.gXgXS.j.v +. X%X*X=X-XSXnX).b.l.x.;.0.Z Z #.&.k.,XwX9X9X9X9X9X9X9X9X",
"9X9X9X9X9X9X9X9X9X9XwXf.9.} ^ `.~.XXXXkXzXmXMXkXlXlXXXXXT.U.@XXXhX}.r.x.i.V.V.L.L.L.J.~.~.~.~.B.J...X.#.&.k.,XwX9X9X9X9X9X9X9X9X",
"9X9X9X9X9X9X9X9X9X9XwXn.9.( x ~.L.OXXX#XhXNXvXjXjXjXXX{.Y.U.#X@X#X).q.x.x.D.K.W.W.R.W.!.`.R.R.B.B.z C &.&.k.,XwX9X9X9X9X9X9X9X9X",
"9X9X9X9X9X9X9X9X9X9XwXn.0.x 8 ~.L.hX@XvXnXCXnXzXXX~.Y.U.XX|.DXAXhXoXv.x.e..XZXCXCXBXnXzXzX^.^.P.^.* y &.g.z.<XwX9X9X9X9X9X9X9X9X",
"9X9X9X9X9X9X9X9X9X9XwXn.0.Y 0 L.J.@XOXcXnXVXvXhXXX~.T.Y.|.{.DXCXhXoXx.x.e.].BXBXBXvXvXhX#X^.!.K.Q.* s &.g.z.<XwX9X9X9X9X9X9X9X9X",
"9X9X9X9X9X9X9X9X9X9XwX3XJ.^ s u.0.~.Q.|.OXcXzXOX}.~.{.{.#X#XDXZX#XoXU.U.v.T.`.OX@X#X#X}.I.F.F.i.J.4 z *.g.z.<XwX9X9X9X9X9X9X9X9X",
"9X9X9X9X9X9X9X9X9X9XwX3XJ.X.s u.0.!.Q.}.OXcXhXXX[.!.G.G.(.(.fXfX(.H.w.x.v.R.{.OX@X#X#X[.E.F.F.u.B.6 z z.k.m.<X9X9X9X9X9X9X9X9X9X",
"9X9X9X9X9X9X9X9X9X9XwX4XT.&.R 0.9.K.F.B.E.hXOX}.!.^.C 4 0 0 z z C z 4 x q.i.K.[.|.XXXXE.K.i.u.0.0.w C b.3XrXwX9X9X9X9X9X9X9X9X9X",
"9X9X9X9X9X9X9X9X9X9XwXm.C.$.^ u.9.P.K.F.E.hXOX}.!.!.=.C ....o.O.=.O.x O.y.D.R.[.}.|.|.E.P.i.u.,.0.w C J.n.wX9X9X9X9X9X9X9X9X9X9X",
"9X9X9X9X9X9X9X9X9X9X9XwXrXrXyXL.L.R.P.F.E.hXOX[.!.E.^.^.Q.Q.I.I.I.I.Q.I.I.E.Q.[.|.|.}.R.K.i.u.,.0.a n yXwX9X9X9X9X9X9X9X9X9X9X9X",
"9X9X9X9X9X9X9X9X9X9X9X9X9X9X7XV.c.[.!.P.^.hX#XOXOX}.|.|.}.}.}.[.[.[.[.[.[.}.OX}. X|.|.R.K.i.B.,.0.p n tX9X9X9X9X9X9X9X9X9X9X9X9X",
"9X9X9X9X9X9X9X9X9X9X9X9X9X9X7Xe.6.{.!.Q.[.hXkXhXkX#XkXkXkXkXkXkXkXkX$XkX$XkXzX X X X XE.P.D.D.0.0.a n tX9X9X9X9X9X9X9X9X9X9X9X9X",
"9X9X9X9X9X9X9X9X9X9X9X9X9X9X7Xe.k.{.!.Q.[.kX#X].).).G.x.D.D.D.x.x.x.x.x.x.x.x.^.|.|.|.E.P.K.P.t.u.p b yX9X9X9X9X9X9X9X9X9X9X9X9X",
"9X9X9X9X9X9X9X9X9X9X9X9X9X9X7Xv.z.{.`.Q.|.zX+XW.G.G.;.| %.%.%.| { { { { { %.{ E. X}.|.E.P.P.P.t.u.p b yX9X9X9X9X9X9X9X9X9X9X9X9X",
"9X9X9X9X9X9X9X9X9X9X9X9X9X9X7Xv.z.{.!.Q.|.nX.XB.K.W.].]..X.XgXgXgX.X.X.X].W.D.D.F.|.|.E.P.P.E.,.t.q b yX9X9X9X9X9X9X9X9X9X9X9X9X",
"9X9X9X9X9X9X9X9X9X9X9X9X9X9X7Xv.c.{.!.!.|.vX.Xu.J.~.zXvXnXbXAXAXAXBXnXbXbX+XY.t.u. X|.E.P.E.E.,.t.q b yX9X9X9X9X9X9X9X9X9X9X9X9X",
"9X9X9X9X9X9X9X9X9X9X9X9X9X9X7Xv.l.E.P.E.[.xX#X[.|.|.XXXXXXOXx.x.x.Y.}.XXOXXXXX}.|.}.^.P.F.!.{.( -.p v tX9X9X9X9X9X9X9X9X9X9X9X9X",
"9X9X9X9X9X9X9X9X9X9X9X9X9X9X7XJ.l.Q.P.Q.[.xXhXOXOXOX{.{.`.{.6.6.6.p.~.`.|.XXOXOX#X}.^.I.F.E.{.O.-.q b yX9X9X9X9X9X9X9X9X9X9X9X9X",
"9X9X9X9X9X9X9X9X9X9X9X9X9X9XrXw.:.K.D.P.E.hX@X{.XX#XzXxXBXNXAXAXAXAXZXBXnXvXzX#X#X}.E.K.D.F.K./ ( p v yX9X9X9X9X9X9X9X9X9X9X9X9X",
"9X9X9X9X9X9X9X9X9X9X9X9X9X9XrX,.:.D.i.P.E.#XOX|.OXhXzXzXnXnXBXNXNXNXVXnXvXzXhX#XOX[.R.F.D.D.F./ ( p b yX9X9X9X9X9X9X9X9X9X9X9X9X",
"9X9X9X9X9X9X9X9X9X9X9X9X9X9XyX-.X.:.:.J.I.|.OXzXvXVXVXZXZXZXzXzXXXhXZXBXnXjXoX`.T.U.D.D.D.-.;.^ B p b iXeX9X9X9X9X9X9X9X9X9X9X9X",
"9X9X9X9X9X9X9X9X9X9X9X9X9X9XrX$.X.:.:.B.F.|.OXkXxXnXNXBXBXBXzXxXhXzXVXnXvXhXoX`._.U.K.D.D.;.;.C B p b yX9X9X9X9X9X9X9X9X9X9X9X9X",
"9X9X9X9X9X9X9X9X9XwXtX2XZ.Z Z P P ;.O.;.t.{.XXzXzXzXzXzXcXzXvXnXnXnXnXcXzXhXoXY.x.:.#./ ^ Y Y l l a p O O = c uX9X9X9X9X9X9X9X9X",
"9X9X9X9X9X9X9X9X9X:X1Xf.h.Z 3 F Z ;.$.-.,.D.G.).).).).].).).].].).).(.(.(.H.G.x.w.$.$./ ^ Y Y C ^ a p X % , J uX9X9X9X9X9X9X9X9X",
"9X9X9X9XeXeXeXwX9XG o.D F % . x z >.-.$.O.Y / ;.;.7.7.7.7.7.| 7.{ { [ [ [ [ [ / ~ ~ W Y Y l I ..O.u u X % , K pXpXpXuX9X9X9X9X9X",
"9X9X9XtX:X:X:X,X2XD +.D F % . ..C ,.:.t.t.-.-.$.$.$.$.} [ [ [ [ / / ~ ~ W ~ ~ W W Y Y Y Y W T ..o.p u X % r , = = = J tX9X9X9X9X",
"tXtXtXpXZ Z F A.S.D +.F F % . $.X.F.D.~.Q.F.t./ ( ( ^ l h h x x h h h h f h h h h l l W / [ { ..o.t u . % r 2 1 1 + K pXuXuXiXuX",
"d.d.d.d.M a M A A +.+.D D * . X.^ ,.,.!.R.K.i.,.;.$.;.;.;.%.;.*./ / / ^ ^ ^ ^ Y l l l Y W ~ [ ^ ..r r X % r 2 1 - + 3 J J J J J ",
"V V M M q q q q 7 +.+.D +.* . C C ....~.~.Q.J.D.9.$.9.y.y.y.y.y./ ( ( / / / / W Y l l l l h l h l     - > r 2 1 - + + + + + + + ",
"A A A A o.o.A ; > a A S +.a p # @ X...w.w.i.i.i.D.K.J.J.i.i.i.y.t.t.w.w.q.$.Y Y l l l l Y ~ [ $ #   X p u 2 1 1 % + % 2 u r 2 1 ",
"A A A A +.+.S $ $ u v S +.V z .   #...:.w.y.i.J.K.Q.I.R.B.B.i.i.i.i.i.y.y.$.l Y Y l l Y T [ | .     X a u 2 1 1 % X % r p u r 2 ",
"+.D S A +.+.D v r > 2 A +.S S z z a a y y y p a O.q.q.q.q.q.q.q.q.q.q.8.*.*.*.#.#.Y l 0 * * 4 o . a a p u 2 1 1 1 r r u r r r r ",
"+.+.D S +.+.F A r # # v +.S D x ..% 1 . X X X + x 8.8.8.8.8.q.q.q.q.q.8.8.8.8.%.[ Y T * X . . X . V a u r 2 1 1 2 r r u r u u r ",
"+.+.D S S S F D M u u a a S D D F F S + % % % # % 2 r u r u 2 % % 1 1 1 1 1 1 1 * * * % % % + a a o.S u u 2 2 1 r a a b v a a A "
};
