/* XPM */
static char *a9e3706aa76143e8dffc20eb893d7361qlpGtL46bOZI0Rpu[] = {
/* columns rows colors chars-per-pixel */
"64 63 252 2 ",
"   c #030100",
".  c #0A0500",
"X  c #0D0B01",
"o  c #150B01",
"O  c #091601",
"+  c #191902",
"@  c #340E00",
"#  c #231A02",
"$  c #2B1C02",
"%  c #281B09",
"&  c #361C03",
"*  c #0F2400",
"=  c #2A2406",
"-  c #342202",
";  c #3B2402",
":  c #36260A",
">  c #2B2315",
",  c #372611",
"<  c #3D2A12",
"1  c #381529",
"2  c #221D3E",
"3  c #491E0C",
"4  c #442600",
"5  c #442901",
"6  c #4B2A00",
"7  c #482809",
"8  c #562A04",
"9  c #4B3308",
"0  c #593406",
"q  c #492716",
"w  c #442D14",
"e  c #552818",
"r  c #4C3316",
"t  c #543414",
"y  c #583819",
"u  c #662C09",
"i  c #643400",
"p  c #6D3403",
"a  c #693805",
"s  c #753B00",
"d  c #7B3B01",
"f  c #783808",
"g  c #673818",
"h  c #773B18",
"j  c #501B32",
"k  c #512321",
"l  c #533325",
"z  c #65362A",
"x  c #663331",
"c  c #5B450B",
"v  c #694303",
"b  c #774506",
"n  c #684619",
"m  c #794316",
"M  c #70551F",
"N  c #67671E",
"B  c #545235",
"V  c #6A4626",
"C  c #764A28",
"Z  c #77532C",
"A  c #6D5230",
"S  c #292D4C",
"D  c #E200E6",
"F  c #4B2E58",
"G  c #E200E6",
"H  c #595145",
"J  c #6E4B52",
"K  c #6B4767",
"L  c #843D01",
"P  c #883D04",
"I  c #823C0B",
"U  c #843C16",
"Y  c #803F22",
"T  c #884203",
"R  c #944200",
"E  c #9C4300",
"W  c #98430E",
"Q  c #94570C",
"!  c #874316",
"~  c #974816",
"^  c #9A541B",
"/  c #A34500",
"(  c #A94803",
")  c #B64B00",
"_  c #B85600",
"`  c #A64C18",
"'  c #B64E1C",
"]  c #A6591A",
"[  c #B6531D",
"{  c #88631E",
"}  c #AC660C",
"|  c #894824",
" . c #974C26",
".. c #87572B",
"X. c #9A5625",
"o. c #875935",
"O. c #905D34",
"+. c #A65926",
"@. c #AE522F",
"#. c #B55727",
"$. c #A95633",
"%. c #96642D",
"&. c #AA6429",
"*. c #B9672B",
"=. c #B8762D",
"-. c #A46738",
";. c #BA6833",
":. c #C64E00",
">. c #CA5100",
",. c #D85200",
"<. c #C65717",
"1. c #E55400",
"2. c #EB5400",
"3. c #EC5800",
"4. c #F35500",
"5. c #FA5700",
"6. c #D0542E",
"7. c #C55C37",
"8. c #C36D29",
"9. c #C9732D",
"0. c #D1752A",
"q. c #C76637",
"w. c #CC6B3A",
"e. c #D46A3B",
"r. c #C97937",
"t. c #D4783A",
"y. c #D47C3D",
"u. c #E3753C",
"i. c #E200E6",
"p. c #E200E6",
"a. c #E200E6",
"s. c #E200E6",
"d. c #8E5445",
"f. c #977348",
"g. c #9A665D",
"h. c #B0734F",
"j. c #D35D49",
"k. c #C96947",
"l. c #D66A44",
"z. c #CA7644",
"x. c #D77846",
"c. c #D47755",
"v. c #E36C49",
"b. c #E37747",
"n. c #E77C52",
"m. c #E200E6",
"M. c #D8843C",
"N. c #D08D39",
"B. c #F08A3A",
"V. c #B68956",
"C. c #B2986E",
"Z. c #DA8646",
"A. c #DC8B44",
"S. c #D18D51",
"D. c #E58848",
"F. c #E28D4B",
"G. c #F88F4B",
"H. c #E5924B",
"J. c #EB964D",
"K. c #E78855",
"L. c #F58A5C",
"P. c #E79556",
"I. c #EB9651",
"U. c #ED9A53",
"Y. c #F39C55",
"T. c #F7975A",
"R. c #F49C5C",
"E. c #F7A25D",
"W. c #D19B65",
"Q. c #E99965",
"!. c #F59864",
"~. c #FB9C62",
"^. c #F3956D",
"/. c #CCA86E",
"(. c #F5A562",
"). c #FDA564",
"_. c #FBAA66",
"`. c #F4A569",
"'. c #FBA46C",
"]. c #F4AC6D",
"[. c #FCAB6A",
"{. c #FCA573",
"}. c #F1AB74",
"|. c #F7AB76",
" X c #FEAD73",
".X c #FDB375",
"XX c #F5B279",
"oX c #FEB57B",
"OX c #FFBA7D",
"+X c #505AB8",
"@X c #000BFF",
"#X c #0023FF",
"$X c #004FFF",
"%X c #596BE0",
"&X c #E200E6",
"*X c #E200E6",
"=X c #E200E6",
"-X c #E200E6",
";X c #E200E6",
":X c #E200E6",
">X c #E200E6",
",X c #E200E6",
"<X c #E200E6",
"1X c #E200E6",
"2X c #E200E6",
"3X c #E200E6",
"4X c #E200E6",
"5X c #E200E6",
"6X c #E200E6",
"7X c #E200E6",
"8X c #E200E6",
"9X c #E200E6",
"0X c #E200E6",
"qX c #E200E6",
"wX c #E200E6",
"eX c #E200E6",
"rX c #E200E6",
"tX c #E200E6",
"yX c #E200E6",
"uX c #E200E6",
"iX c #E200E6",
"pX c #E200E6",
"aX c #E200E6",
"sX c #E200E6",
"dX c #E200E6",
"fX c #E200E6",
"gX c #E200E6",
"hX c #648ED3",
"jX c #B4A1A3",
"kX c #D9B997",
"lX c #EFAF85",
"zX c #F8B686",
"xX c #FEBC83",
"cX c #FDBD8A",
"vX c #FFC185",
"bX c #FEC38C",
"nX c #FFC98A",
"mX c #FCC494",
"MX c #FFCA93",
"NX c #FFCD9C",
"BX c #FFD69B",
"VX c #FFD39D",
"CX c #FFD6A4",
"ZX c #FCD5AA",
"AX c #FFDCAC",
"SX c #FFE3B4",
"DX c #FFE9B6",
"FX c #FFEABB",
"GX c #9DA2C2",
"HX c #95DDFB",
"JX c #FFF2C7",
"KX c #F2FAF6",
/* pixels */
"wXwXwXwXwXwXwXwXwXwXwXwXwXwXwXwXwXwXwXwXwXwXwXwXwXwXwXwXwXwXwXwXwXwXwXwXwXwXwXwXwXwXwXwXwXwXwXwXwXwXwXwXwXwXwXwXwXwXwXwXwXwXwXwX",
"wXwXwXwXwXwXwXwXwXwXwXwXwXwXwXwXwXwXwXwXwXwXwXwXwXwXwXwXwXwXwXwXwXwXwXwXwXwXwXwXwXwXwXwXwXwXwXwXwXwXwXwXwXwXwXwXwXwXwXwXwXwXwXwX",
"wXwXwXwXwXwXwXwXwXwXwXwXwXwXwXwXwXwXwXwXwXwXwXwXwXwXwXwXwXwXwXwXwXwXwXwXwXwXwXwXwXwXwXwXwXwXwXwXwXwXwXwXwXwXwXwXwXwXwXwXwXwXwXwX",
"wXwXwXwXwXwXwXwXwXwXwXwXwXwXwXwXwXwXwXwXwXwXwXwXwXwXwXwXwXwXwXwXwXwXwXwXwXwXwXwXwXwXwXwXwXwXwXwXwXwXwXwXwXwXwXwXwXwXwXwXwXwXwXwX",
"wXwXwXwXwXwXwXwXwXwXwXwXwXwXwXwXwXtXpXpXpXpXiXiXiXiXiXtXiXpXpXiXtXtXpXtXtXtXpXiXpXpXiXpXiXpXtXwXwXwXwXwXwXwXwXwXwXwXwXwXwXwXwXwX",
"wXwXwXwXwXwXwXwXwXwXwXwXwXwXwXtXgXO O 9 9 b b b b v Q _ b b v b Q T c c 0 v v c 0 0 9 9 9 = * wXpXwXwXwXwXwXwXwXwXwXwXwXwXwXwXwX",
"wXwXwXwXwXwXwXwXwXwXwXwXwXwXtX2X2X= - i i T T R R R ) >./ / E / ( E T L L L d s s a i 0 0 5 ; ,X,XtXwXwXwXwXwXwXwXwXwXwXwXwXwXwX",
"wXwXwXwXwXwXwXwXwXwXwXwXwXtXgX# O i 0 s s d T ( ) :.1.3.3.3.3.1._ ) ( ) :.( T T T d s a i 0 0 = * gXtXwXwXwXwXwXwXwXwXwXwXwXwXwX",
"wXwXwXwXwXwXwXwXwXwXwXwXtX=X&X; ; p a R E ( ) >.,.,.1.1.1.1.1.1.,.,.>.>.,.>.:.) ( / R L L a i 4 ; *X&XtXwXwXwXwXwXwXwXwXwXwXwXwX",
"wXwXwXwXwXwXwXwXwXwXwXtXgXj + 0 6 s s ( ( :.>.3.1.3.1.2.2.2.4.4.4.4.4.5.4.5.5.3.,.>.) / / s s 0 i + , fXwXwXwXwXwXwXwXwXwXwXwXwX",
"wXwXwXwXwXwXwXwXwXwXtX,XD 3 ; 0 8 s s L P R ) 3.3.2.3.3.) :.( ( ( ( ( / / E R P L P E R P p i 8 8 - k fXwXwXwXwXwXwXwXwXwXwXwXwX",
"wXwXwXwXwXwXwXwXwXwXpXi.+ 4 4 i i L L s s s / 5.4.3.3.5./ ( T P L L P L L s i 0 0 d / E E i 0 6 6 ; k fXwXwXwXwXwXwXwXwXwXwXwXwX",
"wXwXwXwXwXwXwXwXwXwXpXi.# 4 6 ; : 7 7 d s T T R ) ,.>.>.( ) / / T R P P P L d s p a i 6 ; a s ; ; 4 e fXwXwXwXwXwXwXwXwXwXwXwXwX",
"wXwXwXwXwXwXwXwXwXwXpXi.# 6 0 : : = = i s / E T ) 3.,.,.) ) ( ) E E E R R R P L d p i 5 - s T ; & 4 e fXwXwXwXwXwXwXwXwXwXwXwXwX",
"wXwXwXwXwXwXwXwXwXwXpXi.# 6 0 : # q.;.^.k.6 s E L i i i 0 0 6 6 5 5 ; ; ; ; ; ; 5 6 6 ; - - $ - - 4 e fXwXwXwXwXwXwXwXwXwXwXwXwX",
"wXwXwXwXwXwXwXwXwXwXpXi.# 6 8 : + q.;.L.k.a ! ` W m f f a f i a 0 0 0 0 0 0 0 0 0 0 0 9 r ; ; - & 4 e fXwXwXwXwXwXwXwXwXwXwXwXwX",
"wXwXwXwXwXwXwXwXwXwXpXi.$ 6 4 m 0 F.Z.{.{.{.~.n.n.n.b.b.e.e.w.w.w.w.w.w.w.w.w.w.q.q.q.q.l.h u 6 6 4 e fXwXwXwXwXwXwXwXwXwXwXwXwX",
"wXwXwXwXwXwXwXwXwXwXpXi.$ 6 4 ! v F.Z.{.{.cXlX^.^.Q.K.K.x.x.x.x.x.x.x.x.x.x.z.z.z.w.w.w.l.! U a a ; k fXwXwXwXwXwXwXwXwXwXwXwXwX",
"wXwXwXwXwXwXwXwXwXwXpXi.- 5 ; +.^ P.S.oXxXJXFXDXZXmXcXzX'.{.!.!.T.!.!.!.!.L.L.K.K.K.K.x.x.q.7.~ ` & k fXwXwXwXwXwXwXwXwXwXwXwXwX",
"wXwXwXwXwXwXwXwXwXwXpXi.; 5 - *.&.Z.z.o.O.f.f.S.lXZXNXNXzXzX{.{.'.'.{.{.{.'.'.!.!.K.K.x.x.q.q.~ ` $ k fXwXwXwXwXwXwXwXwXwXwXwXwX",
"wXwXwXwXwXwXwXwXwXwXpXi.- 5 & =.=.Z.r.y y t C k.}.SXAXSXbXcX X.X X X.X.XoX X X'.!.K.K.x.x.q.q.~ ` $ k fXwXwXwXwXwXwXwXwXwXwXwXwX",
"wXwXwXwXwXwXwXwXwXwXtX2XG e $ r.N.r c } } } Q y $.K.|.cX'.~.bXbX.XxXbXbXcXcXcXoX'.!.!.K.K.x.x.` ' $ k sXwXwXwXwXwXwXwXwXwXwXwXwX",
"wXwXwXwXwXwXwXwXwXwXwXtXgXx # r.N.# : } } } T $  .L.{.zX'.T.mXcXOXxXbXcXcXcXcX.X).~.T.K.K.x.b.` ' $ k fXwXwXwXwXwXwXwXwXwXwXwXwX",
"wXwXwXwXwXwXwXwXwXwXwXwXfXj o =.=.N.N..XXXzXlX^.f.8 | $.L.D.SXZXL.|.CXZXAXAXAXCXNXmXmXS.#.Z.L.~ ' $ k fXwXwXwXwXwXwXwXwXwXwXwXwX",
"wXwXwXwXwXwXwXwXwXwXwXwXfXj X =.&.N.N.OXxXcXzXzXf.@ U @.T.G.SXAXL.|.SXDXFXFXFXFXFXAXAXP.q.K.L.` ` $ e fXwXwXwXwXwXwXwXwXwXwXwXwX",
"wXwXwXwXwXwXwXwXwXwXwXwXfXj X &.^ S.S.W.V...%.%.W.AXQ.;.;.] NXcXb.n.v.v.v.7.` U h 8 & & & $.l.] ] $ k fXwXwXwXwXwXwXwXwXwXwXwXwX",
"wXwXwXwXwXwXwXwXwXwXwX8XuXj + &.^ P.S.W.S.%.-.-.V.lXh.+.;.+.CXmXn.n.n.n.x.k.$.| Y g t t 8 $.k.] ] $ e uX8XwXwXwXwXwXwXwXwXwXwXwX",
"wXwXwXwXwXwXwXwXwXwXrX6XU.R.{.=.&.NXkX%.V.KXkX{ n & 7 r %.| mXzXk.k.@.| @ @ o $ = M %.h.h.d.d.% $ & 7 M.m.iXwXwXwXwXwXwXwXwXwXwX",
"wXwXwXwXwXwXwXwXwXwXrX6XZ.z.x.=.&.mXlX=.V.KXjXK F S l g -.O.mXzXc.k.$. .n l 2 2 S J f.h.h.d.$.y 0 , r w.m.iXwXwXwXwXwXwXwXwXwXwX",
"wXwXwXwXwXwXwXwXwXwXiXs.*.^ W y.8.NXbXV.C.HX%X@X@X#XF m V.f.zXlXC.f.g O..X5X#X#X$XGXBX{.L.x.x.8.0.B A #.a.iXwXwXwXwXwXwXwXwXwXwX",
"wXwXwXwXwXwXwXwXwXwXiXs.*.] ~ F.Z.bXcXW./.HXhX%X%X%Xg.-.S.h.zXXX/.V...-.E.5X+X+XhXjXOX!.L.Z.K.9.0.A Z @.a.rXwXwXwXwXwXwXwXwXwXwX",
"wXwXwXwXwXwXwXwXwXwXiXs.8.+.! ~.T.xXOXbXMXVXMXnXnXnXOX XK.D.oX.XOX`.w.x.D.B.B.G.G.G.D.L.R.U.T.r.M.m | @.a.rXwXwXwXwXwXwXwXwXwXwX",
"wXwXwXwXwXwXwXwXwXwXiXm.9.U u T.G.OXoXMXMXAXNXcXzX X!.T.!.T.AXNXxX`.l.x.x.Q.cXcXcXzXXX.X.XR.R.Z.H.4 g @.s.tXwXwXwXwXwXwXwXwXwXwX",
"wXwXwXwXwXwXwXwXwXwXiXm.9.h 8 T.G.OXoXVXCXAXNXcX X~.L.K.'.~.JXSXxX}.l.x.e.}.DXAXAXVXVXbXbX).).A.U.& e k.s.tXwXwXwXwXwXwXwXwXwXwX",
"wXwXwXwXwXwXwXwXwXwXiXm.y.! 8 D.t.[.).OXvXNXbX.X'.T.T.T..X XJXSXoX`.x.x.x.Q.oXbXmXbXbX.X`.U.I.M.M.4 g k.m.iXwXwXwXwXwXwXwXwXwXwX",
"wXwXwXwXwXwXwXwXwXwXiX6XD.! u M.9.).E.[.oXNXbX[.~.U.).T.bXxXJXFXxX XD.D.D.Y.R.OXxXxXxX(.I.F.H.r.M.4 g k.m.iXwXwXwXwXwXwXwXwXwXwX",
"wXwXwXwXwXwXwXwXwXwXrX6XT.$.h 9.8.Y.I.H.(.bXOX[.R.R.O.h C C o.o.O...g | e.Z.U.`. X.X[.U.H.M.M.9.0.8 h n.m.iXwXwXwXwXwXwXwXwXwXwX",
"wXwXwXwXwXwXwXwXwXwXiX6XY.+.! 9.8.U.I.M.U.xX.X_.E.E.m 3 8 8 g g C g 3 h q.x.I.R.[.[.[.I.F.t.y.8.9.0 m D.m.iXwXwXwXwXwXwXwXwXwXwX",
"wXwXwXwXwXwXwXwXwXwXwX4X6X1X2XB.u.~.R.A.U.xX.X[.E.Y.H.F.A.F.A.A.F.A.A.A.D.H.U.E.[.[._.H.A.r.t.*.9.t z 3X4XwXwXwXwXwXwXwXwXwXwXwX",
"wXwXwXwXwXwXwXwXwXwXwXwXrXtXaXB.G.~.R.A.U.OX.X_.(.Y.Y.Y.Y.Y.U.J.I.J.J.I.D.I.Y.E.[.[.(.F.A.r.r.8.9.t x sXwXwXwXwXwXwXwXwXwXwXwXwX",
"wXwXwXwXwXwXwXwXwXwXwXwXwXwX9Xu.e.).~.J.E.xXxXxXvXOXxXxXxXxXvXvXvXxXOXxXxXxXvX_.[.[._.I.H.M.M.9.9.y z sXwXwXwXwXwXwXwXwXwXwXwXwX",
"wXwXwXwXwXwXwXwXwXwXwXwXwXwX9Xe.6.).~.U.(.xXxXOXoX.X].].].].].].].].].].].].]._.[.[._.U.H.A.F.9.r.t z sXwXwXwXwXwXwXwXwXwXwXwXwX",
"wXwXwXwXwXwXwXwXwXwXwXwXwXwX9Xv.j.).~.Y.(.cXXXQ.P.S.;.#.#.#.#.' ' ' ' ' ' ' ' U.[._._.U.H.H.I.r.t.t x sXwXwXwXwXwXwXwXwXwXwXwXwX",
"wXwXwXwXwXwXwXwXwXwXwXwXwXwX9Xv.j.).~.Y.(.bXXXP.P.P.Z.z.z.z.z.z.z.z.z.z.z.w.q.H.E.[._.U.H.H.I.r.t.r x sXwXwXwXwXwXwXwXwXwXwXwXwX",
"wXwXwXwXwXwXwXwXwXwXwXwXwXwX9Xb.v._.~.Y.(.MX].9.D.T.nXBXCXBXFXFXJXAXBXBXBXXXK.t.r.[._.U.H.I.U.=.r.9 x sXwXwXwXwXwXwXwXwXwXwXwXwX",
"wXwXwXwXwXwXwXwXwXwXwXwXwXwXaXb.l.E.R.Y.(.bXXXF.U.).OXxXxXxXXXXXXXXXxXxXvX}.Q.H.P.[.(.H.A.I.R.&.*.9 x sXwXwXwXwXwXwXwXwXwXwXwXwX",
"wXwXwXwXwXwXwXwXwXwXwXwXwXwXaXu.l.Y.U.Y.(.bXOX.X.X.X[.).~.).6.6.6.b.~.). X.XOXOXOX_.E.H.A.R.).+.*.9 x sXwXwXwXwXwXwXwXwXwXwXwXwX",
"wXwXwXwXwXwXwXwXwXwXwXwXwXwXaXt.q.H.F.J.E.vXoX_. XOXxXOXbXbXlXlXlXcXMXbXbXvXOXoX.X(.U.A.M.Z.F.^ ] 9 z sXwXwXwXwXwXwXwXwXwXwXwXwX",
"wXwXwXwXwXwXwXwXwXwXwXwXwXwXaXw.q.H.F.J.Y.xX.X).[.oXxXOXVXMXAXAXSXSXAXVXMXbXvXOXOX(.U.A.M.Z.F.^ ^ 9 z sXwXwXwXwXwXwXwXwXwXwXwXwX",
"wXwXwXwXwXwXwXwXwXwXwXwXwXwXaX&.X.;.;.D.H._. XcXMXCXAXAXAXAXbXbX XcXAXCXVXcX{.!.L.K.Z.Z.Z.&.&.m m t z sXwXwXwXwXwXwXwXwXwXwXwXwX",
"wXwXwXwXwXwXwXwXwXwXwXrXpXpXfX+. .;.;.D.H._..XOXMXAXAXSXSXSXbXbX XcXSXCXVXcX{.~.!.K.F.Z.Z.*.*.m b t x gXfXfXpXwXwXwXwXwXwXwXwXwX",
"wXwXwXwXwXwXwXwXwXwXtX3Xg.J K A H +.X.*.r.R.[.bXvXOXcXbXbXbXMXNXMXMXMXbXcX X~.K.x.;.+.+. .! ! f b y y 1 1 q G pXwXwXwXwXwXwXwXwX",
"wXwXwXwXwXwXwXwXwX8XwX3Xf.H B H H +.+.;.r.T.(.xXxXOXxXxXcXbXmXmXbXbXmXzXzX}.!.K.x.#.+.~ ! T T f b y t O + = D dXwXwXwXwXwXwXwXwX",
"wXwXwXwXrXrXrXtXwXN { M A % . h g &.X.X.X.! ~ ] [ <.<.<.<.<.[ ' ` ` ( ` ` W W W W I I I I I I ..X.t t X % : D gXfXfXpXwXwXwXwXwX",
"wXwXwXrX2X4X7X7X7XM ..Z A % X | h &.+.&.&.^ X.+.*.*.#.#.[ [ #.#.` ` ` ~ ~ ~ ~ W W I I I I I P | X.t t X % < w j j 1 i.pXwXwXwXwX",
"tXtXtXgXN B A V.h.Z ..Z A % . X.| M.y.R.Y.D.r.X.X.X.! f f p h h p p p p p p p p p f f T W ` ' | ..t r X % r < = = * G gXpXtXpXpX",
"1X<X<X2XB B A d.d.....Z Z % .  .| r.r.T.I.F.y.*.&.+.+.X.^ ^ +.+.! ! ! ! I I I f f f f T W ` ` | ..y y . % w , , > + j ;X;X;X;X;X",
"n n n c 9 t 9 9 7 O...Z o.% . ! ! U | E.Y.T.H.y.9.+.q.w.t.t.e.t.^ ] ^ ^ ~ ~ ~ ! f f f f f f f f f     : : w , , = + + + + + + O ",
"C V V V C C n : : V V Z ..w : 7 ;  .| Z.Z.Z.Z.y.y.y.x.x.t.y.t.y.*.;.*.*.*.] ! I I f f f f P W & 3   . r w < , , % + % , < , , % ",
"C V V V o.O.C # $ r y C ..y y     +. .;.q.y.y.Z.F.T.J.Y.M.Z.y.y.y.y.y.y.t.#.I f f f f I I ` [ .     o g t < , : % o % w t t w < ",
"..Z C V o.o.C r < < w V ..V n e q z g h h C C C &.x.z.z.w.w.w.w.w.q.q.q.q.;.#.@.` U f u 8 8 u o . w w y r , , : , , < w w w w < ",
"O...Z C o.o.Z V w % # y o.C C m ! > > . X . o o g 7.7.7.q.q.q.e.e.q.7.7.7.7.7.@.` U I & o .   o . g y y r , , , , w w w w w w w ",
"o...Z C C C A Z y w r y V C Z Z ..V V + % % % % % q t y y t , , w w w q q q q q 7 ; & % % # o r w n n r w , , , < r y y y r r y "
};
