/* XPM */
static char *_78aec9819044dfebd147dc1378e3cb1q5hPQQQ58fQWkKk7[] = {
/* columns rows colors chars-per-pixel */
"65 65 162 2 ",
"   c #1B1913",
".  c #1E1B1B",
"X  c #272424",
"o  c #292524",
"O  c #2E2926",
"+  c #2E2B2B",
"@  c #322E2D",
"#  c #34312D",
"$  c #3B342D",
"%  c #342F30",
"&  c #353231",
"*  c #3A3534",
"=  c #3D3835",
"-  c #3B3738",
";  c #3E3A3A",
":  c #403B37",
">  c #423D3C",
",  c #45413E",
"<  c #4A433D",
"1  c #554C3E",
"2  c #453F40",
"3  c #464242",
"4  c #4A4544",
"5  c #4D4946",
"6  c #4A4649",
"7  c #4D4A49",
"8  c #514B46",
"9  c #524D4B",
"0  c #555244",
"q  c #5C5245",
"w  c #585945",
"e  c #55514E",
"r  c #59524E",
"t  c #5C5A4E",
"y  c #524F51",
"u  c #565251",
"i  c #5B5553",
"p  c #5D5955",
"a  c #5B5759",
"s  c #5E5A59",
"d  c #60574E",
"f  c #6C5F4E",
"g  c #605653",
"h  c #625A56",
"j  c #685E55",
"k  c #615758",
"l  c #625D5B",
"z  c #695E5B",
"x  c #64614F",
"c  c #646056",
"v  c #6E6257",
"b  c #6B6A56",
"n  c #65615E",
"m  c #6B635E",
"M  c #71655C",
"N  c #74695E",
"B  c #786B59",
"V  c #625F60",
"C  c #666261",
"Z  c #6B6563",
"A  c #6D6965",
"S  c #6D6669",
"D  c #6E6A69",
"F  c #716561",
"G  c #736B65",
"H  c #796E65",
"J  c #736D6B",
"K  c #796E6A",
"L  c #777067",
"P  c #7D7067",
"I  c #75716E",
"U  c #7B726D",
"Y  c #736F70",
"T  c #767271",
"R  c #7B7573",
"E  c #7D7975",
"W  c #7B7779",
"Q  c #7E7A79",
"!  c #82756B",
"~  c #837B6D",
"^  c #897B6D",
"/  c #817672",
"(  c #837B75",
")  c #8B7E73",
"_  c #837D7A",
"`  c #897F7A",
"'  c #8B8075",
"]  c #85817D",
"[  c #8B827D",
"{  c #8F897F",
"}  c #908174",
"|  c #92857D",
" . c #95897D",
".. c #9C8E7E",
"X. c #9F917D",
"o. c #867E80",
"O. c #868381",
"+. c #8B8583",
"@. c #8D8985",
"#. c #8D8788",
"$. c #8E8A89",
"%. c #918782",
"&. c #938A85",
"*. c #998D84",
"=. c #938D8A",
"-. c #998E89",
";. c #9D9185",
":. c #95918D",
">. c #9A938D",
",. c #9A968F",
"<. c #959390",
"1. c #979491",
"2. c #989491",
"3. c #999692",
"4. c #9A9793",
"5. c #9C9793",
"6. c #9C9794",
"7. c #9B9893",
"8. c #9D9A95",
"9. c #9D9A97",
"0. c #9E9B98",
"q. c #9F9B98",
"w. c #A29484",
"e. c #A2968B",
"r. c #A4998B",
"t. c #AC9D8A",
"y. c #A19690",
"u. c #A29B95",
"i. c #A09C97",
"p. c #A99B90",
"a. c #A39F99",
"s. c #A39F9B",
"d. c #A39F9C",
"f. c #B1A18E",
"g. c #A5A097",
"h. c #ABA195",
"j. c #A4A19B",
"k. c #A3A09D",
"l. c #A6A29D",
"z. c #A9A39D",
"x. c #B1A493",
"c. c #A5A3A0",
"v. c #A8A3A0",
"b. c #A9A5A0",
"n. c #AAA7A2",
"m. c #ACA7A4",
"M. c #ABA8A1",
"N. c #ACA8A2",
"B. c #ADA9A5",
"V. c #ADAAA5",
"C. c #ADACA7",
"Z. c #AFACA9",
"A. c #B0A6A0",
"S. c #B1ACA6",
"D. c #B0ACA7",
"F. c #B2AEAA",
"G. c #B4B1AC",
"H. c #B9B4AA",
"J. c #BAB7B2",
"K. c #BBB8B3",
"L. c #C0BCB7",
"P. c #CDC8C3",
/* pixels */
"l [ =.8.C n 3.=.A J a.a.M.a 3.a.:.e s 3.=.D 3 <.0.C 9 a.#.,.s #.a.l s _ a.3.C ] :.A i C a.n.a J 0.#.y s a.3.O.3 n.a.u i _ ] =.4 @.",
"I R l.u n A 6.+.8.9 N.C.> h Z :.:.8.- a.l A C +.$.c.A :.j.l s 1.3.8.i n.B.R A s :.3.I I F.u h l k.Q :.i <._ a D =.u.a.n R #.7 _ ] ",
"=.I 3 ( =.#.4 :.<.n.i 7 +.+.G 9 :.<.3.> E d.n.; =.$.a.u s l.B.n ] @.a.9 p +.D.#.e :.:.+.+ A #._ 3 3.:.n.@ 9 B.l.u :.3.n.G 9 3.-.E ",
"=.l E _ 3.p J C $.O.; +.I +.5 :.u n.l _ :.<.C n 6 $.+.9 a.8.7.4 e +.3.Z @.:.B.5 ] 7 a.Z G _ +.l ] u =.+.I a.<.#.A s D O.h a.=._ 7 ",
"9 Z 5.,.n C =.:.n o +.:.$.X 5.8.B.- O.1.:.u J M.a.9 7 n.3.$.p l.7.I ; :.l.n.4 7.k.3.@ R #.O.Z l m.v.9 3 l.$.E i n.d.R @ 0.#.Q X ,.",
"+.Z =.u $.Z R _ #.A I +.i +.u a.=.G.3 $.a Z A l.O.8.D 3.=.u J O.3.] J R G.s =.7 a.:.n.s =.J n Z <.:.Z.A Q T J J V 6.B._ J _ Z 0.J ",
"=.O.& O.O.c.; Z @.=.s n a.j.I 9 3.<.F.. +.3.8.4 R d.Z.C p l.a.A J 7.n.I ; 7.0.n.+ 1.3.K.4 I +.+.> _ a.J.i I l.C.Z C a.n.T a 8.$.I ",
"3.a #.Q +.6 _ T l Z A 3.:.7.5 C.l 8.9 :.E 8.C U J :.O.p a.a.] A D A B.s n.7.0.i c.s +.- Q :.+.J ,.O.D s I 8.:.3.T $.a R Z n.+.R I ",
"& J O.$.6 L :.:.I m D.F.&.O l.3.B.> +.3.n.7 U B.M.I r a.N.R 3 Z.1.T @ 0.8.0.3 3.0.Z.e I 7.+.C C G.C.e i n.k.=.3 d.7.3.- k.=.W * $.",
"n.C =.6 5.] ( +.:.E &.Z m =.n 7.:.I i 3.s O.e 3.$.3.+.R J Z B.I l.:.@.u 0.u D.C +._ l.Q E D R ( E 8.l.,.#.+.T +.Z 0.3.0.a T a Q 9 ",
"=.B.+ :.3.n.3 ( 5.j.i Z <.l.D & =.l.3.X +.] $.- =.j.l.l Z n.a.I u a.0.a.; a.0.n.- R 1.l., R <.k.; C 8.G.J D <.1.p i =.0.=.4 #.T h ",
"R , 6._ <.4 z.[ U J R 3.+.R I G.9 _ 5 :.O.E 7 l.R #._ E B.,.I T a.D m.s d.@.<.r n.n R C ( Q 7.p ] h I _ Q =.] G E L.J O.p =.T s J ",
"7 +.#.O.7 Z u.z.:.o 7.a.D 7 :.3.G.- _ ] T 3 J ] R E i l.8.T u n.+.8.7 +.=.3., C k.0.s C 0.l.u - m.0.Z ; 0.3.D i 3.=.F.p R @.A 9 s ",
"3.J Z p a.:.U @.z.N.h s E B.p =.3.n.l Z p =.E J Z R _ A I E B.Z 3.] d.I =.3 +.J T 3.<.n _ i 7.&.; 6.3.D 9 u ] B.J _ #.n.R * 6 B.:.",
"3.R p :.3.,.a J u.H.m =.:.+.T > &.=.T 7 #.] I p l =.z., O.1.1.T i =.a.=.& O.O.d.> Q 8.8.; 3.=.-.+ 9 0.d.u Q 8.3.Q i R j.] e F.1.] ",
"* A 8.=.] i +.$.Z l i.=.=.l +.8.n J n #.Q D u +.R J i O.3.=.C R a.A T 3 T J R ; ] l Z u 8.#.O.7 #.7.i y Q 0.1.J J 3.R p I G.3.+.n ",
"s :.u.R J C E ] :.i =.3.i 5 #.@.:.6 J ] C p u _ #.E 6 =.<.V i O.] :.l R T Y 4 > +._ l e 3._ 3 C +.=.c.e +.3.D i R :.:.E l k.R $ l ",
"+.l l _ 7.3.- _ ] 0.i 9 #.u.i @.+.:.3 n n j.8.u ] +.+.y 6 =.=.Z _ Q :.s s C n.#.p _ R J p + +.:.s O.$.c.s i ] l.+.A =.<.#.5 G =.R ",
"=.9 n ] 3.T Z m ] T , #.@.3.C _ O.3.+.A i.7.E 4 4 O.$.i :.+.=.i , R ] D G B.=.Q 9 A _ R > :.#._ n p Y 1.C _ =.8.J l h 5.4 R _ Q J ",
"9 R +.:.A Y $.O.5 @ =.+.:.5 :.5.1.7 I j.,.E e :.] u s ,.=.=.A #.3.s 9 R a.$.I i 8.R 7 Z 7.1.:.l :.z.s 6 Q a.1.Z @.3.] # R E O.D ( ",
"_ ( 8.l G l +.J +.Z ,.:.n C C =.3.0.G N._ n i =._ @.p 3.7.l m T +.#.D D a.I Z A #.+.#.e 0.1.C C 7.3.+.l _ :.A A p ,.+.] R -.I A A ",
":._ > +.=.5.; =.+.#.p l +.=.Q 9 =.>.l.+ T =.a.3 =.[ :.i p @.,.i Z ] 3.U 5 R i.8.s 3.:.<.4 a =.:.Z :.+.5.J i #.=.O.h 3.=.E @ ] _ +.",
"R 4 =.I 5.7 ( i =.W C O.E =.i =.e #.u E ] =.Z J l u.,.e @.] u.9 t h #.J _ E i.] i ; #.3.p =.O.+.4 l ,.i.C ] ] [ 5 7 l 3.l @._ #.s ",
"& 8.=.3.; = $.:.a s :.=.+.; 3.+.:.- R #.#.i 9 ] 7.Z i 5.:.:.e ,.=.n 3 R =.,.R < <.] + - 3.+.] 7 ( D C i :._ ( - B.z.] e ] &.&.l E ",
"G l :.3 %.h =.D =.C =.Q A l.p &.+.8.9 O.i @.G _ _ :.Z [ +.l m R 5.+.A J u.R 4 e Q ] l.i ] #.9 A R +.s l l _ 3 3.l F.+.[ l 6.h R u ",
"O.( * +._ i.@ [ +.+.. G :.8.Q 4 =.:.Q 4 ,.>.g.- E ] a.A h :.,.R n :._ G 7 E 8.z.8 T O.B.u u >.=.h E $.W l > a.=.=.4 j.,.] 8 :.=.:.",
"+.3 ] G 3.4 [ 9 _ l _ _ ] D J c.t ] l r.E u.G +.n J R l ,.R +.9 A Z 3.G @.R j.R [ i D D 4 8._ 3.n G D +.s 8.] +.9 J & &.H O.O.=.p ",
"> I =.3.> I ] [ J r :.#.Z , =.:.8.- 7.,.z.p A +.=.R 8 ,.@.#.> l.5._ 7 @.3.a.Z p :.:.l 9 F.l.B.& 8.+.+.5 8.+.+., :.#.3.@ O.+.=.4 3.",
"J J +.e :.A R U _ I C G Z d.9 #.=.k.A j.n &.J C ] $.] J #.l 7.n 8.E _ l j.A =.J E +.#.m :.3.u :.7 &.+.#.i #.7 q 3 #.Q :.p _ 9 J u ",
"3.7 7 =.:.+.9 I O.=.U _ -.3.D 9 O.=.:., 7.,.j.7 l _ $.I A >.3.R , 7.3.R @ #.] :.- E =.7.5 ; l.3.+.4 :.=.=.; 3.=.n & +.] +.4 _ ] _ ",
"Z G 5.( ] l D.+.J G -.+.#.m ] n.n R u j.:.:.e =._ p C J ,.:.G i +.5 =.o 7._ ] 9 T l 7 l n 3.#.R i O.i +.4 <.#.+.s l.9 +.9 Q E +.l ",
"9 :.,._ i J :.5.$.> +.:.l e +.#.d.e [ 7.:.4 A +.$._ 8 a.3.Z @ =._ #.- +.O._ 4 s T Q J 7 8.$.A > 6.>.$.> 8.:.Z - l.:.u.4 R _ Q 3 5.",
"#.9 p A 5.-.l &.:.8.h u ,.a.C R O.3.I ( m 3.J l +.#.T m n D #.C +._ +.5 p 1 8.E l R O.A A C _ l.l _ O._ p _ p ] u =._ :.u O.i #.i ",
"=.J J :.+.Z C h #.O.p 8.=.3.l Z R =.R 9 -.E #.b s O.=.a R 3.a.E 7 Q O.+.1 3.+.O.3 s R _ 4 _ 8.i.I 9 _ +._ 5 :._ ] ; #.:.7.- a.=.5.",
"r ] =.( l J >.3.h p u.=.,.u @.7.R p i &.T +.h a.#.l u E &.#.C A z.n _ l 8.] _ u j.R C u =.5.:.A _ 8.i J i :._ E 9 >.9 +.9 a.#.#.e ",
"T U =.l l p +.+.=.9 3.3.u n ( &.,.A R +.O.i G -.=.3.u =.3.A u j.7.i.4 +.#.I 9 Z =.:.] l i.8.Z p a.:.8.w :.] ] * #.+.+.> 8.#.#.5 O.",
"a.Q 3 J R R 9 O.+.3.p u O.:.Z L =.u.R C L n.$.h =.$.0.J Z ] u.C 7.] j.l n s 3.R p ] =.#.A n R &.l >.=.<.u I e c.s =.T +.r &.p #.i ",
"$.l m A ] l p 4 [ R > =._ _ u R A u.] A 0.:.=.# i =.-.s =.3.u.I C ,.j.=.l #.+.:.- 9 _ ] + _ =.8.u > <.3._ n 8.-.+., 3.+.&.> +.>.l.",
"3 R _ O.a Z =.] 7 7 =.( R 3 6.3.R p T 8.-.R # +.3.l u :.a.:.Z +.z.O.> Z :.] ] i l.#.i > 3._ 8.u E a.Z ( a 6.=.R 9 =.9 >.9 +._ i.n ",
"#.l O.h ( n :.=._ > R J e Q C _ -.] m =.J i m :.#.<.n N.l.m Q [ 7.,.+.O.3.R e A a.:.=.Z :.i.9 h l.:.:.9 +.+.J @ 5.&.=.* ] &.u., >.",
",.T > %.g.g.p &.+.[ 2 n 6.5.u h R >.W 9 n u.7.l =.#.8.9 p 5.u.=.E :.z.] l G z.7.l :.=.#.A 3 ` +.G :.Q &.h A s 5.s 5.( [ e a.p ;.Z ",
"+.i &.[ u.L I s =.E Z 5.] ( i T u / p ( :.&.H h G 3.i.9 >.+.6.p x I u.+.E =.u.( i A 8.8.e Y S &.p l 5.&.C C +._ J 5 i.u.i 0 7.>.i.",
"3 *.,.;.L m i.:.s n i.#.I 4 B.u.R % ( :.#.m h +.] u 5 >.,.5.5 3.z.] 9 n i.=.J A _ Z C = ( J =.l 8.:.Z A T O._ h n z.i ,.p 5._ z.h ",
":.G y.G A m z._ +.i [ R Z R k 8.:.] 9 :.m A i ] E =.s _ =.> G E u.&.I e 5.G Z C ( S J r _ 3.l l :.:.:.4 R R 9 9 :.:.u.5 %.,.i.8 R ",
"+.$.8 _ >.l.8 5.[ =.u m 5._ + u >.i.D = O.=.&.4 #.R &.C - +._ K G >.u.#.5 E u.:.9 J R J m i z.a.l &.:.+.6 u T o.r [ { j.p &.c -.k ",
"J 9 =.:.3.l J A =.[ i 5.&.O.A $.h =.5 :._ >.( l A &.>.u +.R G - E I i.h =.u.u.H i u I / i a.[ [ 8 u ] &.m T _ O.a 4 =.>.[ * =._ &.",
"- =.>.3.n J =.u.T 5 z.=.[ 8 A.u.l.- =.=.5.A h 5.i.C , =.&._ = =.=.J 4 =.,.u.h E y.[ 4 l a.E I 7 R _ p i R =.R 9 ( >.p ( 9 a._ R 9 ",
"=.> =.A Z C ( [ 5._ h ( 5 A v :.=.a.h a.n R s / >.l.l K _ 4 I h O.+.R H u.N U R u.[ +.h #.G y 9 R E +.A =.O.p e >.>.i.5 &.=./ 9 &.",
">._ X R ` >.; U ] y.E 9 +.+.Z 4 =.%.,.+ K a.P.t R >.N.l 3 =.,.+.u O.-.D 8 [ _ R h _ %._ r l y.8.4 R ( [ p k +.i.p C _ i.r m l u.( ",
"_ - =.I %.i [ l H [ = [ ( E < w.h | 4 M +.D.= P U J [ i +._ =.4 R h [ u +._ [ l I m [ U A &._ R 4 4 E R 4 @.[ :.n 9 l >./ n ,.=.&.",
"& 3.=.=.i G %.,.C X ` ( ( O f.w...5 K %.=.  U *.&.m 9 &.+.&.o [ I D > #.] ] h +.&.+.i h O.( G 4 :.=.9 > :.] &.e O.=.e 8 R ,._ [ m ",
"A h =.9 +.n F [ -.:.U _ , I N t.' ;.G y.= I n [ ( &.m %._ e [ h I I A p +.h C h O._ =.p _ z s G =.%.+.i [ %.e Z _ O.+.Z :.*.[ G l ",
"+.R = 3.i.l.5 m _ =.i > ` ( l q t...;.& ` R _ 9 *.%.;.9 i e.e.G i G R G 4 R +._ p _ ( O.> Z &.O.l :.=.&.& 9 :.-.E _ ] =.m 5 =.&.R ",
"=.8 u.@.j.s m l z K , [ U h > ( H f.j ` R K 4 J l &.J m ;.;.^ ~ Q h J r _ I +.m 9 p [ k ] +.( Z 9 Z ;.=.I =.[ r.9 9 +.&.J #.( ( h ",
"e >.z.l.7 m ` ( 5 < ;.( H < +.I _ , R ( R > Z | ` h i ;.;.N P =.%.( 4 R _ +.p [ &.n = R O.R z l [ [ G Z &.&.%.4 5.[ i C &.[ R i [ ",
"8.i z.p / 9 G I I p h P > K 9 ( J [ 9 K 5 ( l _ G / l ^ H Z I H ( [ _ / [ p J ( &.[ R m ` h R m ( R [ h *.[ u - J [ _ l R ( 9 I A ",
"=.8.+ ( ) *., G K U 5 # _ ( m > / U O.j ( / [ > [ [ +.i l ( [ p K ( %.Z 5  . .G m [ ) m @ _ _ R 4 R ( [ r s =.&.4 i [ [ 9 4 &.&.*.",
"+.3 [ /  .v K J m U 3 ` / J 5 &.4 / > H ` ( 9 +.J ` m l ( R i m J K / 8 &.( *.L ( G ;.i =._ R i +.p I z Z &./ p i ( z / > ` / | z ",
"e ' | [ j g / ( I 4 [ U U * [ J &.: ( *.[ N J / [ I 9 _ R p 9 %.-.A , *.| =.t x.r.=.: ] _ U 8 _ [ =.9 l >._ p m e.| ( * +.[ %.9 / ",
"a.n | z =.J G H K ( F ) 9 G r / K %.9 } j [ m h J [ p Z h l J z ` ,.J | &.p _ B w.w.;.9 U 8 _ 8 / ( 5.u ( h ! P G  .| ( h ` 4 J G ",
"=.i., 3.i.z.- v ! / Z i [ ) U > I U ` > [ [ *.- l / *.9 A [ [ J z [ y.g p ,.%.` f ..w.;.4 &.+.&., K K *.% ) w.h.g H &.| Z 9 -.[ J ",
"_ 5 j.@.u.C [ J F H z ` I ! l y.u H 9 | R *.i | p U g U [ [ H @ J z H i -.[ ) 8 i.v ^ d >.( ` u &.9 ! g ~  .t.^ I J P / 9 u.[ %.h ",
"u 7.j.a.i ! | ) ( h &.| P 3  .) -.7  .[ *.<  .&. .9 J [ %.G 9 %.&.E 9 -._ ! < ;. .u.- +._ ( 8 =.>.;.4 X.w.t.! l r.| R u y.+.( 9 -.",
"a.u u.p a.&.} | } ) H ! ' h.m / / *.h *.r +.m w.(  .h [ G :._ G _ [ R F K m ( g ) | e.h R i z.A [ *.&.g t.! +.E F | ) ( K / ( a.m ",
"=.3.; 3.=.3.0 ^ ....G  .w. .` h / | ( 9 =.-.&.9 ;.&. .h ;.;.p.G H ) [ m R &./ I h P ' &.! >.%.-.p | ` [ r -.=.&.i m | *./ e.*.&.U "
};
