/* XPM */
static char *_c1b6544ae104055f135a098eb1fdae8OaNHweKCiFphrbpy[] = {
/* columns rows colors chars-per-pixel */
"64 64 22 1 ",
"  c black",
". c #3A0000",
"X c #000066",
"o c #3A0066",
"O c #903A3A",
"+ c #B66600",
"@ c #903A66",
"# c #B97A57",
"$ c #22B14C",
"% c #90903A",
"& c #DB903A",
"* c #FFB666",
"= c #0066B6",
"- c #3A66B6",
"; c #669090",
": c #3A90DB",
"> c #FFDB90",
", c #B6FFDB",
"< c #90DBFF",
"1 c #B6FFFF",
"2 c #FFFFDB",
"3 c white",
/* pixels */
"                                                                ",
"                                                                ",
"                                                                ",
"   33333333333333333333333333333333$$$$$$$$$$$$$$$$$$$$$$$$$$   ",
"   33333333333333333333333333333333$$$$$$$$$$$$$$$$$$$$$$$$$$   ",
"   33333333333333333333333333333333$$$$$$$$$$$$$$$$$$$$$$$$$$   ",
"   33333333333333333333333333333333$$$$$$$$$$$$$$$$$$$$$$$$$$   ",
"   33333333333333333333333333333333$$$$$$$$$$$$$$$$$$$$$$$$$$   ",
"   33333333333333333333333333333333$$$$$3333333333333333$$$$$   ",
"   33333333333333333333333333333333$$$$$3333333333333333$$$$$   ",
"   33333333333333333333333333333333$$$$$3333333333333333$$$$$   ",
"   33333333333333333333333333333333$$$$$3333333333333333$$$$$   ",
"   33333333333333333333333333333333$$$$$3333333333333333$$$$$   ",
"   33333333333333333333333333333333$$$$$3333333333333333$$$$$   ",
"   33333333333333333333333333333333$$$$$3333333333333333$$$$$   ",
"   33333333333333333333333333333333$$$$$3333333333333333$$$$$   ",
"   33333333333333333333333333333333$$$$$3333333333333333$$$$$   ",
"   33333333333333333333333333333333$$$$$3333333333333333$$$$$   ",
"   33333333333333333333333333333333$$$$$3333333333333333$$$$$   ",
"   33333333333333333333333333333333$$$$$3333333333333333$$$$$   ",
"   33333333333333333333333333333333$$$$$$$$$$$$$$$$$$$$$$$$$$   ",
"   33333333333333333333333333333333$$$$$$$$$$$$$$$$$$$$$$$$$$   ",
"   33333333333333333333333333333333$$$$$$$$$$$$$$$$$$$$$$$$$$   ",
"   33333333333333333333333333333333$$$$$$$$$$$$$$$$$$$$$$$$$$   ",
"   33333333333333333333333333333333$$$$$$$$$$$$$$$$$$$$$$$$$$   ",
"   3333333333333333333333333333333333333333333333333333333333   ",
"   3333333333333333333333333333333333333333333333333333333333   ",
"   3333333333333333333333>.:333>o1333333333333333333333333333   ",
"   3333333333333333333333>.X133>o1333333333333333333333333333   ",
"   3333333333333333333333>o%:33>o1333333333333333333333333333   ",
"   3333333333333333333333>o,@13>o1333333333333333333333333333   ",
"   3333333333333333333333>o1*=3>o1333333333333333333333333333   ",
"   3333333333333333333333>o12O<>o1333333333333333333333333333   ",
"   3333333333333333333333>o13>->o1333333333333333333333333333   ",
"   3333333333333333333333>o133+;o1333333333333333333333333333   ",
"   #####################3>o133>.X1333333333333333333333333333   ",
"   #####################3>o1333&X1333333333333333333333333333   ",
"   #####################3333333333333333333333333333333333333   ",
"   #####################3333333333333333333333333333333333333   ",
"   #####################3333333333333333333333333333333333333   ",
"   #####33333333333#####3333333333333333333333333333333333333   ",
"   #####33333333333#####3333333333333333333333333333333333333   ",
"   #####33333333333#####3333333333333333333333333333333333333   ",
"   #####33333333333#####3333333333333333333333333333333333333   ",
"   #####33333333333#####3333333333333333333333333333333333333   ",
"   #####33333333333#####3333333333333333333333333333333333333   ",
"   #####33333333333#####3333333333333333333333333333333333333   ",
"   #####33333333333#####3333333333333333333333333333333333333   ",
"   #####33333333333#####3333333333333333333333333333333333333   ",
"   #####33333333333#####3333333333333333333333333333333333333   ",
"   #####33333333333#####3333333333333333333333333333333333333   ",
"   #####33333333333#####3333333333333333333333333333333333333   ",
"   #####33333333333#####3333333333333333333333333333333333333   ",
"   #####33333333333#####3333333333333333333333333333333333333   ",
"   #####33333333333#####3333333333333333333333333333333333333   ",
"   #####33333333333#####3333333333333333333333333333333333333   ",
"   #####################3333333333333333333333333333333333333   ",
"   #####################3333333333333333333333333333333333333   ",
"   #####################3333333333333333333333333333333333333   ",
"   #####################3333333333333333333333333333333333333   ",
"   #####################3333333333333333333333333333333333333   ",
"                                                                ",
"                                                                ",
"                                                                "
};
