/* XPM */
static char *d246ccd48ffd4caabe1d7613ac9eef67xKCZZIT5YuuN6x43[] = {
/* columns rows colors chars-per-pixel */
"65 65 240 2 ",
"   c #433827",
".  c #584C3A",
"X  c #5B533F",
"o  c #6B563E",
"O  c #74523A",
"+  c #5C5345",
"@  c #614F41",
"#  c #645444",
"$  c #6C5444",
"%  c #665B44",
"&  c #6C5B46",
"*  c #655649",
"=  c #6B564A",
"-  c #655C4B",
";  c #6B5B4B",
":  c #725644",
">  c #785C47",
",  c #735D4C",
"<  c #695E51",
"1  c #6A6146",
"2  c #6C634C",
"3  c #746344",
"4  c #73634A",
"5  c #7B614E",
"6  c #756A4D",
"7  c #7B6B4D",
"8  c #666153",
"9  c #6A6656",
"0  c #6C6454",
"q  c #6D665A",
"w  c #6D695C",
"e  c #726353",
"r  c #7B6352",
"t  c #746B55",
"y  c #7A6C54",
"u  c #736759",
"i  c #7A675C",
"p  c #746C5C",
"a  c #7B6D5C",
"s  c #757057",
"d  c #7C7155",
"f  c #76705C",
"g  c #7C735D",
"h  c #6A6961",
"j  c #746E61",
"k  c #7B6E62",
"l  c #757264",
"z  c #7B7363",
"x  c #7D7965",
"c  c #75746A",
"v  c #7B7569",
"b  c #7D7A6C",
"n  c #777871",
"m  c #7D7C73",
"M  c #7D7E79",
"N  c #815E3E",
"B  c #8A623E",
"V  c #866547",
"C  c #966C4A",
"Z  c #99714F",
"A  c #836B54",
"S  c #8B6F57",
"D  c #836C5C",
"F  c #966E52",
"G  c #837455",
"H  c #8A7555",
"J  c #84755C",
"K  c #8B755C",
"L  c #847A5D",
"P  c #8A7A5D",
"I  c #957255",
"U  c #9A7354",
"Y  c #93755A",
"T  c #9C755B",
"R  c #937B5E",
"E  c #9D795D",
"W  c #A3785A",
"Q  c #A37A5D",
"!  c #836F61",
"~  c #827464",
"^  c #8A7564",
"/  c #847B64",
"(  c #8B7D64",
")  c #837569",
"_  c #8A7669",
"`  c #837C6B",
"'  c #8B7D6B",
"]  c #947463",
"[  c #9C7660",
"{  c #937B64",
"}  c #9C7C63",
"|  c #947D6B",
" . c #997D6B",
".. c #837E72",
"X. c #8B7F70",
"o. c #977F70",
"O. c #A37C63",
"+. c #AA7F64",
"@. c #A27F6C",
"#. c #91805E",
"$. c #A9805F",
"%. c #8C8165",
"&. c #86816D",
"*. c #8B8569",
"=. c #8C826C",
"-. c #938365",
";. c #9D8366",
":. c #978967",
">. c #93846C",
",. c #9B856D",
"<. c #948A6C",
"1. c #9B8A6C",
"2. c #9C926D",
"3. c #848174",
"4. c #8C8473",
"5. c #8E8975",
"6. c #84837B",
"7. c #8A867A",
"8. c #8D8A7C",
"9. c #938572",
"0. c #9B8473",
"q. c #938A74",
"w. c #9B8C74",
"e. c #908779",
"r. c #9D8678",
"t. c #938C7B",
"y. c #9C8D7A",
"u. c #959175",
"i. c #9C9275",
"p. c #96927B",
"a. c #9C937C",
"s. c #9E987C",
"d. c #A38267",
"f. c #AB8165",
"g. c #A3846C",
"h. c #AC846B",
"j. c #A38B6D",
"k. c #AC896D",
"l. c #B48666",
"z. c #B1876C",
"x. c #B38A6D",
"c. c #A49568",
"v. c #A28674",
"b. c #A38C74",
"n. c #AD8A73",
"m. c #A38779",
"M. c #A38C7A",
"N. c #AA8D7A",
"B. c #B48C73",
"V. c #B78E77",
"C. c #A39275",
"Z. c #AA9376",
"A. c #A59B74",
"S. c #A3947B",
"D. c #AB937C",
"F. c #A3997D",
"G. c #AA9A7D",
"H. c #B59175",
"J. c #BA9275",
"K. c #B4937A",
"L. c #BC947B",
"P. c #B2997E",
"I. c #BD9A7E",
"U. c #ABA47A",
"Y. c #B1A47E",
"T. c #C09479",
"R. c #858681",
"E. c #878883",
"W. c #8C8B83",
"Q. c #8D8D89",
"!. c #928E82",
"~. c #918F88",
"^. c #959184",
"/. c #9B9584",
"(. c #9E9984",
"). c #94938B",
"_. c #9A968B",
"`. c #9D998C",
"'. c #989691",
"]. c #9D9A92",
"[. c #A98E81",
"{. c #A49681",
"}. c #AB9481",
"|. c #A49B83",
" X c #AB9B83",
".X c #A39D8C",
"XX c #AB9D89",
"oX c #B29681",
"OX c #B39D84",
"+X c #BB9A83",
"@X c #B19E89",
"#X c #A29E92",
"$X c #A6A185",
"%X c #AAA186",
"&X c #A6A18B",
"*X c #ACA48B",
"=X c #AFA888",
"-X c #B2A286",
";X c #B3A38B",
":X c #BAA48C",
">X c #B3AA8D",
",X c #B8A98A",
"<X c #BAB286",
"1X c #A5A193",
"2X c #ABA592",
"3X c #AEA993",
"4X c #A6A499",
"5X c #A8A599",
"6X c #ACA99A",
"7X c #B3A691",
"8X c #B4AB93",
"9X c #BAAC94",
"0X c #B4AD9A",
"qX c #BAAF9A",
"wX c #B7B095",
"eX c #BAB295",
"rX c #B6B29D",
"tX c #BBB39C",
"yX c #BFB99C",
"uX c #AEABA0",
"iX c #B7B4A7",
"pX c #BDB6A1",
"aX c #BEBAA2",
"sX c #BEBAAA",
"dX c #C1AE96",
"fX c #C5B495",
"gX c #C1B59B",
"hX c #C3BA9D",
"jX c #C3BBA3",
"kX c #CBBEA5",
"lX c #C5BEAA",
"zX c #C5C0A7",
"xX c #CAC1A6",
"cX c #CBC4AC",
"vX c #D1C8AF",
"bX c #CBC5B2",
"nX c #CBC5B3",
"mX c #D3CDB5",
"MX c #D4CDB9",
"NX c #D8D2BC",
/* pixels */
"z ` 5.5.` .././.z l b b 7.3.v l t wX*X|.u.i.S.V p.p 8.t...` ` ..z q.2 2 2 - b ` t.g - =.c v b 4.` =.' 4.+ 4.`.{ C f.O.f.} T z.f.K ",
"=.t.e.t.9.z 3.a.p 7.7.4.` l 8 b L *X0X*Xq.,.} T | q.2X(.7.=.t.4.b *Xa.; l p p b v h / 4.` ` 3.b ` ` 4.` u ..(.w.q.V f.h.T F f.f.} ",
"%.k z ~ / =.g 8X- z 0 . ; z c z / d J (.v.F O.} O.=.1 ` ` t.^.!.7.&Xq.g p p l b 3.3.j x 8.v 4.t.7.9.v % z (.7.>.q.&XS Z Q T +.O.q.",
"|.( |.8X XM.v.rXa z b 5...z l &Xw.{.q.V Q O.Q O.E E f p 3.t..X/.7.|.4.p ` j u v v f 3.l ` t.3.4...0 * ^.|.7./.^.3X/.a.} U f.Q 1.8X",
"5X3X|.S.,.o.r.7X=.` b 4...3.g |.w.Y l.J.Q f.U O.h.+.t ` v t.` &.t..Xq.p z j z 9.8.b v / ` v ` X . ^.6X|.~ !.!.`.).6.W.|.N O >.jX`.",
"7.=.q. .| | v.g.a.) 4.3.3...q.w.*X>.B W f.h.E E z.Q R ` 7.3.t.` ` (.q.x v 8.7.4...c c =.  + z |.kX XG..XA _ ^...5.).l =.a.3XpX`.).",
"q.F.=.,.N.m.,.] C.g z t.4...a.>.9.,.(.S W f.U U k.O.w.x 4.5.>.4.z f q.l e.p z z u < &.4.=Xq.G.D.OXw.oXd.=. .^.7.` 7.b ~ =.tX5X#X<.",
"|.( |.| 0.v.v.r.r.=.g z f ..>.' ^.9.q.$XR U E T O.Y 3X=.0 z =.>.w.XX.X- p u * 0 ` c =.a.a.] oX;XoX7X;.4.sX' 9.7.7.9.t.e 8X6X].2Xy.",
"6 <.*XK }.M.0. .| OXa 2 j v y 7.`.1X4X3.a.E F f.Y 3X&X&Xi.tXF.{.r.0.8Xa ` b t...l x ;Xw.%. .n.D.9Xh.9.rXsXsX{ /.t.e.z |.=..Xa.<.P ",
"a.7X X( o.v.0._ ^ F.%Xi.L G 8XW.t.W.^.).5.%X7 5 8X0X_._.1XS.v.{ ,.v.8X` ` v ` 5.` 4.1.G.F.S.D.D.Z.>.1X_.`.&Xw.{ 7.x t.hXtXd 3 4 4 ",
"jXlX9X&X .m.{ a |.|.D.9.0.( 1.t.8.` ` 5.p p (.lX2X^.e.=.>.>. .0.0.{ } a.) t.e.4.m q.C.;X,X{. X X-.(.*X|.%X:.jXy e &XP.@.h.:XaX-XdX",
"jXcXjX>X{.A |.XX,.=.0.9.=.9.>.,.t.8.3.6.` J (.0X].#Xa.i.9.i.o.N.v.m.]  Xe z 4.` ..a. XG.8XOXD.XX%Xa.q.u.a.U.tXhX=Xn.L.L.V.+.8Xw.8X",
"cXmXhX XjX>X,.,.y.y.{.a.y.t.9.( >.!.5.C.4.L 8X5X#Xa.q.y.<.a.9.0.r.0.r.,.q.a z b ..J G.;XXX;X;XD.|..X(.a.=Xc.*X=Xv.H.K.L.L.B.qXi.8X",
"tXtXtX*X*XY ,.S.,.9.w.w.9.t.w.w.( S.t.b z jX=.q.%.#.o 7 %XS. .[.N.o.^ |  Xg % # t / -.-XXXD.OX:XS.#X2Xi.>X-.pXg.0.n.K.x.h.h. .q.;X",
";X8XjX;X<.-.w.0.y.{.9.{.9.9.w.9.( L f =.>XOX8X<.P / S.jX8X*X( @.r.r.^ P >X>XG.S.2.tX4 OX-X-X XD.-Xt.1X/.1. XD.k.b.K.L.L.J.B.n.0X%.",
"d F.%XjX( w.9.M.{.S.y.S.y./ P =. X=.a.-Xn.h.h.OX>X%XjXjXlXeX*X .] y w.;Xw.,.' ' ( >.. C.OX XdX9X:XC.8..X<.8X3XF.H.Z.k.B.B.k.O.G.w.",
"tXw.G -.w.{ 1.M.=.S.{.9.a.y.>.<.cXwXS.x.+XL.L.k.8Xa.8XcXvX9X8X|.w.8X0.9.9.w.w.9.9.>.,.t >X@X7XG.;X-X( ( tX'./.&Xa.g.L.I.V.x.I lXcX",
"w.t.{.( cXq.1.w.D.S.w.w.b.G.9.jX8X,.v.H.+XB.L.f.7X1.tXcXcX8X;XjXb.>.b.w.a.S.y.y.q.w.( a.K OX-XS.C.C.=X8X^.'._.].W.a.n.B.T. .9X1.w.",
"q.4.` / a.*X{ b.( w.G.G.>.( eXjX-Xg.r.n.x.H.k.h.m.q.*XtX9XjX X<.] b.y.w.w.q.9.9.w.0.9.%X8X|.( G.Z.9XNXi.).W..X).).t.S.Q R 8Xg t.a.",
"q.5.9.=.=.F.a.G ,.G ( ( 1.hXMXlXS.k.b.K.J.J.x.x.n.8Xy ;XeXgX*X( ,.9.0.y.y.9.XX=.=.w.~ S.gXgXjX&Xp.a.jX..^.).^.Q._.7..X>XF.>.q.4.a.",
"a.t.q.=./ ;.cXyX<.( H s.A.*XtX/.*X=XH.K.B.B.n.z.T 8X*X6 J i.jX( w.M.y.{.S. Xy.w.( L %.tX} B.+.B.zX9..XM ^._..XW.E.).*X>X-.q.G.y.a.",
">.=.&.w.S.F.y.Y hXt.^.8.8.&./.5X!._.p.} L.+XL.T F.tXtXjX7X>.G |.( ,.w.0.S.w.,.{. X( hX0.K.B.n.B.Z./ 5.Q.^.W..XW.Q.4X X%.w.g q.=.( ",
"S./.>./ =Xy.: : =X`.6.3.8.3.4._..XQ.^./.K.B.h.XXG.>.q.( =./ <.lXq.j.C.{.G.S.b.b.w.F.aX] I.K.K.K.K.4.m W.W.).W.W.E.2X=.b.=.q.=.=.S.",
"' w./ 8X^ O : > :.b b m 6.7.).!.#X).).8.S.S a.w.` t.F.q.&.&.=.q.*X( ,.J ( G.S.4 C.MX0.m.oXoXN.n.d.p.6.W.W.).6.E.7.%.w.' >.( ' g g ",
"~ ( <._ $ , , $ 1.&.6.3...6.!.!.`.Q.W.E.8XxX( w.a.t.y.q.w.q./ 1.C.3XL L H 4 <.fXnXMXD.D.K.N.n.E 7.D =.3.3._.6.m a.x =.G f x / b q.",
"y =Xi ; , ; = o U.7.6.m m W.)._..XE.Q.).9X1.=.q.S.=.a.i.9.4.q.( b.pX9X%X<.S.u.a.q.aXtX+Xh.g.d.yXr D ^ /...^.n 5.>.z =./ ` ) / / x ",
"cX` $ , = ; * 4 U.z ..6.3.).7._.).Q.Q.rX>.>.=.=.4.=.>.=.` =.S.C.8X5 Y >X/.7.4.5.` |.cXXXb.D.aXk D D ' ` <.c p >X9.$Xg ` =.` w.t.q.",
"|.xXe * ; ; = 2.=.F.t &.M W.W.).7.W.E.{.=.1.q.=.( g =.G. X( / 0X> : V =X8...3.4.7.4..XtXi.tXi K r a ) 0 |.F.jX>.a r.{.G 1 p 8 y y.",
"u =./ # ; = 2 =.p 0 5.=.7.7.6._.6.6.p./ >.p ( / ` &.) ' / J 8X$ & $ : <.b b ..6.b &.3.8XnX= A D i a v z >.NXF.' k ,.g.D.} V H =.v ",
"b l =.2 # # =.9 / i.*Xq.q.5.6.^.m ..q.` >.( g / g g w.t S.y.$ , & = : A.3.6.m b c b 8..X| r ^ a k ` ~ l _ lX0.} E Q +.T T O.} J l ",
"z l p q.# % 2 <.) ' ) 9.( 4.!.3.c S.>.f / x ` ) 4.t.0 |.t.> ; e < # 4 Y.7.6.6.3.m b w 4.y D ! k k q ~ c k q.r U f.E W f.O.O.} W b ",
"p p 4.` p =.|.|.p z z v 9.8.b c p 8X*XF.g ( ~ ` 9.z wXvX( # , * ; # -.u.&.z l w h w l 5.5.e a a a a a a u ..^.U $.J.+.O.T E k.f.( ",
"` e.4.t.4.l t./.z ` t.5.4.` v c f 8X2X&Xa.<.6 - % 1.g =.eXy # ; # ; F.a =.=.%.<.<.a.q.*X*Xs ; ~ u ~ ) ' + 3.`.(.V C f.h.O.T f.f.Y ",
"=.` ..4.' ) ; {.u 4.u 0 z p 8 x d >.8X&X` 9.eX%Xw.w z p ( {.e.= * / z z u u =.) 4.z j w x *Xt e k &.^.z = _.q.( .X>.C O.E I h.f.>.",
"S.p z y.q.S. XpX% u k q 0 z c &.s.4.& <.e.~ %.i.0 v ` !.!.>.|.i.* z a a 0 .XG.p j q.q.w.w.pX/.z f q.- ; 2X7.!.t.w.{.w.U T O.Q I &X",
"2Xa.8XF.M.r.0.8X` ` b e...v p 8X,.w.a.L %Xk ' $X/ l 8.!.`.uX7.4.S.q l u &X3X1XF.*X=Xb.M.0.*Xa.p - ; e.3X=.5.^.#X5X6.5.w.V Q I 8X&X",
"!..X{.v.{ | v. Xq.` ` X.5...` ,.G.G.{.F.w.p._ a.tX4 X.^.7.^._.8.a.w.` XX0X#X^.`.|.w. .{ N.D.t.0 3.8X&X(.A 7.!.6./._.7.|.-.r 3X0X_.",
"q.w.=.{ v.0.| ] S.g 3.t.3...p.,.OX9X@XS.;XC.9.M.N.=.D /.` ` 8.f c ~ tXpX`.7.q.<.q.^ v.0.| ] D.*XfXM.D.D.J { !.` x 8.u l 4.jX0X_.4.",
"S.q.a.| M.N.v. .m.z a ` ` 3.q.F.D.9X XXX X XXXN.Y _.P a.W.4.6.3.g q.8X4X4X{.i.i.a.| r.N.v.0.{ D. XXXv.H 1X{ a.W.4.6.5.a /.0X#X5Xa.",
"q.=.*X( r.0.0.0.|  Xt z z ..g j.-X-X X:X XG. X;..XnX0X' 9.8.w.y.z G.5X4X(.q.q.( 8X( r.0.r. .OX@X:X}.{ iXnX.X=.e.5.w.q./ {.5X#Xa.>.",
"6 F.|.{ [.N.9._ | S.q.4 # 2 q.G :XOXC. X;X;X;.t.&X.XiXw.w.y.5.q 8X%X%.%.P 3 3 w.%X( }.N.0.d.n. X;XR .Xa..XsX( y.t.3.u lX{.( P H o ",
"hXpX8Xq. .M.r._ J =X;X XF.1.>Xe G.:X;X-X XZ.a.1X`.*Xi.rXP t g *XP.OX|.>.%.w.eXlX*X{.K m.r.OXP.C.-..X1X#X*Xi.0XA 4 =.>XD.OX{.<.<. X",
"jXkXgX8X,.] y i.;Xw.0.=.>.( >.4 G ;X X9X9X:Xa.a.F.F.C.8X%X>.8Xk.n.n.x.tXF.7XxXjXhX8Xw.@.r G.1.K &Xp.u.a.F.C.tXF.s.;XB.B.h.J.8XF.tX",
"xXvXhX;XrXq.8X,.0.9.S.w.9.0.9.,.y G.;X9XS.;X.X/.<./.Y.XXjX Xk.B.L.L.B.;Xi.8XjXcXcX-XtX%.$XL 3 ' 0X/.{.q.%XA.8XeXS.k.K.L.L.f.tXw.8X",
"lXlX9X XpXN.{ N.,.y.S.a.y.t.w.' {.y j. X Xj._.`.F.>XA.F. X .H.+XK.B.B.n.F.%XjXcX8X*XtX(./.q.%XlXF.#X(.|.;X1.*XC. .K.+XH.B.x.D.w.8X",
"9X9XkX*Xi.K b.y.S.w.y.9.=.q.w.9.a.cXrXy.-.j.^..Xa.|.%.9Xj.0.D.H.B.B.n.O.&X-.tX8XjX7XF.!.#X1X/.8X=X/..Xi.|.-.;Xg.w.D.J.B.B.h.g.|.i.",
"w.8X8XtX/ 1.>.M.9.{.>. Xt.' >.=.%.qX:X9X8XrXu./..X<.*XwX;.K.v.J.J.z.J.O.:X>.q.8X9XtXq.4X6X^.7./.t.q..X.X-.rX>X,.H.N.H.J.z.B.f.9XL ",
"=.7 P eXq.w.w.w.S.M.XXy.w.>.P P zXY K.h.k.tX*X=.a.F.2X/.8XD.K.H.H.B.k.+.,.cX%.7 L 8X2X^.8.8.^.^._.>.t.q.;X`.|.>XD.H.H.J.B.x.E |.lX",
"0X0X|.7 9X( >.w.w.S.w.( {.F.9.eX.Xk.B.n.n.g.1XC.J gX).#X_.^.1.k.I.L.x.R tX*XtXrX*X7 3.6.8.` ^..X^.&X-.q.8X].).].^.,.B.I.L.O.i.8X*X",
"%.=.` / 7XXX,.b.G.G.{. X>.M.S.lX] +XK.K.+XL.5.mXhX8.E._.].Q.^.S.B.V.,.*X-.i.=.&.=./ q.3.).!._.^.!./.MX>XW.W.`._.)./.C.B.h.|.S.,.i.",
"q.4.` =.q.*X( ,.K P b.C.y 2.MX Xb.D.oXK.d.T eXMXi.!.~.!.'.'.W.(.R -.{./ e.a.y.q.` =.t.3.!.8.4.!.!.5.MX&.).).^.)._.7.|.R w.w.=.e.a.",
"a.q.w./ >.1.aX<.L A 4 -.<XcXnXXXD.D.K.g.} a.r rXm !.)._.W.).E./.xXS.1.w.t.a.a.q.q./.t.5.).W.7.8.W.4.8Xm ^.).].Q.Q.W.&XxX>.C.a.t.a.",
"q.q.&.q.=.1.tX-XeXu.s.p.p.=.=XcX+XB.g.d.tXi D (.6.).].#X6.E.'.&X X>./ a.9.=.q.t.5./..X^.t./.!.`.!.t./.E.).'..XW.W.'.2XC.,./ w.=.4.",
"w.3.q.w.G.*Xr > <X`.8.4.5.` 4.jX0Xv.D.aX) D D 4.E.^.W._.W.).1XF.-.>./ t.q.=.w.7.5.3.3.^.^.!..X_.`./ m Q.W.!._.Q.Q.0X<.-.=.=.q.q.,.",
"w.*X%./ 2X5 > > A.8.b ..7.5.4.^.tX X3Xk K r a n W.W.E.!.E.R./.q.,.w.>.>.t ` ,.4.3.t.`.^.` ^.7.3.z ` M 8.E.).7.W.E.a.q.<.w.=.>.p ` ",
"/ ( 6 0X$ , ; : :.` m ..6.v ` 4.|.nXe A D a u ` 6.8.).6.E.5.%.>./ a / ) 4.&./ ' =.c t.3.^./.j 0 5.q.4.7.7._.6.6.a./ ,.y g / ` &.=.",
"t <.{., 5 & = $ 2.3.7.m b v l b (.w.r ^ D a a ~ p...`.M n q.` =.{ =.g / 0 >.~ J 8X>Xp /.(.8 z i..X9.>.p.m `.m m <.&.>.-.` g / t >.",
"F./.: , 0 < = $ U.6.3.6.6.m 3.w v =.r D k k 4.9.>.3.t.c =.F.L g ) ) / =.q.` ( yX&Xt.>Xt 2 <.X._ ) 4.' 9.4.3.l {.q.g z x / &.9.a.z ",
"cX%X@ ; = ; # L A.<.g j w 8 p z u.p.2 k a | ' 4.p q.z ` 9X^ 7Xi.d / g =.z q.MX|.v t.z <.c.p v ` 4.' 4.0 w.l a.*X^ 8X<.G g g ' p *X",
"a =X' ; ; * # i.a ) 3./ *.F.F.q.s.$Xu.. k | ` ) p =.xXlX' a ^ v.|.L 6 X <./ p 8.b b 5.4.%X) ) ) | ` l p /.cXrX~ a { M.a.%.2 % <.~ ",
"z ` / . p * g z z p u < z g g c 9 l /.p.# ~ ~ l ' a MX*X' ~ 9.~ ~ |.>XG.z w ` z m e.&.~ (.k a X.v ) v ) ' NXa.^ ^ >.a ! $X>XS.z l ",
"2X7.4.4.5.b |.q.p a q 0 z c 8 u.|.i.q.a./.2 c ~ l k XX' ^ a p ` _ ~ i.J j b b z v j v v 7.( ) ~ l z ) c ..&X^ U U E I g. .,.>.p.`.",
"5.` 9.!.t.` /.|.j p p k v ` M 8 a.<.%XF.t.% z a l k 4.J p ~ / ~ ~ ) a.G.0 b p l 8.z u q ` $Xa K 8 q ) c _.0.Z V I O.f.T [ T E q.) ",
"9 ..t._.^.5.a.{.u ` p j z b z 3.c i.F.|.(.<.C.a g p ~ 8Xa / p z z ' ~ tX=.0 8 ` ` ..z - / p.a.p.|.p..X(._.` C Q W I Q Q Q O.} E t ",
"g b 7.9.7.t./.(.u x c l ` 5.b b z >X|.$Xt.<.F.' ~ ~ e 3X' k a z z ` ~ 9.q.< v 5.b ` a / u./ l ) ` q.z z g ).J U f.B.+.f.W O.O.Q G "
};
