/* XPM */
static char *_eb331413d5c459b957368ce54da5e52wbmr0hRvwryZmPSB[] = {
/* columns rows colors chars-per-pixel */
"64 64 22 1 ",
"  c black",
". c #3A003A",
"X c #660000",
"o c #66003A",
"O c #000066",
"+ c #3A0066",
"@ c #903A00",
"# c #B66600",
"$ c #B97A57",
"% c #22B14C",
"& c #DB903A",
"* c #FFB666",
"= c #003A90",
"- c #0066B6",
"; c #66B6FF",
": c #FFDB90",
"> c #FFFFB6",
", c #90DBFF",
"< c #B6FFFF",
"1 c #FFFFDB",
"2 c #DBFFFF",
"3 c white",
/* pixels */
"                                                                ",
"                                                                ",
"                                                                ",
"   33333333333333333333333333333333%%%%%%%%%%%%%%%%%%%%%%%%%%   ",
"   33333333333333333333333333333333%%%%%%%%%%%%%%%%%%%%%%%%%%   ",
"   33333333333333333333333333333333%%%%%%%%%%%%%%%%%%%%%%%%%%   ",
"   33333333333333333333333333333333%%%%%%%%%%%%%%%%%%%%%%%%%%   ",
"   33333333333333333333333333333333%%%%%%%%%%%%%%%%%%%%%%%%%%   ",
"   33333333333333333333333333333333%%%%%3333333333333333%%%%%   ",
"   33333333333333333333333333333333%%%%%3333333333333333%%%%%   ",
"   33333333333333333333333333333333%%%%%3333333333333333%%%%%   ",
"   33333333333333333333333333333333%%%%%3333333333333333%%%%%   ",
"   33333333333333333333333333333333%%%%%3333333333333333%%%%%   ",
"   33333333333333333333333333333333%%%%%3333333333333333%%%%%   ",
"   33333333333333333333333333333333%%%%%3333333333333333%%%%%   ",
"   33333333333333333333333333333333%%%%%3333333333333333%%%%%   ",
"   33333333333333333333333333333333%%%%%3333333333333333%%%%%   ",
"   33333333333333333333333333333333%%%%%3333333333333333%%%%%   ",
"   33333333333333333333333333333333%%%%%3333333333333333%%%%%   ",
"   33333333333333333333333333333333%%%%%3333333333333333%%%%%   ",
"   33333333333333333333333333333333%%%%%%%%%%%%%%%%%%%%%%%%%%   ",
"   33333333333333333333333333333333%%%%%%%%%%%%%%%%%%%%%%%%%%   ",
"   33333333333333333333333333333333%%%%%%%%%%%%%%%%%%%%%%%%%%   ",
"   33333333333333333333333333333333%%%%%%%%%%%%%%%%%%%%%%%%%%   ",
"   33333333333333333333333333333333%%%%%%%%%%%%%%%%%%%%%%%%%%   ",
"   3333333333333333333333333333333333333333333333333333333333   ",
"   3333333333333333333333333333333333333333333333333333333333   ",
"   333333333333333333333331@   -33333333333333333333333333333   ",
"   33333333333333333333333#-331@-3333333333333333333333333333   ",
"   3333333333333333333333>o,333:+<333333333333333333333333333   ",
"   33333333333333333333331@-333333333333333333333333333333333   ",
"   33333333333333333333333>X  -333333333333333333333333333333   ",
"   33333333333333333333333333>X -3333333333333333333333333333   ",
"   3333333333333333333333333333:.,333333333333333333333333333   ",
"   3333333333333333333333*O<3331@;333333333333333333333333333   ",
"   $$$$$$$$$$$$$$$$$$$$$31@=233&=2333333333333333333333333333   ",
"   $$$$$$$$$$$$$$$$$$$$$333#   =23333333333333333333333333333   ",
"   $$$$$$$$$$$$$$$$$$$$$3333333333333333333333333333333333333   ",
"   $$$$$$$$$$$$$$$$$$$$$3333333333333333333333333333333333333   ",
"   $$$$$$$$$$$$$$$$$$$$$3333333333333333333333333333333333333   ",
"   $$$$$33333333333$$$$$3333333333333333333333333333333333333   ",
"   $$$$$33333333333$$$$$3333333333333333333333333333333333333   ",
"   $$$$$33333333333$$$$$3333333333333333333333333333333333333   ",
"   $$$$$33333333333$$$$$3333333333333333333333333333333333333   ",
"   $$$$$33333333333$$$$$3333333333333333333333333333333333333   ",
"   $$$$$33333333333$$$$$3333333333333333333333333333333333333   ",
"   $$$$$33333333333$$$$$3333333333333333333333333333333333333   ",
"   $$$$$33333333333$$$$$3333333333333333333333333333333333333   ",
"   $$$$$33333333333$$$$$3333333333333333333333333333333333333   ",
"   $$$$$33333333333$$$$$3333333333333333333333333333333333333   ",
"   $$$$$33333333333$$$$$3333333333333333333333333333333333333   ",
"   $$$$$33333333333$$$$$3333333333333333333333333333333333333   ",
"   $$$$$33333333333$$$$$3333333333333333333333333333333333333   ",
"   $$$$$33333333333$$$$$3333333333333333333333333333333333333   ",
"   $$$$$33333333333$$$$$3333333333333333333333333333333333333   ",
"   $$$$$33333333333$$$$$3333333333333333333333333333333333333   ",
"   $$$$$$$$$$$$$$$$$$$$$3333333333333333333333333333333333333   ",
"   $$$$$$$$$$$$$$$$$$$$$3333333333333333333333333333333333333   ",
"   $$$$$$$$$$$$$$$$$$$$$3333333333333333333333333333333333333   ",
"   $$$$$$$$$$$$$$$$$$$$$3333333333333333333333333333333333333   ",
"   $$$$$$$$$$$$$$$$$$$$$3333333333333333333333333333333333333   ",
"                                                                ",
"                                                                ",
"                                                                "
};
