/* XPM */
static char *_762805f91994323d1fed9faf74a8f03RJk6D9SvdoStKmCp[] = {
/* columns rows colors chars-per-pixel */
"65 65 209 2 ",
"   c #2D2618",
".  c #332823",
"X  c #3E3424",
"o  c #473625",
"O  c #42372D",
"+  c #463A2D",
"@  c #4A3D2D",
"#  c #473436",
"$  c #473B30",
"%  c #4A3F36",
"&  c #4B402C",
"*  c #52432D",
"=  c #5C512F",
"-  c #4D4333",
";  c #4F4B31",
":  c #544434",
">  c #554C35",
",  c #5C4D35",
"<  c #554B3C",
"1  c #5C4C3B",
"2  c #5D5235",
"3  c #5B5837",
"4  c #5C543D",
"5  c #5F593B",
"6  c #625535",
"7  c #655B36",
"8  c #62543C",
"9  c #68553B",
"0  c #655B3C",
"q  c #6A5D3C",
"w  c #725F3A",
"e  c #666037",
"r  c #6A6337",
"t  c #6D623E",
"y  c #76653E",
"u  c #7B663E",
"i  c #554A41",
"p  c #5B4D43",
"a  c #575041",
"s  c #5B5342",
"d  c #5D5A43",
"f  c #5D534B",
"g  c #5E5A4A",
"h  c #625644",
"j  c #6A5740",
"k  c #655B43",
"l  c #6B5C44",
"z  c #62574A",
"x  c #6A544B",
"c  c #645C4B",
"v  c #6A5C4A",
"b  c #715F42",
"n  c #725D4D",
"m  c #665552",
"M  c #665D50",
"N  c #6A5E53",
"B  c #715E54",
"V  c #666245",
"C  c #6D6244",
"Z  c #6F6B46",
"A  c #65604C",
"S  c #6D634B",
"D  c #6F684A",
"F  c #736444",
"G  c #796745",
"H  c #746A45",
"J  c #7B6A45",
"K  c #72654B",
"L  c #7A674B",
"P  c #756A4C",
"I  c #7B6D4C",
"U  c #767045",
"Y  c #7D7247",
"T  c #7C724D",
"R  c #676250",
"E  c #6C6453",
"W  c #6E6953",
"Q  c #6E6558",
"!  c #6F6A58",
"~  c #726553",
"^  c #7A6653",
"/  c #746B54",
"(  c #7A6D53",
")  c #72655A",
"_  c #746D5B",
"`  c #7A6E5B",
"'  c #777155",
"]  c #7C7254",
"[  c #7D7B52",
"{  c #76715C",
"}  c #7C735C",
"|  c #7E795B",
" . c #766C61",
".. c #7C6E62",
"X. c #767262",
"o. c #7C7463",
"O. c #7E7964",
"+. c #7F796A",
"@. c #806C47",
"#. c #816D4D",
"$. c #827147",
"%. c #83734D",
"&. c #88744F",
"*. c #85794E",
"=. c #8A794F",
"-. c #907A4F",
";. c #816E51",
":. c #836E5C",
">. c #837453",
",. c #897553",
"<. c #847A54",
"1. c #8A7B55",
"2. c #82755B",
"3. c #887659",
"4. c #847A5B",
"5. c #8A7C5B",
"6. c #917D55",
"7. c #917E5B",
"8. c #827663",
"9. c #8B7563",
"0. c #847B64",
"q. c #8A7D63",
"w. c #837768",
"e. c #847C6A",
"r. c #8A7E6A",
"t. c #927F64",
"y. c #907E6B",
"u. c #867F72",
"i. c #887F72",
"p. c #878057",
"a. c #8C8155",
"s. c #87815E",
"d. c #8D825C",
"f. c #928256",
"g. c #93845C",
"h. c #98845D",
"j. c #96895E",
"k. c #9A8A5E",
"l. c #A0915F",
"z. c #878165",
"x. c #8C8264",
"c. c #8F8967",
"v. c #86816C",
"b. c #8C836B",
"n. c #8E896B",
"m. c #928563",
"M. c #998663",
"N. c #958A64",
"B. c #9A8C64",
"V. c #92856B",
"C. c #99866A",
"Z. c #948A6C",
"A. c #9A8D6C",
"S. c #9D9165",
"D. c #95906E",
"F. c #9D916C",
"G. c #8D8670",
"H. c #8C8572",
"J. c #898475",
"K. c #8E8974",
"L. c #928671",
"P. c #988770",
"I. c #948C73",
"U. c #9A8D72",
"Y. c #948D7A",
"T. c #988D79",
"R. c #979276",
"E. c #9C9274",
"W. c #96927A",
"Q. c #9B937B",
"!. c #A18F68",
"~. c #A39465",
"^. c #A2946C",
"/. c #A9976D",
"(. c #A5996D",
"). c #AA996B",
"_. c #A28F71",
"`. c #A29573",
"'. c #A99770",
"]. c #A49A74",
"[. c #AA9D75",
"{. c #A19679",
"}. c #A39A7B",
"|. c #AA9E7C",
" X c #B6A56F",
".X c #AEA175",
"XX c #ADA27C",
"oX c #B2A47D",
"OX c #B7A87D",
"+X c #9C9582",
"@X c #9E9984",
"#X c #A59682",
"$X c #A39B83",
"%X c #A99E84",
"&X c #A29C89",
"*X c #AB9D8A",
"=X c #ABA285",
"-X c #A7A28A",
";X c #ADA589",
":X c #AFA98C",
">X c #B3A782",
",X c #B4AA82",
"<X c #B9AC84",
"1X c #B3AA8C",
"2X c #B9AD8A",
"3X c #BDB28A",
"4X c #B5AC92",
"5X c #C1AF87",
"6X c #C4B98F",
/* pixels */
"S.=Xe.w.Z.Z.} o.( U.G.K.V.%Xo._ e.} G.o._ x.C H F 1.>.z.2.P / 4.Z.2.( & | v ] I -.J f.q.>.1.` ] >.k %.H f.N.8.d.p F #.D v K ~ ] N.",
"B.D.W.$XQ.+XW.0._ 2.} V.2.A.x.O.E V b.b.n.1.H F *.K P C / ~ } E O.4.<.* t F K I ,.7.I 0.0.0.I 2.x 4 T I 4.m.P C.C N.5.] z./ ( 7 = ",
"q.x.G.V.O.o.T.` / ` ( |.q.>.R.i.{ ~ / 4.b.] E.5.S p.m.K ] o.X.{ W 1.&.o G @.5.m.3.5.,.q.V.~ ,.5.f., G I <.8 ,.4.P 0.1.( 0.} F P l ",
"U.d.Z.+X*X_ I.O.! ' z.E.} 4.I.I.Q.o.E o.n.o.v., ].v ] K / z.z.o./ <.$.6 $.f.U.C.d.5.5.>.5.0.K I q > Z z T k 3 P | D E [ x.^ 2 7 - ",
"g.A.V.W.R.Q. .E 4 z ~ A.q.} b.D ~ 4.{ K.o._ z.b.' l S v : X : h ( * G : 2 I C.5.%.m.V.3.q.I #.8.: 2 l % V S : + - f 1 k T c V 0 9 ",
"E.V.Q.+X{ K.Q.E.` / ( S.5.x.N.t.8.| ` o.R.2.k e.c D k U./ P.^ } _ 0.Z.m.^ & N.^ L ] 8.( L.2.B.7.J & 1.k / ( >.<.~ } m.H G P 8 l 7 ",
"5.Z.I.c.Q.b.N.4.] I H 1.4.5.4.^.N.{ } ` v.x.o.b.S / ( ~ U.T | K q.c 0.5.4.< S S F P 4.2.] x.I ] &.I G 5 | l 5.>.O.S 5.d.2.| } ] F ",
"d.a.<.b.<.D.] 8 4 I 3.I I [.3.S.A.5.K } Z.s.x.x.A.v ] q.` } S s.W } _ 4.I - V C 2.8.2.m.2.>.5.G #.%.7.* D >.5.p.2.P 2.T x.~ ] >.%.",
"t H 2 r ] C 2 <.*.9 3 a.8 U I 2 C Y k D 6 2 q T 0 P q.d <.S ( } n.] C 1.>.1 K 8.U.L.m.q.5.1.g.5.J =.,.* ] v } p H 4.v.>.O.<.F Z.5.",
"L C.V.N ` V.2.7.v ;X9.L.).5.>.C.N.>.K 7.q.q.9._.r.:.^.K D 0.c | s ( F P T h 5.x.I.Q.x.m.N.;.2.} >.L v - < > k A & ; V 4 g s S W T ",
"d.%.~ N.0.2.P 5.A.<.$Xx.N.T >.G.d.^.g.N.x.U.`.g.3Xx.4.<.K k E C ( D t / P k g.` G.} ^ 5.m.>.4./ >.4.v 4 _ .._ 8.N c < K ` m S < / ",
"Z.0.;X` I.C.b.U.}.F |.3.>.H >.5.d.m.B.4.F.m.C.B.<X0.M.I ~ c ] 8 } / t 3.0.z 2.0.G.8._ v S K v K G I I 1 } b.O.r.{ o.o.~ v.} 2.] P ",
"0.4.! +X8.0.>.b.Q.C.N.f.G N.m.1.S.B.F.E.m.E.B.g.(.H N.5./ ` 2 ] 4 4.x ' z.z / v v.r.o.K / z l 6 q G K d T.L.u.I.K.X.v.o.v.^ - , 4.",
"8.J.I.0.Y.0.o.#XC.q.5.f.I Z.5.5.!.U.].`.`.D.m.^.5Xl V.} ` ] 1 S E ` o.{ 0.) v.) b.0.} K S / k F C 9 ~ < 0.| x.V.q.o.x.0.5.I q.c ] ",
"] } q.b.Q.n.0.%X-X} v.g.<.N.g.B.B.S.].C.^.,.x.g.6X- K.} w.} ] L E A ` ` w.E 0.v ` _ S W z E A S l k / p 0.} x.C.V...> N.>.l 0.] K ",
"q.P ] C.5.R.8.}.Q.q.x.B.a.d.5.].M.B.A.q.3.2.<.7.`.o.v.w.o.P t A _ E v.I.o.z } { { 0.0.z N c E c ] z K < ( ( V 4.n.Q.q.S.F.N.M.2 >.",
"z.N.g.>.C.P U.T.{.#XV.N.5.5.m.~.3.N.d.~.d.<.1.<.{.` Y.G.{ p.D ' E o.{ _ e.s _ i q.e.r.z / z E R S } D + o.r.V.( } G./ x.g.d.>.<.H ",
"] I 5.1.' q.] G.Q.I.2.S.m.x.I.F.E.E.E.5.D.l %.} I.` U.I.>.<.K ' _ b.~ Y.0.f ! E / x.b.f z P v k E K I l G.e.4.} ~ R.n t I x.0.x.g.",
"4.( ] B.5.>X4./ v.*Xq.S.V.Y.I.E.V.Q.Q.`.5.T ^ v.n.} 4.q.,.q 3.j l l 0.q.q.i v K / b.} I.- z ~ z l D } s r.b.E o.} v *.M.d.%.] T g.",
"k x.~ 4.N.] 1.Z.m.I.S.V.B.b.U.@XU.Q.V.A.5.C.L.x.b.N E.N.1.g.H S.{.Z.V.=XXXv 8 D { ~ } x.+ E N S 4 S / ~ 0.o.b./ K.2.] P 3.<.F 4.( ",
"A | >.V.] d.p.5.C.4.I g.C.b.G.+XY.G.{.`.] Y.v.G.C.0.v.5.%.( f.] 1.x.x.x.S.l 2 H ( 2.b ( M a c M E / o.V L._ / ( 4.<.%.%.*.%.Y ( Q.",
"0.Z.` A.C.8 ] >.x.<.2.T 1.I.J.n.G.F.P <.m.0.G.5.5.b.n.N.,.T ] %.f.d.E.2.p.v 0 k <./ ( k 0.0.( 0.y.e.8.H A.R.) } } q.>.x.I %.L T ` ",
"K 5.>.H `.>.5.B.V.I.S } I `  .p o.2.5.^ ( ( o.8.q._ `.C.N.,.%.g.%.H d.`.A.z s S % E E E 8 P E ` ` / ~ h ( 1 4.^ q.} >.M.g.@., : l ",
"C F.<X5.C d.A.g.XXXX`.P A.Y.Q.-XY.F.^.E.I.q._ K.`.r.f.5.( I 1.T ).l %.g.^.0.G.W Z.C.b.0.V.A.V.L.U.V.} q.}.V.^ 4.x.F m.5.>.&.1.1.5.",
"4.x.^.[.A.B.d.d.p.m.x.U.S.T.M #Xe.E.m.^.4.A.} C.x.m.P H N.I I T 1.).N.g.%.x.R.0./ v E 4.b.R o./ ! b.n.Q.q.0.<X2.( 5.M.l *.] %.I ] ",
"Q.q.x.N.N.m.4.A.>.A.q.Q.q.}.e.Y.Q.B.C.Q.Y.e.0.q.` C.2X( K x.K q >.N.m.<.B.~ ] 0.8.0.s A E c W p E 4.o.0.( ^ q.3.2.4.5.K ( ( K ] ( ",
"} I.b.T.].I S.5.C.} ` Z.E.G.&Xo.Z.m.0.q.x.q.K.m.E.Q.x.E.2.d.q.F 2.,.g.I.^ V Z.( 0.c R c _ E c E R } _ 0.M.;.s.F 5.x.} ' } V.%.] >.",
"} ' m.x.Z.2.b.2.b.G.( 5.N.x.+XG.E.q.q.x.r.~ 2.` 2.M.q.C k.V q.1.<.K N.`.N.< K.q.~ _ R E z W _ E _ ~ V.} x.A.( m.} 0.2.} R 4.] >.M.",
"F.A.N.m.C.x.0.e.q.O.2.L N.5.C.0.I.+Xb.e.L.L 0.5.a.1.S.>.<.P 1.K F T } 1.x.} 0.@XQ w.< A z g R z R ` ( ~ j.G 2.2.} I.r.E ` ( >./ %.",
"6 >.P 4.I.q.' m.{ k S 3X4.A.} b.V.+Xb.o.H } v.2.I q.].5.b.^ d.g.( 8.4.] d.} 8.T.Q.{.I.2.v E o._ c / z d.( %.1.A.~ U.^ I K 1 P x e ",
"C.S 2.W 0.0.P / ] 3.2 F.m.x.E.x.$X&Xq.b l ` ~ ,.9 ( (.$XY.R.C.2.F.` ] 5.G v K.v.v.U.I.C I.E | o.o.I.` ( 5.J d.{ b.2.K 5.I 1.H N.l ",
"} <.W - 0.} H <.S m.&.C.N.E.R.Q.b.`.A.6.U.I.o.5.q.F 1.<.+XK Y.V g.r.> d =X2.o.v.e.2.~ } ( _ X.0.0.S E.b.^.^.Y q.} x.4.L V I I L V ",
"{ { } 8.G.I.m.M.>.j.[.2X5.n.I.4.A.B.C.g.S.1.U.d.x.A.m.G.Y.E.Q.`.L E.4XE z.x./ v.e.2.r.e.E x./ 0.) <.2.m.q.D.j.g.3.%.%.L ( ( P m.~ ",
"n.b.V.x.}.R.Z.g.1.B.5.Z.K.A.E.E.^ 2.G I %.>.d.N.4.5..XA.M.2.c.B.B.^.z R.A._ K.r.o.o.2.V.l 2.] ] 0.C.K 8.} ] <.N.F 1.2.H L k P ( _ ",
"V.P g.j.S.N.g.4.3.P E./ &X/ N.V.5.1.u J F $.G 5.A.K T b.I.b.b.V.^.[.Q./ x.o.G.G.8.} v T ] I / c o.v.x.2.Z.4.I ^.;.T >.<.8 <.B E / ",
"0.p.f.j.g.x.N.g.~.H d.s }.Q.m.E.M.F.5.B.m.$.B..X5.(.} >.e.N.B.V.p N.^.oXv.N o.O._ x.2.P E 0 S.e./ C.8.].L.F.P.B.R.t.F >.( c 8./ +.",
"<.<.d.A.<.N.P 5.4.x.A.' >.q.0.4.z.>.( ( L ] q.U.b.p S ' P ( $.$.^.w J 4.^ ( } _ } l > ( * ] F <./ v ( k } R D >.F.I N.>.s.0 H ] v ",
"( 5.x.m.z.d.s.4.K 0.0.4.Y.n.B.C.C.5.B.n.T.{.F.A.Q.{._.T 3.o.1.oXk./.B.v.I.n.+XI.A.r.S ( g.h.5.m.m.^ 5.f } 2.t.m.C.t.( p 0.q.5.S e.",
"e.J.Z.x.G.b.T.] 4.C.b.2.{ V.Z.q.`.S.4 K q.4.g.I.U.m.(.f.I T 4.g.g.A.x.8.0.G.v.x./ 4.^ F 3.G ].B.^.x.E.K ( S.F.r.} 5.2.U.b.2.m.A._ ",
"e._ z.S.' 0.x.4.2.4.C.x.2.V.<.4.m.d./.+ 5.G g.] b.S.f.g.5.m.S ^.B.].d.R.} |.q.L b.C.6 1.3.%.B.Y 5.F.q.] L.].5.r.` K >.z.b.` P q.D ",
"0.V.b.1.b.4.' 0.{ } x.^.4.5.p.2.s.4.[.( k _ } `.x.O.L d.4.>.>.5.N.k.g.I N.M.' N.p.5.$.%.%.A.3.*.G <.1.4.m.g.,.x.5.z.2.~ } ] q.4.] ",
"n.S.x.V.x.b.o.e.o.0.z.( 4.4.' 4.I Z.z.F.] C.{ / m.I.F.0.e.m.K x.*.XXk 2 4.$X} =.I >.l ,.1.d.G S ] 5.>.m.5.B.g.3.I 4.2.s.2.>.4.c { ",
"0.5.N.5.m.] 4._ v.b.C.].] %X. b.Z.0.o._ / 4 K.b.b.K.0.o.v.8.Q G.B.oXXX2.`.0.{.1.].} s 5.B.,.p./ } 2.a.].C.2.q.g.I H ] <.A.C 0./ G ",
"v.<.4.<.} N.4.{ f 0.I.=XQ.Q.{ ' z.Z.2.x.R.0._ / v.n.' Z.h 0.] / `.`.2.V.E.U.V.q.Z.B.: x.5.>.F x.2.k.l >.b.N.>.5.1.L 8 9 v ^ v P h ",
"s.<.g.z.' e.s v._ 0.{ {.U.I.V.Z.3.1.4.0.0.K.T.E Y.b.I.o.v.0.] N.z.E.Q.J.J.Q.E.T.R.U.>.).L ] f.I g.k.[.5.Z.>.5.*.,.,.3.f.z.} d.I I ",
"0.n.0.w.V.0.w._ o.0.Z.Q.b.0.>.F x.Z.E q.4.E } o.Y.J.v.0.F 4.1 v.q.0.o.x.b.Q.v.b.o.3.} =.k.&.H 5.,.I >.] ].F ,.<.>.%.T q.4./ %.b S ",
"e.G.v.o.e.o.E X.{ ` ' @XK.v.Y.V.0.b.v.b.0.Q.0.v.o.G.4.%.g.4.} z.U.U.Z.~ } E.2.V.b./ V >.,.S.m.4.J 3.g.4.(.B.4.5.%.I C q.4.2.] G _ ",
"0.x.v.0.O.! _ V O.A S @Xb.Y.w.Q.5.O./ S 0.} ( Z.K.Q.j.a.d.2.9 x.q.^.^.3.F g.^ 5.K s k 3.1.H g.f.1.B.( |.m.#.K d.l 1.K 0.0.8.5.I k ",
"X.0.w.G.4.X.{ } { _ _ b.J.Q.T.I.} o.` 0.0.0.v.} { 0.N.N.k.~.f.l.S.S./.f.k.A.>.l Z.} 4 d.1.<.k.g.g.f.g.7.*.A.( 1.2.0.v.8.0.' <.V.^ ",
"{ / 2.~ ` } ~ } z.{ v.{ 0.K.n.e.0.x.<.{ 0.v.( x.K.G.^.j.g.1.( ^.).1.B.f.f.g.M.( ^ 2.S 5.>.( I f.B.m.5.3.a.m.1.>.4./ ~ v.{ >.g.V.E ",
"D.E.V.0.b./ m.G.V.b.U.e.b.m.L ` h ` ^ r.p 0.~ S 2.C.5.g.m.2.( a.T ~.h.g.g.1.f.5.r.( N.%.1.] q.4.5.m.d.5.K j.,.S ` / 5.K >.B.<.k.#.",
"0.Z.|.m.=XV.3X=X}.Q.%X=XQ.T.P.K 2.{._ U.A.E 0.V.m.B.A.^.F.~.D.g.V.g.N.^.g.5./.M.( m.6.B.N.E.( 8.d.v q.2.I : 0 2.: 0.( L 0 J G l P ",
"=Xn.A.C.^.%.}.4XU.E.Q.`.R.I.w.~ b.2.b.V.*XV.o.^ q.G 6.$.B.f.m.}.U.x.5.1.g.1.~.h.d.5.1.^.oX3Xm.>X;X%X:X1XG ^.^.E.q.b.q.1Xf.^. X).G ",
"XXd.R.oXI.N.0.].Q.0.{.R.=Xr.E.q.K.e.} ~ n.I.` 0.K T T 7.>.B.I q.0.x.C.4.N.g.,.4.1.6.%.).,X3XQ.=X}.;XV.].I 1.q.V.r.N.o.4.@.d.~.m.H ",
"N.B.m.V.%XoXb.$X+XL.G.S U.Z.q.~ ..$ r.5.v _ N.l q.k ( &.>.B.k D.q.q.A.1.N.`.~.B.H >.|.|.[.oX}.|.;X}.V.B.G B.G.4.g.v.e.N.g.G I M.y ",
"^.g.N.g.0.q.{ @XY.v.J.T.2.G.0.Q $Xc z ^ q.c / ^ C S H I <.S.`./ d.g.B.A.5.N..X,.k.B.A.2X<X>X=X%X4X>X`.@XK 5.O.+.~ E ( P g.I I ^.9 ",
"(.g.k.g.N.I.}.}.b.z W.o.0.{ u.c 0._ _ 2.S ` 4.>.x.L ( K I m.m.>.g.a.B.&.1.B.`.2.G 5.A..X.X`.;X{.4XoX].%XP m.4.z.0.} P 5.] %.*.^.M.",
"N.S.2.N.C x.O.I.Q.W Y._ } x.e.N ~ _ E ~ 2._ 2.] ~ k S ( 4.x.5.q.Z.^.V.J j.g.f.}.] g.T.|.XXXX[.;X}.>X}.%X~ x.V.V.8.5.K a.,.] C oXF ",
"N.5.>.x.4.O Z._ T.o._ e.0.n.w.e.~ _ ` ( ( 2.( P P / ] ^ L.5.5.4.z.C.F.>.N.XXN.1.1.3.2.>X[.V.;X;X1X[.>X%X` x.0.0.>.b.P ,.1.1.] '.t ",
"C.d.x.V.].  / 0.o.{ o.0.e.S r.E e.h v / F } K ] } / / 0.n.].1.N.V.2.4.,.V.x.m.g.2.q.4.r.N.].=X%XF.].=X|.0.2.e.b.x.q.4.P 1.I I k.H ",
"d.5.4.{.E.o._ { / s / 0._ E G.o.r./ k 8 q.V ] / ~ / } v.0.0.x.g.T d.$.T 3.4.q.V.2.G.n.oX.XOX`.}.=XXX;X$XD $XA.5.4.I $.3.] J %.6.( ",
"z.R.D S.V.' w.E E T.c } T.e.~ } z 2.x.( 2 h } c E O.} o.2.A.k 4.~.8 @ l l T D } ] I.o.4.B.^.`.XX{.{.+X&Xe.^ / / 5.,.g.>.T F <.~.I ",
"T.Q.~ K F./ _ 0.w.R.I.x.V.v.o.G.c 0.n.l V.5.Z.b.T.|.|.XXE.5.y.P %.<.K K K s C x.) x.p.Z.4.5.d.` S g E _ C c.V K T N.>.K V ~ 0.[.2.",
"U.E.=XV.' S E c _ R.E z.G.K.b.X.o.w.z.Z.1.T z._ W ] T ] H r [ 2 V t 0 P - z > 0 S C P %.[ g.<.' W O ~ P H / f ] ] <.$.P p d $ =Xr.",
"Z.x.K.Q.I.n.i / ` }.O.e.e.N  .b._ } J.c 4.5.y v l 3.l # v K ^ ~ e.~ ~ + {.~ l F G I l F n 1 K v 2., H <.1.q.} >.0 ] C F A C v @XN."
};
