/* XPM */
static char *af01c4a5598d41bfff806fbb7f7e767c0i3T7DSXdtukfvsK[] = {
/* columns rows colors chars-per-pixel */
"64 64 31 1 ",
"  c black",
". c #00003A",
"X c #3A3A3A",
"o c #660000",
"O c #66003A",
"+ c #3A0066",
"@ c #660066",
"# c gray40",
"$ c #903A00",
"% c #903A3A",
"& c #B66600",
"* c #B97A57",
"= c #22B14C",
"- c #DB903A",
"; c #FFB666",
": c #003A90",
"> c #3A3A90",
", c #0066B6",
"< c #3A90DB",
"1 c #66B6FF",
"2 c #90B690",
"3 c #B6FFB6",
"4 c #FFDB90",
"5 c #DBFFB6",
"6 c #FFFFB6",
"7 c #90DBFF",
"8 c #B6FFFF",
"9 c #DBFFDB",
"0 c #FFFFDB",
"q c #DBFFFF",
"w c white",
/* pixels */
"                                                                ",
"                                                                ",
"                                                                ",
"   wwwwwwwwwwwwwwwwwwwwwwwwwwwwwwww==========================   ",
"   wwwwwwwwwwwwwwwwwwwwwwwwwwwwwwww==========================   ",
"   wwwwwwwwwwwwwwwwwwwwwwwwwwwwwwww==========================   ",
"   wwwwwwwwwwwwwwwwwwwwwwwwwwwwwwww==========================   ",
"   wwwwwwwwwwwwwwwwwwwwwwwwwwwwwwww==========================   ",
"   wwwwwwwwwwwwwwwwwwwwwwwwwwwwwwww=====wwwwwwwwwwwwwwww=====   ",
"   wwwwwwwwwwwwwwwwwwwwwwwwwwwwwwww=====wwwwwwwwwwwwwwww=====   ",
"   wwwwwwwwwwwwwwwwwwwwwwwwwwwwwwww=====wwwwwwwwwwwwwwww=====   ",
"   wwwwwwwwwwwwwwwwwwwwwwwwwwwwwwww=====wwwwwwwwwwwwwwww=====   ",
"   wwwwwwwwwwwwwwwwwwwwwwwwwwwwwwww=====wwwwwwwwwwwwwwww=====   ",
"   wwwwwwwwwwwwwwwwwwwwwwwwwwwwwwww=====wwwwwwwwwwwwwwww=====   ",
"   wwwwwwwwwwwwwwwwwwwwwwwwwwwwwwww=====wwwwwwwwwwwwwwww=====   ",
"   wwwwwwwwwwwwwwwwwwwwwwwwwwwwwwww=====wwwwwwwwwwwwwwww=====   ",
"   wwwwwwwwwwwwwwwwwwwwwwwwwwwwwwww=====wwwwwwwwwwwwwwww=====   ",
"   wwwwwwwwwwwwwwwwwwwwwwwwwwwwwwww=====wwwwwwwwwwwwwwww=====   ",
"   wwwwwwwwwwwwwwwwwwwwwwwwwwwwwwww=====wwwwwwwwwwwwwwww=====   ",
"   wwwwwwwwwwwwwwwwwwwwwwwwwwwwwwww=====wwwwwwwwwwwwwwww=====   ",
"   wwwwwwwwwwwwwwwwwwwwwwwwwwwwwwww==========================   ",
"   wwwwwwwwwwwwwwwwwwwwwwwwwwwwwwww==========================   ",
"   wwwwwwwwwwwwwwwwwwwwwwwwwwwwwwww==========================   ",
"   wwwwwwwwwwwwwwwwwwwwwwwwwwwwwwww==========================   ",
"   wwwwwwwwwwwwwwwwwwwwwwwwwwwwwwww==========================   ",
"   wwwwwwwwwwwwwwwwwwwwwwwwwwwwwwwwwwwwwwwwwwwwwwwwwwwwwwwwww   ",
"   wwwwwwwwwwwwwwwwwwwwwwwwwwwwwwwwwwwwwwwwwwwwwwwwwwwwwwwwww   ",
"   wwwwwwwwwwwwwwwwwwww&,www; <www&,wwwwwwwwwwwwwwwwwwwwwwwww   ",
"   wwwwwwwwwwwwwwwwwwww-:qww&#,ww0$<wwwwwwwwwwwwwwwwwwwwwwwww   ",
"   wwwwwwwwwwwwwwwwwwww4+8w6@3@8w6O7wwwwwwwwwwwwwwwwwwwwwwwww   ",
"   wwwwwwwwwwwwwwwwwwww6o1w4>9%7w;:qwwwwwwwwwwwwwwwwwwwwwwwww   ",
"   wwwwwwwwwwwwwwwwwwwww&<w-<w-<w-,wwwwwwwwwwwwwwwwwwwwwwwwww   ",
"   wwwwwwwwwwwwwwwwwwwww;,w&1w;:q&1wwwwwwwwwwwwwwwwwwwwwwwwww   ",
"   wwwwwwwwwwwwwwwwwwwww4>5@8w6@3@8wwwwwwwwwwwwwwwwwwwwwwwwww   ",
"   wwwwwwwwwwwwwwwwwwwww0%2>qw0%2>qwwwwwwwwwwwwwwwwwwwwwwwwww   ",
"   *********************w&X<www-#<wwwwwwwwwwwwwwwwwwwwwwwwwww   ",
"   *********************w;.7www; 1wwwwwwwwwwwwwwwwwwwwwwwwwww   ",
"   *********************wwwwwwwwwwwwwwwwwwwwwwwwwwwwwwwwwwwww   ",
"   *********************wwwwwwwwwwwwwwwwwwwwwwwwwwwwwwwwwwwww   ",
"   *********************wwwwwwwwwwwwwwwwwwwwwwwwwwwwwwwwwwwww   ",
"   *****wwwwwwwwwww*****wwwwwwwwwwwwwwwwwwwwwwwwwwwwwwwwwwwww   ",
"   *****wwwwwwwwwww*****wwwwwwwwwwwwwwwwwwwwwwwwwwwwwwwwwwwww   ",
"   *****wwwwwwwwwww*****wwwwwwwwwwwwwwwwwwwwwwwwwwwwwwwwwwwww   ",
"   *****wwwwwwwwwww*****wwwwwwwwwwwwwwwwwwwwwwwwwwwwwwwwwwwww   ",
"   *****wwwwwwwwwww*****wwwwwwwwwwwwwwwwwwwwwwwwwwwwwwwwwwwww   ",
"   *****wwwwwwwwwww*****wwwwwwwwwwwwwwwwwwwwwwwwwwwwwwwwwwwww   ",
"   *****wwwwwwwwwww*****wwwwwwwwwwwwwwwwwwwwwwwwwwwwwwwwwwwww   ",
"   *****wwwwwwwwwww*****wwwwwwwwwwwwwwwwwwwwwwwwwwwwwwwwwwwww   ",
"   *****wwwwwwwwwww*****wwwwwwwwwwwwwwwwwwwwwwwwwwwwwwwwwwwww   ",
"   *****wwwwwwwwwww*****wwwwwwwwwwwwwwwwwwwwwwwwwwwwwwwwwwwww   ",
"   *****wwwwwwwwwww*****wwwwwwwwwwwwwwwwwwwwwwwwwwwwwwwwwwwww   ",
"   *****wwwwwwwwwww*****wwwwwwwwwwwwwwwwwwwwwwwwwwwwwwwwwwwww   ",
"   *****wwwwwwwwwww*****wwwwwwwwwwwwwwwwwwwwwwwwwwwwwwwwwwwww   ",
"   *****wwwwwwwwwww*****wwwwwwwwwwwwwwwwwwwwwwwwwwwwwwwwwwwww   ",
"   *****wwwwwwwwwww*****wwwwwwwwwwwwwwwwwwwwwwwwwwwwwwwwwwwww   ",
"   *****wwwwwwwwwww*****wwwwwwwwwwwwwwwwwwwwwwwwwwwwwwwwwwwww   ",
"   *********************wwwwwwwwwwwwwwwwwwwwwwwwwwwwwwwwwwwww   ",
"   *********************wwwwwwwwwwwwwwwwwwwwwwwwwwwwwwwwwwwww   ",
"   *********************wwwwwwwwwwwwwwwwwwwwwwwwwwwwwwwwwwwww   ",
"   *********************wwwwwwwwwwwwwwwwwwwwwwwwwwwwwwwwwwwww   ",
"   *********************wwwwwwwwwwwwwwwwwwwwwwwwwwwwwwwwwwwww   ",
"                                                                ",
"                                                                ",
"                                                                "
};
