/* XPM */
static char *a9d3258a1ff64246f4266e51f281ac58FxJhk18NvKshD0Pa[] = {
/* columns rows colors chars-per-pixel */
"65 65 250 2 ",
"   c #0B0200",
".  c #140100",
"X  c #1A0503",
"o  c #1E1812",
"O  c #2A0200",
"+  c #250A05",
"@  c #2C0B04",
"#  c #330400",
"$  c #330C05",
"%  c #390A05",
"&  c #22140E",
"*  c #2B130C",
"=  c #33140C",
"-  c #38150A",
";  c #3A130C",
":  c #271813",
">  c #2D1A13",
",  c #331611",
"<  c #341C15",
"1  c #371C17",
"2  c #3C1C15",
"3  c #2C221E",
"4  c #35231C",
"5  c #3B251A",
"6  c #3C231C",
"7  c #2E2824",
"8  c #362824",
"9  c #342A24",
"0  c #3C2A23",
"q  c #3A2E29",
"w  c #37322F",
"e  c #3C322C",
"r  c #3D3631",
"t  c #3E3A36",
"y  c #480C04",
"u  c #510B00",
"i  c #47150A",
"p  c #551909",
"a  c #441C13",
"s  c #4B1D13",
"d  c #481C17",
"f  c #541D12",
"g  c #5A1D14",
"h  c #5A230E",
"j  c #4C2217",
"k  c #44251C",
"l  c #4A261B",
"z  c #4B241C",
"x  c #44291E",
"c  c #532415",
"v  c #5B2413",
"b  c #52251B",
"n  c #5B251B",
"m  c #542A1D",
"M  c #5C2B19",
"N  c #5C301E",
"B  c #622B15",
"V  c #632A17",
"C  c #66331D",
"Z  c #422722",
"A  c #442C24",
"S  c #4B2B26",
"D  c #4B2C24",
"F  c #432E29",
"G  c #532D24",
"H  c #5B2C23",
"J  c #44332D",
"K  c #4C332B",
"L  c #4B3429",
"P  c #533225",
"I  c #5C3224",
"U  c #53342C",
"Y  c #5B342B",
"T  c #53392F",
"R  c #5B3A2D",
"E  c #453632",
"W  c #4C3631",
"Q  c #443A34",
"!  c #4C3B34",
"~  c #453E39",
"^  c #4A3D39",
"/  c #523631",
"(  c #5C3730",
")  c #543C34",
"_  c #5B3C34",
"`  c #533E39",
"'  c #5B3F39",
"]  c #622D22",
"[  c #653424",
"{  c #6A3725",
"}  c #63362B",
"|  c #643A2C",
" . c #6A3C2B",
".. c #633C33",
"X. c #6A3B32",
"o. c #713E30",
"O. c #3E403D",
"+. c #47433C",
"@. c #4C423D",
"#. c #5C4036",
"$. c #54433C",
"%. c #58463C",
"&. c #5C443C",
"*. c #634234",
"=. c #6C4435",
"-. c #63453C",
";. c #6A453B",
":. c #63493E",
">. c #6C4A3D",
",. c #724732",
"<. c #744535",
"1. c #7B4737",
"2. c #72453B",
"3. c #744B3D",
"4. c #7A4C3C",
"5. c #4C4641",
"6. c #4E4943",
"7. c #4B4A47",
"8. c #544641",
"9. c #5B4641",
"0. c #544A44",
"q. c #5C4B44",
"w. c #554E49",
"e. c #5C4E49",
"r. c #4C504D",
"t. c #5B5047",
"y. c #54524C",
"u. c #5C524C",
"i. c #555551",
"p. c #5D5652",
"a. c #5D5A54",
"s. c #5E5D59",
"d. c #624641",
"f. c #634C44",
"g. c #6B4D44",
"h. c #6A4D46",
"j. c #624E49",
"k. c #734E42",
"l. c #7A4F45",
"z. c #655146",
"x. c #6B5146",
"c. c #63534C",
"v. c #6B544C",
"b. c #63594E",
"n. c #6B594E",
"m. c #735345",
"M. c #7B5344",
"N. c #765846",
"B. c #73544B",
"V. c #7A564B",
"C. c #735A4D",
"Z. c #7B5A4D",
"A. c #645651",
"S. c #6A5651",
"D. c #645A54",
"F. c #6B5B54",
"G. c #645D59",
"H. c #6B5E59",
"J. c #735651",
"K. c #735C54",
"L. c #7B5D53",
"P. c #735F59",
"I. c #5E615D",
"U. c #7D604F",
"Y. c #6E6055",
"T. c #65615C",
"R. c #6C625C",
"E. c #746256",
"W. c #7C6155",
"Q. c #73635B",
"!. c #7B655B",
"~. c #76685F",
"^. c #7C695D",
"/. c #656461",
"(. c #6C6561",
"). c #6D6A64",
"_. c #6D6C6A",
"`. c #736661",
"'. c #7A6660",
"]. c #736A63",
"[. c #7A6C63",
"{. c #736E6A",
"}. c #796E6A",
"|. c #7C7166",
" X c #74726D",
".X c #7B726C",
"XX c #7C796F",
"oX c #6F7373",
"OX c #737472",
"+X c #7B7673",
"@X c #7C7974",
"#X c #7C7D7A",
"$X c #814D40",
"%X c #855648",
"&X c #825B4C",
"*X c #855E52",
"=X c #846354",
"-X c #896455",
";X c #82655B",
":X c #846A5C",
">X c #8A6B5D",
",X c #836D63",
"<X c #8A6D62",
"1X c #837166",
"2X c #8B7264",
"3X c #83736B",
"4X c #8B756A",
"5X c #85796F",
"6X c #8E796D",
"7X c #937265",
"8X c #937B6D",
"9X c #99786B",
"0X c #827671",
"qX c #847B74",
"wX c #8B7C73",
"eX c #837D79",
"rX c #947E73",
"tX c #9A7F73",
"yX c #A17A6E",
"uX c #7F817E",
"iX c #8E8073",
"pX c #85827B",
"aX c #8C837C",
"sX c #948275",
"dX c #94867C",
"fX c #9A877C",
"gX c #A78677",
"hX c #7E8181",
"jX c #8B8682",
"kX c #888A87",
"lX c #8C8984",
"zX c #918B87",
"xX c #958C84",
"cX c #9A8D84",
"vX c #8E908A",
"bX c #979188",
"nX c #9B948C",
"mX c #9D9993",
"MX c #9B9994",
"NX c #A3968B",
"BX c #A39C94",
"VX c #A79E96",
"CX c #A8A299",
"ZX c #B4A99F",
"AX c #ABABA6",
"SX c #B4ACA4",
"DX c #B7B2AA",
"FX c #B8B6B2",
"GX c #C0B8B0",
"HX c #C5C6C3",
/* pixels */
"^.v.q z Y *.*.u.U s.e.Q 0 3 q r 6.@.0 : r @.E ! ! 0 < u.w.e ^ ^ D T ) L / F.pXqX|.) t.d.$.L.v.~ v.*.x.c.~ ! a P .Xj.K X @ , X @.:.",
"e.F.F.) c [ B c.W.k.d.p.5.e q 8 o Q < < + 8 0 4 < L ! s.Q 0 4 4 J A k &.-.F.c.}.&.K 8.@.) X.] n b.; ! @.0.z.# m R.W L y.R.A.y.+.0.",
"].Y.E.Q R *.Y Y.L $.5 0.6.^ * 8 $.;..X{..X^ u.H.eXF.f.8.> 2 8.W 0.s.p.U I Z.c.Y y y f ( ..n n I [  XK.H.&.,XR.~.E.K.e D < 4 +.! :X",
"x 2 6 8 [.R.D.bXD.1X'.^.u.D.z.$.7.+.~.R.F.5XcXZXDXjX_ k.;.q.R..XSXSXCXcXjXe.c..Xg.q.A.) u.T #.d.-.w.%.n.q.R.(.C..X5X@X).! 0 : 8 %.",
"6 5 = =  XAXBXbXbX^.SXVXiX%.v.J A.Q.L.B.$.qXCXmXNXCX) b G R.>.D.CXCXVXVXZXqXZ.%X4.3.8X7XL.~ _ f.j.k k $ ; E.8Xq.CXdXfXcXp.z.e.8 %.",
"E.F.K qXNXcX^.|.CX^ %.A.A.e.g.L ` 8.@.%.K aXcXSXDXSX.X[.Q.d.U B.'.BXSXSXGXaX%X-X&XL.~.e.p.*.K.-.&.g.6 @.e.z.) vXNXpXBXsXwXz.@.7 0 ",
"D.f.%.1X4XU.<X8XE.q @ @ J ! S a $ ) ;.*.&.|.^.!.'.6X^.R.!.P.d.` A.|.3X5X[.T.M.=.v.c.Q.R./.g.) ( g.G *.[.:X,X:.MXmXnXAXNXbXi.R T n.",
"^ q.b.L $.^ q.c.&.$.c.F.B.V.L.Z R.d.R x...L ` (.3X| } / Q.!.z.:.H.6 # D eXn.v.}.F.Q.}.c.#.j.H.(.^.@X+XT.5.R.s.5XR.@XT.e t.).8 R.F.",
"MXc...R H H D @.W ) @.B.} x.Y n / ] g [ n H ] F.d.p.` _ R ..d.(.(.` / c.F.e.8.b.F e.$.9XyX;Xg.d.C.@XSXMXkX|.aXL.NXA.+.c.c.@.<XQ 8 ",
"iXzXw.8 : 7 0.H.E.z.!.8._ &.T &.e.$.$.F.z.$.D.D.C.eXS 2 i i c G.f.` n.-.D T.-.` J 5XgX7XfX9X( H.:.BXHX>XFXp.t.sXNX1X$.^ e 7 5.O.~ ",
"bXDX].X   . K.M.k.Y.;XV.3.) #XVXBXFX0..XF.q.) A.G j @Xe.g.n.g.j.c.H.e.H.| ..2.B.} 3XgXfXfXfX<Xj.! D.F.(.pXu.-XF.R.+.J F e r 3Xi.Q ",
"D.%.t.$.0 K ].f.$.H.c.q.^ w.4X8X6XfXE.-X2X<X9.;.} m R b }.xX-X%X*X! . ) p 1.aXo.B n.4X,X,X,X[.5.2 = , $.m W 4X$.$.q $.W 0 eXbX_.8 ",
"A.z.c.v.b.!.Q.Q 7X=.>.%XB.wX>X>X&X[...Y X.| $.-.>.Y ;.d.zXfX3.%X%X9X#X_ u M 1.M.f R !.;XK.}.g.2.c.2X;X>. X>.L.L.y.L %.~.w AXCX#XS ",
"n.^.t.:.-.u.Z.0.q.c.c.f.$.x.b.T T q.E.Q.E.R.F.-._ }.1X1X~.K.K.>Xm.!.].$.$.e.F %.x.e.a.c.K $.x.q.5X-XM.9Xe.:._ D $.y.^ @.t $.6.r.Q ",
"j P Y 8.CXfXdXsX~.fXqXl p y {.) j.' $.Q.3.=X7X,XR.[.;XK.'.c.n.9.e.-.*.L.f.K !   ; G.M.D.K / 0.G.1X;X4Xn.w.z.R.n.~ >.;.r 8 6 > = + ",
"q.b a j xXwX6X4XF.[.6Xw.`.H.^.sXnXnXE.A.B.L.-.f.5X7X7X`.n i p [ ].}.,Xu.3XF.g.wX`.g.C n.-.q.nXFXOXa P W U ) ) ^ U S w dXaXs.A.%.~ ",
"J ) #.J (.1XE.wX[.F.E.w.V.V.d.%XrXmXcXA.4.g ` ].rXtXV.A.v.K.'.].R.&XM.K.`.' ` g.$.L. .m.j.n.jXnXaXH.g.8.$.t.0.G.L Z |.cXsXR.~ 0.5.",
"A.x D x W dX^.sX1XJ.c.F.d.$.`.d.v.[.}.(.-.d.0.M.Z.&X>Xw.M.1.%X`.Z.;.3.%XJ.].8.K }.;X>X3..XZ.6XwX[.D.K.G.( -.e.t.b..XxXQ.1XdXw.r -X",
"y., < ) J @X[.6XF.n.$.e.A.&X*X9X1XF.-X=X-X=.9.B.-X>X<Xe.x.K.g.F.<.l.*X<.$XF._ ) f.q.( W 8.q E ~ c.g.:.$.t.R.5.O O * E.|.[.3X3X$.C.",
"cXNXe.k k k Q w.J H.>.;.z.0.A.^ 0.g._ D ) F.3XF.K $.S.P.H.R.~.}.F.S.d.F.g.t.S.z.z.].H.j.].r @.w.].n.q.q.+Xc.e.jXaXqXy.%.q.&.c.t 6.",
"%.$.u.Q u.@.g.&.n.0.g.z.(.F.M.-X0.k $ y ) D.b.c.S.wX_ 2 L f.j.F.z.g.J.S.f.T e.wX).;XI g.X.L.}.z k L D.`.&.) u.rXsX6X$.> 4 8 > Q q ",
"a.^.=X-X<Xa.$.U e.0.C.F.q.k.4.Z.q.R.q.t.Y U G A.rXfXG.F.P.V.Q.3XP.R.`.}.dX(.H.mXxXg.v.u.D.F.{.q.A.u.[ g u b.@XnX5X1Xu.q.6 Q [.t.T.",
"z.:XL.=X| B._ Y.C.>X2XH.4.g.x.m.W.u.6 0.z < S $.tXNX[.$.9.U U _ f.].H.F.K.G.qXnXnXqXH s d D ) z.-.D.c M.f D.aXcXxX<X#.a.y.8 : 4 +.",
"g.C.V.4.A.9.y.e.W %.^ d.=.m.d.U.sXw.|.'.'.f.L 5X4XcX2X/ n i q.;.g...) ^ J eXmXCXBXwXb b m 2 A d.s $.$.s % Y.W.^.~.n.P $.t +.+.+.6.",
"u.c.D.j.D.f Y ; s w.V.x.` 0 w.@X@XeX$.S &.D.g.f.) v.(.c.@.c.(.R.F.E.D.F.A._ z.q.j.b.).G.#X;XB.-.#X, J p.Z A g.e.j P _ ~ s i j D $.",
"A.Y.E.n.T.j @ 2 < D.L > , 0 ).kXvX}.` T q.e.d.k k &.A.H.'.W.k.B.S.zX1Xk.x.}.F.x.`./ H -.+X2.p % g.* $./.g.n.d.A.8.A.$.J r #XI.b.%.",
"&.L a._ G L Q _ ..R c.b.F.x a A d.G R R Y D.p.W G c f H x.k.2.%Xg.qX!.} I !.G B.].Z U S (.k.M.| # T.F.R T ) q...O a.* @ 6 :X9X6.9.",
"u.c.e.q.$.$.T p v { B 8.u.-.T g.d.c a ' T.;.B.B.A.H.t.D..X&.d.&.R.m.*.v } Z Y ) U j.wX@X].v.J._ K.A :.R.G.`.}.E.R.Q.K.R.F.>X7X0.< ",
"R.).~.^.4Xc.p M p [ p p q.H n ..R f i y G.*.L.H G E.g.!.B.[.].v.!.F.B.x.v.%.! ) &.D.P.~.>.:.E.) _ _ ;.! e.-.q.q.A..X&.0.fX8X2XE.$.",
"0.c.u.t.T.6.c G I m Y c J / %.w.z.T _ _ ..;.;.| &.H.n.c.z.u.'...] R.V.2.X.x.cX6X#X6 < 0 ) _.3X4X+X|.`.F.g.&.@X| M B e.k f.y.R.D.5.",
"0.0.f._ l $.W.| f E b.z.T U v.l L R &.&.K.g...;./ F.&.) J @.9.-./ ~.F.B...G.2.{ F.* < 4 r <X4X<X^.].A.) z.z.j.h ,.{ T.) &.w.%.$.6.",
"u.! jX).T.%.9.{.F.q.S.d.G.D.A.3XA.V.X.3.L.Q.'.4XwX0X*.,X!.wX$.2 ; S.L.z.).z.>.| B.OX_ K.r fXl.>X1X(.i 2 D `.;.B C c D.&X&XM.4.r.:X",
"_ vXvXlXXXw.! w.c.q.$.! H.D.0. .k.c.x.v.F.D.D.H.q.c.&.d.V.1X`.q.8.e.` j.A.;. .[ v &.` W ! 8.` &.q.w e ! c.A.W T c.$. XA.T.A.r.U.6X",
"t.bXpXeX@Xy.S k 6 k ^ R.x.j.E. .4.G.g.B.....$.; O l J ,X,X>X).g.S < k > 0.&.-.:.S.K ^ A F > r q : o 3 s.k i # p F.[.|.^.R.g.c.8X,X",
"u.xXaX~.lXJ K k , z ) >.C.H.>.[ C.3X-.;.l.L.u.+X].).F.:.!.v.K.g.e.z.G.Z.1.f.B.V.&XB.q.a # ) T #.G T d.e.R.j.$.J ! t.{.F L Q 7X1X:X",
"(.s.q.8.0.5.y.5.(.R.G.$.^ q.W c.$.W E 0.t.$.t.t.9.e.:.:.z.x.v.n.H.-.j.<.C B c.R.q.Q @.8.R.$.q.A. X XcXdXdXH.8.0.9.9.D.%.c.5.F.R.A.",
"j.b.&.L R.C._ v.s.A.0.S ) -.A a.F ^ < ! L.m.;X4XG.K.3X}.aXG...; d a $.{ B C P `.J.c.v.T _.` Z L `.aXpX`..Xu.1X.Xs...;.c.M.>.R :.@.",
"$.+.s.l `.N.) R.J A 8.u./ y.0 2 %.g.x.~ K.:.4Xt.z.F.}.lXnXq.8.J F A $.-.P R G /.F.$.$.w.R.t.R.T.A.`.].3XwXG.@.(.v.b.G.R.{.e.D.w.u.",
"4 7 7.Q e.A 6 G.! 8 Q p.J c.W Q u.u.! 8.).u.p.q.1XvX5X3XbX6 + D ).K.R.$.D S O x #.%.q.t.$.0 J F b.D.aX].].p.@ R.#.u.^.1Xw.a _ I s ",
"u.D.@.* X O oXkXhXOXe.p.p.| d.+X9X7X}.d.z ] 2.[.kXeXR.F.F.e.8.q.q.<.q.l k @XAX{./ f.&.( F.D.@.L ) 0.q u.8 #.t.!.A.c.x.E.c.0.J Q r ",
"p.e.w.k x 6 > 6.j.!.H.Z...e.T.4X7X&XA.g.*.d.g.G.*X%X!.~.g.d.rXc.K.I k.v.R.nXBXkX` #.8.q.$.W p.t.$.^ $.5.^ @.a.u.5.x.m.m.b.8 > e r ",
"p.5.5.: e Q 3 8.K c.D.| H E Z.>X7XZ.p.k.l.*X}.K.k.3.M.`.e.8.A A.-XZ.M.{.B.aXfX4XD.J.e.d &.p.$.P b U L z._ #.; 5 J R ) q.w.a.@.q.+.",
"q.U ! D.!.<X8X|.D.4X6X2XL.8.m.&X:XtXe.L.L.Z.H.3.;.%X%X3.`./ W R.n.g.) F.q.z.D.R.R.g.p.n.E.@.L A k i.r.0.e.p.T.A.R./.vXs.< 6 6 J J ",
"t.*.-.K.C.g.-.b.R.z.K 9.x.(.c._ ) d.A.&.x.x.F.f.x.x.d.B.F.g.Y Y G.g.) D.: : 7 q.Y R D R.8.) t.q.0.p.-.R #.y.D.T.T.y.{.6.8 8 @.= . ",
"A.q.%.u.w.Q.Q.8.j # u s &.v.C.$.+XL.G d.F.F.3XK.J.B.S.d.R D.qX X,Xd.Q.g.}.qXK.z.H.R.#Xt.) D.wXfXfX@.k &.v.! +.e w 7.0.q.w.p.s.J @.",
"$.*X:XA.Z.<.M.t.p.$.` d.S.z.(.wXtX0.c.A.K.R.}.R.u.G..XqXG.c.dXeX*.2.-.-.-.].F J A -.n H D.{.nX,X3XA.$.= U ! o : X R.W.C.5Xi...| :.",
"R.E.y.k.g.m.m.B.c.L w.i = s 6 8XBX'.U S.H H ..U ].~.c.;XD.].nXnX.Xj._ %.v.R.F.E. Xn o.g D.qXcXxX:X$.t.8.r +.y.p.+.>XC.-X1.F.q.u.F.",
"k.;.g.1.m.f.Z.2Xy.b.F.Q.&.) .XsXxX8X8.H U e.d.'.J.d.e.E .XxXCXMXaXu ; s $ # G p T ) M y D.<XdXdX<X[ t.7.J J t.u.%.W.Z.M.g.&.) c.-.",
"0.A.H.%.&.$.c..Xp.D.q.c.A.$.Q.F.,XK.) a k A.x.&.( ` c.j.].3X.XqX~.D.S.F.j.~.}.T.F ~ w.J $.E.w.D K ) ~ k U 5 L @.e.:.f.=.A.R d.k k ",
"q.2.2 , @ (.AXAXAXW d ..$.| G j &.R.H..X[.K.`.}.nXwXk.c.' A.j.j.c.&.j.jXl.f % .X$ A T.j Y b F.8.f.g.@.W c.q.%.! A.|.3X'.D.n $ i a ",
"u.5.! J F S 0 g.D _ R ..p.s.S a N | -.g.B.o.M.;..X[.k.| 1X} 1.].O i s A.m.} f % p.R.%.q.A.D.Y # %.+ $ * [.3Xw.z.c.) y.$.9.A F @.0.",
"B { p.(.d.$.F.q.U K j.b.S.J.v.F.j.A &.].&.;.V.j.,XV.v I e.9.c.j.R.0XOXOX:.x.:.U < $.n.c.A.}.!.$._.R.@.%.<X8Xe.2 $.%.u.q.) / E p B ",
"[ p c u.H f } *.p y y /...K.I Y E.g.!.L.Q.}.A.eXg._ ;.f.2 ; ; G ) ,XQ.M.V.>X-.L.k.3.) q.*.-.d.&.W.| e.4X-X7XA.^ R.(.n.x.^.c.I M v ",
"h f u ! D Y $.$.a z i / ;.g.Y U (.H.G.c.`.F.Y ] (.W.3.;.!.jXeXOXq.J 8.t.(.(.F.c.G.{.@X{.R.uXn.#.x.a.@.[. XR.].J p.`.D.~.].t.y i h ",
") b.j.( S S._ ' l.g.f.K.3.=.3.-.c.=.*._ q d._ j '.W.m.| c.;X<.].@ + + < Q.8X<X,Xn.j.a j a 8.h ,.C t.i P @.z.9.y.0.t.z.>.%.8.W.k.Y ",
"W R.c.w.c.H.F.8.&.#.g.K.F.K.n.F..Xz.D.F.'.F.' ` c.P.Q.F.A.2.[ B.T.W F.5.4XL.:X,X@Xl / f.eXx.v { B G.W.!.F.k.r.n.@.6 T.) T $.q.e.q.",
"S.&.L D.~.$.3.>.!.k.>.B.b.F.5XqXR.Y K.L.dXb.A W H.-.%.R.g.*.[ ] c.x.c.Q 1Xk.&X;Xw.K A ! G.d.m I A T.c.z.x.z.q.9Xz.#XmXlXpX) $.).H.",
"A $.A.g.&.R. .3.w.u.P.-.x.A.d O z 9.K.B.=X].F.d 2 S 0 y.=.I m I l : @ 6 + : 3 X     +._ z % Y R.[.wX!._.K.6.8X8X$.lXpXpX@Xs.T L k ",
"k J K.E.(.g.[ m.|.d.g.k.L.e.c.9.b.e.R..XE.`.S.9.^ $.9.*.u.Q.;X;Xg.+X) z $.f.&.-.%.v.b.8.( L k u.D.`.A.@.Q =X4X:Xw.mXaX[.jXQ T < 6 ",
"J A.q.8.D.%.:.].].0.%.d.W 6.D.c.p.>.<.&Xk.>.;.H.;.c.4. .{ z.E.Y.u.! A F ! c.D.t.e.5X.XwXH.) ! 2 ! {.= P +.W.F.E.A.R.R.u.D.t 8.@.! ",
"aX@.D K &.A 0.@ < O E Q.x.B.,X(.B.~.a.a.T.j./ / L 0.{ B B #.Q...` g.&.@X8.a T (.qXdXqXqXD.Q.].OXg.>.].L.f.f.E.u.(.p.;.G G.F.f.U ).",
"Q a.e.$.w.F ^ A.F.H.w.L.x.,XQ.f.F.'.aXCX$.L $ = % F =.M N m _.{.A.8.) ).8.D.p.H.3X.XE.5XT.R.{.D.q.t.t.F.c.z.$.y.@.0.y.T (.C.) .X@.",
"@ F w.k i.8 * $.q.K 8 (.j.~.@.K.qXqX0XnXq.) e.c.e.c.W D _ % J ..P ;.w.9.` ! ! D.F.3XaXwXp.O D.&.b.].4X(.j _ #.l @.5.T.A R.*.- p.5 ",
"jXu.G.a.=.<.M.K.F < 0 < @.p.F.jXlX`.'.[.~ 7 @.@.$.) @.8.8.) c.5.D.q.q.b.@.J ^ e.p.u.y.+.c.@..Xe.u.C.!.u.^ $.) F Q t Q * * O /.vXvX",
"t.t.w.$.$.9.q.%.F < = $ q @.|.lXqXqXd.8.& . + . b.K @.x A U ^ 5 _ T -.g.D $.x k e F 8.q ^ w.q.5.f.x.z.c.8 , 4 8 e.u.p.T 6 0 Q i.t."
};
